<?xml version="1.0" encoding="UTF-8" standalone="no"?>
<!-- Created with Inkscape (http://www.inkscape.org/) -->

<svg
   xmlns:dc="http://purl.org/dc/elements/1.1/"
   xmlns:cc="http://creativecommons.org/ns#"
   xmlns:rdf="http://www.w3.org/1999/02/22-rdf-syntax-ns#"
   xmlns:svg="http://www.w3.org/2000/svg"
   xmlns="http://www.w3.org/2000/svg"
   xmlns:sodipodi="http://sodipodi.sourceforge.net/DTD/sodipodi-0.dtd"
   xmlns:inkscape="http://www.inkscape.org/namespaces/inkscape"
   width="744.09448819"
   height="1052.3622047"
   id="svg2"
   version="1.1"
   inkscape:version="0.48.4 r9939"
   sodipodi:docname="organizer_icons.svg">
  <defs
     id="defs4" />
  <sodipodi:namedview
     id="base"
     pagecolor="#ffffff"
     bordercolor="#666666"
     borderopacity="1.0"
     inkscape:pageopacity="0.0"
     inkscape:pageshadow="2"
     inkscape:zoom="0.85839035"
     inkscape:cx="443.55675"
     inkscape:cy="188.31125"
     inkscape:document-units="px"
     inkscape:current-layer="layer1"
     showgrid="false"
     inkscape:window-width="1280"
     inkscape:window-height="737"
     inkscape:window-x="-8"
     inkscape:window-y="-8"
     inkscape:window-maximized="1" />
  <metadata
     id="metadata7">
    <rdf:RDF>
      <cc:Work
         rdf:about="">
        <dc:format>image/svg+xml</dc:format>
        <dc:type
           rdf:resource="http://purl.org/dc/dcmitype/StillImage" />
        <dc:title />
      </cc:Work>
    </rdf:RDF>
  </metadata>
  <g
     inkscape:label="Layer 1"
     inkscape:groupmode="layer"
     id="layer1">
    <g
       style="font-size:168.35314940999999000px;font-style:normal;font-variant:normal;font-weight:normal;font-stretch:normal;line-height:125%;letter-spacing:0px;word-spacing:0px;fill:#228c25;fill-opacity:1;stroke:none;font-family:Arial Narrow;-inkscape-font-specification:Sans"
       id="text3802">
      <path
         d="m 56.1124,129.73871 0,-87.300316 10.93309,0 0,12.412756 c 2.630496,-4.822536 5.850137,-8.425794 9.658933,-10.809784 3.808738,-2.383819 8.179229,-3.575771 13.111488,-3.575861 3.836126,9e-5 7.384581,0.753623 10.645379,2.260602 3.26069,1.507153 5.8912,3.480039 7.89155,5.918665 2.00023,2.438788 3.49359,5.603627 4.4801,9.494526 0.98638,3.891042 1.4796,9.864504 1.47967,17.920403 l 0,53.679009 -12.16615,0 0,-53.103583 c -5e-5,-6.411828 -0.54807,-11.097433 -1.64407,-14.05683 -1.096101,-2.959263 -2.808676,-5.247263 -5.13773,-6.864008 -2.32915,-1.616597 -5.028169,-2.424932 -8.097063,-2.425009 -5.809095,7.7e-5 -10.439898,2.164772 -13.892423,6.494092 -3.452578,4.329459 -5.178853,11.755185 -5.178832,22.277198 l 0,47.67814 z"
         style="fill:#228c25;fill-opacity:1"
         id="path3857" />
    </g>
    <g
       style="font-size:171.08500671px;font-style:normal;font-variant:normal;font-weight:normal;font-stretch:normal;line-height:125%;letter-spacing:0px;word-spacing:0px;fill:#228c25;fill-opacity:1;stroke:none;font-family:Arial Narrow;-inkscape-font-specification:Sans"
       id="text3806">
      <path
         d="m 269.40963,132.79375 -27.65095,-88.716935 13.03187,0 15.62153,53.129914 c 1.7821,6.014741 3.34147,11.973751 4.67811,17.877051 1.0581,-4.67809 2.56178,-10.30295 4.51103,-16.8746 l 16.20629,-54.132365 12.69772,0 -27.56741,88.716935 z"
         style=""
         id="path3854" />
    </g>
    <path
       sodipodi:type="arc"
       style="fill:none;stroke:#228c25;stroke-width:5;stroke-miterlimit:4;stroke-opacity:1;stroke-dasharray:none"
       id="path2985"
       sodipodi:cx="112.52747"
       sodipodi:cy="108.8626"
       sodipodi:rx="85.694"
       sodipodi:ry="81.36602"
       d="m 198.22147,108.8626 a 85.694,81.36602 0 1 1 -171.387997,0 85.694,81.36602 0 1 1 171.387997,0 z"
       transform="matrix(0.84976564,0,0,0.89496595,-10.621981,-10.06614)" />
    <path
       sodipodi:type="arc"
       style="fill:none;stroke:#228c25;stroke-width:5;stroke-miterlimit:4;stroke-opacity:1;stroke-dasharray:none"
       id="path2985-1"
       sodipodi:cx="112.52747"
       sodipodi:cy="108.8626"
       sodipodi:rx="85.694"
       sodipodi:ry="81.36602"
       d="m 198.22147,108.8626 a 85.694,81.36602 0 1 1 -171.387997,0 85.694,81.36602 0 1 1 171.387997,0 z"
       transform="matrix(0.84976564,0,0,0.89496595,179.37802,-10.06614)" />
    <path
       sodipodi:type="arc"
       style="fill:none;stroke:#0072c1;stroke-width:5;stroke-miterlimit:4;stroke-opacity:1;stroke-dasharray:none"
       id="path2985-0"
       sodipodi:cx="112.52747"
       sodipodi:cy="108.8626"
       sodipodi:rx="85.694"
       sodipodi:ry="81.36602"
       d="m 198.22147,108.8626 a 85.694,81.36602 0 1 1 -171.387997,0 85.694,81.36602 0 1 1 171.387997,0 z"
       transform="matrix(0.84976564,0,0,0.89496595,-10.621981,177.33707)" />
    <path
       sodipodi:type="arc"
       style="fill:none;stroke:#0072c1;stroke-width:5;stroke-miterlimit:4;stroke-opacity:1;stroke-dasharray:none"
       id="path2985-8"
       sodipodi:cx="112.52747"
       sodipodi:cy="108.8626"
       sodipodi:rx="85.694"
       sodipodi:ry="81.36602"
       d="m 198.22147,108.8626 a 85.694,81.36602 0 1 1 -171.387997,0 85.694,81.36602 0 1 1 171.387997,0 z"
       transform="matrix(0.84976564,0,0,0.89496595,179.80913,179.93386)" />
    <g
       style="font-size:135.24635315px;font-style:normal;font-variant:normal;font-weight:normal;font-stretch:normal;line-height:125%;letter-spacing:0px;word-spacing:0px;fill:#000000;fill-opacity:1;stroke:none;font-family:Arial Narrow;-inkscape-font-specification:Sans"
       id="text3810">
      <path
         d="m 95.298721,309.79561 1.320766,10.50008 c -2.685584,0.70441 -5.106984,1.05661 -7.264209,1.05661 -3.389983,0 -6.119562,-0.67139 -8.188744,-2.01417 -2.069211,-1.34277 -3.489032,-3.18083 -4.259468,-5.51419 -0.770456,-2.33334 -1.155678,-6.97803 -1.155669,-13.93407 l 0,-40.34938 -7.132132,0 0,-9.24536 7.132132,0 0,-17.36806 9.707624,-7.13213 0,24.50019 9.8397,0 0,9.24536 -9.8397,0 0,41.00976 c -1.9e-5,3.78621 0.286146,6.22962 0.858497,7.33025 0.836464,1.58492 2.399368,2.37738 4.688717,2.37737 1.100612,10e-6 2.531439,-0.15408 4.292486,-0.46226 z"
         style="fill:#0072c1"
         id="path3851" />
    </g>
    <g
       style="font-size:168.35314941px;font-style:normal;font-variant:normal;font-weight:normal;font-stretch:normal;line-height:125%;letter-spacing:0px;word-spacing:0px;fill:#0072c1;fill-opacity:1;stroke:none;font-family:Arial Narrow;-inkscape-font-specification:Sans"
       id="text3802-1">
      <path
         d="m 246.61767,321.01746 0,-87.30032 10.93309,0 0,12.41276 c 2.63049,-4.82254 5.85013,-8.4258 9.65893,-10.80979 3.80874,-2.38382 8.17923,-3.57577 13.11149,-3.57586 3.83612,9e-5 7.38458,0.75363 10.64538,2.2606 3.26069,1.50716 5.8912,3.48004 7.89155,5.91867 2.00023,2.43879 3.49359,5.60363 4.4801,9.49453 0.98638,3.89104 1.4796,9.8645 1.47967,17.9204 l 0,53.67901 -12.16615,0 0,-53.10359 c -5e-5,-6.41182 -0.54808,-11.09743 -1.64407,-14.05683 -1.0961,-2.95926 -2.80868,-5.24726 -5.13773,-6.864 -2.32915,-1.6166 -5.02817,-2.42494 -8.09707,-2.42501 -5.80909,7e-5 -10.43989,2.16477 -13.89242,6.49409 -3.45258,4.32946 -5.17885,11.75518 -5.17883,22.2772 l 0,47.67814 z"
         style="fill:#0072c1"
         id="path3848" />
    </g>
    <path
       sodipodi:type="arc"
       style="fill:none;stroke:#228c25;stroke-width:5;stroke-miterlimit:4;stroke-opacity:1;stroke-dasharray:none"
       id="path2985-17"
       sodipodi:cx="112.52747"
       sodipodi:cy="108.8626"
       sodipodi:rx="85.694"
       sodipodi:ry="81.36602"
       d="m 198.22147,108.8626 a 85.694,81.36602 0 1 1 -171.387997,0 85.694,81.36602 0 1 1 171.387997,0 z"
       transform="matrix(0.84976564,0,0,0.89496595,-10.621981,379.93386)" />
    <path
       sodipodi:type="arc"
       style="fill:none;stroke:#0072c1;stroke-width:5;stroke-miterlimit:4;stroke-opacity:1;stroke-dasharray:none"
       id="path2985-8-4"
       sodipodi:cx="112.52747"
       sodipodi:cy="108.8626"
       sodipodi:rx="85.694"
       sodipodi:ry="81.36602"
       d="m 198.22147,108.8626 a 85.694,81.36602 0 1 1 -171.387997,0 85.694,81.36602 0 1 1 171.387997,0 z"
       transform="matrix(0.84976564,0,0,0.89496595,179.37802,379.93386)" />
    <path
       sodipodi:type="arc"
       style="fill:none;stroke:#666666;stroke-width:5;stroke-miterlimit:4;stroke-opacity:1;stroke-dasharray:none"
       id="path2985-0-0"
       sodipodi:cx="112.52747"
       sodipodi:cy="108.8626"
       sodipodi:rx="85.694"
       sodipodi:ry="81.36602"
       d="m 198.22147,108.8626 a 85.694,81.36602 0 1 1 -171.387997,0 85.694,81.36602 0 1 1 171.387997,0 z"
       transform="matrix(0.84976564,0,0,0.89496595,-10.621981,577.33707)" />
    <path
       sodipodi:type="arc"
       style="fill:none;stroke:#666666;stroke-width:5;stroke-miterlimit:4;stroke-opacity:1;stroke-dasharray:none"
       id="path2985-8-9"
       sodipodi:cx="112.52747"
       sodipodi:cy="108.8626"
       sodipodi:rx="85.694"
       sodipodi:ry="81.36602"
       d="m 198.22147,108.8626 a 85.694,81.36602 0 1 1 -171.387997,0 85.694,81.36602 0 1 1 171.387997,0 z"
       transform="matrix(0.84976564,0,0,0.89496595,179.80913,579.93386)" />
    <g
       transform="translate(-1.0377548e-6,400)"
       style="font-size:135.24635315000000000px;font-style:normal;font-variant:normal;font-weight:normal;font-stretch:normal;line-height:125%;letter-spacing:0px;word-spacing:0px;fill:#666666;fill-opacity:1;stroke:none;font-family:Arial Narrow;-inkscape-font-specification:Sans"
       id="text3810-4">
      <path
         inkscape:connector-curvature="0"
         d="m 95.298721,309.79561 1.320766,10.50008 c -2.685584,0.70441 -5.106984,1.05661 -7.264209,1.05661 -3.389983,0 -6.119562,-0.67139 -8.188744,-2.01417 -2.069211,-1.34277 -3.489032,-3.18083 -4.259468,-5.51419 -0.770456,-2.33334 -1.155678,-6.97803 -1.155669,-13.93407 l 0,-40.34938 -7.132132,0 0,-9.24536 7.132132,0 0,-17.36806 9.707624,-7.13213 0,24.50019 9.8397,0 0,9.24536 -9.8397,0 0,41.00976 c -1.9e-5,3.78621 0.286146,6.22962 0.858497,7.33025 0.836464,1.58492 2.399368,2.37738 4.688717,2.37737 1.100612,10e-6 2.531439,-0.15408 4.292486,-0.46226 z"
         style="fill:#666666;fill-opacity:1"
         id="path3851-8" />
    </g>
    <g
       transform="translate(-1.0377548e-6,400)"
       style="font-size:168.35314940999999000px;font-style:normal;font-variant:normal;font-weight:normal;font-stretch:normal;line-height:125%;letter-spacing:0px;word-spacing:0px;fill:#666666;fill-opacity:1;stroke:none;font-family:Arial Narrow;-inkscape-font-specification:Sans"
       id="text3802-1-8">
      <path
         inkscape:connector-curvature="0"
         d="m 246.61767,321.01746 0,-87.30032 10.93309,0 0,12.41276 c 2.63049,-4.82254 5.85013,-8.4258 9.65893,-10.80979 3.80874,-2.38382 8.17923,-3.57577 13.11149,-3.57586 3.83612,9e-5 7.38458,0.75363 10.64538,2.2606 3.26069,1.50716 5.8912,3.48004 7.89155,5.91867 2.00023,2.43879 3.49359,5.60363 4.4801,9.49453 0.98638,3.89104 1.4796,9.8645 1.47967,17.9204 l 0,53.67901 -12.16615,0 0,-53.10359 c -5e-5,-6.41182 -0.54808,-11.09743 -1.64407,-14.05683 -1.0961,-2.95926 -2.80868,-5.24726 -5.13773,-6.864 -2.32915,-1.6166 -5.02817,-2.42494 -8.09707,-2.42501 -5.80909,7e-5 -10.43989,2.16477 -13.89242,6.49409 -3.45258,4.32946 -5.17885,11.75518 -5.17883,22.2772 l 0,47.67814 z"
         style="fill:#666666;fill-opacity:1"
         id="path3848-2" />
    </g>
    <g
       transform="translate(200,590)"
       style="font-size:171.08500671000002000px;font-style:normal;font-variant:normal;font-weight:normal;font-stretch:normal;line-height:125%;letter-spacing:0px;word-spacing:0px;fill:#666666;fill-opacity:1;stroke:none;font-family:Arial Narrow;-inkscape-font-specification:Sans"
       id="text3806-4">
      <path
         inkscape:connector-curvature="0"
         d="m 269.40963,132.79375 -27.65095,-88.716935 13.03187,0 15.62153,53.129914 c 1.7821,6.014741 3.34147,11.973751 4.67811,17.877051 1.0581,-4.67809 2.56178,-10.30295 4.51103,-16.8746 l 16.20629,-54.132365 12.69772,0 -27.56741,88.716935 z"
         id="path3854-5"
         style="fill:#666666;fill-opacity:1" />
    </g>
    <path
       sodipodi:type="arc"
       style="fill:none;stroke:#666666;stroke-width:5;stroke-miterlimit:4;stroke-opacity:1;stroke-dasharray:none"
       id="path2985-1-5"
       sodipodi:cx="112.52747"
       sodipodi:cy="108.8626"
       sodipodi:rx="85.694"
       sodipodi:ry="81.36602"
       d="m 198.22147,108.8626 a 85.694,81.36602 0 1 1 -171.387997,0 85.694,81.36602 0 1 1 171.387997,0 z"
       transform="matrix(0.84976564,0,0,0.89496595,379.37802,579.93386)" />
    <g
       style="font-size:111.82259369px;font-style:normal;font-variant:normal;font-weight:normal;font-stretch:normal;line-height:125%;letter-spacing:0px;word-spacing:0px;fill:#228c25;fill-opacity:1;stroke:none;font-family:Arial Narrow;-inkscape-font-specification:Sans"
       id="text3876">
      <path
         d="m 79.729335,519.07007 0,-70.59893 -21.621946,0 0,-9.44596 52.034631,0 0,9.44596 -21.731145,0 0,70.59893 z"
         style=""
         id="path3885" />
    </g>
    <g
       style="font-size:111.82259369px;font-style:normal;font-variant:normal;font-weight:normal;font-stretch:normal;line-height:125%;letter-spacing:0px;word-spacing:0px;fill:#0072c1;fill-opacity:1;stroke:none;font-family:Arial Narrow;-inkscape-font-specification:Sans"
       id="text3880">
      <path
         d="m 275.39467,486.81672 0,-9.39136 27.79184,-0.0546 0,29.70288 c -4.25893,4.14967 -8.66339,7.27102 -13.21341,9.36405 -4.55012,2.09303 -9.22759,3.13955 -14.03243,3.13955 -6.40653,0 -12.12142,-1.60162 -17.14467,-4.80488 -5.0233,-3.20324 -9.00006,-7.88071 -11.93029,-14.03242 -2.93026,-6.15168 -4.39538,-13.54099 -4.39537,-22.16796 -1e-5,-8.73609 1.47421,-16.3438 4.42267,-22.82316 2.94843,-6.47924 6.80689,-11.25681 11.57538,-14.33273 4.76845,-3.07577 10.41054,-4.6137 16.92628,-4.61378 4.80483,8e-5 9.00909,0.8919 12.6128,2.67545 3.6036,1.7837 6.57025,4.31354 8.89994,7.58952 2.32958,3.27612 4.0768,7.77159 5.24168,13.48641 l -7.80792,2.62085 c -1.05567,-4.51362 -2.38429,-7.88977 -3.98586,-10.12847 -1.60168,-2.23856 -3.71291,-3.99489 -6.33371,-5.26898 -2.62088,-1.27395 -5.56933,-1.91096 -8.84534,-1.91103 -4.76851,7e-5 -8.87267,1.15579 -12.3125,3.46715 -3.43987,2.31151 -6.20631,5.90606 -8.29933,10.78368 -2.09305,4.87773 -3.13956,10.82922 -3.13955,17.85448 -1e-5,10.7018 2.23862,18.71903 6.71591,24.05169 4.47725,5.3327 10.30133,7.99904 17.47228,7.99903 3.42161,1e-5 6.92517,-0.81901 10.51067,-2.45704 3.5854,-1.63802 6.43375,-3.58544 8.54503,-5.8423 l 0,-14.90603 z"
         style=""
         id="path3888" />
    </g>
    <path
       sodipodi:type="arc"
       style="fill:none;stroke:#666666;stroke-width:5;stroke-miterlimit:4;stroke-opacity:1;stroke-dasharray:none"
       id="path2985-0-0-4"
       sodipodi:cx="112.52747"
       sodipodi:cy="108.8626"
       sodipodi:rx="85.694"
       sodipodi:ry="81.36602"
       d="m 198.22147,108.8626 a 85.694,81.36602 0 1 1 -171.387997,0 85.694,81.36602 0 1 1 171.387997,0 z"
       transform="matrix(0.84976564,0,0,0.89496595,-11.38276,776.56885)" />
    <path
       sodipodi:type="arc"
       style="fill:none;stroke:#666666;stroke-width:5;stroke-miterlimit:4;stroke-opacity:1;stroke-dasharray:none"
       id="path2985-8-9-0"
       sodipodi:cx="112.52747"
       sodipodi:cy="108.8626"
       sodipodi:rx="85.694"
       sodipodi:ry="81.36602"
       d="m 198.22147,108.8626 a 85.694,81.36602 0 1 1 -171.387997,0 85.694,81.36602 0 1 1 171.387997,0 z"
       transform="matrix(0.84976564,0,0,0.89496595,179.04835,779.16564)" />
    <path
       sodipodi:type="arc"
       style="fill:none;stroke:#666666;stroke-width:5;stroke-miterlimit:4;stroke-opacity:1;stroke-dasharray:none"
       id="path2985-1-5-5"
       sodipodi:cx="112.52747"
       sodipodi:cy="108.8626"
       sodipodi:rx="85.694"
       sodipodi:ry="81.36602"
       d="m 198.22147,108.8626 a 85.694,81.36602 0 1 1 -171.387997,0 85.694,81.36602 0 1 1 171.387997,0 z"
       transform="matrix(0.84976564,0,0,0.89496595,378.61724,779.16564)" />
    <path
       id="path3086"
       d="m 440.94769,886.55203 29.16729,29.16728 c 2.27796,2.27797 5.97055,2.27797 8.24852,0 l 29.16725,-29.16728 c 2.27796,-2.27797 2.27796,-5.97052 0,-8.24849 -2.27794,-2.27797 -5.97052,-2.27797 -8.24849,0 l -19.20957,19.20956 v -55.91952 c 0,-3.22298 -2.61047,-5.83344 -5.83347,-5.83344 -3.22297,0 -5.83344,2.61046 -5.83344,5.83344 v 55.91952 l -19.20956,-19.20956 c -1.14047,-1.13754 -2.63091,-1.70921 -4.12428,-1.70921 -1.49333,0 -2.9867,0.56877 -4.12425,1.70921 -2.27796,2.27797 -2.27796,5.97052 0,8.24849 z"
       inkscape:connector-curvature="0"
       style="opacity:0.7;fill:#000000;fill-opacity:1" />
    <path
       id="path3097"
       d="m 307.96186,866.63589 -29.16728,-29.16728 c -2.27797,-2.27796 -5.97055,-2.27796 -8.24849,0 l -29.16728,29.16728 c -2.27797,2.27797 -2.27797,5.97055 0,8.24852 2.27797,2.27797 5.97052,2.27797 8.24849,0 l 19.20956,-19.20959 v 55.91951 c 0,3.22298 2.61048,5.83345 5.83347,5.83345 3.22298,0 5.83345,-2.61047 5.83345,-5.83345 v -55.91951 l 19.20956,19.20959 c 1.13754,1.1375 2.63091,1.7092 4.12428,1.7092 1.49337,0 2.98671,-0.56877 4.12424,-1.7092 2.27797,-2.27797 2.27797,-5.97055 0,-8.24852 z"
       inkscape:connector-curvature="0"
       style="opacity:0.7;fill:#000000" />
    <g
       id="g3910"
       transform="translate(4.6790142,-0.29438527)">
      <path
         style="opacity:0.7;fill:#000000"
         inkscape:connector-curvature="0"
         d="M 82.213784,859.18999 61.38002,838.35623 c -1.62712,-1.62711 -4.264672,-1.62711 -5.891791,0 l -20.833767,20.83376 c -1.627116,1.6271 -1.627116,4.26467 0,5.89178 1.62712,1.62713 4.264671,1.62713 5.89179,0 l 13.72112,-13.7211 v 39.94248 c 0,2.30215 1.864621,4.16677 4.16675,4.16677 2.302133,0 4.166755,-1.86462 4.166755,-4.16677 v -39.94248 l 13.721119,13.7211 c 0.812515,0.81253 1.879206,1.22087 2.945894,1.22087 1.066687,0 2.133379,-0.40627 2.945894,-1.22087 1.627121,-1.62711 1.627121,-4.26468 0,-5.89178 z"
         id="path3097-1" />
      <path
         style="opacity:0.7;fill:#000000"
         inkscape:connector-curvature="0"
         d="m 76.906624,889.39312 20.833768,20.83375 c 1.62711,1.62713 4.264668,1.62713 5.891788,0 l 20.83376,-20.83375 c 1.62713,-1.62714 1.62713,-4.26468 0,-5.89182 -1.62712,-1.6271 -4.26468,-1.6271 -5.89179,0 l -13.72111,13.72113 v -39.94248 c 0,-2.30214 -1.86463,-4.16675 -4.16675,-4.16675 -2.302138,0 -4.166758,1.86461 -4.166758,4.16675 v 39.94248 L 82.798423,883.5013 c -0.814616,-0.8125 -1.879216,-1.22083 -2.945908,-1.22083 -1.066693,0 -2.133365,0.40626 -2.945891,1.22083 -1.627115,1.62714 -1.627115,4.26468 0,5.89182 z"
         id="path3086-5" />
    </g>
  </g>
</svg>
