<?xml version="1.0" encoding="UTF-8" standalone="no"?>
<!-- Generator: Adobe Illustrator 13.0.0, SVG Export Plug-In . SVG Version: 6.00 Build 14948)  -->

<svg
   xmlns:dc="http://purl.org/dc/elements/1.1/"
   xmlns:cc="http://creativecommons.org/ns#"
   xmlns:rdf="http://www.w3.org/1999/02/22-rdf-syntax-ns#"
   xmlns:svg="http://www.w3.org/2000/svg"
   xmlns="http://www.w3.org/2000/svg"
   xmlns:sodipodi="http://sodipodi.sourceforge.net/DTD/sodipodi-0.dtd"
   xmlns:inkscape="http://www.inkscape.org/namespaces/inkscape"
   version="1.1"
   x="0px"
   y="0px"
   width="500"
   height="500"
   viewBox="0 0 500.00001 500"
   enable-background="new 0 0 1034.949 783.07"
   xml:space="preserve"
   id="svg2985"
   inkscape:version="0.48.4 r9939"
   sodipodi:docname="icons.svg"><metadata
   id="metadata3326"><rdf:RDF><cc:Work
       rdf:about=""><dc:format>image/svg+xml</dc:format><dc:type
         rdf:resource="http://purl.org/dc/dcmitype/StillImage" /></cc:Work></rdf:RDF></metadata><defs
   id="defs3324">
	
	
	
	
	
	
	
	
	
	

	
	
	
</defs><sodipodi:namedview
   pagecolor="#ffffff"
   bordercolor="#666666"
   borderopacity="1"
   objecttolerance="10"
   gridtolerance="10"
   guidetolerance="10"
   inkscape:pageopacity="0"
   inkscape:pageshadow="2"
   inkscape:window-width="1611"
   inkscape:window-height="1087"
   id="namedview3322"
   showgrid="false"
   inkscape:zoom="0.96980057"
   inkscape:cx="201.44476"
   inkscape:cy="251.66996"
   inkscape:window-x="1945"
   inkscape:window-y="0"
   inkscape:window-maximized="0"
   inkscape:current-layer="svg2985" />

<g
   id="g3098"
   transform="translate(0,-283.07001)">
		
		
		
		
		
		
		
		
		
	</g>
<path
   d="M 41.494714,44.454166 V 459.56757 H 465.82609 V 44.454166 H 41.494714 z M 200.61898,311.31278 v -88.95287 h 106.08285 v 88.95287 H 200.61898 z m 106.08285,29.65096 v 88.95287 H 200.61898 v -88.95287 h 106.08285 z m 0,-237.20766 v 88.95287 H 200.61898 v -88.95287 h 106.08285 z m -132.60357,0 v 88.95287 H 68.015427 V 103.75608 H 174.09826 z M 68.015427,222.35991 H 174.09826 v 88.95287 H 68.015427 v -88.95287 z m 265.207113,0 h 106.08284 v 88.95287 H 333.22254 v -88.95287 z m 0,-29.65096 v -88.95287 h 106.08284 v 88.95287 H 333.22254 z M 68.015427,340.96374 H 174.09826 v 88.95287 H 68.015427 v -88.95287 z m 265.207113,88.95287 v -88.95287 h 106.08284 v 88.95287 H 333.22254 z"
   inkscape:connector-curvature="0"
   style="fill:#000000;fill-opacity:0.66666669"
   id="path3033" /><path
   style="opacity:0.8;fill:#37abc8;fill-opacity:1;fill-rule:nonzero;stroke:#000000;stroke-width:0.51556993;stroke-linecap:round;stroke-linejoin:round;stroke-miterlimit:4;stroke-opacity:1;stroke-dasharray:none"
   d="m 201.23853,148.30948 0,-44.33902 52.58813,0 52.58813,0 0,44.33902 0,44.33901 -52.58813,0 -52.58813,0 0,-44.33901 z"
   id="path3829"
   inkscape:connector-curvature="0" /><path
   style="opacity:0.8;fill:#37abc8;fill-opacity:1;fill-rule:nonzero;stroke:#000000;stroke-width:0.51556993;stroke-linecap:round;stroke-linejoin:round;stroke-miterlimit:4;stroke-opacity:1;stroke-dasharray:none"
   d="m 333.22443,148.30948 0,-44.33902 52.58813,0 52.58813,0 0,44.33902 0,44.33901 -52.58813,0 -52.58813,0 0,-44.33901 z"
   id="path3831"
   inkscape:connector-curvature="0" /><path
   style="opacity:0.8;fill:#37abc8;fill-opacity:1;fill-rule:nonzero;stroke:#000000;stroke-width:0.51556993;stroke-linecap:round;stroke-linejoin:round;stroke-miterlimit:4;stroke-opacity:1;stroke-dasharray:none"
   d="m 68.221489,148.30948 0,-44.33902 52.588131,0 52.58813,0 0,44.33902 0,44.33901 -52.58813,0 -52.588131,0 0,-44.33901 z"
   id="path3833"
   inkscape:connector-curvature="0" /></svg>