<?xml version="1.0" encoding="utf-8"?>
<!-- Generated by IcoMoon.io -->
<!DOCTYPE svg PUBLIC "-//W3C//DTD SVG 1.1//EN" "http://www.w3.org/Graphics/SVG/1.1/DTD/svg11.dtd">
<svg version="1.1" xmlns="http://www.w3.org/2000/svg" xmlns:xlink="http://www.w3.org/1999/xlink" width="24" height="32" viewBox="0 0 24 32">
<path d="M1.5 32h21c0.827 0 1.5-0.673 1.5-1.5v-21c0-0.017-0.008-0.031-0.009-0.047-0.002-0.023-0.008-0.043-0.013-0.065-0.017-0.071-0.046-0.135-0.090-0.191-0.007-0.009-0.006-0.020-0.013-0.029l-8-9c-0.003-0.003-0.007-0.003-0.010-0.006-0.060-0.064-0.136-0.108-0.223-0.134-0.019-0.006-0.036-0.008-0.056-0.011-0.029-0.005-0.056-0.017-0.086-0.017h-14c-0.827 0-1.5 0.673-1.5 1.5v29c0 0.827 0.673 1.5 1.5 1.5zM16 1.815l6.387 7.185h-5.887c-0.22 0-0.5-0.42-0.5-0.75v-6.435zM1 1.5c0-0.276 0.225-0.5 0.5-0.5h13.5v7.25c0 0.809 0.655 1.75 1.5 1.75h6.5v20.5c0 0.276-0.225 0.5-0.5 0.5h-21c-0.28 0-0.5-0.22-0.5-0.5v-29zM5.5 14h13c0.276 0 0.5-0.224 0.5-0.5s-0.224-0.5-0.5-0.5h-13c-0.276 0-0.5 0.224-0.5 0.5s0.224 0.5 0.5 0.5zM5.5 18h13c0.276 0 0.5-0.224 0.5-0.5s-0.224-0.5-0.5-0.5h-13c-0.276 0-0.5 0.224-0.5 0.5s0.224 0.5 0.5 0.5zM5.5 10h6c0.276 0 0.5-0.224 0.5-0.5s-0.224-0.5-0.5-0.5h-6c-0.276 0-0.5 0.224-0.5 0.5s0.224 0.5 0.5 0.5zM5.5 22h13c0.276 0 0.5-0.224 0.5-0.5s-0.224-0.5-0.5-0.5h-13c-0.276 0-0.5 0.224-0.5 0.5s0.224 0.5 0.5 0.5zM5.5 26h13c0.276 0 0.5-0.224 0.5-0.5s-0.224-0.5-0.5-0.5h-13c-0.276 0-0.5 0.224-0.5 0.5s0.224 0.5 0.5 0.5z" fill="#000000"></path>
</svg>
