<?xml version="1.0" encoding="UTF-8" standalone="no"?>
<!-- Generated by IcoMoon.io -->

<svg
   xmlns:dc="http://purl.org/dc/elements/1.1/"
   xmlns:cc="http://creativecommons.org/ns#"
   xmlns:rdf="http://www.w3.org/1999/02/22-rdf-syntax-ns#"
   xmlns:svg="http://www.w3.org/2000/svg"
   xmlns="http://www.w3.org/2000/svg"
   xmlns:sodipodi="http://sodipodi.sourceforge.net/DTD/sodipodi-0.dtd"
   xmlns:inkscape="http://www.inkscape.org/namespaces/inkscape"
   version="1.1"
   width="72"
   height="24"
   viewBox="0 0 72 24"
   id="svg2"
   inkscape:version="0.91 r13725"
   sodipodi:docname="icons_viewers.svg">
  <metadata
     id="metadata12">
    <rdf:RDF>
      <cc:Work
         rdf:about="">
        <dc:format>image/svg+xml</dc:format>
        <dc:type
           rdf:resource="http://purl.org/dc/dcmitype/StillImage" />
        <dc:title>icons_viewer</dc:title>
      </cc:Work>
    </rdf:RDF>
  </metadata>
  <defs
     id="defs10" />
  <sodipodi:namedview
     pagecolor="#ffffff"
     bordercolor="#666666"
     borderopacity="1"
     objecttolerance="10"
     gridtolerance="10"
     guidetolerance="10"
     inkscape:pageopacity="0"
     inkscape:pageshadow="2"
     inkscape:window-width="1880"
     inkscape:window-height="1036"
     id="namedview8"
     showgrid="false"
     inkscape:zoom="22.6"
     inkscape:cx="24.604298"
     inkscape:cy="12"
     inkscape:window-x="241"
     inkscape:window-y="36"
     inkscape:window-maximized="0"
     inkscape:current-layer="svg2" />
  <title
     id="title4">icons_viewer</title>
  <path
     d="M 14.358072,6.1833078 C 9.8356056,3.8762407 7.4925966,2.8203055 3.2795829,0.88476284 1.3399688,0.30567247 0.83940593,2.0388973 0.83940593,3.4044973 l 0,11.4372007 c 0,1.3572 0.75719997,2.5872 1.97279997,3.21 0,0 0.0072,0 0.0072,0.0072 l 9.5856011,4.7928 c 0.5028,0.2556 1.0656,0.39 1.6272,0.39 0.5616,0 1.444184,-0.542681 1.400411,-1.586341 L 15.497898,8.6550878 C 15.455418,6.9178213 15.236352,6.5962286 14.358072,6.1833078 Z M 3.9006059,15.922898 c -0.4128,-0.21 -0.66,-0.6228 -0.66,-1.0728 l 0,-0.0144 0,-10.9728007 9.6000011,4.8000005 0,11.7300002 z"
     id="path6"
     inkscape:connector-curvature="0"
     sodipodi:nodetypes="ccsscccsccccsccccc" />
  <path
     id="path4138"
     d="m 40.664934,4.470354 -7.962,-3.98100002 c -0.006,-0.006 -0.012,-0.006 -0.019,-0.012 -0.419,-0.213 -0.888,-0.319 -1.356,-0.319 -0.468,0 -0.931,0.112 -1.338,0.312 L 21.976933,4.476354 c -1.019,0.513 -1.65,1.537 -1.65,2.675 l 0,9.531 c 0,1.131 0.631,2.156 1.644,2.675 0,0 0.006,0 0.006,0.006 l 7.988001,3.994 c 0.419,0.213 0.888,0.325 1.356,0.325 0.468,0 0.938,-0.113 1.344,-0.319 l 8.013,-4.006 c 1.013,-0.513 1.644,-1.538 1.65,-2.675 l 0,-9.531 c 0,-1.137 -0.637,-2.163 -1.662,-2.681 z m -9.775,-2.212 c 0.087,-0.044 0.237,-0.1 0.438,-0.1 0.15,0 0.294,0.031 0.425,0.094 0.006,0 0.012,0.006 0.019,0.006 l 7.313,3.656 -7.756,3.881 -7.756001,-3.881 7.319001,-3.656 z m -8.012001,15.325 c -0.344,-0.175 -0.55,-0.519 -0.55,-0.894 0,-0.006 0,-0.006 0,-0.012 l 0,-9.144 8.000001,4 0,9.775 -7.450001,-3.725 z m 16.906001,-0.006 -7.456,3.725 0,-9.769 8,-4 0,9.15 c 0,0.381 -0.213,0.725 -0.544,0.894 z"
     inkscape:connector-curvature="0" />
  <path
     id="path4151"
     d="m 70.926027,5.7226195 c -0.331,-0.169 -0.731,-0.144 -1.038,0.075 l -5.419,3.869 0,-3.056 c 0,-1.6559998 -1.344,-2.9999998 -3,-2.9999998 l -11,0 c -1.656,0 -3,1.344 -3,2.9999998 l 0,9.9999995 c 0,1.656 1.344,3 3,3 l 11,0 c 1.656,0 3,-1.344 3,-3 l 0,-3.056 5.419,3.869 c 0.175,0.125 0.375,0.188 0.581,0.188 0.156,0 0.312,-0.037 0.456,-0.112 0.331,-0.169 0.544,-0.513 0.544,-0.888 l 0,-9.9999995 c 0,-0.375 -0.206,-0.719 -0.544,-0.888 z m -8.456,10.8869995 c 0,0.55 -0.45,1 -1,1 l -11,0 c -0.55,0 -1,-0.45 -1,-1 l 0,-9.9999995 c 0,-0.55 0.45,-1 1,-1 l 11,0 c 0.55,0 1,0.45 1,1 l 0,9.9999995 z m 7,-1.944 -4.281,-3.056 4.281,-3.0559995 0,6.1129995 z"
     inkscape:connector-curvature="0" />
</svg>
