<?xml version="1.0" encoding="UTF-8" standalone="no"?>
<!DOCTYPE svg PUBLIC "-//W3C//DTD SVG 1.1//EN" "http://www.w3.org/Graphics/SVG/1.1/DTD/svg11.dtd">
<svg width="100%" height="100%" viewBox="0 0 1894 391" version="1.1" xmlns="http://www.w3.org/2000/svg" xmlns:xlink="http://www.w3.org/1999/xlink" xml:space="preserve" xmlns:serif="http://www.serif.com/" style="fill-rule:evenodd;clip-rule:evenodd;stroke-linejoin:round;stroke-miterlimit:2;">
    <g transform="matrix(1,0,0,1,-419.314,-1569.22)">
        <g transform="matrix(0.783935,0,0,0.783935,534.113,919.645)">
            <g transform="matrix(17.327,0,0,17.327,-140.257,318.264)">
                <g transform="matrix(34.5396,0,0,34.5396,2.17111,56.2291)">
                    <path d="M0.01,-0L0.13,-0.727L0.434,-0.727C0.488,-0.727 0.532,-0.72 0.567,-0.704C0.601,-0.689 0.625,-0.667 0.639,-0.64C0.653,-0.612 0.657,-0.58 0.651,-0.543C0.646,-0.516 0.636,-0.491 0.621,-0.47C0.606,-0.448 0.587,-0.43 0.564,-0.416C0.541,-0.401 0.516,-0.391 0.489,-0.386L0.487,-0.378C0.517,-0.377 0.543,-0.37 0.565,-0.355C0.588,-0.341 0.604,-0.32 0.615,-0.295C0.626,-0.269 0.629,-0.238 0.623,-0.203C0.616,-0.164 0.601,-0.129 0.576,-0.099C0.551,-0.068 0.518,-0.044 0.477,-0.026C0.437,-0.009 0.39,-0 0.336,-0L0.01,-0ZM0.209,-0.142L0.318,-0.142C0.356,-0.142 0.385,-0.149 0.406,-0.164C0.426,-0.178 0.439,-0.198 0.443,-0.224C0.446,-0.242 0.444,-0.259 0.438,-0.272C0.431,-0.286 0.421,-0.296 0.406,-0.304C0.391,-0.311 0.372,-0.315 0.349,-0.315L0.237,-0.315L0.209,-0.142ZM0.257,-0.428L0.354,-0.428C0.373,-0.428 0.391,-0.431 0.407,-0.438C0.423,-0.444 0.436,-0.454 0.446,-0.466C0.457,-0.478 0.464,-0.492 0.466,-0.509C0.47,-0.534 0.465,-0.553 0.449,-0.567C0.434,-0.581 0.412,-0.588 0.383,-0.588L0.283,-0.588L0.257,-0.428Z" style="fill:rgb(0,239,255);fill-rule:nonzero;"/>
                </g>
                <g transform="matrix(34.5396,0,0,34.5396,24.6415,56.2291)">
                    <path d="M0.01,-0L0.1,-0.545L0.274,-0.545L0.183,-0L0.01,-0ZM0.2,-0.609C0.175,-0.609 0.155,-0.618 0.14,-0.634C0.124,-0.65 0.118,-0.67 0.121,-0.692C0.125,-0.715 0.137,-0.735 0.156,-0.751C0.176,-0.767 0.198,-0.775 0.223,-0.775C0.247,-0.775 0.267,-0.767 0.282,-0.751C0.297,-0.735 0.303,-0.715 0.3,-0.692C0.297,-0.67 0.286,-0.65 0.266,-0.634C0.246,-0.618 0.224,-0.609 0.2,-0.609Z" style="fill:rgb(0,239,255);fill-rule:nonzero;"/>
                </g>
                <g transform="matrix(34.5396,0,0,34.5396,32.8348,56.2291)">
                    <path d="M0.548,-0.379L0.391,-0.375C0.391,-0.386 0.389,-0.397 0.383,-0.405C0.378,-0.414 0.37,-0.421 0.36,-0.426C0.35,-0.431 0.338,-0.434 0.324,-0.434C0.302,-0.434 0.282,-0.429 0.265,-0.419C0.247,-0.409 0.237,-0.396 0.235,-0.38C0.233,-0.371 0.236,-0.364 0.242,-0.358C0.248,-0.351 0.263,-0.346 0.285,-0.341L0.387,-0.321C0.439,-0.311 0.478,-0.293 0.501,-0.267C0.525,-0.241 0.534,-0.208 0.527,-0.166C0.521,-0.13 0.505,-0.098 0.48,-0.072C0.454,-0.046 0.422,-0.026 0.383,-0.011C0.344,0.003 0.3,0.01 0.253,0.01C0.173,0.01 0.113,-0.006 0.072,-0.038C0.031,-0.071 0.012,-0.113 0.015,-0.167L0.184,-0.171C0.185,-0.151 0.191,-0.136 0.204,-0.126C0.217,-0.116 0.235,-0.111 0.257,-0.11C0.282,-0.11 0.303,-0.115 0.32,-0.125C0.338,-0.136 0.348,-0.149 0.35,-0.165C0.352,-0.175 0.348,-0.183 0.34,-0.189C0.332,-0.194 0.317,-0.199 0.295,-0.204L0.202,-0.222C0.149,-0.232 0.111,-0.251 0.088,-0.28C0.064,-0.308 0.056,-0.344 0.063,-0.388C0.069,-0.423 0.084,-0.453 0.107,-0.477C0.13,-0.502 0.16,-0.52 0.197,-0.533C0.234,-0.546 0.276,-0.553 0.324,-0.553C0.4,-0.553 0.457,-0.537 0.496,-0.506C0.535,-0.475 0.552,-0.433 0.548,-0.379Z" style="fill:rgb(0,239,255);fill-rule:nonzero;"/>
                </g>
                <g transform="matrix(34.5396,0,0,34.5396,50.8896,56.2291)">
                    <path d="M0.329,-0.261L0.471,-0.261L0.523,-0.184L0.587,-0.093L0.69,0.057L0.531,0.057L0.459,-0.045L0.419,-0.118L0.329,-0.261ZM0.755,-0.352C0.741,-0.274 0.715,-0.208 0.677,-0.154C0.638,-0.1 0.591,-0.059 0.536,-0.032C0.48,-0.004 0.421,0.01 0.358,0.01C0.291,0.01 0.232,-0.005 0.183,-0.035C0.135,-0.065 0.099,-0.108 0.077,-0.165C0.055,-0.222 0.05,-0.291 0.064,-0.373C0.077,-0.451 0.102,-0.517 0.141,-0.572C0.18,-0.626 0.227,-0.667 0.283,-0.695C0.339,-0.723 0.398,-0.737 0.462,-0.737C0.529,-0.737 0.587,-0.722 0.635,-0.692C0.684,-0.662 0.72,-0.618 0.742,-0.561C0.764,-0.504 0.768,-0.434 0.755,-0.352ZM0.579,-0.373C0.586,-0.418 0.586,-0.457 0.579,-0.488C0.572,-0.52 0.558,-0.543 0.537,-0.559C0.516,-0.575 0.489,-0.583 0.456,-0.583C0.419,-0.583 0.385,-0.574 0.356,-0.556C0.326,-0.538 0.301,-0.511 0.281,-0.477C0.261,-0.443 0.248,-0.401 0.24,-0.352C0.232,-0.306 0.231,-0.268 0.239,-0.237C0.247,-0.206 0.261,-0.183 0.283,-0.167C0.304,-0.152 0.331,-0.144 0.364,-0.144C0.401,-0.144 0.434,-0.153 0.463,-0.171C0.492,-0.189 0.517,-0.215 0.537,-0.249C0.557,-0.283 0.571,-0.324 0.579,-0.373Z" style="fill:rgb(0,239,255);fill-rule:nonzero;"/>
                </g>
                <g transform="matrix(34.5396,0,0,34.5396,77.1868,56.2291)">
                    <path d="M0.401,-0.236L0.452,-0.545L0.626,-0.545L0.535,-0L0.369,-0L0.386,-0.101L0.38,-0.101C0.364,-0.068 0.339,-0.042 0.306,-0.022C0.273,-0.003 0.237,0.007 0.196,0.007C0.158,0.007 0.127,-0.001 0.102,-0.018C0.077,-0.035 0.059,-0.059 0.048,-0.09C0.038,-0.121 0.036,-0.157 0.042,-0.198L0.101,-0.545L0.274,-0.545L0.222,-0.232C0.217,-0.202 0.221,-0.179 0.234,-0.162C0.246,-0.145 0.266,-0.136 0.293,-0.136C0.31,-0.136 0.326,-0.14 0.341,-0.148C0.356,-0.156 0.369,-0.167 0.38,-0.182C0.39,-0.196 0.397,-0.214 0.401,-0.236Z" style="fill:rgb(0,239,255);fill-rule:nonzero;"/>
                </g>
                <g transform="matrix(34.5396,0,0,34.5396,97.2531,56.2291)">
                    <path d="M0.263,0.01C0.206,0.01 0.159,-0.001 0.121,-0.024C0.084,-0.046 0.057,-0.078 0.042,-0.12C0.027,-0.163 0.024,-0.213 0.034,-0.271C0.044,-0.327 0.063,-0.376 0.092,-0.419C0.121,-0.461 0.158,-0.494 0.203,-0.517C0.247,-0.541 0.297,-0.553 0.352,-0.553C0.39,-0.553 0.425,-0.546 0.455,-0.534C0.485,-0.522 0.51,-0.504 0.529,-0.481C0.549,-0.457 0.562,-0.428 0.569,-0.393C0.577,-0.359 0.576,-0.319 0.569,-0.274L0.562,-0.231L0.088,-0.231L0.104,-0.332L0.417,-0.332C0.42,-0.35 0.418,-0.367 0.412,-0.381C0.407,-0.396 0.397,-0.407 0.384,-0.415C0.371,-0.423 0.354,-0.427 0.336,-0.427C0.316,-0.427 0.298,-0.423 0.282,-0.414C0.265,-0.405 0.251,-0.393 0.239,-0.378C0.228,-0.363 0.22,-0.346 0.217,-0.328L0.198,-0.224C0.194,-0.201 0.195,-0.182 0.201,-0.165C0.207,-0.149 0.217,-0.137 0.232,-0.128C0.246,-0.119 0.265,-0.115 0.287,-0.115C0.302,-0.115 0.317,-0.117 0.33,-0.121C0.343,-0.126 0.355,-0.132 0.366,-0.14C0.376,-0.148 0.385,-0.159 0.391,-0.171L0.55,-0.166C0.537,-0.13 0.517,-0.099 0.49,-0.073C0.464,-0.047 0.431,-0.026 0.393,-0.012C0.354,0.003 0.311,0.01 0.263,0.01Z" style="fill:rgb(0,239,255);fill-rule:nonzero;"/>
                </g>
                <g transform="matrix(34.5396,0,0,34.5396,117.368,56.2291)">
                    <path d="M0.008,-0L0.029,-0.126L0.333,-0.359C0.356,-0.377 0.376,-0.393 0.392,-0.408C0.409,-0.423 0.422,-0.439 0.432,-0.454C0.442,-0.469 0.448,-0.486 0.451,-0.504C0.454,-0.524 0.453,-0.541 0.447,-0.555C0.44,-0.57 0.43,-0.581 0.416,-0.589C0.402,-0.596 0.385,-0.6 0.365,-0.6C0.345,-0.6 0.327,-0.596 0.31,-0.588C0.293,-0.58 0.279,-0.568 0.268,-0.553C0.257,-0.537 0.25,-0.518 0.246,-0.497L0.08,-0.497C0.088,-0.546 0.106,-0.589 0.135,-0.625C0.163,-0.661 0.199,-0.688 0.243,-0.708C0.286,-0.727 0.335,-0.737 0.388,-0.737C0.443,-0.737 0.49,-0.728 0.528,-0.71C0.565,-0.691 0.593,-0.665 0.61,-0.632C0.627,-0.599 0.631,-0.561 0.624,-0.517C0.619,-0.49 0.609,-0.462 0.593,-0.435C0.577,-0.408 0.552,-0.378 0.518,-0.345C0.484,-0.312 0.437,-0.273 0.376,-0.227L0.276,-0.146L0.275,-0.142L0.57,-0.142L0.547,-0L0.008,-0Z" style="fill:rgb(0,239,255);fill-rule:nonzero;"/>
                </g>
            </g>
            <g transform="matrix(17.327,0,0,17.327,-159.268,318.264)">
                <g transform="matrix(34.5396,0,0,34.5396,2.17111,56.2291)">
                    <path d="M0.01,-0L0.13,-0.727L0.434,-0.727C0.488,-0.727 0.532,-0.72 0.567,-0.704C0.601,-0.689 0.625,-0.667 0.639,-0.64C0.653,-0.612 0.657,-0.58 0.651,-0.543C0.646,-0.516 0.636,-0.491 0.621,-0.47C0.606,-0.448 0.587,-0.43 0.564,-0.416C0.541,-0.401 0.516,-0.391 0.489,-0.386L0.487,-0.378C0.517,-0.377 0.543,-0.37 0.565,-0.355C0.588,-0.341 0.604,-0.32 0.615,-0.295C0.626,-0.269 0.629,-0.238 0.623,-0.203C0.616,-0.164 0.601,-0.129 0.576,-0.099C0.551,-0.068 0.518,-0.044 0.477,-0.026C0.437,-0.009 0.39,-0 0.336,-0L0.01,-0ZM0.209,-0.142L0.318,-0.142C0.356,-0.142 0.385,-0.149 0.406,-0.164C0.426,-0.178 0.439,-0.198 0.443,-0.224C0.446,-0.242 0.444,-0.259 0.438,-0.272C0.431,-0.286 0.421,-0.296 0.406,-0.304C0.391,-0.311 0.372,-0.315 0.349,-0.315L0.237,-0.315L0.209,-0.142ZM0.257,-0.428L0.354,-0.428C0.373,-0.428 0.391,-0.431 0.407,-0.438C0.423,-0.444 0.436,-0.454 0.446,-0.466C0.457,-0.478 0.464,-0.492 0.466,-0.509C0.47,-0.534 0.465,-0.553 0.449,-0.567C0.434,-0.581 0.412,-0.588 0.383,-0.588L0.283,-0.588L0.257,-0.428Z" style="fill:rgb(0,254,255);fill-rule:nonzero;"/>
                </g>
                <g transform="matrix(34.5396,0,0,34.5396,24.6415,56.2291)">
                    <path d="M0.01,-0L0.1,-0.545L0.274,-0.545L0.183,-0L0.01,-0ZM0.2,-0.609C0.175,-0.609 0.155,-0.618 0.14,-0.634C0.124,-0.65 0.118,-0.67 0.121,-0.692C0.125,-0.715 0.137,-0.735 0.156,-0.751C0.176,-0.767 0.198,-0.775 0.223,-0.775C0.247,-0.775 0.267,-0.767 0.282,-0.751C0.297,-0.735 0.303,-0.715 0.3,-0.692C0.297,-0.67 0.286,-0.65 0.266,-0.634C0.246,-0.618 0.224,-0.609 0.2,-0.609Z" style="fill:rgb(0,254,255);fill-rule:nonzero;"/>
                </g>
                <g transform="matrix(34.5396,0,0,34.5396,32.8348,56.2291)">
                    <path d="M0.548,-0.379L0.391,-0.375C0.391,-0.386 0.389,-0.397 0.383,-0.405C0.378,-0.414 0.37,-0.421 0.36,-0.426C0.35,-0.431 0.338,-0.434 0.324,-0.434C0.302,-0.434 0.282,-0.429 0.265,-0.419C0.247,-0.409 0.237,-0.396 0.235,-0.38C0.233,-0.371 0.236,-0.364 0.242,-0.358C0.248,-0.351 0.263,-0.346 0.285,-0.341L0.387,-0.321C0.439,-0.311 0.478,-0.293 0.501,-0.267C0.525,-0.241 0.534,-0.208 0.527,-0.166C0.521,-0.13 0.505,-0.098 0.48,-0.072C0.454,-0.046 0.422,-0.026 0.383,-0.011C0.344,0.003 0.3,0.01 0.253,0.01C0.173,0.01 0.113,-0.006 0.072,-0.038C0.031,-0.071 0.012,-0.113 0.015,-0.167L0.184,-0.171C0.185,-0.151 0.191,-0.136 0.204,-0.126C0.217,-0.116 0.235,-0.111 0.257,-0.11C0.282,-0.11 0.303,-0.115 0.32,-0.125C0.338,-0.136 0.348,-0.149 0.35,-0.165C0.352,-0.175 0.348,-0.183 0.34,-0.189C0.332,-0.194 0.317,-0.199 0.295,-0.204L0.202,-0.222C0.149,-0.232 0.111,-0.251 0.088,-0.28C0.064,-0.308 0.056,-0.344 0.063,-0.388C0.069,-0.423 0.084,-0.453 0.107,-0.477C0.13,-0.502 0.16,-0.52 0.197,-0.533C0.234,-0.546 0.276,-0.553 0.324,-0.553C0.4,-0.553 0.457,-0.537 0.496,-0.506C0.535,-0.475 0.552,-0.433 0.548,-0.379Z" style="fill:rgb(0,254,255);fill-rule:nonzero;"/>
                </g>
                <g transform="matrix(34.5396,0,0,34.5396,50.8896,56.2291)">
                    <path d="M0.329,-0.261L0.471,-0.261L0.523,-0.184L0.587,-0.093L0.69,0.057L0.531,0.057L0.459,-0.045L0.419,-0.118L0.329,-0.261ZM0.755,-0.352C0.741,-0.274 0.715,-0.208 0.677,-0.154C0.638,-0.1 0.591,-0.059 0.536,-0.032C0.48,-0.004 0.421,0.01 0.358,0.01C0.291,0.01 0.232,-0.005 0.183,-0.035C0.135,-0.065 0.099,-0.108 0.077,-0.165C0.055,-0.222 0.05,-0.291 0.064,-0.373C0.077,-0.451 0.102,-0.517 0.141,-0.572C0.18,-0.626 0.227,-0.667 0.283,-0.695C0.339,-0.723 0.398,-0.737 0.462,-0.737C0.529,-0.737 0.587,-0.722 0.635,-0.692C0.684,-0.662 0.72,-0.618 0.742,-0.561C0.764,-0.504 0.768,-0.434 0.755,-0.352ZM0.579,-0.373C0.586,-0.418 0.586,-0.457 0.579,-0.488C0.572,-0.52 0.558,-0.543 0.537,-0.559C0.516,-0.575 0.489,-0.583 0.456,-0.583C0.419,-0.583 0.385,-0.574 0.356,-0.556C0.326,-0.538 0.301,-0.511 0.281,-0.477C0.261,-0.443 0.248,-0.401 0.24,-0.352C0.232,-0.306 0.231,-0.268 0.239,-0.237C0.247,-0.206 0.261,-0.183 0.283,-0.167C0.304,-0.152 0.331,-0.144 0.364,-0.144C0.401,-0.144 0.434,-0.153 0.463,-0.171C0.492,-0.189 0.517,-0.215 0.537,-0.249C0.557,-0.283 0.571,-0.324 0.579,-0.373Z" style="fill:rgb(0,254,255);fill-rule:nonzero;"/>
                </g>
                <g transform="matrix(34.5396,0,0,34.5396,77.1868,56.2291)">
                    <path d="M0.401,-0.236L0.452,-0.545L0.626,-0.545L0.535,-0L0.369,-0L0.386,-0.101L0.38,-0.101C0.364,-0.068 0.339,-0.042 0.306,-0.022C0.273,-0.003 0.237,0.007 0.196,0.007C0.158,0.007 0.127,-0.001 0.102,-0.018C0.077,-0.035 0.059,-0.059 0.048,-0.09C0.038,-0.121 0.036,-0.157 0.042,-0.198L0.101,-0.545L0.274,-0.545L0.222,-0.232C0.217,-0.202 0.221,-0.179 0.234,-0.162C0.246,-0.145 0.266,-0.136 0.293,-0.136C0.31,-0.136 0.326,-0.14 0.341,-0.148C0.356,-0.156 0.369,-0.167 0.38,-0.182C0.39,-0.196 0.397,-0.214 0.401,-0.236Z" style="fill:rgb(0,254,255);fill-rule:nonzero;"/>
                </g>
                <g transform="matrix(34.5396,0,0,34.5396,97.2531,56.2291)">
                    <path d="M0.263,0.01C0.206,0.01 0.159,-0.001 0.121,-0.024C0.084,-0.046 0.057,-0.078 0.042,-0.12C0.027,-0.163 0.024,-0.213 0.034,-0.271C0.044,-0.327 0.063,-0.376 0.092,-0.419C0.121,-0.461 0.158,-0.494 0.203,-0.517C0.247,-0.541 0.297,-0.553 0.352,-0.553C0.39,-0.553 0.425,-0.546 0.455,-0.534C0.485,-0.522 0.51,-0.504 0.529,-0.481C0.549,-0.457 0.562,-0.428 0.569,-0.393C0.577,-0.359 0.576,-0.319 0.569,-0.274L0.562,-0.231L0.088,-0.231L0.104,-0.332L0.417,-0.332C0.42,-0.35 0.418,-0.367 0.412,-0.381C0.407,-0.396 0.397,-0.407 0.384,-0.415C0.371,-0.423 0.354,-0.427 0.336,-0.427C0.316,-0.427 0.298,-0.423 0.282,-0.414C0.265,-0.405 0.251,-0.393 0.239,-0.378C0.228,-0.363 0.22,-0.346 0.217,-0.328L0.198,-0.224C0.194,-0.201 0.195,-0.182 0.201,-0.165C0.207,-0.149 0.217,-0.137 0.232,-0.128C0.246,-0.119 0.265,-0.115 0.287,-0.115C0.302,-0.115 0.317,-0.117 0.33,-0.121C0.343,-0.126 0.355,-0.132 0.366,-0.14C0.376,-0.148 0.385,-0.159 0.391,-0.171L0.55,-0.166C0.537,-0.13 0.517,-0.099 0.49,-0.073C0.464,-0.047 0.431,-0.026 0.393,-0.012C0.354,0.003 0.311,0.01 0.263,0.01Z" style="fill:rgb(0,254,255);fill-rule:nonzero;"/>
                </g>
                <g transform="matrix(34.5396,0,0,34.5396,117.368,56.2291)">
                    <path d="M0.008,-0L0.029,-0.126L0.333,-0.359C0.356,-0.377 0.376,-0.393 0.392,-0.408C0.409,-0.423 0.422,-0.439 0.432,-0.454C0.442,-0.469 0.448,-0.486 0.451,-0.504C0.454,-0.524 0.453,-0.541 0.447,-0.555C0.44,-0.57 0.43,-0.581 0.416,-0.589C0.402,-0.596 0.385,-0.6 0.365,-0.6C0.345,-0.6 0.327,-0.596 0.31,-0.588C0.293,-0.58 0.279,-0.568 0.268,-0.553C0.257,-0.537 0.25,-0.518 0.246,-0.497L0.08,-0.497C0.088,-0.546 0.106,-0.589 0.135,-0.625C0.163,-0.661 0.199,-0.688 0.243,-0.708C0.286,-0.727 0.335,-0.737 0.388,-0.737C0.443,-0.737 0.49,-0.728 0.528,-0.71C0.565,-0.691 0.593,-0.665 0.61,-0.632C0.627,-0.599 0.631,-0.561 0.624,-0.517C0.619,-0.49 0.609,-0.462 0.593,-0.435C0.577,-0.408 0.552,-0.378 0.518,-0.345C0.484,-0.312 0.437,-0.273 0.376,-0.227L0.276,-0.146L0.275,-0.142L0.57,-0.142L0.547,-0L0.008,-0Z" style="fill:rgb(0,254,255);fill-rule:nonzero;"/>
                </g>
            </g>
            <g transform="matrix(17.327,0,0,17.327,-189.84,318.264)">
                <g transform="matrix(34.5396,0,0,34.5396,2.17111,56.2291)">
                    <path d="M0.01,-0L0.13,-0.727L0.434,-0.727C0.488,-0.727 0.532,-0.72 0.567,-0.704C0.601,-0.689 0.625,-0.667 0.639,-0.64C0.653,-0.612 0.657,-0.58 0.651,-0.543C0.646,-0.516 0.636,-0.491 0.621,-0.47C0.606,-0.448 0.587,-0.43 0.564,-0.416C0.541,-0.401 0.516,-0.391 0.489,-0.386L0.487,-0.378C0.517,-0.377 0.543,-0.37 0.565,-0.355C0.588,-0.341 0.604,-0.32 0.615,-0.295C0.626,-0.269 0.629,-0.238 0.623,-0.203C0.616,-0.164 0.601,-0.129 0.576,-0.099C0.551,-0.068 0.518,-0.044 0.477,-0.026C0.437,-0.009 0.39,-0 0.336,-0L0.01,-0ZM0.209,-0.142L0.318,-0.142C0.356,-0.142 0.385,-0.149 0.406,-0.164C0.426,-0.178 0.439,-0.198 0.443,-0.224C0.446,-0.242 0.444,-0.259 0.438,-0.272C0.431,-0.286 0.421,-0.296 0.406,-0.304C0.391,-0.311 0.372,-0.315 0.349,-0.315L0.237,-0.315L0.209,-0.142ZM0.257,-0.428L0.354,-0.428C0.373,-0.428 0.391,-0.431 0.407,-0.438C0.423,-0.444 0.436,-0.454 0.446,-0.466C0.457,-0.478 0.464,-0.492 0.466,-0.509C0.47,-0.534 0.465,-0.553 0.449,-0.567C0.434,-0.581 0.412,-0.588 0.383,-0.588L0.283,-0.588L0.257,-0.428Z" style="fill:rgb(21,32,48);fill-rule:nonzero;"/>
                </g>
                <g transform="matrix(34.5396,0,0,34.5396,24.6415,56.2291)">
                    <path d="M0.01,-0L0.1,-0.545L0.274,-0.545L0.183,-0L0.01,-0ZM0.2,-0.609C0.175,-0.609 0.155,-0.618 0.14,-0.634C0.124,-0.65 0.118,-0.67 0.121,-0.692C0.125,-0.715 0.137,-0.735 0.156,-0.751C0.176,-0.767 0.198,-0.775 0.223,-0.775C0.247,-0.775 0.267,-0.767 0.282,-0.751C0.297,-0.735 0.303,-0.715 0.3,-0.692C0.297,-0.67 0.286,-0.65 0.266,-0.634C0.246,-0.618 0.224,-0.609 0.2,-0.609Z" style="fill:rgb(21,32,48);fill-rule:nonzero;"/>
                </g>
                <g transform="matrix(34.5396,0,0,34.5396,32.8348,56.2291)">
                    <path d="M0.548,-0.379L0.391,-0.375C0.391,-0.386 0.389,-0.397 0.383,-0.405C0.378,-0.414 0.37,-0.421 0.36,-0.426C0.35,-0.431 0.338,-0.434 0.324,-0.434C0.302,-0.434 0.282,-0.429 0.265,-0.419C0.247,-0.409 0.237,-0.396 0.235,-0.38C0.233,-0.371 0.236,-0.364 0.242,-0.358C0.248,-0.351 0.263,-0.346 0.285,-0.341L0.387,-0.321C0.439,-0.311 0.478,-0.293 0.501,-0.267C0.525,-0.241 0.534,-0.208 0.527,-0.166C0.521,-0.13 0.505,-0.098 0.48,-0.072C0.454,-0.046 0.422,-0.026 0.383,-0.011C0.344,0.003 0.3,0.01 0.253,0.01C0.173,0.01 0.113,-0.006 0.072,-0.038C0.031,-0.071 0.012,-0.113 0.015,-0.167L0.184,-0.171C0.185,-0.151 0.191,-0.136 0.204,-0.126C0.217,-0.116 0.235,-0.111 0.257,-0.11C0.282,-0.11 0.303,-0.115 0.32,-0.125C0.338,-0.136 0.348,-0.149 0.35,-0.165C0.352,-0.175 0.348,-0.183 0.34,-0.189C0.332,-0.194 0.317,-0.199 0.295,-0.204L0.202,-0.222C0.149,-0.232 0.111,-0.251 0.088,-0.28C0.064,-0.308 0.056,-0.344 0.063,-0.388C0.069,-0.423 0.084,-0.453 0.107,-0.477C0.13,-0.502 0.16,-0.52 0.197,-0.533C0.234,-0.546 0.276,-0.553 0.324,-0.553C0.4,-0.553 0.457,-0.537 0.496,-0.506C0.535,-0.475 0.552,-0.433 0.548,-0.379Z" style="fill:rgb(21,32,48);fill-rule:nonzero;"/>
                </g>
                <g transform="matrix(34.5396,0,0,34.5396,50.8896,56.2291)">
                    <path d="M0.329,-0.261L0.471,-0.261L0.523,-0.184L0.587,-0.093L0.69,0.057L0.531,0.057L0.459,-0.045L0.419,-0.118L0.329,-0.261ZM0.755,-0.352C0.741,-0.274 0.715,-0.208 0.677,-0.154C0.638,-0.1 0.591,-0.059 0.536,-0.032C0.48,-0.004 0.421,0.01 0.358,0.01C0.291,0.01 0.232,-0.005 0.183,-0.035C0.135,-0.065 0.099,-0.108 0.077,-0.165C0.055,-0.222 0.05,-0.291 0.064,-0.373C0.077,-0.451 0.102,-0.517 0.141,-0.572C0.18,-0.626 0.227,-0.667 0.283,-0.695C0.339,-0.723 0.398,-0.737 0.462,-0.737C0.529,-0.737 0.587,-0.722 0.635,-0.692C0.684,-0.662 0.72,-0.618 0.742,-0.561C0.764,-0.504 0.768,-0.434 0.755,-0.352ZM0.579,-0.373C0.586,-0.418 0.586,-0.457 0.579,-0.488C0.572,-0.52 0.558,-0.543 0.537,-0.559C0.516,-0.575 0.489,-0.583 0.456,-0.583C0.419,-0.583 0.385,-0.574 0.356,-0.556C0.326,-0.538 0.301,-0.511 0.281,-0.477C0.261,-0.443 0.248,-0.401 0.24,-0.352C0.232,-0.306 0.231,-0.268 0.239,-0.237C0.247,-0.206 0.261,-0.183 0.283,-0.167C0.304,-0.152 0.331,-0.144 0.364,-0.144C0.401,-0.144 0.434,-0.153 0.463,-0.171C0.492,-0.189 0.517,-0.215 0.537,-0.249C0.557,-0.283 0.571,-0.324 0.579,-0.373Z" style="fill:rgb(21,32,48);fill-rule:nonzero;"/>
                </g>
                <g transform="matrix(34.5396,0,0,34.5396,77.1868,56.2291)">
                    <path d="M0.401,-0.236L0.452,-0.545L0.626,-0.545L0.535,-0L0.369,-0L0.386,-0.101L0.38,-0.101C0.364,-0.068 0.339,-0.042 0.306,-0.022C0.273,-0.003 0.237,0.007 0.196,0.007C0.158,0.007 0.127,-0.001 0.102,-0.018C0.077,-0.035 0.059,-0.059 0.048,-0.09C0.038,-0.121 0.036,-0.157 0.042,-0.198L0.101,-0.545L0.274,-0.545L0.222,-0.232C0.217,-0.202 0.221,-0.179 0.234,-0.162C0.246,-0.145 0.266,-0.136 0.293,-0.136C0.31,-0.136 0.326,-0.14 0.341,-0.148C0.356,-0.156 0.369,-0.167 0.38,-0.182C0.39,-0.196 0.397,-0.214 0.401,-0.236Z" style="fill:rgb(21,32,48);fill-rule:nonzero;"/>
                </g>
                <g transform="matrix(34.5396,0,0,34.5396,97.2531,56.2291)">
                    <path d="M0.263,0.01C0.206,0.01 0.159,-0.001 0.121,-0.024C0.084,-0.046 0.057,-0.078 0.042,-0.12C0.027,-0.163 0.024,-0.213 0.034,-0.271C0.044,-0.327 0.063,-0.376 0.092,-0.419C0.121,-0.461 0.158,-0.494 0.203,-0.517C0.247,-0.541 0.297,-0.553 0.352,-0.553C0.39,-0.553 0.425,-0.546 0.455,-0.534C0.485,-0.522 0.51,-0.504 0.529,-0.481C0.549,-0.457 0.562,-0.428 0.569,-0.393C0.577,-0.359 0.576,-0.319 0.569,-0.274L0.562,-0.231L0.088,-0.231L0.104,-0.332L0.417,-0.332C0.42,-0.35 0.418,-0.367 0.412,-0.381C0.407,-0.396 0.397,-0.407 0.384,-0.415C0.371,-0.423 0.354,-0.427 0.336,-0.427C0.316,-0.427 0.298,-0.423 0.282,-0.414C0.265,-0.405 0.251,-0.393 0.239,-0.378C0.228,-0.363 0.22,-0.346 0.217,-0.328L0.198,-0.224C0.194,-0.201 0.195,-0.182 0.201,-0.165C0.207,-0.149 0.217,-0.137 0.232,-0.128C0.246,-0.119 0.265,-0.115 0.287,-0.115C0.302,-0.115 0.317,-0.117 0.33,-0.121C0.343,-0.126 0.355,-0.132 0.366,-0.14C0.376,-0.148 0.385,-0.159 0.391,-0.171L0.55,-0.166C0.537,-0.13 0.517,-0.099 0.49,-0.073C0.464,-0.047 0.431,-0.026 0.393,-0.012C0.354,0.003 0.311,0.01 0.263,0.01Z" style="fill:rgb(21,32,48);fill-rule:nonzero;"/>
                </g>
                <g transform="matrix(34.5396,0,0,34.5396,117.368,56.2291)">
                    <path d="M0.008,-0L0.029,-0.126L0.333,-0.359C0.356,-0.377 0.376,-0.393 0.392,-0.408C0.409,-0.423 0.422,-0.439 0.432,-0.454C0.442,-0.469 0.448,-0.486 0.451,-0.504C0.454,-0.524 0.453,-0.541 0.447,-0.555C0.44,-0.57 0.43,-0.581 0.416,-0.589C0.402,-0.596 0.385,-0.6 0.365,-0.6C0.345,-0.6 0.327,-0.596 0.31,-0.588C0.293,-0.58 0.279,-0.568 0.268,-0.553C0.257,-0.537 0.25,-0.518 0.246,-0.497L0.08,-0.497C0.088,-0.546 0.106,-0.589 0.135,-0.625C0.163,-0.661 0.199,-0.688 0.243,-0.708C0.286,-0.727 0.335,-0.737 0.388,-0.737C0.443,-0.737 0.49,-0.728 0.528,-0.71C0.565,-0.691 0.593,-0.665 0.61,-0.632C0.627,-0.599 0.631,-0.561 0.624,-0.517C0.619,-0.49 0.609,-0.462 0.593,-0.435C0.577,-0.408 0.552,-0.378 0.518,-0.345C0.484,-0.312 0.437,-0.273 0.376,-0.227L0.276,-0.146L0.275,-0.142L0.57,-0.142L0.547,-0L0.008,-0Z" style="fill:rgb(21,32,48);fill-rule:nonzero;"/>
                </g>
            </g>
        </g>
    </g>
</svg>
