<?xml version="1.0" encoding="UTF-8" standalone="no"?>
<!-- Created with Inkscape (http://www.inkscape.org/) -->

<svg
   xmlns:dc="http://purl.org/dc/elements/1.1/"
   xmlns:cc="http://creativecommons.org/ns#"
   xmlns:rdf="http://www.w3.org/1999/02/22-rdf-syntax-ns#"
   xmlns:svg="http://www.w3.org/2000/svg"
   xmlns="http://www.w3.org/2000/svg"
   xmlns:sodipodi="http://sodipodi.sourceforge.net/DTD/sodipodi-0.dtd"
   xmlns:inkscape="http://www.inkscape.org/namespaces/inkscape"
   width="469.026"
   height="121.48257"
   id="svg2"
   version="1.1"
   inkscape:version="0.48.5 r10040"
   sodipodi:docname="bisque_logo_black.svg">
  <defs
     id="defs4" />
  <sodipodi:namedview
     id="base"
     pagecolor="#ffffff"
     bordercolor="#666666"
     borderopacity="1.0"
     inkscape:pageopacity="0.0"
     inkscape:pageshadow="2"
     inkscape:zoom="3.8262313"
     inkscape:cx="137.05368"
     inkscape:cy="71.75985"
     inkscape:document-units="px"
     inkscape:current-layer="text2985"
     showgrid="false"
     inkscape:window-width="1186"
     inkscape:window-height="706"
     inkscape:window-x="82"
     inkscape:window-y="0"
     inkscape:window-maximized="0"
     fit-margin-top="0"
     fit-margin-left="0"
     fit-margin-right="0"
     fit-margin-bottom="0" />
  <metadata
     id="metadata7">
    <rdf:RDF>
      <cc:Work
         rdf:about="">
        <dc:format>image/svg+xml</dc:format>
        <dc:type
           rdf:resource="http://purl.org/dc/dcmitype/StillImage" />
        <dc:title />
      </cc:Work>
    </rdf:RDF>
  </metadata>
  <g
     inkscape:label="Layer 1"
     inkscape:groupmode="layer"
     id="layer1"
     transform="translate(-28.253714,-24.695903)">
    <g
       style="font-size:40px;font-style:normal;font-variant:normal;font-weight:normal;font-stretch:normal;line-height:125%;letter-spacing:0px;word-spacing:0px;fill:#000000;fill-opacity:1;stroke:none;font-family:Varela Round;-inkscape-font-specification:Varela Round"
       id="text2985">
      <path
         d="m 131.43646,52.487903 c -3.59999,0 -6.48,2.880004 -6.48,6.624 l 0,61.775997 c 0,3.6 2.88001,6.48 6.48,6.48 3.744,0 6.624,-2.88 6.624,-6.48 l 0,-61.775997 c 0,-3.743996 -2.88,-6.624 -6.624,-6.624"
         style="font-size:144px;fill:#000000;fill-opacity:1"
         id="path2992"
         inkscape:connector-curvature="0"
         sodipodi:nodetypes="csssssc" />
      <path
         d="m 170.14546,73.799903 c 0,-5.759994 5.90401,-10.08 16.56,-10.08 6.336,0 11.80801,1.152002 16.416,2.592 0.576,0.144 1.152,0.288 1.872,0.288 3.312,0 5.76,-2.736003 5.76,-5.76 0,-2.159997 -1.44,-4.608 -4.176,-5.472 -5.90399,-2.159997 -12.96,-3.6 -20.88,-3.6 -18.71998,0 -28.08,9.792013 -28.08,22.752 0,26.207977 43.2,18.864013 43.2,31.247997 0,6.48 -4.89601,10.224 -15.984,10.224 -8.49599,0 -14.4,-2.016 -19.584,-4.32 -1.00799,-0.432 -1.728,-0.576 -2.592,-0.576 -3.31199,0 -5.616,2.88001 -5.616,5.76 0,2.016 1.00801,3.744 2.448,4.752 7.344,4.032 15.69601,6.48 26.208,6.48 18.43199,0 27.792,-9.64801 27.792,-21.312 0,-28.223968 -43.344,-18.000012 -43.344,-32.975997"
         style="font-size:144px;fill:#000000;fill-opacity:1"
         id="path2994"
         inkscape:connector-curvature="0" />
      <path
         d="m 326.91871,76.391903 c -0.576,-30.095969 -19.87203,-51.696 -50.544,-51.696 -30.81597,0 -49.968,21.600031 -50.544,51.696 0.576,30.095967 19.72803,51.695997 50.544,51.695997 33.93576,-0.21997 49.62516,-27.01718 50.544,-51.695997 m -50.544,39.455997 c -23.90397,0 -37.44,-17.280019 -37.44,-39.455997 0,-22.175977 13.53603,-39.456 37.44,-39.456 23.75998,0 37.44,17.280023 37.44,39.456 0,22.175978 -13.68002,39.455997 -37.44,39.455997"
         style="font-size:144px;fill:#000000;fill-opacity:1"
         id="path2996"
         inkscape:connector-curvature="0"
         sodipodi:nodetypes="csccccsssc" />
      <path
         d="m 370.36171,128.0879 c 12.81599,0 20.73601,-6.624 26.784,-13.248 l 0,5.904 c 0,3.744 3.02401,6.624 6.624,6.624 3.6,0 6.48,-2.88 6.48,-6.624 l 0,-61.775997 c 0,-3.599996 -2.88,-6.48 -6.48,-6.48 -3.59999,0 -6.624,2.880004 -6.624,6.48 l 0,43.199997 c -5.75999,7.2 -13.24801,13.824 -23.616,13.824 -11.23198,0 -15.84,-6.62401 -15.84,-17.567997 l 0,-39.456 c 0,-3.599996 -2.88,-6.48 -6.48,-6.48 -3.59999,0 -6.624,2.880004 -6.624,6.48 l 0,40.896 c 0,15.407987 9.36002,28.223997 25.776,28.223997"
         style="font-size:144px;fill:#000000;fill-opacity:1"
         id="path2998"
         inkscape:connector-curvature="0" />
      <path
         d="m 489.07171,110.8079 c -1.00799,0 -1.728,0.144 -2.592,0.576 -5.32799,2.736 -10.8,4.464 -19.44,4.464 -15.55198,0 -23.76,-8.35201 -25.2,-21.311997 l 48.816,0 c 4.032,0 6.624,-2.880003 6.624,-6.48 0,-19.15198 -12.09602,-36.288 -34.272,-36.288 -23.90397,0 -34.416,18.72002 -34.416,38.16 0,24.191977 13.82403,38.159997 37.296,38.159997 12.52799,0 18.86401,-2.736 25.2,-6.336 2.016,-1.152 3.744,-3.024 3.744,-5.328 0,-3.31199 -2.736,-5.616 -5.76,-5.616 m -26.064,-47.951997 c 9.21599,0 20.44801,6.048015 21.312,21.024 l -42.48,0 c 0.864,-14.975985 11.95201,-21.024 21.168,-21.024"
         style="font-size:144px;fill:#000000;fill-opacity:1"
         id="path3000"
         inkscape:connector-curvature="0" />
      <g
         id="g3793"
         transform="translate(-1.2702182,-1.8475902)"
         style="fill:#000000;fill-opacity:1">
        <path
           d="m 312.5201,130.07807 12.58519,15.64399 c 1.152,1.43999 2.73601,2.304 4.608,2.304 3.456,0 6.336,-2.88001 6.192,-6.192 0,-1.584 -0.72,-3.168 -1.728,-4.176 l -13.422,-14.468"
           style="font-size:144px;font-style:normal;font-variant:normal;font-weight:normal;font-stretch:normal;line-height:125%;letter-spacing:0px;word-spacing:0px;fill:#000000;fill-opacity:1;stroke:none;font-family:Varela Round;-inkscape-font-specification:Varela Round"
           id="path3013-4"
           inkscape:connector-curvature="0"
           sodipodi:nodetypes="ccsccc" />
        <rect
           inkscape:transform-center-y="-8.1698659"
           inkscape:transform-center-x="-18.751254"
           transform="matrix(0.76659068,-0.64213607,0.6640255,0.74770993,0,0)"
           y="296.50348"
           x="147.47234"
           height="2.3233874"
           width="10.795962"
           id="rect3005"
           style="fill:#000000;fill-opacity:1;stroke:none" />
        <rect
           inkscape:transform-center-y="-8.1698659"
           inkscape:transform-center-x="-18.751254"
           transform="matrix(0.76659068,-0.64213607,0.6640255,0.74770993,0,0)"
           y="292.69611"
           x="147.52473"
           height="2.3233874"
           width="10.795962"
           id="rect3005-0"
           style="font-size:40px;font-style:normal;font-variant:normal;font-weight:normal;font-stretch:normal;line-height:125%;letter-spacing:0px;word-spacing:0px;fill:#000000;fill-opacity:1;stroke:none;font-family:Varela Round;-inkscape-font-specification:Varela Round" />
      </g>
      <path
         d="m 86.861714,74.375903 c 7.343993,-3.311996 14.111996,-10.224012 14.111996,-22.176 0,-15.551984 -11.232017,-26.064 -32.255996,-26.064 l -33.984,0 c -3.599996,0 -6.48,3.024004 -6.48,6.624 l 0,87.407997 c 0,3.6 2.880004,6.48 6.48,6.48 l 34.848,0 c 26.639974,0 37.007996,-11.37601 37.007996,-28.223997 0,-13.247986 -9.360006,-20.736003 -19.727996,-24.048 m 1.584,-21.168 c 0,9.359991 -5.040018,16.416 -23.184,16.416 l -23.904,0 0,-31.248 26.352,0 c 13.103987,0 20.736,5.904009 20.736,14.832 m -20.16,61.199997 -26.928,0 0,-32.975997 27.072,0 c 16.559984,0 25.488,5.040012 25.488,16.416 0,9.791987 -5.90402,16.559997 -25.632,16.559997"
         style="font-size:144px;fill:#000000;fill-opacity:1"
         id="path2990"
         inkscape:connector-curvature="0" />
      <path
         sodipodi:nodetypes="csssssssc"
         inkscape:connector-curvature="0"
         id="path3009"
         style="font-size:144px;fill:#00c9f2;fill-opacity:1;font-family:Varela Round;-inkscape-font-specification:Varela Round"
         d="m 139.25751,33.303886 c 0,-4.032 -3.312,-7.344 -7.344,-7.344 -0.28799,0 -0.576,0 -0.864,0 -4.03199,0 -7.344,3.312 -7.344,7.344 0,0.432 0,0.432 0,0.576 0,4.03199 3.31201,7.344 7.344,7.344 0.576,0 0.72001,0 0.864,0 4.032,0 7.344,-3.31201 7.344,-7.344 0,-0.144 0,-0.432 0,-0.576" />
    </g>
  </g>
</svg>
