<?xml version="1.0" encoding="UTF-8" standalone="no"?>
<!-- Created with Inkscape (http://www.inkscape.org/) -->

<svg
   xmlns:dc="http://purl.org/dc/elements/1.1/"
   xmlns:cc="http://creativecommons.org/ns#"
   xmlns:rdf="http://www.w3.org/1999/02/22-rdf-syntax-ns#"
   xmlns:svg="http://www.w3.org/2000/svg"
   xmlns="http://www.w3.org/2000/svg"
   xmlns:sodipodi="http://sodipodi.sourceforge.net/DTD/sodipodi-0.dtd"
   xmlns:inkscape="http://www.inkscape.org/namespaces/inkscape"
   width="744.09448819"
   height="744.09448819"
   id="svg2"
   version="1.1"
   inkscape:version="0.48.4 r9939"
   sodipodi:docname="stop.svg">
  <defs
     id="defs4" />
  <sodipodi:namedview
     id="base"
     pagecolor="#ffffff"
     bordercolor="#666666"
     borderopacity="1.0"
     inkscape:pageopacity="0.0"
     inkscape:pageshadow="2"
     inkscape:zoom="0.9"
     inkscape:cx="389.2051"
     inkscape:cy="394.58716"
     inkscape:document-units="px"
     inkscape:current-layer="layer1"
     showgrid="false"
     inkscape:window-width="1460"
     inkscape:window-height="942"
     inkscape:window-x="1942"
     inkscape:window-y="0"
     inkscape:window-maximized="0" />
  <metadata
     id="metadata7">
    <rdf:RDF>
      <cc:Work
         rdf:about="">
        <dc:format>image/svg+xml</dc:format>
        <dc:type
           rdf:resource="http://purl.org/dc/dcmitype/StillImage" />
        <dc:title />
      </cc:Work>
    </rdf:RDF>
  </metadata>
  <g
     inkscape:label="Layer 1"
     inkscape:groupmode="layer"
     id="layer1">
    <g
       transform="matrix(23.484472,0,0,22.818182,40.956523,-23521.214)"
       id="layer1-9"
       inkscape:label="Layer 1" />
    <path
       sodipodi:type="star"
       style="fill:#ff0000"
       id="path3006"
       sodipodi:sides="8"
       sodipodi:cx="154.28571"
       sodipodi:cy="60.933613"
       sodipodi:r1="289.68668"
       sodipodi:r2="267.63559"
       sodipodi:arg1="0.38416936"
       sodipodi:arg2="0.77686845"
       inkscape:flatsided="true"
       inkscape:rounded="0"
       inkscape:randomized="0"
       d="M 422.85714,169.50504 267.42279,327.61389 45.714276,329.50505 -112.39457,174.0707 -114.28573,-47.637816 41.148617,-205.74666 262.85713,-207.63782 420.96598,-52.203475 z"
       transform="matrix(-0.01099548,1.3403804,-1.3403804,-0.01099548,457.65636,166.23063)" />
    <g
       transform="scale(0.90459589,1.105466)"
       style="font-size:276.36651611px;font-style:normal;font-variant:normal;font-weight:normal;font-stretch:normal;line-height:125%;letter-spacing:0px;word-spacing:0px;fill:#ffffff;fill-opacity:1;stroke:none;font-family:Arial Narrow;-inkscape-font-specification:Sans"
       id="text3016">
      <path
         d="m 119.22318,380.61926 20.24169,-2.15911 c 1.07952,10.88558 3.53101,19.36459 7.35448,25.43705 3.82339,6.07254 9.28864,10.95303 16.39577,14.64149 7.10702,3.68851 15.11372,5.53275 24.02013,5.53273 12.77467,2e-5 22.69308,-3.1262 29.75528,-9.37865 7.06199,-6.2524 10.59304,-14.37156 10.59315,-24.3575 -1.1e-4,-5.84754 -1.28209,-10.95294 -3.84592,-15.31621 -2.56406,-4.36313 -6.43246,-7.93916 -11.60523,-10.72809 -5.17297,-2.78878 -16.35087,-6.70217 -33.53373,-11.74018 -15.29377,-4.49806 -26.17929,-9.04119 -32.65659,-13.62941 -6.47737,-4.588 -11.5153,-10.41311 -15.11379,-17.47532 -3.59855,-7.06197 -5.3978,-15.04618 -5.39779,-23.95267 -10e-6,-16.01326 5.17286,-29.10287 15.51863,-39.26887 10.34571,-10.16563 24.28997,-15.24854 41.83282,-15.24874 12.05497,2e-4 22.60312,2.38422 31.64451,7.15206 9.04117,4.76824 16.05828,11.60542 21.05135,20.51158 4.99282,8.90651 7.66922,19.38719 8.02921,31.44209 l -20.64653,1.88922 c -1.07967,-12.86456 -4.92558,-22.40063 -11.53776,-28.60825 -6.61238,-6.20727 -15.90106,-9.311 -27.86606,-9.31117 -12.14507,1.7e-4 -21.41126,2.72155 -27.79858,8.16414 -6.38742,5.44293 -9.5811,12.48253 -9.58107,21.11883 -3e-5,8.00685 2.339,14.2143 7.01712,18.62235 4.67803,4.40832 15.2037,8.86149 31.57704,13.35952 16.01333,4.4083 27.2587,8.23173 33.73614,11.47029 9.89582,5.03803 17.36275,11.6728 22.4008,19.90433 5.0378,8.23169 7.55676,18.06015 7.5569,29.48539 -1.4e-4,11.33539 -2.65405,21.65864 -7.96173,30.96978 -5.30795,9.31119 -12.52747,16.39578 -21.65861,21.25377 -9.13135,4.85801 -20.12932,7.28701 -32.99395,7.28701 -20.06182,0 -36.05273,-6.02752 -47.9728,-18.08257 -11.92012,-12.05503 -18.10507,-28.38331 -18.55488,-48.98489 z"
         style=""
         id="path2998" />
      <path
         d="m 319.21106,444.17816 0,-174.48335 -53.43806,0 0,-23.34541 128.6022,0 0,23.34541 -53.70795,0 0,174.48335 z"
         style=""
         id="path3000" />
      <path
         d="m 410.29864,347.82773 c -10e-6,-33.73602 7.42194,-59.66785 22.26586,-77.79556 14.84386,-18.12736 33.33125,-27.19113 55.46223,-27.19133 14.30402,2e-4 27.34865,4.04853 39.13393,12.14501 11.78502,8.09686 21.11868,19.85951 28.001,35.28801 6.88201,15.4288 10.32309,33.80374 10.32326,55.12486 -1.7e-4,29.32803 -6.65743,53.2132 -19.9718,71.65558 -14.66411,20.33166 -33.8712,30.49747 -57.62134,30.49748 -23.93024,-1e-5 -43.18231,-10.43571 -57.75628,-31.30715 -13.22459,-18.89219 -19.83687,-41.69781 -19.83686,-68.4169 z m 22.13092,0.40483 c -4e-5,24.38006 5.37525,43.29477 16.12587,56.7442 10.75053,13.4495 23.81765,20.17423 39.20141,20.17421 15.74343,2e-5 28.94549,-6.79218 39.60623,-20.37663 10.66049,-13.58437 15.99079,-33.55615 15.99094,-59.9154 -1.5e-4,-17.0029 -2.74402,-32.20664 -8.23162,-45.61127 -4.2284,-10.25563 -10.59328,-18.46475 -19.09466,-24.62738 -8.50162,-6.1623 -17.7903,-9.24353 -27.86606,-9.24371 -16.19342,1.8e-4 -29.53043,6.7474 -40.01107,20.24169 -10.48073,13.4946 -15.72108,34.36601 -15.72104,62.61429 z"
         style=""
         id="path3002" />
      <path
         d="m 592.87869,444.17816 0,-197.82876 61.1299,0 c 14.39399,1.9e-4 25.00962,1.25968 31.84692,3.77844 9.35604,3.41879 16.82296,9.76118 22.4008,19.02719 5.57757,9.26636 8.36642,20.64668 8.36657,34.14098 -1.5e-4,17.81281 -4.54328,32.34183 -13.62941,43.5871 -9.08639,11.24547 -24.78492,16.86816 -47.09566,16.86808 l -41.56293,0 0,80.42697 z m 21.45619,-103.77239 41.96776,0 c 13.22448,1.1e-4 22.8955,-2.99116 29.01309,-8.97381 6.11737,-5.98243 9.17611,-15.00121 9.17623,-27.05639 -1.2e-4,-7.82664 -1.507,-14.52888 -4.52064,-20.10675 -3.01387,-5.57754 -6.65738,-9.40097 -10.93051,-11.47029 -4.27335,-2.06897 -11.98767,-3.10355 -23.143,-3.10372 l -41.56293,0 z"
         style=""
         id="path3004" />
    </g>
    <path
       sodipodi:type="star"
       style="fill:none;stroke:#ffffff;stroke-width:10.73518372;stroke-miterlimit:4;stroke-opacity:1;stroke-dasharray:none"
       id="path3790"
       sodipodi:sides="8"
       sodipodi:cx="225.71429"
       sodipodi:cy="238.07648"
       sodipodi:r1="186.8318"
       sodipodi:r2="172.61008"
       sodipodi:arg1="0.40890783"
       sodipodi:arg2="0.80160691"
       inkscape:flatsided="true"
       inkscape:rounded="0"
       inkscape:randomized="0"
       d="M 397.14287,312.36219 294.40467,411.82271 151.42858,409.50505 51.968057,306.76685 54.285723,163.79076 157.02392,64.330239 300.00001,66.647906 399.46053,169.3861 z"
       transform="matrix(1.8666633,-0.0306706,0.02994201,1.8669527,-53.050116,-62.913559)" />
  </g>
</svg>
