<?xml version="1.0" encoding="UTF-8" standalone="no"?>
<!DOCTYPE svg PUBLIC "-//W3C//DTD SVG 1.1//EN" "http://www.w3.org/Graphics/SVG/1.1/DTD/svg11.dtd">
<svg width="100%" height="100%" viewBox="0 0 766 265" version="1.1" xmlns="http://www.w3.org/2000/svg" xmlns:xlink="http://www.w3.org/1999/xlink" xml:space="preserve" xmlns:serif="http://www.serif.com/" style="fill-rule:evenodd;clip-rule:evenodd;stroke-linejoin:round;stroke-miterlimit:2;">
    <g transform="matrix(0.24,0,0,0.24,-24.0511,-91.9265)">
        <g transform="matrix(1,0,0,1,-59.0551,270.458)">
            <g transform="matrix(1.17876,0,0,1.17876,-8.2869,-938.216)">
                <g transform="matrix(842.341,0,0,842.341,89.4991,1484.94)">
                    <path d="M0.302,0C0.45,0 0.54,-0.073 0.54,-0.188C0.54,-0.29 0.464,-0.354 0.364,-0.365L0.364,-0.368C0.448,-0.384 0.503,-0.449 0.503,-0.533C0.503,-0.635 0.42,-0.705 0.297,-0.705L0.063,-0.705L0.063,0L0.302,0ZM0.101,-0.669L0.292,-0.669C0.396,-0.669 0.464,-0.615 0.464,-0.53C0.464,-0.438 0.393,-0.38 0.282,-0.38L0.101,-0.38L0.101,-0.669ZM0.101,-0.035L0.101,-0.345L0.289,-0.345C0.422,-0.345 0.501,-0.286 0.501,-0.189C0.501,-0.094 0.426,-0.035 0.299,-0.035L0.101,-0.035Z" style="fill:rgb(0,11,63);fill-rule:nonzero;"/>
                </g>
                <g transform="matrix(842.341,0,0,842.341,600.3,1484.94)">
                    <path d="M0.061,0L0.099,0L0.099,-0.508L0.061,-0.508L0.061,0ZM0.08,-0.633C0.096,-0.633 0.109,-0.646 0.109,-0.663C0.109,-0.679 0.096,-0.692 0.08,-0.692C0.063,-0.692 0.05,-0.679 0.05,-0.663C0.05,-0.646 0.063,-0.633 0.08,-0.633Z" style="fill:rgb(0,11,63);fill-rule:nonzero;"/>
                </g>
                <g transform="matrix(842.341,0,0,842.341,768.077,1484.94)">
                    <path d="M0.044,-0.378C0.044,-0.313 0.088,-0.272 0.183,-0.25L0.256,-0.233C0.338,-0.213 0.37,-0.185 0.37,-0.131C0.37,-0.069 0.31,-0.025 0.223,-0.025C0.138,-0.025 0.075,-0.073 0.065,-0.143L0.028,-0.143C0.036,-0.055 0.115,0.008 0.222,0.008C0.331,0.008 0.408,-0.051 0.408,-0.134C0.408,-0.205 0.369,-0.242 0.268,-0.266L0.197,-0.283C0.116,-0.302 0.082,-0.33 0.082,-0.379C0.082,-0.439 0.139,-0.483 0.217,-0.483C0.298,-0.483 0.353,-0.438 0.363,-0.362L0.4,-0.362C0.391,-0.457 0.32,-0.516 0.218,-0.516C0.117,-0.516 0.044,-0.458 0.044,-0.378Z" style="fill:rgb(0,11,63);fill-rule:nonzero;"/>
                </g>
                <g transform="matrix(842.341,0,0,842.341,1989.88,1484.94)">
                    <path d="M0.451,-0.508L0.413,-0.508L0.413,-0.203C0.413,-0.096 0.34,-0.026 0.244,-0.026C0.152,-0.026 0.091,-0.084 0.091,-0.183L0.091,-0.508L0.053,-0.508L0.053,-0.177C0.053,-0.063 0.127,0.008 0.236,0.008C0.32,0.008 0.392,-0.042 0.414,-0.11L0.416,-0.11L0.416,0L0.451,0L0.451,-0.508Z" style="fill:rgb(0,11,63);fill-rule:nonzero;"/>
                </g>
                <g transform="matrix(842.341,0,0,842.341,2450.92,1484.94)">
                    <path d="M0.253,-0.482C0.36,-0.482 0.432,-0.399 0.432,-0.279L0.07,-0.279C0.075,-0.4 0.147,-0.482 0.253,-0.482ZM0.427,-0.142C0.412,-0.076 0.351,-0.026 0.258,-0.026C0.144,-0.026 0.069,-0.107 0.069,-0.246L0.069,-0.248L0.471,-0.248L0.471,-0.269C0.471,-0.417 0.385,-0.516 0.253,-0.516C0.119,-0.516 0.031,-0.411 0.031,-0.253C0.031,-0.089 0.119,0.008 0.257,0.008C0.371,0.008 0.448,-0.056 0.465,-0.142L0.427,-0.142Z" style="fill:rgb(0,11,63);fill-rule:nonzero;"/>
                </g>
            </g>
            <g transform="matrix(0.773264,-0.793209,0.982533,0.957828,-430.402,1110.82)">
                <rect x="1730.32" y="1030.61" width="112.326" height="302.882"/>
            </g>
            <g transform="matrix(1.72196,-0.243255,0.246336,1.74377,1327.55,133.76)">
                <path d="M414.102,115.199C393.609,109 372.309,105.875 350.898,105.93C323.664,105.879 296.66,110.91 271.273,120.762L271.184,120.762C249.809,129.039 229.855,140.594 212.039,155.012L211.949,155.012C183.102,178.379 160.531,208.566 146.273,242.848C138.359,192.969 147.836,141.887 173.109,98.164C175.758,93.574 178.582,89.07 181.496,84.656C190.324,71.645 200.535,59.629 211.949,48.816C226.426,45.688 241.191,44.117 256,44.137C316.445,44.098 374.004,69.969 414.102,115.199Z" style="fill:rgb(6,14,81);fill-rule:nonzero;"/>
            </g>
            <g transform="matrix(1.72196,-0.243255,0.246336,1.74377,1327.55,133.76)">
                <path d="M467.863,256C467.883,278.902 464.152,301.656 456.828,323.355C453.109,307.617 447.66,292.344 440.586,277.805C438.203,273.125 435.73,268.359 433.082,263.77C419.496,240.156 401.625,219.289 380.379,202.238L380.379,202.152C362.504,187.77 342.488,176.27 321.059,168.078C286.383,154.672 248.898,150.18 212.039,155.012C229.855,140.594 249.809,129.039 271.184,120.762L271.273,120.762C296.66,110.91 323.664,105.879 350.898,105.93C372.309,105.875 393.609,109 414.102,115.199L414.191,115.199C448.801,153.926 467.914,204.059 467.863,256Z" style="fill:rgb(91,196,243);fill-rule:nonzero;"/>
            </g>
            <g transform="matrix(1.72196,-0.243255,0.246336,1.74377,1327.55,133.76)">
                <path d="M456.828,323.355L456.828,323.441C432.645,395.059 372.242,448.438 298.195,463.625C313.563,448.98 326.762,432.215 337.391,413.836C382.082,336.137 375.641,239.18 321.059,168.078C342.488,176.27 362.504,187.77 380.379,202.152L380.379,202.238C401.625,219.289 419.496,240.156 433.082,263.77C435.73,268.359 438.203,273.125 440.586,277.805C447.66,292.344 453.109,307.617 456.828,323.355Z" style="fill:rgb(59,151,211);fill-rule:nonzero;"/>
            </g>
            <g transform="matrix(1.72196,-0.243255,0.246336,1.74377,1327.55,133.76)">
                <path d="M298.551,356.988C280.68,371.375 260.699,382.93 239.316,391.238C213.887,401.051 186.859,406.078 159.602,406.07C154.219,406.07 148.922,405.891 143.715,405.449C128.383,404.328 113.207,401.633 98.426,397.418L98.34,397.418C47.957,341.332 31.211,262.684 54.379,190.941C71.777,260.949 122.215,318.074 189.527,344.012C224.223,357.348 261.695,361.809 298.551,356.988Z" style="fill:rgb(36,35,142);fill-rule:nonzero;"/>
            </g>
            <g transform="matrix(1.72196,-0.243255,0.246336,1.74377,1327.55,133.76)">
                <path d="M173.109,98.164C128.508,175.926 134.98,272.871 189.527,344.012C122.215,318.074 71.777,260.949 54.379,190.941C77.785,118.848 137.832,64.687 211.949,48.816C200.535,59.629 190.324,71.645 181.496,84.656C178.582,89.07 175.758,93.574 173.109,98.164Z" style="fill:rgb(32,62,113);fill-rule:nonzero;"/>
            </g>
            <g transform="matrix(1.72196,-0.243255,0.246336,1.74377,1327.55,133.76)">
                <path d="M337.391,413.836C326.762,432.215 313.563,448.98 298.195,463.625C284.313,466.473 270.172,467.891 256,467.863C195.836,467.91 138.512,442.281 98.426,397.418C113.207,401.633 128.383,404.328 143.715,405.449C148.922,405.891 154.219,406.07 159.602,406.07C186.859,406.078 213.887,401.051 239.316,391.238C295.898,369.309 341.055,325.203 364.316,269.152C372.195,319.043 362.691,370.125 337.391,413.836Z" style="fill:rgb(44,57,102);fill-rule:nonzero;"/>
            </g>
            <g transform="matrix(1.30354,0,0,1.30354,-583.355,-228.154)">
                <circle cx="1853.01" cy="575.032" r="236.706" style="fill:white;"/>
            </g>
        </g>
        <g transform="matrix(1,0,0,1,-59.0551,0)">
            <g transform="matrix(200,0,0,200,159.268,1484.27)">
                <path d="M0.341,-0.714C0.151,-0.714 0.031,-0.574 0.031,-0.353C0.031,-0.13 0.151,0.01 0.341,0.01C0.531,0.01 0.652,-0.13 0.652,-0.353C0.652,-0.574 0.531,-0.714 0.341,-0.714ZM0.341,-0.691C0.516,-0.691 0.627,-0.56 0.627,-0.353C0.627,-0.146 0.516,-0.013 0.341,-0.013C0.167,-0.013 0.055,-0.146 0.055,-0.353C0.055,-0.56 0.167,-0.691 0.341,-0.691Z" style="fill:rgb(0,11,63);fill-rule:nonzero;"/>
            </g>
            <g transform="matrix(200,0,0,200,298.526,1484.27)">
                <path d="M0.08,0L0.104,0L0.104,-0.486L0.224,-0.486L0.224,-0.508L0.104,-0.508L0.104,-0.585C0.104,-0.654 0.138,-0.68 0.192,-0.68C0.206,-0.68 0.218,-0.678 0.229,-0.675L0.229,-0.697C0.22,-0.7 0.206,-0.702 0.191,-0.702C0.124,-0.702 0.08,-0.668 0.08,-0.587L0.08,-0.508L0.009,-0.508L0.009,-0.486L0.08,-0.486L0.08,0Z" style="fill:rgb(0,11,63);fill-rule:nonzero;"/>
            </g>
            <g transform="matrix(200,0,0,200,347.159,1484.27)">
                <path d="M0.08,0L0.104,0L0.104,-0.486L0.224,-0.486L0.224,-0.508L0.104,-0.508L0.104,-0.585C0.104,-0.654 0.138,-0.68 0.192,-0.68C0.206,-0.68 0.218,-0.678 0.229,-0.675L0.229,-0.697C0.22,-0.7 0.206,-0.702 0.191,-0.702C0.124,-0.702 0.08,-0.668 0.08,-0.587L0.08,-0.508L0.009,-0.508L0.009,-0.486L0.08,-0.486L0.08,0Z" style="fill:rgb(0,11,63);fill-rule:nonzero;"/>
            </g>
            <g transform="matrix(200,0,0,200,395.792,1484.27)">
                <path d="M0.061,0L0.085,0L0.085,-0.508L0.061,-0.508L0.061,0ZM0.073,-0.645C0.085,-0.645 0.096,-0.654 0.096,-0.667C0.096,-0.68 0.085,-0.69 0.073,-0.69C0.061,-0.69 0.05,-0.68 0.05,-0.667C0.05,-0.654 0.061,-0.645 0.073,-0.645Z" style="fill:rgb(0,11,63);fill-rule:nonzero;"/>
            </g>
            <g transform="matrix(200,0,0,200,424.991,1484.27)">
                <path d="M0.453,-0.358C0.436,-0.449 0.356,-0.515 0.252,-0.515C0.117,-0.515 0.031,-0.414 0.031,-0.254C0.031,-0.093 0.117,0.007 0.252,0.007C0.357,0.007 0.436,-0.055 0.452,-0.145L0.427,-0.145C0.412,-0.068 0.344,-0.015 0.252,-0.015C0.13,-0.015 0.055,-0.107 0.055,-0.254C0.055,-0.4 0.131,-0.493 0.252,-0.493C0.343,-0.493 0.412,-0.437 0.428,-0.358L0.453,-0.358Z" style="fill:rgb(0,11,63);fill-rule:nonzero;"/>
            </g>
            <g transform="matrix(200,0,0,200,521.182,1484.27)">
                <path d="M0.061,0L0.085,0L0.085,-0.508L0.061,-0.508L0.061,0ZM0.073,-0.645C0.085,-0.645 0.096,-0.654 0.096,-0.667C0.096,-0.68 0.085,-0.69 0.073,-0.69C0.061,-0.69 0.05,-0.68 0.05,-0.667C0.05,-0.654 0.061,-0.645 0.073,-0.645Z" style="fill:rgb(0,11,63);fill-rule:nonzero;"/>
            </g>
            <g transform="matrix(200,0,0,200,550.382,1484.27)">
                <path d="M0.212,-0.015C0.128,-0.015 0.067,-0.065 0.067,-0.135C0.067,-0.208 0.123,-0.251 0.225,-0.259L0.405,-0.272L0.405,-0.187C0.405,-0.092 0.318,-0.015 0.212,-0.015ZM0.21,0.007C0.301,0.007 0.38,-0.043 0.404,-0.115L0.405,-0.115L0.405,0L0.429,0L0.429,-0.341C0.429,-0.449 0.361,-0.515 0.252,-0.515C0.145,-0.515 0.072,-0.456 0.061,-0.36L0.084,-0.36C0.097,-0.445 0.158,-0.493 0.252,-0.493C0.348,-0.493 0.405,-0.435 0.405,-0.339L0.405,-0.293L0.222,-0.28C0.104,-0.27 0.043,-0.221 0.043,-0.135C0.043,-0.051 0.112,0.007 0.21,0.007Z" style="fill:rgb(0,11,63);fill-rule:nonzero;"/>
            </g>
            <g transform="matrix(200,0,0,200,646.768,1484.27)">
                <rect x="0.061" y="-0.705" width="0.024" height="0.705" style="fill:rgb(0,11,63);fill-rule:nonzero;"/>
            </g>
            <g transform="matrix(200,0,0,200,716.592,1484.27)">
                <path d="M0.061,-0.705L0.061,0L0.273,0C0.488,0 0.61,-0.127 0.61,-0.353C0.61,-0.577 0.488,-0.705 0.273,-0.705L0.061,-0.705ZM0.085,-0.682L0.272,-0.682C0.473,-0.682 0.585,-0.563 0.585,-0.353C0.585,-0.141 0.474,-0.023 0.272,-0.023L0.085,-0.023L0.085,-0.682Z" style="fill:rgb(0,11,63);fill-rule:nonzero;"/>
            </g>
            <g transform="matrix(200,0,0,200,844.717,1484.27)">
                <path d="M0.254,0.007C0.388,0.007 0.479,-0.093 0.479,-0.254C0.479,-0.415 0.388,-0.515 0.254,-0.515C0.122,-0.515 0.031,-0.415 0.031,-0.254C0.031,-0.093 0.121,0.007 0.254,0.007ZM0.254,-0.015C0.135,-0.015 0.055,-0.106 0.055,-0.254C0.055,-0.401 0.135,-0.493 0.254,-0.493C0.374,-0.493 0.455,-0.401 0.455,-0.254C0.455,-0.107 0.374,-0.015 0.254,-0.015Z" style="fill:rgb(0,11,63);fill-rule:nonzero;"/>
            </g>
            <g transform="matrix(200,0,0,200,946.573,1484.27)">
                <path d="M0.453,-0.358C0.436,-0.449 0.356,-0.515 0.252,-0.515C0.117,-0.515 0.031,-0.414 0.031,-0.254C0.031,-0.093 0.117,0.007 0.252,0.007C0.357,0.007 0.436,-0.055 0.452,-0.145L0.427,-0.145C0.412,-0.068 0.344,-0.015 0.252,-0.015C0.13,-0.015 0.055,-0.107 0.055,-0.254C0.055,-0.4 0.131,-0.493 0.252,-0.493C0.343,-0.493 0.412,-0.437 0.428,-0.358L0.453,-0.358Z" style="fill:rgb(0,11,63);fill-rule:nonzero;"/>
            </g>
            <g transform="matrix(200,0,0,200,1042.76,1484.27)">
                <path d="M0.445,-0.508L0.421,-0.508L0.421,-0.201C0.421,-0.087 0.341,-0.015 0.241,-0.015C0.145,-0.015 0.077,-0.076 0.077,-0.18L0.077,-0.508L0.053,-0.508L0.053,-0.177C0.053,-0.064 0.129,0.007 0.238,0.007C0.324,0.007 0.401,-0.047 0.421,-0.118L0.422,-0.118L0.422,0L0.445,0L0.445,-0.508Z" style="fill:rgb(0,11,63);fill-rule:nonzero;"/>
            </g>
            <g transform="matrix(200,0,0,200,1143.06,1484.27)">
                <path d="M0.057,0L0.081,0L0.081,-0.299C0.081,-0.418 0.143,-0.493 0.233,-0.493C0.315,-0.493 0.374,-0.43 0.374,-0.334L0.374,0L0.398,0L0.398,-0.313C0.398,-0.42 0.459,-0.493 0.55,-0.493C0.637,-0.493 0.691,-0.433 0.691,-0.335L0.691,0L0.715,0L0.715,-0.341C0.715,-0.447 0.65,-0.515 0.554,-0.515C0.467,-0.515 0.407,-0.455 0.392,-0.388L0.391,-0.388C0.378,-0.457 0.319,-0.515 0.236,-0.515C0.152,-0.515 0.098,-0.46 0.08,-0.389L0.079,-0.389L0.079,-0.508L0.057,-0.508L0.057,0Z" style="fill:rgb(0,11,63);fill-rule:nonzero;"/>
            </g>
            <g transform="matrix(200,0,0,200,1296.77,1484.27)">
                <path d="M0.251,-0.493C0.366,-0.493 0.443,-0.404 0.443,-0.274L0.056,-0.274C0.061,-0.406 0.138,-0.493 0.251,-0.493ZM0.437,-0.141C0.421,-0.069 0.357,-0.015 0.256,-0.015C0.135,-0.015 0.055,-0.101 0.055,-0.251L0.055,-0.252L0.468,-0.252L0.468,-0.271C0.468,-0.417 0.381,-0.515 0.251,-0.515C0.119,-0.515 0.031,-0.412 0.031,-0.254C0.031,-0.089 0.119,0.007 0.255,0.007C0.369,0.007 0.444,-0.056 0.461,-0.141L0.437,-0.141Z" style="fill:rgb(0,11,63);fill-rule:nonzero;"/>
            </g>
            <g transform="matrix(200,0,0,200,1396.48,1484.27)">
                <path d="M0.057,0L0.081,0L0.081,-0.305C0.081,-0.416 0.152,-0.493 0.256,-0.493C0.355,-0.493 0.424,-0.43 0.424,-0.327L0.424,0L0.448,0L0.448,-0.329C0.448,-0.443 0.372,-0.515 0.26,-0.515C0.171,-0.515 0.102,-0.463 0.08,-0.389L0.079,-0.389L0.079,-0.508L0.057,-0.508L0.057,0Z" style="fill:rgb(0,11,63);fill-rule:nonzero;"/>
            </g>
            <g transform="matrix(200,0,0,200,1496.77,1484.27)">
                <path d="M0.085,-0.644L0.085,-0.508L0.009,-0.508L0.009,-0.486L0.085,-0.486L0.085,-0.111C0.085,-0.031 0.115,0 0.184,0C0.186,0 0.22,0 0.221,0L0.221,-0.022C0.22,-0.022 0.186,-0.022 0.186,-0.022C0.132,-0.022 0.109,-0.047 0.109,-0.111L0.109,-0.486L0.211,-0.486L0.211,-0.508L0.109,-0.508L0.109,-0.644L0.085,-0.644Z" style="fill:rgb(0,11,63);fill-rule:nonzero;"/>
            </g>
            <g transform="matrix(200,0,0,200,1541.98,1484.27)">
                <path d="M0.212,-0.015C0.128,-0.015 0.067,-0.065 0.067,-0.135C0.067,-0.208 0.123,-0.251 0.225,-0.259L0.405,-0.272L0.405,-0.187C0.405,-0.092 0.318,-0.015 0.212,-0.015ZM0.21,0.007C0.301,0.007 0.38,-0.043 0.404,-0.115L0.405,-0.115L0.405,0L0.429,0L0.429,-0.341C0.429,-0.449 0.361,-0.515 0.252,-0.515C0.145,-0.515 0.072,-0.456 0.061,-0.36L0.084,-0.36C0.097,-0.445 0.158,-0.493 0.252,-0.493C0.348,-0.493 0.405,-0.435 0.405,-0.339L0.405,-0.293L0.222,-0.28C0.104,-0.27 0.043,-0.221 0.043,-0.135C0.043,-0.051 0.112,0.007 0.21,0.007Z" style="fill:rgb(0,11,63);fill-rule:nonzero;"/>
            </g>
            <g transform="matrix(200,0,0,200,1638.37,1484.27)">
                <path d="M0.085,-0.644L0.085,-0.508L0.009,-0.508L0.009,-0.486L0.085,-0.486L0.085,-0.111C0.085,-0.031 0.115,0 0.184,0C0.186,0 0.22,0 0.221,0L0.221,-0.022C0.22,-0.022 0.186,-0.022 0.186,-0.022C0.132,-0.022 0.109,-0.047 0.109,-0.111L0.109,-0.486L0.211,-0.486L0.211,-0.508L0.109,-0.508L0.109,-0.644L0.085,-0.644Z" style="fill:rgb(0,11,63);fill-rule:nonzero;"/>
            </g>
            <g transform="matrix(200,0,0,200,1688.27,1484.27)">
                <path d="M0.061,0L0.085,0L0.085,-0.508L0.061,-0.508L0.061,0ZM0.073,-0.645C0.085,-0.645 0.096,-0.654 0.096,-0.667C0.096,-0.68 0.085,-0.69 0.073,-0.69C0.061,-0.69 0.05,-0.68 0.05,-0.667C0.05,-0.654 0.061,-0.645 0.073,-0.645Z" style="fill:rgb(0,11,63);fill-rule:nonzero;"/>
            </g>
            <g transform="matrix(200,0,0,200,1717.47,1484.27)">
                <path d="M0.254,0.007C0.388,0.007 0.479,-0.093 0.479,-0.254C0.479,-0.415 0.388,-0.515 0.254,-0.515C0.122,-0.515 0.031,-0.415 0.031,-0.254C0.031,-0.093 0.121,0.007 0.254,0.007ZM0.254,-0.015C0.135,-0.015 0.055,-0.106 0.055,-0.254C0.055,-0.401 0.135,-0.493 0.254,-0.493C0.374,-0.493 0.455,-0.401 0.455,-0.254C0.455,-0.107 0.374,-0.015 0.254,-0.015Z" style="fill:rgb(0,11,63);fill-rule:nonzero;"/>
            </g>
            <g transform="matrix(200,0,0,200,1819.33,1484.27)">
                <path d="M0.057,0L0.081,0L0.081,-0.305C0.081,-0.416 0.152,-0.493 0.256,-0.493C0.355,-0.493 0.424,-0.43 0.424,-0.327L0.424,0L0.448,0L0.448,-0.329C0.448,-0.443 0.372,-0.515 0.26,-0.515C0.171,-0.515 0.102,-0.463 0.08,-0.389L0.079,-0.389L0.079,-0.508L0.057,-0.508L0.057,0Z" style="fill:rgb(0,11,63);fill-rule:nonzero;"/>
            </g>
        </g>
    </g>
</svg>
