<?xml version="1.0" encoding="UTF-8" standalone="no"?><!DOCTYPE svg PUBLIC "-//W3C//DTD SVG 1.1//EN" "http://www.w3.org/Graphics/SVG/1.1/DTD/svg11.dtd"><svg width="100%" height="100%" viewBox="0 0 2835 426" version="1.1" xmlns="http://www.w3.org/2000/svg" xmlns:xlink="http://www.w3.org/1999/xlink" xml:space="preserve" xmlns:serif="http://www.serif.com/" style="fill-rule:evenodd;clip-rule:evenodd;stroke-linecap:round;stroke-linejoin:round;stroke-miterlimit:1.5;"><g><path d="M512.863,168.766c0,-28.745 -23.337,-52.082 -52.081,-52.082l-383.83,0c-28.744,0 -52.081,23.337 -52.081,52.082l0,104.162c0,28.744 23.337,52.081 52.081,52.081l383.83,0c28.744,0 52.081,-23.337 52.081,-52.081l0,-104.162Z" style="fill:none;stroke:#000;stroke-width:7px;"/><path d="M130.838,197.27l0,46.247l15.999,0c7.038,-0.173 12.339,-2.148 15.901,-5.927c3.563,-3.778 5.344,-9.51 5.344,-17.197c0,-7.686 -1.781,-13.418 -5.344,-17.197c-3.562,-3.778 -8.863,-5.754 -15.901,-5.926l-15.999,0Zm4.404,42.49l0,-38.734l9.392,0c3.325,0 6.186,0.357 8.583,1.069c2.396,0.713 4.372,1.846 5.926,3.401c1.555,1.554 2.699,3.562 3.433,6.023c0.734,2.462 1.101,5.42 1.101,8.874c0,3.455 -0.367,6.413 -1.101,8.874c-0.734,2.461 -1.878,4.469 -3.433,6.024c-1.554,1.554 -3.53,2.688 -5.926,3.4c-2.397,0.713 -5.258,1.069 -8.583,1.069l-9.392,0Z" style="fill:#231f20;fill-rule:nonzero;"/><path d="M174.429,210.094l0,33.423l4.081,0l0,-17.812c0,-1.771 0.302,-3.401 0.907,-4.891c0.604,-1.489 1.457,-2.774 2.558,-3.854c1.102,-1.079 2.408,-1.91 3.919,-2.493c1.511,-0.583 3.196,-0.832 5.052,-0.745l0,-4.081c-3.022,-0.129 -5.624,0.54 -7.805,2.008c-2.18,1.468 -3.789,3.562 -4.825,6.283l-0.13,0l0,-7.838l-3.757,0Z" style="fill:#231f20;fill-rule:nonzero;"/><path d="M217.697,224.474l-21.634,0c0.173,-1.511 0.529,-2.99 1.069,-4.437c0.54,-1.447 1.263,-2.72 2.17,-3.822c0.907,-1.101 2.008,-1.986 3.303,-2.655c1.296,-0.67 2.786,-1.004 4.47,-1.004c1.64,0 3.109,0.334 4.404,1.004c1.296,0.669 2.397,1.554 3.303,2.655c0.907,1.102 1.609,2.365 2.106,3.79c0.496,1.425 0.766,2.914 0.809,4.469Zm-21.634,3.433l25.715,0c0.086,-2.332 -0.13,-4.631 -0.648,-6.898c-0.518,-2.267 -1.371,-4.275 -2.558,-6.024c-1.188,-1.749 -2.732,-3.163 -4.632,-4.243c-1.9,-1.079 -4.188,-1.619 -6.865,-1.619c-2.634,0 -4.912,0.507 -6.834,1.522c-1.921,1.015 -3.487,2.353 -4.696,4.016c-1.209,1.662 -2.105,3.552 -2.688,5.667c-0.583,2.116 -0.874,4.275 -0.874,6.478c0,2.375 0.291,4.631 0.874,6.768c0.583,2.138 1.479,4.016 2.688,5.636c1.209,1.619 2.775,2.893 4.696,3.821c1.922,0.929 4.2,1.393 6.834,1.393c4.231,0 7.502,-1.037 9.813,-3.109c2.31,-2.073 3.897,-5.009 4.76,-8.809l-4.08,0c-0.648,2.591 -1.814,4.663 -3.498,6.218c-1.684,1.554 -4.016,2.332 -6.995,2.332c-1.944,0 -3.606,-0.411 -4.988,-1.231c-1.382,-0.821 -2.526,-1.857 -3.433,-3.109c-0.907,-1.252 -1.565,-2.667 -1.975,-4.243c-0.411,-1.576 -0.616,-3.098 -0.616,-4.566Z" style="fill:#231f20;fill-rule:nonzero;"/><path d="M226.895,220.328l4.081,0c0.086,-2.72 0.949,-4.695 2.59,-5.926c1.641,-1.231 3.757,-1.846 6.348,-1.846c1.209,0 2.343,0.097 3.401,0.291c1.058,0.195 1.986,0.551 2.785,1.069c0.799,0.518 1.425,1.22 1.878,2.105c0.454,0.885 0.68,2.019 0.68,3.401c0,0.906 -0.118,1.641 -0.356,2.202c-0.237,0.561 -0.572,1.004 -1.004,1.328c-0.432,0.324 -0.972,0.55 -1.619,0.68c-0.648,0.129 -1.404,0.237 -2.267,0.324c-2.203,0.259 -4.372,0.529 -6.51,0.809c-2.137,0.281 -4.059,0.767 -5.765,1.458c-1.705,0.691 -3.076,1.695 -4.113,3.012c-1.036,1.317 -1.554,3.141 -1.554,5.473c0,1.684 0.291,3.141 0.874,4.372c0.583,1.231 1.382,2.245 2.397,3.044c1.015,0.799 2.202,1.382 3.562,1.749c1.361,0.367 2.818,0.551 4.372,0.551c1.641,0 3.056,-0.151 4.243,-0.454c1.188,-0.302 2.245,-0.734 3.174,-1.295c0.928,-0.561 1.77,-1.263 2.526,-2.105c0.756,-0.842 1.501,-1.803 2.235,-2.883l0.129,0c0,0.864 0.054,1.652 0.162,2.365c0.108,0.712 0.335,1.327 0.68,1.846c0.346,0.518 0.831,0.917 1.458,1.198c0.626,0.281 1.457,0.421 2.493,0.421c0.562,0 1.026,-0.022 1.393,-0.065c0.367,-0.043 0.788,-0.108 1.263,-0.194l0,-3.433c-0.389,0.173 -0.821,0.259 -1.296,0.259c-1.597,0 -2.396,-0.82 -2.396,-2.461l0,-17.748c0,-2.245 -0.367,-4.07 -1.101,-5.473c-0.734,-1.404 -1.684,-2.494 -2.85,-3.271c-1.166,-0.777 -2.483,-1.306 -3.951,-1.587c-1.468,-0.281 -2.937,-0.421 -4.405,-0.421c-1.943,0 -3.713,0.216 -5.311,0.648c-1.598,0.431 -2.99,1.101 -4.178,2.008c-1.187,0.906 -2.127,2.072 -2.817,3.497c-0.691,1.425 -1.102,3.109 -1.231,5.052Zm21.763,4.923l0,5.311c0,1.641 -0.313,3.11 -0.939,4.405c-0.626,1.295 -1.468,2.397 -2.526,3.303c-1.058,0.907 -2.299,1.598 -3.724,2.073c-1.425,0.475 -2.915,0.713 -4.47,0.713c-0.95,0 -1.878,-0.152 -2.785,-0.454c-0.907,-0.302 -1.706,-0.745 -2.396,-1.328c-0.691,-0.583 -1.242,-1.274 -1.652,-2.072c-0.41,-0.799 -0.615,-1.717 -0.615,-2.753c0,-1.641 0.485,-2.904 1.457,-3.789c0.971,-0.886 2.213,-1.566 3.724,-2.041c1.512,-0.475 3.185,-0.831 5.02,-1.068c1.835,-0.238 3.617,-0.508 5.344,-0.81c0.561,-0.086 1.209,-0.238 1.943,-0.453c0.734,-0.216 1.231,-0.562 1.49,-1.037l0.129,0Z" style="fill:#231f20;fill-rule:nonzero;"/><path d="M260.9,210.094l0,33.423l4.081,0l0,-18.654c0,-1.771 0.194,-3.401 0.583,-4.891c0.388,-1.49 0.982,-2.785 1.781,-3.886c0.799,-1.101 1.835,-1.965 3.109,-2.591c1.274,-0.626 2.775,-0.939 4.502,-0.939c1.295,0 2.396,0.216 3.303,0.648c0.907,0.431 1.63,1.025 2.17,1.781c0.54,0.755 0.928,1.641 1.166,2.655c0.237,1.015 0.356,2.084 0.356,3.207l0,22.67l4.081,0l0,-18.914c0,-1.554 0.14,-3.055 0.421,-4.501c0.28,-1.447 0.766,-2.731 1.457,-3.854c0.691,-1.123 1.619,-2.019 2.785,-2.688c1.166,-0.67 2.634,-1.004 4.405,-1.004c2.936,0 4.987,0.723 6.153,2.17c1.166,1.446 1.749,3.551 1.749,6.315l0,22.476l4.081,0l0,-22.67c0,-7.816 -3.692,-11.724 -11.076,-11.724c-2.203,0 -4.275,0.54 -6.218,1.619c-1.944,1.08 -3.412,2.721 -4.405,4.923c-0.604,-2.202 -1.803,-3.843 -3.595,-4.923c-1.792,-1.079 -3.789,-1.619 -5.991,-1.619c-2.721,0 -4.955,0.583 -6.704,1.749c-1.749,1.166 -3.163,2.785 -4.243,4.858l-0.194,0l0,-5.636l-3.757,0Z" style="fill:#231f20;fill-rule:nonzero;"/><path d="M335.194,229.073l-4.081,0c-0.173,2.461 0.097,4.642 0.81,6.542c0.712,1.9 1.77,3.497 3.174,4.793c1.403,1.295 3.087,2.288 5.052,2.979c1.965,0.691 4.113,1.037 6.445,1.037c2.072,0 4.059,-0.292 5.959,-0.875c1.9,-0.583 3.562,-1.457 4.987,-2.623c1.425,-1.166 2.559,-2.602 3.401,-4.307c0.842,-1.706 1.263,-3.682 1.263,-5.927c0,-2.979 -0.81,-5.473 -2.429,-7.481c-1.619,-2.008 -3.919,-3.25 -6.898,-3.725l0,-0.129c2.461,-0.605 4.35,-1.814 5.667,-3.627c1.317,-1.814 1.976,-3.951 1.976,-6.413c0,-2.029 -0.4,-3.767 -1.199,-5.214c-0.798,-1.446 -1.856,-2.634 -3.173,-3.562c-1.317,-0.929 -2.818,-1.62 -4.502,-2.073c-1.684,-0.453 -3.411,-0.68 -5.182,-0.68c-2.202,0 -4.188,0.378 -5.959,1.133c-1.77,0.756 -3.271,1.792 -4.502,3.109c-1.23,1.317 -2.18,2.883 -2.85,4.696c-0.669,1.814 -1.003,3.8 -1.003,5.959l4.08,0c-0.043,-1.684 0.151,-3.227 0.583,-4.631c0.432,-1.403 1.09,-2.612 1.976,-3.627c0.885,-1.015 1.975,-1.803 3.271,-2.364c1.295,-0.562 2.785,-0.842 4.469,-0.842c1.382,0 2.666,0.162 3.854,0.486c1.187,0.323 2.235,0.842 3.141,1.554c0.907,0.713 1.62,1.598 2.138,2.656c0.518,1.058 0.777,2.342 0.777,3.854c0,1.425 -0.281,2.655 -0.842,3.692c-0.561,1.036 -1.285,1.889 -2.17,2.558c-0.885,0.669 -1.878,1.166 -2.979,1.49c-1.101,0.324 -2.17,0.486 -3.207,0.486l-3.432,0l0,3.433l3.432,0c1.512,0 2.926,0.194 4.243,0.583c1.317,0.388 2.472,0.982 3.465,1.781c0.993,0.799 1.771,1.792 2.332,2.979c0.561,1.188 0.842,2.602 0.842,4.243c0,1.598 -0.324,3.023 -0.971,4.275c-0.648,1.252 -1.512,2.31 -2.591,3.174c-1.08,0.863 -2.311,1.511 -3.692,1.943c-1.382,0.432 -2.829,0.648 -4.34,0.648c-1.814,0 -3.444,-0.292 -4.89,-0.875c-1.447,-0.583 -2.656,-1.392 -3.628,-2.429c-0.971,-1.036 -1.705,-2.288 -2.202,-3.757c-0.496,-1.468 -0.702,-3.109 -0.615,-4.922Z" style="fill:#231f20;fill-rule:nonzero;"/><path d="M369.653,197.27l0,46.247l15.998,0c7.039,-0.173 12.339,-2.148 15.902,-5.927c3.562,-3.778 5.344,-9.51 5.344,-17.197c0,-7.686 -1.782,-13.418 -5.344,-17.197c-3.563,-3.778 -8.863,-5.754 -15.902,-5.926l-15.998,0Zm4.404,42.49l0,-38.734l9.392,0c3.325,0 6.186,0.357 8.582,1.069c2.397,0.713 4.372,1.846 5.927,3.401c1.555,1.554 2.699,3.562 3.433,6.023c0.734,2.462 1.101,5.42 1.101,8.874c0,3.455 -0.367,6.413 -1.101,8.874c-0.734,2.461 -1.878,4.469 -3.433,6.024c-1.555,1.554 -3.53,2.688 -5.927,3.4c-2.396,0.713 -5.257,1.069 -8.582,1.069l-9.392,0Z" style="fill:#231f20;fill-rule:nonzero;"/></g><g><path d="M1662.31,168.766c0,-28.745 -23.336,-52.082 -52.081,-52.082l-383.829,0c-28.745,0 -52.081,23.337 -52.081,52.082l0,104.162c0,28.744 23.336,52.081 52.081,52.081l383.829,0c28.745,0 52.081,-23.337 52.081,-52.081l0,-104.162Z" style="fill:none;stroke:#000;stroke-width:7px;"/><path d="M1314.09,211.26l4.405,0c-0.303,-2.418 -1.026,-4.555 -2.17,-6.412c-1.145,-1.857 -2.57,-3.422 -4.275,-4.696c-1.706,-1.274 -3.606,-2.235 -5.7,-2.882c-2.094,-0.648 -4.243,-0.972 -6.445,-0.972c-3.627,0 -6.812,0.659 -9.554,1.976c-2.742,1.317 -5.02,3.087 -6.833,5.311c-1.814,2.224 -3.174,4.782 -4.081,7.675c-0.907,2.894 -1.36,5.938 -1.36,9.133c0,3.196 0.453,6.24 1.36,9.133c0.907,2.893 2.267,5.441 4.081,7.643c1.813,2.202 4.091,3.962 6.833,5.279c2.742,1.317 5.927,1.976 9.554,1.976c2.72,0 5.193,-0.432 7.416,-1.296c2.224,-0.863 4.157,-2.094 5.798,-3.692c1.64,-1.597 2.979,-3.541 4.015,-5.829c1.037,-2.289 1.706,-4.858 2.008,-7.708l-4.404,0c-0.216,2.073 -0.713,4.005 -1.49,5.797c-0.777,1.792 -1.792,3.357 -3.044,4.696c-1.252,1.339 -2.742,2.397 -4.469,3.174c-1.728,0.777 -3.671,1.166 -5.83,1.166c-3.066,0 -5.7,-0.583 -7.902,-1.749c-2.202,-1.166 -4.005,-2.71 -5.409,-4.631c-1.403,-1.922 -2.439,-4.103 -3.109,-6.542c-0.669,-2.44 -1.004,-4.912 -1.004,-7.417c0,-2.547 0.335,-5.03 1.004,-7.449c0.67,-2.418 1.706,-4.588 3.109,-6.509c1.404,-1.922 3.207,-3.465 5.409,-4.631c2.202,-1.166 4.836,-1.749 7.902,-1.749c1.684,0 3.293,0.248 4.826,0.745c1.533,0.496 2.936,1.22 4.21,2.17c1.274,0.95 2.353,2.126 3.238,3.53c0.886,1.403 1.523,2.99 1.911,4.76Z" style="fill:#231f20;fill-rule:nonzero;"/><path d="M1349.13,224.474l-21.634,0c0.173,-1.511 0.529,-2.99 1.069,-4.437c0.539,-1.447 1.263,-2.72 2.17,-3.822c0.906,-1.101 2.008,-1.986 3.303,-2.655c1.295,-0.67 2.785,-1.004 4.469,-1.004c1.641,0 3.109,0.334 4.405,1.004c1.295,0.669 2.396,1.554 3.303,2.655c0.907,1.102 1.609,2.365 2.105,3.79c0.497,1.425 0.767,2.914 0.81,4.469Zm-21.634,3.433l25.714,0c0.087,-2.332 -0.129,-4.631 -0.647,-6.898c-0.518,-2.267 -1.371,-4.275 -2.559,-6.024c-1.187,-1.749 -2.731,-3.163 -4.631,-4.243c-1.9,-1.079 -4.189,-1.619 -6.866,-1.619c-2.634,0 -4.912,0.507 -6.833,1.522c-1.922,1.015 -3.487,2.353 -4.696,4.016c-1.209,1.662 -2.105,3.552 -2.688,5.667c-0.583,2.116 -0.875,4.275 -0.875,6.478c0,2.375 0.292,4.631 0.875,6.768c0.583,2.138 1.479,4.016 2.688,5.636c1.209,1.619 2.774,2.893 4.696,3.821c1.921,0.929 4.199,1.393 6.833,1.393c4.232,0 7.503,-1.037 9.813,-3.109c2.31,-2.073 3.897,-5.009 4.761,-8.809l-4.081,0c-0.647,2.591 -1.813,4.663 -3.497,6.218c-1.684,1.554 -4.016,2.332 -6.996,2.332c-1.943,0 -3.605,-0.411 -4.987,-1.231c-1.382,-0.821 -2.526,-1.857 -3.433,-3.109c-0.907,-1.252 -1.565,-2.667 -1.976,-4.243c-0.41,-1.576 -0.615,-3.098 -0.615,-4.566Z" style="fill:#231f20;fill-rule:nonzero;"/><rect x="1358.79" y="197.27" width="4.081" height="46.247" style="fill:#231f20;fill-rule:nonzero;"/><rect x="1370.77" y="197.27" width="4.081" height="46.247" style="fill:#231f20;fill-rule:nonzero;"/><path d="M1405.88,219.94l0,-18.914l15.157,0c3.066,0 5.549,0.778 7.449,2.332c1.9,1.555 2.85,3.93 2.85,7.125c0,3.196 -0.95,5.571 -2.85,7.125c-1.9,1.555 -4.383,2.332 -7.449,2.332l-15.157,0Zm-4.404,-22.67l0,46.247l4.404,0l0,-19.82l16.128,0c2.073,0 3.952,-0.292 5.636,-0.875c1.684,-0.583 3.13,-1.446 4.339,-2.591c1.209,-1.144 2.138,-2.537 2.786,-4.177c0.647,-1.641 0.971,-3.498 0.971,-5.571c0,-2.073 -0.324,-3.929 -0.971,-5.57c-0.648,-1.641 -1.577,-3.034 -2.786,-4.178c-1.209,-1.144 -2.655,-2.008 -4.339,-2.591c-1.684,-0.583 -3.563,-0.874 -5.636,-0.874l-20.532,0Z" style="fill:#231f20;fill-rule:nonzero;"/><path d="M1441.5,210.094l0,33.423l4.081,0l0,-17.812c0,-1.771 0.302,-3.401 0.906,-4.891c0.605,-1.489 1.458,-2.774 2.559,-3.854c1.101,-1.079 2.407,-1.91 3.919,-2.493c1.511,-0.583 3.195,-0.832 5.052,-0.745l0,-4.081c-3.023,-0.129 -5.625,0.54 -7.805,2.008c-2.181,1.468 -3.789,3.562 -4.826,6.283l-0.129,0l0,-7.838l-3.757,0Z" style="fill:#231f20;fill-rule:nonzero;"/><path d="M1474.86,212.556c1.944,0 3.649,0.41 5.117,1.231c1.469,0.82 2.689,1.899 3.66,3.238c0.972,1.339 1.706,2.861 2.202,4.567c0.497,1.705 0.745,3.443 0.745,5.214c0,1.77 -0.248,3.508 -0.745,5.214c-0.496,1.706 -1.23,3.228 -2.202,4.566c-0.971,1.339 -2.191,2.418 -3.66,3.239c-1.468,0.82 -3.173,1.231 -5.117,1.231c-1.943,0 -3.648,-0.411 -5.116,-1.231c-1.469,-0.821 -2.689,-1.9 -3.66,-3.239c-0.972,-1.338 -1.706,-2.86 -2.202,-4.566c-0.497,-1.706 -0.745,-3.444 -0.745,-5.214c0,-1.771 0.248,-3.509 0.745,-5.214c0.496,-1.706 1.23,-3.228 2.202,-4.567c0.971,-1.339 2.191,-2.418 3.66,-3.238c1.468,-0.821 3.173,-1.231 5.116,-1.231Zm0,-3.433c-2.547,0 -4.803,0.475 -6.768,1.425c-1.965,0.95 -3.617,2.224 -4.955,3.821c-1.339,1.598 -2.354,3.466 -3.045,5.603c-0.69,2.138 -1.036,4.416 -1.036,6.834c0,2.418 0.346,4.696 1.036,6.833c0.691,2.138 1.706,4.005 3.045,5.603c1.338,1.598 2.99,2.861 4.955,3.789c1.965,0.929 4.221,1.393 6.768,1.393c2.548,0 4.804,-0.464 6.769,-1.393c1.965,-0.928 3.617,-2.191 4.955,-3.789c1.339,-1.598 2.354,-3.465 3.045,-5.603c0.69,-2.137 1.036,-4.415 1.036,-6.833c0,-2.418 -0.346,-4.696 -1.036,-6.834c-0.691,-2.137 -1.706,-4.005 -3.045,-5.603c-1.338,-1.597 -2.99,-2.871 -4.955,-3.821c-1.965,-0.95 -4.221,-1.425 -6.769,-1.425Z" style="fill:#231f20;fill-rule:nonzero;"/><path d="M1513.59,197.27l0,6.542l4.081,0l0,-6.542l-4.081,0Zm-14.638,16.257l0,29.99l4.08,0l0,-29.99l6.607,0l0,-3.433l-6.607,0l0,-2.914c0,-0.907 0.022,-1.749 0.065,-2.526c0.043,-0.778 0.205,-1.458 0.486,-2.041c0.281,-0.583 0.723,-1.047 1.328,-1.392c0.604,-0.346 1.468,-0.518 2.591,-0.518c0.475,0 0.95,0.032 1.425,0.097c0.475,0.064 0.993,0.14 1.554,0.226l0,-3.497c-0.648,-0.087 -1.231,-0.151 -1.749,-0.195c-0.518,-0.043 -1.079,-0.064 -1.684,-0.064c-1.641,0 -2.99,0.237 -4.048,0.712c-1.058,0.475 -1.889,1.144 -2.494,2.008c-0.604,0.864 -1.015,1.9 -1.23,3.109c-0.216,1.209 -0.324,2.526 -0.324,3.951l0,3.044l-5.7,0l0,3.433l5.7,0Zm14.638,-3.433l0,33.423l4.081,0l0,-33.423l-4.081,0Z" style="fill:#231f20;fill-rule:nonzero;"/><rect x="1525.57" y="197.27" width="4.081" height="46.247" style="fill:#231f20;fill-rule:nonzero;"/><path d="M1561.52,224.474l-21.634,0c0.172,-1.511 0.529,-2.99 1.068,-4.437c0.54,-1.447 1.263,-2.72 2.17,-3.822c0.907,-1.101 2.008,-1.986 3.304,-2.655c1.295,-0.67 2.785,-1.004 4.469,-1.004c1.641,0 3.109,0.334 4.404,1.004c1.296,0.669 2.397,1.554 3.304,2.655c0.907,1.102 1.608,2.365 2.105,3.79c0.497,1.425 0.766,2.914 0.81,4.469Zm-21.634,3.433l25.714,0c0.087,-2.332 -0.129,-4.631 -0.648,-6.898c-0.518,-2.267 -1.371,-4.275 -2.558,-6.024c-1.187,-1.749 -2.731,-3.163 -4.631,-4.243c-1.9,-1.079 -4.189,-1.619 -6.866,-1.619c-2.634,0 -4.912,0.507 -6.834,1.522c-1.921,1.015 -3.486,2.353 -4.695,4.016c-1.21,1.662 -2.106,3.552 -2.689,5.667c-0.582,2.116 -0.874,4.275 -0.874,6.478c0,2.375 0.292,4.631 0.874,6.768c0.583,2.138 1.479,4.016 2.689,5.636c1.209,1.619 2.774,2.893 4.695,3.821c1.922,0.929 4.2,1.393 6.834,1.393c4.232,0 7.503,-1.037 9.813,-3.109c2.31,-2.073 3.897,-5.009 4.761,-8.809l-4.081,0c-0.648,2.591 -1.814,4.663 -3.498,6.218c-1.684,1.554 -4.016,2.332 -6.995,2.332c-1.943,0 -3.606,-0.411 -4.988,-1.231c-1.381,-0.821 -2.526,-1.857 -3.432,-3.109c-0.907,-1.252 -1.566,-2.667 -1.976,-4.243c-0.41,-1.576 -0.615,-3.098 -0.615,-4.566Z" style="fill:#231f20;fill-rule:nonzero;"/><path d="M1571.11,210.094l0,33.423l4.08,0l0,-17.812c0,-1.771 0.303,-3.401 0.907,-4.891c0.605,-1.489 1.458,-2.774 2.559,-3.854c1.101,-1.079 2.407,-1.91 3.919,-2.493c1.511,-0.583 3.195,-0.832 5.052,-0.745l0,-4.081c-3.023,-0.129 -5.625,0.54 -7.805,2.008c-2.181,1.468 -3.789,3.562 -4.826,6.283l-0.129,0l0,-7.838l-3.757,0Z" style="fill:#231f20;fill-rule:nonzero;"/></g><g><rect x="2470.6" y="196.784" width="4.405" height="46.247" style="fill:#231f20;fill-rule:nonzero;"/><path d="M2483.88,209.609l0,33.422l4.08,0l0,-18.654c0,-1.771 0.195,-3.401 0.583,-4.891c0.389,-1.489 0.983,-2.785 1.782,-3.886c0.799,-1.101 1.835,-1.965 3.109,-2.591c1.274,-0.626 2.774,-0.939 4.501,-0.939c1.296,0 2.397,0.216 3.304,0.648c0.907,0.432 1.63,1.025 2.17,1.781c0.539,0.756 0.928,1.641 1.166,2.656c0.237,1.014 0.356,2.083 0.356,3.206l0,22.67l4.08,0l0,-18.913c0,-1.555 0.141,-3.055 0.421,-4.502c0.281,-1.447 0.767,-2.731 1.458,-3.854c0.691,-1.123 1.619,-2.019 2.785,-2.688c1.166,-0.669 2.634,-1.004 4.405,-1.004c2.936,0 4.987,0.723 6.153,2.17c1.166,1.446 1.749,3.552 1.749,6.315l0,22.476l4.08,0l0,-22.67c0,-7.816 -3.692,-11.724 -11.076,-11.724c-2.202,0 -4.275,0.54 -6.218,1.619c-1.943,1.08 -3.411,2.721 -4.404,4.923c-0.605,-2.202 -1.803,-3.843 -3.595,-4.923c-1.792,-1.079 -3.789,-1.619 -5.992,-1.619c-2.72,0 -4.955,0.583 -6.703,1.749c-1.749,1.166 -3.164,2.785 -4.243,4.858l-0.194,0l0,-5.635l-3.757,0Z" style="fill:#231f20;fill-rule:nonzero;"/><path d="M2537.44,219.843l4.081,0c0.086,-2.721 0.95,-4.696 2.591,-5.927c1.641,-1.231 3.757,-1.846 6.348,-1.846c1.209,0 2.342,0.097 3.4,0.292c1.058,0.194 1.986,0.55 2.785,1.068c0.799,0.518 1.425,1.22 1.879,2.105c0.453,0.886 0.68,2.019 0.68,3.401c0,0.907 -0.119,1.641 -0.356,2.202c-0.238,0.562 -0.573,1.004 -1.004,1.328c-0.432,0.324 -0.972,0.551 -1.62,0.68c-0.647,0.13 -1.403,0.238 -2.267,0.324c-2.202,0.259 -4.372,0.529 -6.509,0.81c-2.138,0.28 -4.059,0.766 -5.765,1.457c-1.706,0.691 -3.077,1.695 -4.113,3.012c-1.036,1.317 -1.555,3.141 -1.555,5.473c0,1.684 0.292,3.142 0.875,4.372c0.583,1.231 1.382,2.246 2.396,3.045c1.015,0.798 2.203,1.381 3.563,1.748c1.36,0.367 2.817,0.551 4.372,0.551c1.641,0 3.055,-0.151 4.243,-0.453c1.187,-0.303 2.245,-0.735 3.173,-1.296c0.929,-0.561 1.771,-1.263 2.526,-2.105c0.756,-0.842 1.501,-1.803 2.235,-2.882l0.13,0c0,0.863 0.054,1.651 0.162,2.364c0.108,0.712 0.334,1.328 0.68,1.846c0.345,0.518 0.831,0.917 1.457,1.198c0.626,0.281 1.457,0.421 2.494,0.421c0.561,0 1.025,-0.021 1.392,-0.065c0.367,-0.043 0.788,-0.108 1.263,-0.194l0,-3.433c-0.388,0.173 -0.82,0.259 -1.295,0.259c-1.598,0 -2.397,-0.82 -2.397,-2.461l0,-17.748c0,-2.245 -0.367,-4.07 -1.101,-5.473c-0.734,-1.403 -1.684,-2.494 -2.85,-3.271c-1.166,-0.777 -2.483,-1.306 -3.951,-1.587c-1.468,-0.281 -2.936,-0.421 -4.404,-0.421c-1.943,0 -3.714,0.216 -5.312,0.648c-1.597,0.432 -2.99,1.101 -4.177,2.008c-1.188,0.907 -2.127,2.072 -2.818,3.497c-0.691,1.425 -1.101,3.11 -1.231,5.053Zm21.764,4.922l0,5.312c0,1.641 -0.313,3.109 -0.939,4.404c-0.627,1.296 -1.469,2.397 -2.527,3.304c-1.057,0.906 -2.299,1.597 -3.724,2.072c-1.425,0.475 -2.915,0.713 -4.469,0.713c-0.95,0 -1.879,-0.151 -2.785,-0.454c-0.907,-0.302 -1.706,-0.745 -2.397,-1.327c-0.691,-0.583 -1.241,-1.274 -1.652,-2.073c-0.41,-0.799 -0.615,-1.717 -0.615,-2.753c0,-1.641 0.486,-2.904 1.457,-3.789c0.972,-0.885 2.213,-1.565 3.725,-2.04c1.511,-0.475 3.184,-0.832 5.02,-1.069c1.835,-0.238 3.616,-0.508 5.343,-0.81c0.562,-0.086 1.209,-0.237 1.943,-0.453c0.735,-0.216 1.231,-0.562 1.49,-1.037l0.13,0Z" style="fill:#231f20;fill-rule:nonzero;"/><path d="M2599.69,240.311l0,-30.702l-4.08,0l0,5.764l-0.13,0c-0.388,-0.906 -0.939,-1.77 -1.652,-2.59c-0.712,-0.821 -1.522,-1.544 -2.428,-2.17c-0.907,-0.626 -1.911,-1.112 -3.012,-1.458c-1.101,-0.345 -2.278,-0.518 -3.53,-0.518c-2.419,0 -4.567,0.443 -6.445,1.328c-1.879,0.885 -3.455,2.094 -4.729,3.627c-1.273,1.533 -2.245,3.325 -2.914,5.376c-0.67,2.051 -1.004,4.221 -1.004,6.51c0,2.375 0.28,4.609 0.842,6.704c0.561,2.094 1.457,3.918 2.688,5.473c1.23,1.555 2.796,2.774 4.696,3.66c1.9,0.885 4.188,1.327 6.866,1.327c2.461,0 4.609,-0.626 6.444,-1.878c1.836,-1.252 3.228,-2.915 4.178,-4.987l0.13,0l0,4.534c0,4.059 -0.842,7.168 -2.526,9.327c-1.684,2.159 -4.426,3.238 -8.226,3.238c-1.123,0 -2.224,-0.118 -3.304,-0.356c-1.079,-0.237 -2.062,-0.615 -2.947,-1.133c-0.885,-0.518 -1.641,-1.199 -2.267,-2.041c-0.626,-0.842 -1.047,-1.889 -1.263,-3.141l-4.081,0c0.13,1.77 0.616,3.293 1.458,4.566c0.842,1.274 1.9,2.321 3.174,3.142c1.273,0.82 2.709,1.425 4.307,1.813c1.598,0.389 3.238,0.583 4.923,0.583c2.72,0 5.019,-0.367 6.898,-1.101c1.878,-0.734 3.4,-1.792 4.566,-3.174c1.166,-1.381 2.019,-3.065 2.559,-5.052c0.539,-1.986 0.809,-4.21 0.809,-6.671Zm-14.832,-1.101c-1.9,0 -3.541,-0.378 -4.923,-1.134c-1.382,-0.756 -2.526,-1.749 -3.433,-2.979c-0.907,-1.231 -1.576,-2.645 -2.008,-4.243c-0.432,-1.598 -0.648,-3.239 -0.648,-4.923c0,-1.727 0.205,-3.422 0.616,-5.084c0.41,-1.663 1.068,-3.142 1.975,-4.437c0.907,-1.296 2.051,-2.343 3.433,-3.142c1.382,-0.799 3.044,-1.198 4.988,-1.198c1.943,0 3.594,0.41 4.955,1.231c1.36,0.82 2.472,1.9 3.335,3.238c0.864,1.339 1.49,2.829 1.879,4.47c0.388,1.64 0.583,3.281 0.583,4.922c0,1.684 -0.227,3.325 -0.68,4.923c-0.454,1.598 -1.134,3.012 -2.041,4.243c-0.907,1.23 -2.029,2.223 -3.368,2.979c-1.338,0.756 -2.893,1.134 -4.663,1.134Z" style="fill:#231f20;fill-rule:nonzero;"/><path d="M2631.49,223.988l-21.633,0c0.172,-1.511 0.529,-2.99 1.068,-4.437c0.54,-1.446 1.263,-2.72 2.17,-3.821c0.907,-1.101 2.008,-1.987 3.304,-2.656c1.295,-0.669 2.785,-1.004 4.469,-1.004c1.641,0 3.109,0.335 4.404,1.004c1.296,0.669 2.397,1.555 3.304,2.656c0.907,1.101 1.608,2.364 2.105,3.789c0.496,1.425 0.766,2.915 0.809,4.469Zm-21.633,3.433l25.714,0c0.086,-2.332 -0.129,-4.631 -0.648,-6.898c-0.518,-2.267 -1.371,-4.275 -2.558,-6.024c-1.188,-1.749 -2.731,-3.163 -4.631,-4.243c-1.9,-1.079 -4.189,-1.619 -6.866,-1.619c-2.634,0 -4.912,0.508 -6.834,1.522c-1.921,1.015 -3.487,2.354 -4.696,4.016c-1.209,1.663 -2.105,3.552 -2.688,5.668c-0.583,2.116 -0.874,4.275 -0.874,6.477c0,2.375 0.291,4.631 0.874,6.769c0.583,2.137 1.479,4.015 2.688,5.635c1.209,1.619 2.775,2.893 4.696,3.821c1.922,0.929 4.2,1.393 6.834,1.393c4.232,0 7.503,-1.036 9.813,-3.109c2.31,-2.073 3.897,-5.009 4.761,-8.809l-4.081,0c-0.648,2.591 -1.814,4.663 -3.498,6.218c-1.684,1.555 -4.016,2.332 -6.995,2.332c-1.943,0 -3.606,-0.41 -4.988,-1.231c-1.381,-0.82 -2.526,-1.857 -3.433,-3.109c-0.906,-1.252 -1.565,-2.666 -1.975,-4.243c-0.41,-1.576 -0.615,-3.098 -0.615,-4.566Z" style="fill:#231f20;fill-rule:nonzero;"/><path d="M2660.51,196.784l0,31.479c0,2.116 -0.129,3.93 -0.388,5.441c-0.259,1.511 -0.713,2.753 -1.36,3.724c-0.648,0.972 -1.533,1.684 -2.656,2.138c-1.123,0.453 -2.548,0.68 -4.275,0.68c-2.289,0 -4.027,-0.443 -5.214,-1.328c-1.188,-0.885 -2.041,-1.954 -2.559,-3.206c-0.518,-1.252 -0.82,-2.569 -0.907,-3.951c-0.086,-1.382 -0.151,-2.57 -0.194,-3.563l-4.404,0c0,2.03 0.172,3.995 0.518,5.895c0.345,1.9 0.993,3.573 1.943,5.019c0.95,1.447 2.267,2.613 3.951,3.498c1.684,0.885 3.843,1.328 6.477,1.328c2.505,0 4.61,-0.281 6.316,-0.842c1.705,-0.561 3.087,-1.404 4.145,-2.526c1.058,-1.123 1.824,-2.548 2.299,-4.275c0.475,-1.727 0.713,-3.779 0.713,-6.154l0,-33.357l-4.405,0Z" style="fill:#231f20;fill-rule:nonzero;"/><path d="M2811.75,168.28c0,-28.745 -23.337,-52.081 -52.082,-52.081l-383.829,0c-28.744,0 -52.081,23.336 -52.081,52.081l0,104.162c0,28.744 23.337,52.081 52.081,52.081l383.829,0c28.745,0 52.082,-23.337 52.082,-52.081l0,-104.162Z" style="fill:none;stroke:#000;stroke-width:7px;"/></g><g><g transform="matrix(0.24,0,0,0.24,559.469,-91.5944)"><g transform="matrix(200,0,0,200,817.336,1215.47)"><path d="M0.096,-0.223l-0.063,0c-0.003,0.038 0.002,0.072 0.012,0.101c0.011,0.029 0.028,0.054 0.05,0.074c0.021,0.02 0.047,0.035 0.078,0.046c0.03,0.011 0.063,0.016 0.099,0.016c0.032,0 0.063,-0.004 0.092,-0.013c0.029,-0.009 0.055,-0.023 0.077,-0.041c0.022,-0.018 0.039,-0.04 0.052,-0.066c0.014,-0.027 0.02,-0.057 0.02,-0.092c0,-0.046 -0.012,-0.085 -0.037,-0.115c-0.025,-0.032 -0.061,-0.051 -0.107,-0.058l0,-0.002c0.038,-0.009 0.067,-0.028 0.087,-0.056c0.021,-0.028 0.031,-0.061 0.031,-0.099c0,-0.031 -0.006,-0.058 -0.019,-0.081c-0.012,-0.022 -0.028,-0.04 -0.049,-0.054c-0.02,-0.015 -0.043,-0.025 -0.069,-0.032c-0.026,-0.007 -0.053,-0.011 -0.08,-0.011c-0.034,0 -0.065,0.006 -0.092,0.018c-0.027,0.011 -0.051,0.027 -0.07,0.048c-0.019,0.02 -0.033,0.044 -0.044,0.072c-0.01,0.028 -0.015,0.059 -0.015,0.092l0.063,0c-0.001,-0.026 0.002,-0.05 0.009,-0.071c0.007,-0.022 0.017,-0.041 0.03,-0.056c0.014,-0.016 0.031,-0.028 0.051,-0.037c0.02,-0.009 0.043,-0.013 0.069,-0.013c0.021,0 0.041,0.003 0.059,0.008c0.019,0.005 0.035,0.013 0.049,0.024c0.014,0.011 0.025,0.024 0.033,0.041c0.008,0.016 0.012,0.036 0.012,0.059c0,0.022 -0.004,0.041 -0.013,0.057c-0.009,0.016 -0.02,0.029 -0.034,0.04c-0.013,0.01 -0.028,0.018 -0.045,0.023c-0.018,0.005 -0.034,0.007 -0.05,0.007l-0.053,0l0,0.053l0.053,0c0.023,0 0.045,0.003 0.066,0.009c0.02,0.006 0.038,0.015 0.053,0.028c0.015,0.012 0.027,0.027 0.036,0.046c0.009,0.018 0.013,0.04 0.013,0.065c0,0.025 -0.005,0.047 -0.015,0.066c-0.01,0.019 -0.023,0.036 -0.04,0.049c-0.017,0.013 -0.036,0.023 -0.057,0.03c-0.021,0.007 -0.044,0.01 -0.067,0.01c-0.028,0 -0.053,-0.004 -0.076,-0.013c-0.022,-0.009 -0.041,-0.022 -0.056,-0.038c-0.015,-0.016 -0.026,-0.035 -0.034,-0.058c-0.007,-0.023 -0.01,-0.048 -0.009,-0.076Z" style="fill:#231f20;fill-rule:nonzero;"/></g><g transform="matrix(200,0,0,200,928.536,1215.47)"><path d="M0.072,-0.714l0,0.714l0.247,0c0.109,-0.003 0.19,-0.033 0.246,-0.092c0.055,-0.058 0.082,-0.146 0.082,-0.265c0,-0.119 -0.027,-0.207 -0.082,-0.266c-0.055,-0.058 -0.137,-0.088 -0.246,-0.091l-0.247,0Zm0.068,0.656l0,-0.598l0.145,0c0.051,0 0.096,0.005 0.133,0.016c0.037,0.011 0.067,0.029 0.091,0.053c0.024,0.024 0.042,0.055 0.053,0.093c0.011,0.038 0.017,0.084 0.017,0.137c0,0.053 -0.006,0.099 -0.017,0.137c-0.011,0.038 -0.029,0.069 -0.053,0.093c-0.024,0.024 -0.054,0.041 -0.091,0.052c-0.037,0.011 -0.082,0.017 -0.133,0.017l-0.145,0Z" style="fill:#231f20;fill-rule:nonzero;"/></g><g transform="matrix(200,0,0,200,1121.14,1215.47)"><path d="M0.14,-0.364l0,-0.292l0.234,0c0.047,0 0.086,0.012 0.115,0.036c0.029,0.024 0.044,0.061 0.044,0.11c0,0.049 -0.015,0.086 -0.044,0.11c-0.029,0.024 -0.068,0.036 -0.115,0.036l-0.234,0Zm-0.068,-0.35l0,0.714l0.068,0l0,-0.306l0.249,0c0.032,0 0.061,-0.005 0.087,-0.014c0.026,-0.009 0.048,-0.022 0.067,-0.039c0.019,-0.018 0.033,-0.04 0.043,-0.065c0.01,-0.025 0.015,-0.054 0.015,-0.086c0,-0.032 -0.005,-0.061 -0.015,-0.086c-0.01,-0.025 -0.024,-0.047 -0.043,-0.065c-0.019,-0.017 -0.041,-0.03 -0.067,-0.039c-0.026,-0.009 -0.055,-0.014 -0.087,-0.014l-0.317,0Z" style="fill:#231f20;fill-rule:nonzero;"/></g><g transform="matrix(200,0,0,200,1247.14,1215.47)"><rect x="0.061" y="-0.714" width="0.063" height="0.714" style="fill:#231f20;fill-rule:nonzero;"/></g><g transform="matrix(200,0,0,200,1284.14,1215.47)"><path d="M0.054,-0.358l0.063,0c0.001,-0.042 0.015,-0.073 0.04,-0.092c0.025,-0.019 0.058,-0.028 0.098,-0.028c0.019,0 0.036,0.002 0.052,0.004c0.017,0.003 0.031,0.009 0.044,0.017c0.012,0.008 0.022,0.019 0.029,0.032c0.007,0.014 0.01,0.032 0.01,0.053c0,0.014 -0.002,0.025 -0.006,0.034c-0.003,0.009 -0.008,0.015 -0.015,0.02c-0.007,0.005 -0.015,0.009 -0.025,0.011c-0.01,0.002 -0.022,0.004 -0.035,0.005c-0.034,0.004 -0.067,0.008 -0.1,0.012c-0.033,0.005 -0.063,0.012 -0.089,0.023c-0.027,0.011 -0.048,0.026 -0.064,0.046c-0.016,0.021 -0.024,0.049 -0.024,0.085c0,0.026 0.005,0.048 0.014,0.067c0.009,0.019 0.021,0.035 0.037,0.047c0.015,0.013 0.034,0.022 0.055,0.027c0.021,0.006 0.043,0.009 0.067,0.009c0.025,0 0.047,-0.002 0.066,-0.007c0.018,-0.005 0.034,-0.011 0.049,-0.02c0.014,-0.009 0.027,-0.02 0.039,-0.033c0.011,-0.013 0.023,-0.027 0.034,-0.044l0.002,0c0,0.013 0.001,0.025 0.003,0.036c0.001,0.011 0.005,0.021 0.01,0.029c0.005,0.008 0.013,0.014 0.023,0.018c0.009,0.005 0.022,0.007 0.038,0.007c0.009,0 0.016,0 0.022,-0.001c0.005,-0.001 0.012,-0.002 0.019,-0.003l0,-0.053c-0.006,0.003 -0.013,0.004 -0.02,0.004c-0.025,0 -0.037,-0.013 -0.037,-0.038l0,-0.274c0,-0.035 -0.006,-0.063 -0.017,-0.085c-0.011,-0.021 -0.026,-0.038 -0.044,-0.05c-0.018,-0.012 -0.038,-0.02 -0.061,-0.025c-0.023,-0.004 -0.045,-0.006 -0.068,-0.006c-0.03,0 -0.057,0.003 -0.082,0.01c-0.025,0.007 -0.046,0.017 -0.064,0.031c-0.019,0.014 -0.033,0.032 -0.044,0.054c-0.011,0.022 -0.017,0.048 -0.019,0.078Zm0.336,0.076l0,0.082c0,0.025 -0.005,0.048 -0.014,0.068c-0.01,0.02 -0.023,0.037 -0.039,0.051c-0.017,0.014 -0.036,0.025 -0.058,0.032c-0.022,0.007 -0.045,0.011 -0.069,0.011c-0.015,0 -0.029,-0.002 -0.043,-0.007c-0.014,-0.005 -0.026,-0.012 -0.037,-0.021c-0.011,-0.009 -0.019,-0.019 -0.025,-0.032c-0.007,-0.012 -0.01,-0.026 -0.01,-0.042c0,-0.025 0.008,-0.045 0.023,-0.059c0.015,-0.013 0.034,-0.024 0.057,-0.031c0.023,-0.007 0.049,-0.013 0.078,-0.017c0.028,-0.003 0.055,-0.007 0.082,-0.012c0.009,-0.001 0.019,-0.004 0.03,-0.007c0.011,-0.003 0.019,-0.009 0.023,-0.016l0.002,0Z" style="fill:#231f20;fill-rule:nonzero;"/></g><g transform="matrix(200,0,0,200,1387.94,1215.47)"><path d="M0.059,-0.516l0,0.516l0.063,0l0,-0.301c0.001,-0.025 0.005,-0.049 0.013,-0.071c0.007,-0.021 0.018,-0.04 0.032,-0.055c0.013,-0.016 0.03,-0.029 0.049,-0.038c0.02,-0.009 0.043,-0.013 0.068,-0.013c0.025,0 0.046,0.004 0.064,0.012c0.017,0.008 0.03,0.019 0.04,0.033c0.01,0.014 0.017,0.03 0.021,0.049c0.004,0.019 0.006,0.04 0.006,0.062l0,0.322l0.063,0l0,-0.332c0,-0.031 -0.003,-0.058 -0.009,-0.083c-0.006,-0.025 -0.016,-0.045 -0.031,-0.063c-0.015,-0.017 -0.034,-0.03 -0.059,-0.039c-0.024,-0.009 -0.054,-0.014 -0.09,-0.014c-0.037,0 -0.07,0.009 -0.101,0.028c-0.031,0.019 -0.052,0.045 -0.064,0.076l-0.002,0l0,-0.089l-0.063,0Z" style="fill:#231f20;fill-rule:nonzero;"/></g><g transform="matrix(200,0,0,200,1495.34,1215.47)"><path d="M0.16,-0.516l0,-0.155l-0.063,0l0,0.155l-0.09,0l0,0.053l0.09,0l0,0.353c-0.001,0.044 0.007,0.074 0.024,0.091c0.017,0.016 0.046,0.024 0.088,0.024c0.009,0 0.019,0 0.028,-0.001c0.009,-0.001 0.019,-0.001 0.028,-0.001l0,-0.053c-0.018,0.002 -0.036,0.003 -0.054,0.003c-0.023,-0.001 -0.037,-0.008 -0.043,-0.019c-0.005,-0.012 -0.008,-0.028 -0.008,-0.049l0,-0.348l0.105,0l0,-0.053l-0.105,0Z" style="fill:#231f20;fill-rule:nonzero;"/></g><g transform="matrix(200,0,0,200,400.536,1421.27)"><path d="M0.594,-0.498l0.068,0c-0.005,-0.037 -0.016,-0.07 -0.033,-0.099c-0.018,-0.029 -0.04,-0.053 -0.066,-0.073c-0.027,-0.019 -0.056,-0.034 -0.088,-0.044c-0.033,-0.01 -0.066,-0.015 -0.1,-0.015c-0.056,0 -0.105,0.01 -0.148,0.03c-0.042,0.021 -0.077,0.048 -0.105,0.082c-0.028,0.035 -0.049,0.074 -0.063,0.119c-0.014,0.045 -0.021,0.092 -0.021,0.141c0,0.049 0.007,0.096 0.021,0.141c0.014,0.045 0.035,0.084 0.063,0.118c0.028,0.034 0.063,0.061 0.106,0.081c0.042,0.021 0.091,0.031 0.147,0.031c0.042,0 0.08,-0.007 0.114,-0.02c0.035,-0.013 0.065,-0.032 0.09,-0.057c0.025,-0.025 0.046,-0.055 0.062,-0.09c0.016,-0.035 0.026,-0.075 0.031,-0.119l-0.068,0c-0.003,0.032 -0.011,0.062 -0.023,0.089c-0.012,0.028 -0.028,0.052 -0.047,0.073c-0.019,0.021 -0.042,0.037 -0.069,0.049c-0.027,0.012 -0.057,0.018 -0.09,0.018c-0.047,0 -0.088,-0.009 -0.122,-0.027c-0.034,-0.018 -0.062,-0.042 -0.083,-0.072c-0.022,-0.029 -0.038,-0.063 -0.048,-0.101c-0.011,-0.037 -0.016,-0.075 -0.016,-0.114c0,-0.039 0.005,-0.078 0.016,-0.115c0.01,-0.037 0.026,-0.071 0.048,-0.101c0.021,-0.029 0.049,-0.053 0.083,-0.071c0.034,-0.018 0.075,-0.027 0.122,-0.027c0.026,0 0.051,0.004 0.075,0.011c0.023,0.008 0.045,0.019 0.064,0.034c0.02,0.015 0.037,0.033 0.05,0.054c0.014,0.022 0.024,0.047 0.03,0.074Z" style="fill:#231f20;fill-rule:nonzero;"/></g><g transform="matrix(200,0,0,200,541.336,1421.27)"><path d="M0.431,-0.294l-0.334,0c0.003,-0.023 0.008,-0.046 0.017,-0.069c0.008,-0.022 0.019,-0.042 0.033,-0.058c0.014,-0.018 0.031,-0.031 0.051,-0.042c0.02,-0.01 0.043,-0.015 0.069,-0.015c0.025,0 0.048,0.005 0.068,0.015c0.02,0.011 0.037,0.024 0.051,0.041c0.014,0.017 0.025,0.037 0.033,0.059c0.007,0.022 0.011,0.045 0.012,0.069Zm-0.334,0.053l0.397,0c0.001,-0.036 -0.002,-0.072 -0.01,-0.107c-0.008,-0.035 -0.021,-0.066 -0.039,-0.093c-0.019,-0.027 -0.043,-0.048 -0.072,-0.065c-0.029,-0.017 -0.065,-0.025 -0.106,-0.025c-0.041,0 -0.076,0.008 -0.105,0.023c-0.03,0.016 -0.054,0.037 -0.073,0.063c-0.019,0.025 -0.032,0.054 -0.041,0.087c-0.009,0.033 -0.014,0.066 -0.014,0.1c0,0.037 0.005,0.072 0.014,0.105c0.009,0.033 0.022,0.062 0.041,0.087c0.019,0.025 0.043,0.044 0.073,0.059c0.029,0.014 0.064,0.021 0.105,0.021c0.065,0 0.116,-0.016 0.152,-0.048c0.035,-0.032 0.06,-0.077 0.073,-0.136l-0.063,0c-0.01,0.04 -0.028,0.072 -0.054,0.096c-0.026,0.024 -0.062,0.036 -0.108,0.036c-0.03,0 -0.056,-0.006 -0.077,-0.019c-0.021,-0.013 -0.039,-0.029 -0.053,-0.048c-0.014,-0.019 -0.024,-0.041 -0.03,-0.065c-0.007,-0.025 -0.01,-0.048 -0.01,-0.071Z" style="fill:#231f20;fill-rule:nonzero;"/></g><g transform="matrix(200,0,0,200,645.136,1421.27)"><rect x="0.061" y="-0.714" width="0.063" height="0.714" style="fill:#231f20;fill-rule:nonzero;"/></g><g transform="matrix(200,0,0,200,682.136,1421.27)"><rect x="0.061" y="-0.714" width="0.063" height="0.714" style="fill:#231f20;fill-rule:nonzero;"/></g><g transform="matrix(200,0,0,200,774.736,1421.27)"><path d="M0.104,-0.235l-0.068,0c-0.002,0.044 0.004,0.082 0.017,0.113c0.014,0.031 0.034,0.057 0.059,0.077c0.025,0.02 0.056,0.035 0.092,0.045c0.036,0.009 0.075,0.014 0.117,0.014c0.042,0 0.078,-0.004 0.108,-0.011c0.03,-0.008 0.055,-0.018 0.076,-0.03c0.02,-0.013 0.036,-0.027 0.047,-0.042c0.012,-0.015 0.021,-0.03 0.027,-0.046c0.007,-0.014 0.011,-0.029 0.012,-0.042c0.002,-0.013 0.003,-0.024 0.003,-0.032c0,-0.029 -0.005,-0.054 -0.015,-0.075c-0.009,-0.021 -0.022,-0.038 -0.04,-0.052c-0.017,-0.015 -0.036,-0.027 -0.059,-0.036c-0.022,-0.01 -0.046,-0.018 -0.071,-0.025l-0.174,-0.043c-0.015,-0.003 -0.029,-0.008 -0.042,-0.013c-0.012,-0.005 -0.024,-0.012 -0.034,-0.021c-0.01,-0.009 -0.018,-0.019 -0.023,-0.031c-0.006,-0.013 -0.009,-0.027 -0.009,-0.044c0,-0.027 0.005,-0.049 0.015,-0.067c0.01,-0.018 0.023,-0.032 0.039,-0.043c0.017,-0.011 0.036,-0.019 0.057,-0.024c0.022,-0.005 0.045,-0.008 0.068,-0.008c0.025,0 0.049,0.004 0.072,0.011c0.023,0.007 0.044,0.017 0.061,0.031c0.018,0.013 0.032,0.03 0.043,0.051c0.011,0.02 0.018,0.044 0.019,0.071l0.068,0c0,-0.037 -0.007,-0.069 -0.021,-0.096c-0.015,-0.028 -0.034,-0.051 -0.058,-0.07c-0.024,-0.019 -0.052,-0.033 -0.084,-0.042c-0.032,-0.009 -0.066,-0.014 -0.101,-0.014c-0.05,0 -0.091,0.007 -0.123,0.022c-0.032,0.014 -0.057,0.031 -0.075,0.052c-0.019,0.021 -0.031,0.043 -0.038,0.066c-0.007,0.023 -0.01,0.044 -0.01,0.061c0,0.028 0.005,0.052 0.014,0.071c0.009,0.019 0.02,0.036 0.035,0.049c0.015,0.013 0.032,0.024 0.052,0.032c0.019,0.008 0.039,0.015 0.06,0.02l0.159,0.039c0.017,0.004 0.034,0.009 0.051,0.016c0.017,0.006 0.033,0.014 0.048,0.024c0.014,0.01 0.025,0.022 0.034,0.037c0.009,0.015 0.014,0.032 0.014,0.052c0,0.026 -0.006,0.048 -0.019,0.066c-0.013,0.019 -0.029,0.034 -0.047,0.045c-0.02,0.012 -0.04,0.021 -0.062,0.026c-0.022,0.005 -0.042,0.008 -0.061,0.008c-0.033,0 -0.063,-0.003 -0.092,-0.01c-0.029,-0.006 -0.054,-0.016 -0.075,-0.031c-0.021,-0.015 -0.037,-0.034 -0.049,-0.059c-0.012,-0.025 -0.018,-0.055 -0.017,-0.092Z" style="fill:#231f20;fill-rule:nonzero;"/></g><g transform="matrix(200,0,0,200,900.736,1421.27)"><path d="M0.431,-0.294l-0.334,0c0.003,-0.023 0.008,-0.046 0.017,-0.069c0.008,-0.022 0.019,-0.042 0.033,-0.058c0.014,-0.018 0.031,-0.031 0.051,-0.042c0.02,-0.01 0.043,-0.015 0.069,-0.015c0.025,0 0.048,0.005 0.068,0.015c0.02,0.011 0.037,0.024 0.051,0.041c0.014,0.017 0.025,0.037 0.033,0.059c0.007,0.022 0.011,0.045 0.012,0.069Zm-0.334,0.053l0.397,0c0.001,-0.036 -0.002,-0.072 -0.01,-0.107c-0.008,-0.035 -0.021,-0.066 -0.039,-0.093c-0.019,-0.027 -0.043,-0.048 -0.072,-0.065c-0.029,-0.017 -0.065,-0.025 -0.106,-0.025c-0.041,0 -0.076,0.008 -0.105,0.023c-0.03,0.016 -0.054,0.037 -0.073,0.063c-0.019,0.025 -0.032,0.054 -0.041,0.087c-0.009,0.033 -0.014,0.066 -0.014,0.1c0,0.037 0.005,0.072 0.014,0.105c0.009,0.033 0.022,0.062 0.041,0.087c0.019,0.025 0.043,0.044 0.073,0.059c0.029,0.014 0.064,0.021 0.105,0.021c0.065,0 0.116,-0.016 0.152,-0.048c0.035,-0.032 0.06,-0.077 0.073,-0.136l-0.063,0c-0.01,0.04 -0.028,0.072 -0.054,0.096c-0.026,0.024 -0.062,0.036 -0.108,0.036c-0.03,0 -0.056,-0.006 -0.077,-0.019c-0.021,-0.013 -0.039,-0.029 -0.053,-0.048c-0.014,-0.019 -0.024,-0.041 -0.03,-0.065c-0.007,-0.025 -0.01,-0.048 -0.01,-0.071Z" style="fill:#231f20;fill-rule:nonzero;"/></g><g transform="matrix(200,0,0,200,1004.54,1421.27)"><path d="M0.496,-0.042l0,-0.474l-0.063,0l0,0.089l-0.002,0c-0.006,-0.014 -0.014,-0.027 -0.025,-0.04c-0.011,-0.013 -0.024,-0.024 -0.038,-0.034c-0.014,-0.009 -0.029,-0.017 -0.046,-0.022c-0.018,-0.005 -0.036,-0.008 -0.055,-0.008c-0.037,0 -0.071,0.007 -0.1,0.02c-0.029,0.014 -0.053,0.033 -0.073,0.056c-0.019,0.024 -0.034,0.052 -0.045,0.084c-0.01,0.031 -0.015,0.065 -0.015,0.1c0,0.037 0.004,0.071 0.013,0.104c0.009,0.032 0.022,0.06 0.041,0.084c0.019,0.024 0.044,0.043 0.073,0.057c0.029,0.013 0.065,0.02 0.106,0.02c0.038,0 0.071,-0.01 0.099,-0.029c0.029,-0.019 0.05,-0.045 0.065,-0.077l0.002,0l0,0.07c0,0.063 -0.013,0.111 -0.039,0.144c-0.026,0.033 -0.068,0.05 -0.127,0.05c-0.017,0 -0.034,-0.002 -0.051,-0.006c-0.017,-0.003 -0.032,-0.009 -0.046,-0.017c-0.013,-0.008 -0.025,-0.019 -0.035,-0.032c-0.009,-0.012 -0.016,-0.029 -0.019,-0.048l-0.063,0c0.002,0.027 0.009,0.051 0.022,0.071c0.013,0.019 0.03,0.035 0.049,0.048c0.02,0.013 0.042,0.022 0.067,0.028c0.025,0.006 0.05,0.009 0.076,0.009c0.042,0 0.077,-0.006 0.106,-0.017c0.029,-0.011 0.053,-0.028 0.071,-0.049c0.018,-0.021 0.031,-0.047 0.039,-0.078c0.009,-0.031 0.013,-0.065 0.013,-0.103Zm-0.229,-0.017c-0.029,0 -0.055,-0.006 -0.076,-0.018c-0.021,-0.011 -0.039,-0.026 -0.053,-0.046c-0.014,-0.018 -0.024,-0.04 -0.031,-0.065c-0.007,-0.025 -0.01,-0.05 -0.01,-0.076c0,-0.027 0.003,-0.053 0.009,-0.079c0.007,-0.025 0.017,-0.048 0.031,-0.068c0.014,-0.02 0.032,-0.036 0.053,-0.048c0.021,-0.013 0.047,-0.019 0.077,-0.019c0.03,0 0.055,0.006 0.077,0.019c0.021,0.013 0.038,0.029 0.051,0.05c0.013,0.021 0.023,0.044 0.029,0.069c0.006,0.025 0.009,0.051 0.009,0.076c0,0.026 -0.004,0.051 -0.011,0.076c-0.007,0.025 -0.017,0.047 -0.031,0.066c-0.014,0.019 -0.031,0.034 -0.052,0.046c-0.021,0.011 -0.045,0.017 -0.072,0.017Z" style="fill:#231f20;fill-rule:nonzero;"/></g><g transform="matrix(200,0,0,200,1115.74,1421.27)"><path d="M0.06,-0.516l0,0.516l0.063,0l0,-0.288c0,-0.027 0.003,-0.052 0.009,-0.075c0.006,-0.023 0.015,-0.043 0.027,-0.06c0.013,-0.017 0.029,-0.031 0.049,-0.04c0.019,-0.01 0.042,-0.015 0.069,-0.015c0.02,0 0.037,0.003 0.051,0.01c0.014,0.007 0.025,0.016 0.033,0.028c0.009,0.011 0.015,0.025 0.019,0.04c0.003,0.016 0.005,0.033 0.005,0.05l0,0.35l0.063,0l0,-0.292c0,-0.024 0.002,-0.047 0.007,-0.07c0.004,-0.022 0.011,-0.042 0.022,-0.059c0.011,-0.017 0.025,-0.031 0.043,-0.042c0.018,-0.01 0.041,-0.015 0.068,-0.015c0.045,0 0.077,0.011 0.095,0.033c0.018,0.023 0.027,0.055 0.027,0.098l0,0.347l0.063,0l0,-0.35c0,-0.121 -0.057,-0.181 -0.171,-0.181c-0.034,0 -0.066,0.008 -0.096,0.025c-0.03,0.017 -0.053,0.042 -0.068,0.076c-0.009,-0.034 -0.028,-0.059 -0.056,-0.076c-0.027,-0.017 -0.058,-0.025 -0.092,-0.025c-0.042,0 -0.077,0.009 -0.104,0.027c-0.027,0.018 -0.048,0.043 -0.065,0.075l-0.003,0l0,-0.087l-0.058,0Z" style="fill:#231f20;fill-rule:nonzero;"/></g><g transform="matrix(200,0,0,200,1282.34,1421.27)"><path d="M0.431,-0.294l-0.334,0c0.003,-0.023 0.008,-0.046 0.017,-0.069c0.008,-0.022 0.019,-0.042 0.033,-0.058c0.014,-0.018 0.031,-0.031 0.051,-0.042c0.02,-0.01 0.043,-0.015 0.069,-0.015c0.025,0 0.048,0.005 0.068,0.015c0.02,0.011 0.037,0.024 0.051,0.041c0.014,0.017 0.025,0.037 0.033,0.059c0.007,0.022 0.011,0.045 0.012,0.069Zm-0.334,0.053l0.397,0c0.001,-0.036 -0.002,-0.072 -0.01,-0.107c-0.008,-0.035 -0.021,-0.066 -0.039,-0.093c-0.019,-0.027 -0.043,-0.048 -0.072,-0.065c-0.029,-0.017 -0.065,-0.025 -0.106,-0.025c-0.041,0 -0.076,0.008 -0.105,0.023c-0.03,0.016 -0.054,0.037 -0.073,0.063c-0.019,0.025 -0.032,0.054 -0.041,0.087c-0.009,0.033 -0.014,0.066 -0.014,0.1c0,0.037 0.005,0.072 0.014,0.105c0.009,0.033 0.022,0.062 0.041,0.087c0.019,0.025 0.043,0.044 0.073,0.059c0.029,0.014 0.064,0.021 0.105,0.021c0.065,0 0.116,-0.016 0.152,-0.048c0.035,-0.032 0.06,-0.077 0.073,-0.136l-0.063,0c-0.01,0.04 -0.028,0.072 -0.054,0.096c-0.026,0.024 -0.062,0.036 -0.108,0.036c-0.03,0 -0.056,-0.006 -0.077,-0.019c-0.021,-0.013 -0.039,-0.029 -0.053,-0.048c-0.014,-0.019 -0.024,-0.041 -0.03,-0.065c-0.007,-0.025 -0.01,-0.048 -0.01,-0.071Z" style="fill:#231f20;fill-rule:nonzero;"/></g><g transform="matrix(200,0,0,200,1386.14,1421.27)"><path d="M0.059,-0.516l0,0.516l0.063,0l0,-0.301c0.001,-0.025 0.005,-0.049 0.013,-0.071c0.007,-0.021 0.018,-0.04 0.032,-0.055c0.013,-0.016 0.03,-0.029 0.049,-0.038c0.02,-0.009 0.043,-0.013 0.068,-0.013c0.025,0 0.046,0.004 0.064,0.012c0.017,0.008 0.03,0.019 0.04,0.033c0.01,0.014 0.017,0.03 0.021,0.049c0.004,0.019 0.006,0.04 0.006,0.062l0,0.322l0.063,0l0,-0.332c0,-0.031 -0.003,-0.058 -0.009,-0.083c-0.006,-0.025 -0.016,-0.045 -0.031,-0.063c-0.015,-0.017 -0.034,-0.03 -0.059,-0.039c-0.024,-0.009 -0.054,-0.014 -0.09,-0.014c-0.037,0 -0.07,0.009 -0.101,0.028c-0.031,0.019 -0.052,0.045 -0.064,0.076l-0.002,0l0,-0.089l-0.063,0Z" style="fill:#231f20;fill-rule:nonzero;"/></g><g transform="matrix(200,0,0,200,1493.54,1421.27)"><path d="M0.16,-0.516l0,-0.155l-0.063,0l0,0.155l-0.09,0l0,0.053l0.09,0l0,0.353c-0.001,0.044 0.007,0.074 0.024,0.091c0.017,0.016 0.046,0.024 0.088,0.024c0.009,0 0.019,0 0.028,-0.001c0.009,-0.001 0.019,-0.001 0.028,-0.001l0,-0.053c-0.018,0.002 -0.036,0.003 -0.054,0.003c-0.023,-0.001 -0.037,-0.008 -0.043,-0.019c-0.005,-0.012 -0.008,-0.028 -0.008,-0.049l0,-0.348l0.105,0l0,-0.053l-0.105,0Z" style="fill:#231f20;fill-rule:nonzero;"/></g><g transform="matrix(200,0,0,200,1552.74,1421.27)"><path d="M0.054,-0.358l0.063,0c0.001,-0.042 0.015,-0.073 0.04,-0.092c0.025,-0.019 0.058,-0.028 0.098,-0.028c0.019,0 0.036,0.002 0.052,0.004c0.017,0.003 0.031,0.009 0.044,0.017c0.012,0.008 0.022,0.019 0.029,0.032c0.007,0.014 0.01,0.032 0.01,0.053c0,0.014 -0.002,0.025 -0.006,0.034c-0.003,0.009 -0.008,0.015 -0.015,0.02c-0.007,0.005 -0.015,0.009 -0.025,0.011c-0.01,0.002 -0.022,0.004 -0.035,0.005c-0.034,0.004 -0.067,0.008 -0.1,0.012c-0.033,0.005 -0.063,0.012 -0.089,0.023c-0.027,0.011 -0.048,0.026 -0.064,0.046c-0.016,0.021 -0.024,0.049 -0.024,0.085c0,0.026 0.005,0.048 0.014,0.067c0.009,0.019 0.021,0.035 0.037,0.047c0.015,0.013 0.034,0.022 0.055,0.027c0.021,0.006 0.043,0.009 0.067,0.009c0.025,0 0.047,-0.002 0.066,-0.007c0.018,-0.005 0.034,-0.011 0.049,-0.02c0.014,-0.009 0.027,-0.02 0.039,-0.033c0.011,-0.013 0.023,-0.027 0.034,-0.044l0.002,0c0,0.013 0.001,0.025 0.003,0.036c0.001,0.011 0.005,0.021 0.01,0.029c0.005,0.008 0.013,0.014 0.023,0.018c0.009,0.005 0.022,0.007 0.038,0.007c0.009,0 0.016,0 0.022,-0.001c0.005,-0.001 0.012,-0.002 0.019,-0.003l0,-0.053c-0.006,0.003 -0.013,0.004 -0.02,0.004c-0.025,0 -0.037,-0.013 -0.037,-0.038l0,-0.274c0,-0.035 -0.006,-0.063 -0.017,-0.085c-0.011,-0.021 -0.026,-0.038 -0.044,-0.05c-0.018,-0.012 -0.038,-0.02 -0.061,-0.025c-0.023,-0.004 -0.045,-0.006 -0.068,-0.006c-0.03,0 -0.057,0.003 -0.082,0.01c-0.025,0.007 -0.046,0.017 -0.064,0.031c-0.019,0.014 -0.033,0.032 -0.044,0.054c-0.011,0.022 -0.017,0.048 -0.019,0.078Zm0.336,0.076l0,0.082c0,0.025 -0.005,0.048 -0.014,0.068c-0.01,0.02 -0.023,0.037 -0.039,0.051c-0.017,0.014 -0.036,0.025 -0.058,0.032c-0.022,0.007 -0.045,0.011 -0.069,0.011c-0.015,0 -0.029,-0.002 -0.043,-0.007c-0.014,-0.005 -0.026,-0.012 -0.037,-0.021c-0.011,-0.009 -0.019,-0.019 -0.025,-0.032c-0.007,-0.012 -0.01,-0.026 -0.01,-0.042c0,-0.025 0.008,-0.045 0.023,-0.059c0.015,-0.013 0.034,-0.024 0.057,-0.031c0.023,-0.007 0.049,-0.013 0.078,-0.017c0.028,-0.003 0.055,-0.007 0.082,-0.012c0.009,-0.001 0.019,-0.004 0.03,-0.007c0.011,-0.003 0.019,-0.009 0.023,-0.016l0.002,0Z" style="fill:#231f20;fill-rule:nonzero;"/></g><g transform="matrix(200,0,0,200,1656.54,1421.27)"><path d="M0.16,-0.516l0,-0.155l-0.063,0l0,0.155l-0.09,0l0,0.053l0.09,0l0,0.353c-0.001,0.044 0.007,0.074 0.024,0.091c0.017,0.016 0.046,0.024 0.088,0.024c0.009,0 0.019,0 0.028,-0.001c0.009,-0.001 0.019,-0.001 0.028,-0.001l0,-0.053c-0.018,0.002 -0.036,0.003 -0.054,0.003c-0.023,-0.001 -0.037,-0.008 -0.043,-0.019c-0.005,-0.012 -0.008,-0.028 -0.008,-0.049l0,-0.348l0.105,0l0,-0.053l-0.105,0Z" style="fill:#231f20;fill-rule:nonzero;"/></g><g transform="matrix(200,0,0,200,1715.74,1421.27)"><path d="M0.061,-0.714l0,0.101l0.063,0l0,-0.101l-0.063,0Zm0,0.198l0,0.516l0.063,0l0,-0.516l-0.063,0Z" style="fill:#231f20;fill-rule:nonzero;"/></g><g transform="matrix(200,0,0,200,1752.74,1421.27)"><path d="M0.278,-0.478c0.03,0 0.056,0.006 0.079,0.019c0.023,0.013 0.041,0.029 0.056,0.05c0.016,0.021 0.027,0.044 0.034,0.071c0.008,0.026 0.012,0.053 0.012,0.08c0,0.027 -0.004,0.054 -0.012,0.081c-0.007,0.026 -0.019,0.049 -0.034,0.07c-0.015,0.021 -0.033,0.037 -0.056,0.05c-0.023,0.013 -0.049,0.019 -0.079,0.019c-0.03,0 -0.056,-0.006 -0.079,-0.019c-0.023,-0.013 -0.042,-0.029 -0.056,-0.05c-0.016,-0.021 -0.027,-0.044 -0.035,-0.071c-0.007,-0.026 -0.011,-0.053 -0.011,-0.08c0,-0.027 0.004,-0.054 0.011,-0.081c0.008,-0.026 0.019,-0.049 0.035,-0.07c0.014,-0.021 0.033,-0.037 0.056,-0.05c0.023,-0.013 0.049,-0.019 0.079,-0.019Zm0,-0.053c-0.039,0 -0.074,0.007 -0.105,0.022c-0.03,0.015 -0.055,0.034 -0.076,0.059c-0.021,0.025 -0.036,0.053 -0.047,0.087c-0.011,0.032 -0.016,0.068 -0.016,0.105c0,0.037 0.005,0.073 0.016,0.106c0.011,0.033 0.026,0.061 0.047,0.086c0.021,0.025 0.046,0.044 0.076,0.059c0.031,0.014 0.066,0.021 0.105,0.021c0.039,0 0.074,-0.007 0.104,-0.021c0.031,-0.015 0.056,-0.034 0.077,-0.059c0.021,-0.025 0.036,-0.053 0.047,-0.086c0.011,-0.033 0.016,-0.069 0.016,-0.106c0,-0.037 -0.005,-0.073 -0.016,-0.105c-0.011,-0.034 -0.026,-0.062 -0.047,-0.087c-0.021,-0.025 -0.046,-0.044 -0.077,-0.059c-0.03,-0.015 -0.065,-0.022 -0.104,-0.022Z" style="fill:#231f20;fill-rule:nonzero;"/></g><g transform="matrix(200,0,0,200,1863.94,1421.27)"><path d="M0.059,-0.516l0,0.516l0.063,0l0,-0.301c0.001,-0.025 0.005,-0.049 0.013,-0.071c0.007,-0.021 0.018,-0.04 0.032,-0.055c0.013,-0.016 0.03,-0.029 0.049,-0.038c0.02,-0.009 0.043,-0.013 0.068,-0.013c0.025,0 0.046,0.004 0.064,0.012c0.017,0.008 0.03,0.019 0.04,0.033c0.01,0.014 0.017,0.03 0.021,0.049c0.004,0.019 0.006,0.04 0.006,0.062l0,0.322l0.063,0l0,-0.332c0,-0.031 -0.003,-0.058 -0.009,-0.083c-0.006,-0.025 -0.016,-0.045 -0.031,-0.063c-0.015,-0.017 -0.034,-0.03 -0.059,-0.039c-0.024,-0.009 -0.054,-0.014 -0.09,-0.014c-0.037,0 -0.07,0.009 -0.101,0.028c-0.031,0.019 -0.052,0.045 -0.064,0.076l-0.002,0l0,-0.089l-0.063,0Z" style="fill:#231f20;fill-rule:nonzero;"/></g></g><path d="M1087.59,168.766c0,-28.745 -23.337,-52.082 -52.081,-52.082l-383.829,0c-28.745,0 -52.082,23.337 -52.082,52.082l0,104.162c0,28.744 23.337,52.081 52.082,52.081l383.829,0c28.744,0 52.081,-23.337 52.081,-52.081l0,-104.162Z" style="fill:none;stroke:#000;stroke-width:7px;"/></g><g><g transform="matrix(0.24,0,0,0.24,1754.11,-83.3461)"><g transform="matrix(200,0,0,200,478.236,1215.47)"><path d="M0.14,-0.401l0,-0.255l0.234,0c0.107,0 0.161,0.045 0.161,0.134c0,0.017 -0.003,0.032 -0.01,0.047c-0.007,0.015 -0.017,0.028 -0.03,0.039c-0.013,0.011 -0.03,0.019 -0.05,0.026c-0.02,0.006 -0.044,0.009 -0.071,0.009l-0.234,0Zm-0.068,-0.313l0,0.714l0.302,0c0.039,0 0.072,-0.004 0.1,-0.011c0.027,-0.007 0.051,-0.016 0.07,-0.027c0.018,-0.01 0.034,-0.023 0.045,-0.038c0.011,-0.015 0.02,-0.029 0.026,-0.045c0.006,-0.015 0.01,-0.029 0.012,-0.044c0.002,-0.014 0.003,-0.027 0.003,-0.038c0,-0.047 -0.014,-0.086 -0.041,-0.118c-0.027,-0.031 -0.064,-0.05 -0.11,-0.056l0,-0.002c0.019,-0.004 0.035,-0.011 0.05,-0.021c0.015,-0.01 0.028,-0.022 0.039,-0.036c0.011,-0.015 0.02,-0.031 0.026,-0.048c0.006,-0.018 0.009,-0.036 0.009,-0.055c0,-0.033 -0.006,-0.061 -0.019,-0.084c-0.013,-0.022 -0.03,-0.04 -0.051,-0.053c-0.021,-0.014 -0.045,-0.024 -0.073,-0.029c-0.027,-0.006 -0.056,-0.009 -0.086,-0.009l-0.302,0Zm0.068,0.656l0,-0.285l0.234,0c0.061,0 0.107,0.012 0.139,0.035c0.033,0.023 0.049,0.057 0.049,0.103c0,0.029 -0.005,0.053 -0.015,0.072c-0.01,0.019 -0.024,0.034 -0.041,0.045c-0.017,0.011 -0.037,0.019 -0.06,0.024c-0.023,0.004 -0.047,0.006 -0.072,0.006l-0.234,0Z" style="fill:#231f20;fill-rule:nonzero;"/></g><g transform="matrix(200,0,0,200,611.636,1215.47)"><path d="M0.06,-0.516l0,0.516l0.063,0l0,-0.275c0,-0.027 0.005,-0.052 0.014,-0.076c0.009,-0.022 0.022,-0.042 0.039,-0.059c0.017,-0.017 0.038,-0.029 0.061,-0.038c0.023,-0.01 0.049,-0.013 0.078,-0.012l0,-0.063c-0.047,-0.002 -0.087,0.008 -0.121,0.031c-0.033,0.023 -0.058,0.055 -0.074,0.097l-0.002,0l0,-0.121l-0.058,0Z" style="fill:#231f20;fill-rule:nonzero;"/></g><g transform="matrix(200,0,0,200,674.636,1215.47)"><path d="M0.054,-0.358l0.063,0c0.001,-0.042 0.015,-0.073 0.04,-0.092c0.025,-0.019 0.058,-0.028 0.098,-0.028c0.019,0 0.036,0.002 0.052,0.004c0.017,0.003 0.031,0.009 0.044,0.017c0.012,0.008 0.022,0.019 0.029,0.032c0.007,0.014 0.01,0.032 0.01,0.053c0,0.014 -0.002,0.025 -0.006,0.034c-0.003,0.009 -0.008,0.015 -0.015,0.02c-0.007,0.005 -0.015,0.009 -0.025,0.011c-0.01,0.002 -0.022,0.004 -0.035,0.005c-0.034,0.004 -0.067,0.008 -0.1,0.012c-0.033,0.005 -0.063,0.012 -0.089,0.023c-0.027,0.011 -0.048,0.026 -0.064,0.046c-0.016,0.021 -0.024,0.049 -0.024,0.085c0,0.026 0.005,0.048 0.014,0.067c0.009,0.019 0.021,0.035 0.037,0.047c0.015,0.013 0.034,0.022 0.055,0.027c0.021,0.006 0.043,0.009 0.067,0.009c0.025,0 0.047,-0.002 0.066,-0.007c0.018,-0.005 0.034,-0.011 0.049,-0.02c0.014,-0.009 0.027,-0.02 0.039,-0.033c0.011,-0.013 0.023,-0.027 0.034,-0.044l0.002,0c0,0.013 0.001,0.025 0.003,0.036c0.001,0.011 0.005,0.021 0.01,0.029c0.005,0.008 0.013,0.014 0.023,0.018c0.009,0.005 0.022,0.007 0.038,0.007c0.009,0 0.016,0 0.022,-0.001c0.005,-0.001 0.012,-0.002 0.019,-0.003l0,-0.053c-0.006,0.003 -0.013,0.004 -0.02,0.004c-0.025,0 -0.037,-0.013 -0.037,-0.038l0,-0.274c0,-0.035 -0.006,-0.063 -0.017,-0.085c-0.011,-0.021 -0.026,-0.038 -0.044,-0.05c-0.018,-0.012 -0.038,-0.02 -0.061,-0.025c-0.023,-0.004 -0.045,-0.006 -0.068,-0.006c-0.03,0 -0.057,0.003 -0.082,0.01c-0.025,0.007 -0.046,0.017 -0.064,0.031c-0.019,0.014 -0.033,0.032 -0.044,0.054c-0.011,0.022 -0.017,0.048 -0.019,0.078Zm0.336,0.076l0,0.082c0,0.025 -0.005,0.048 -0.014,0.068c-0.01,0.02 -0.023,0.037 -0.039,0.051c-0.017,0.014 -0.036,0.025 -0.058,0.032c-0.022,0.007 -0.045,0.011 -0.069,0.011c-0.015,0 -0.029,-0.002 -0.043,-0.007c-0.014,-0.005 -0.026,-0.012 -0.037,-0.021c-0.011,-0.009 -0.019,-0.019 -0.025,-0.032c-0.007,-0.012 -0.01,-0.026 -0.01,-0.042c0,-0.025 0.008,-0.045 0.023,-0.059c0.015,-0.013 0.034,-0.024 0.057,-0.031c0.023,-0.007 0.049,-0.013 0.078,-0.017c0.028,-0.003 0.055,-0.007 0.082,-0.012c0.009,-0.001 0.019,-0.004 0.03,-0.007c0.011,-0.003 0.019,-0.009 0.023,-0.016l0.002,0Z" style="fill:#231f20;fill-rule:nonzero;"/></g><g transform="matrix(200,0,0,200,778.436,1215.47)"><path d="M0.061,-0.714l0,0.101l0.063,0l0,-0.101l-0.063,0Zm0,0.198l0,0.516l0.063,0l0,-0.516l-0.063,0Z" style="fill:#231f20;fill-rule:nonzero;"/></g><g transform="matrix(200,0,0,200,815.436,1215.47)"><path d="M0.059,-0.516l0,0.516l0.063,0l0,-0.301c0.001,-0.025 0.005,-0.049 0.013,-0.071c0.007,-0.021 0.018,-0.04 0.032,-0.055c0.013,-0.016 0.03,-0.029 0.049,-0.038c0.02,-0.009 0.043,-0.013 0.068,-0.013c0.025,0 0.046,0.004 0.064,0.012c0.017,0.008 0.03,0.019 0.04,0.033c0.01,0.014 0.017,0.03 0.021,0.049c0.004,0.019 0.006,0.04 0.006,0.062l0,0.322l0.063,0l0,-0.332c0,-0.031 -0.003,-0.058 -0.009,-0.083c-0.006,-0.025 -0.016,-0.045 -0.031,-0.063c-0.015,-0.017 -0.034,-0.03 -0.059,-0.039c-0.024,-0.009 -0.054,-0.014 -0.09,-0.014c-0.037,0 -0.07,0.009 -0.101,0.028c-0.031,0.019 -0.052,0.045 -0.064,0.076l-0.002,0l0,-0.089l-0.063,0Z" style="fill:#231f20;fill-rule:nonzero;"/></g><g transform="matrix(200,0,0,200,978.436,1215.47)"><path d="M-0.004,-0.714l0,0.058l0.248,0l0,0.656l0.068,0l0,-0.656l0.249,0l0,-0.058l-0.565,0Z" style="fill:#231f20;fill-rule:nonzero;"/></g><g transform="matrix(200,0,0,200,1071.24,1215.47)"><path d="M0.478,0l0,-0.516l-0.063,0l0,0.271c0,0.026 -0.003,0.051 -0.009,0.076c-0.006,0.025 -0.015,0.048 -0.028,0.067c-0.013,0.019 -0.029,0.035 -0.048,0.046c-0.019,0.012 -0.043,0.018 -0.07,0.018c-0.05,0 -0.085,-0.012 -0.106,-0.036c-0.02,-0.024 -0.031,-0.059 -0.032,-0.106l0,-0.336l-0.063,0l0,0.335c0,0.031 0.003,0.058 0.01,0.082c0.007,0.024 0.017,0.044 0.031,0.061c0.015,0.017 0.033,0.029 0.056,0.038c0.023,0.009 0.051,0.014 0.084,0.014c0.039,0 0.074,-0.009 0.105,-0.028c0.032,-0.018 0.056,-0.044 0.073,-0.079l0.002,0l0,0.093l0.058,0Z" style="fill:#231f20;fill-rule:nonzero;"/></g><g transform="matrix(200,0,0,200,1178.64,1215.47)"><path d="M0.06,-0.516l0,0.516l0.063,0l0,-0.288c0,-0.027 0.003,-0.052 0.009,-0.075c0.006,-0.023 0.015,-0.043 0.027,-0.06c0.013,-0.017 0.029,-0.031 0.049,-0.04c0.019,-0.01 0.042,-0.015 0.069,-0.015c0.02,0 0.037,0.003 0.051,0.01c0.014,0.007 0.025,0.016 0.033,0.028c0.009,0.011 0.015,0.025 0.019,0.04c0.003,0.016 0.005,0.033 0.005,0.05l0,0.35l0.063,0l0,-0.292c0,-0.024 0.002,-0.047 0.007,-0.07c0.004,-0.022 0.011,-0.042 0.022,-0.059c0.011,-0.017 0.025,-0.031 0.043,-0.042c0.018,-0.01 0.041,-0.015 0.068,-0.015c0.045,0 0.077,0.011 0.095,0.033c0.018,0.023 0.027,0.055 0.027,0.098l0,0.347l0.063,0l0,-0.35c0,-0.121 -0.057,-0.181 -0.171,-0.181c-0.034,0 -0.066,0.008 -0.096,0.025c-0.03,0.017 -0.053,0.042 -0.068,0.076c-0.009,-0.034 -0.028,-0.059 -0.056,-0.076c-0.027,-0.017 -0.058,-0.025 -0.092,-0.025c-0.042,0 -0.077,0.009 -0.104,0.027c-0.027,0.018 -0.048,0.043 -0.065,0.075l-0.003,0l0,-0.087l-0.058,0Z" style="fill:#231f20;fill-rule:nonzero;"/></g><g transform="matrix(200,0,0,200,1345.24,1215.47)"><path d="M0.278,-0.478c0.03,0 0.056,0.006 0.079,0.019c0.023,0.013 0.041,0.029 0.056,0.05c0.016,0.021 0.027,0.044 0.034,0.071c0.008,0.026 0.012,0.053 0.012,0.08c0,0.027 -0.004,0.054 -0.012,0.081c-0.007,0.026 -0.019,0.049 -0.034,0.07c-0.015,0.021 -0.033,0.037 -0.056,0.05c-0.023,0.013 -0.049,0.019 -0.079,0.019c-0.03,0 -0.056,-0.006 -0.079,-0.019c-0.023,-0.013 -0.042,-0.029 -0.056,-0.05c-0.016,-0.021 -0.027,-0.044 -0.035,-0.071c-0.007,-0.026 -0.011,-0.053 -0.011,-0.08c0,-0.027 0.004,-0.054 0.011,-0.081c0.008,-0.026 0.019,-0.049 0.035,-0.07c0.014,-0.021 0.033,-0.037 0.056,-0.05c0.023,-0.013 0.049,-0.019 0.079,-0.019Zm0,-0.053c-0.039,0 -0.074,0.007 -0.105,0.022c-0.03,0.015 -0.055,0.034 -0.076,0.059c-0.021,0.025 -0.036,0.053 -0.047,0.087c-0.011,0.032 -0.016,0.068 -0.016,0.105c0,0.037 0.005,0.073 0.016,0.106c0.011,0.033 0.026,0.061 0.047,0.086c0.021,0.025 0.046,0.044 0.076,0.059c0.031,0.014 0.066,0.021 0.105,0.021c0.039,0 0.074,-0.007 0.104,-0.021c0.031,-0.015 0.056,-0.034 0.077,-0.059c0.021,-0.025 0.036,-0.053 0.047,-0.086c0.011,-0.033 0.016,-0.069 0.016,-0.106c0,-0.037 -0.005,-0.073 -0.016,-0.105c-0.011,-0.034 -0.026,-0.062 -0.047,-0.087c-0.021,-0.025 -0.046,-0.044 -0.077,-0.059c-0.03,-0.015 -0.065,-0.022 -0.104,-0.022Z" style="fill:#231f20;fill-rule:nonzero;"/></g><g transform="matrix(200,0,0,200,1456.44,1215.47)"><path d="M0.06,-0.516l0,0.516l0.063,0l0,-0.275c0,-0.027 0.005,-0.052 0.014,-0.076c0.009,-0.022 0.022,-0.042 0.039,-0.059c0.017,-0.017 0.038,-0.029 0.061,-0.038c0.023,-0.01 0.049,-0.013 0.078,-0.012l0,-0.063c-0.047,-0.002 -0.087,0.008 -0.121,0.031c-0.033,0.023 -0.058,0.055 -0.074,0.097l-0.002,0l0,-0.121l-0.058,0Z" style="fill:#231f20;fill-rule:nonzero;"/></g><g transform="matrix(200,0,0,200,400.536,1421.27)"><path d="M0.104,-0.235l-0.068,0c-0.002,0.044 0.004,0.082 0.017,0.113c0.014,0.031 0.034,0.057 0.059,0.077c0.025,0.02 0.056,0.035 0.092,0.045c0.036,0.009 0.075,0.014 0.117,0.014c0.042,0 0.078,-0.004 0.108,-0.011c0.03,-0.008 0.055,-0.018 0.076,-0.03c0.02,-0.013 0.036,-0.027 0.047,-0.042c0.012,-0.015 0.021,-0.03 0.027,-0.046c0.007,-0.014 0.011,-0.029 0.012,-0.042c0.002,-0.013 0.003,-0.024 0.003,-0.032c0,-0.029 -0.005,-0.054 -0.015,-0.075c-0.009,-0.021 -0.022,-0.038 -0.04,-0.052c-0.017,-0.015 -0.036,-0.027 -0.059,-0.036c-0.022,-0.01 -0.046,-0.018 -0.071,-0.025l-0.174,-0.043c-0.015,-0.003 -0.029,-0.008 -0.042,-0.013c-0.012,-0.005 -0.024,-0.012 -0.034,-0.021c-0.01,-0.009 -0.018,-0.019 -0.023,-0.031c-0.006,-0.013 -0.009,-0.027 -0.009,-0.044c0,-0.027 0.005,-0.049 0.015,-0.067c0.01,-0.018 0.023,-0.032 0.039,-0.043c0.017,-0.011 0.036,-0.019 0.057,-0.024c0.022,-0.005 0.045,-0.008 0.068,-0.008c0.025,0 0.049,0.004 0.072,0.011c0.023,0.007 0.044,0.017 0.061,0.031c0.018,0.013 0.032,0.03 0.043,0.051c0.011,0.02 0.018,0.044 0.019,0.071l0.068,0c0,-0.037 -0.007,-0.069 -0.021,-0.096c-0.015,-0.028 -0.034,-0.051 -0.058,-0.07c-0.024,-0.019 -0.052,-0.033 -0.084,-0.042c-0.032,-0.009 -0.066,-0.014 -0.101,-0.014c-0.05,0 -0.091,0.007 -0.123,0.022c-0.032,0.014 -0.057,0.031 -0.075,0.052c-0.019,0.021 -0.031,0.043 -0.038,0.066c-0.007,0.023 -0.01,0.044 -0.01,0.061c0,0.028 0.005,0.052 0.014,0.071c0.009,0.019 0.02,0.036 0.035,0.049c0.015,0.013 0.032,0.024 0.052,0.032c0.019,0.008 0.039,0.015 0.06,0.02l0.159,0.039c0.017,0.004 0.034,0.009 0.051,0.016c0.017,0.006 0.033,0.014 0.048,0.024c0.014,0.01 0.025,0.022 0.034,0.037c0.009,0.015 0.014,0.032 0.014,0.052c0,0.026 -0.006,0.048 -0.019,0.066c-0.013,0.019 -0.029,0.034 -0.047,0.045c-0.02,0.012 -0.04,0.021 -0.062,0.026c-0.022,0.005 -0.042,0.008 -0.061,0.008c-0.033,0 -0.063,-0.003 -0.092,-0.01c-0.029,-0.006 -0.054,-0.016 -0.075,-0.031c-0.021,-0.015 -0.037,-0.034 -0.049,-0.059c-0.012,-0.025 -0.018,-0.055 -0.017,-0.092Z" style="fill:#231f20;fill-rule:nonzero;"/></g><g transform="matrix(200,0,0,200,526.536,1421.27)"><path d="M0.431,-0.294l-0.334,0c0.003,-0.023 0.008,-0.046 0.017,-0.069c0.008,-0.022 0.019,-0.042 0.033,-0.058c0.014,-0.018 0.031,-0.031 0.051,-0.042c0.02,-0.01 0.043,-0.015 0.069,-0.015c0.025,0 0.048,0.005 0.068,0.015c0.02,0.011 0.037,0.024 0.051,0.041c0.014,0.017 0.025,0.037 0.033,0.059c0.007,0.022 0.011,0.045 0.012,0.069Zm-0.334,0.053l0.397,0c0.001,-0.036 -0.002,-0.072 -0.01,-0.107c-0.008,-0.035 -0.021,-0.066 -0.039,-0.093c-0.019,-0.027 -0.043,-0.048 -0.072,-0.065c-0.029,-0.017 -0.065,-0.025 -0.106,-0.025c-0.041,0 -0.076,0.008 -0.105,0.023c-0.03,0.016 -0.054,0.037 -0.073,0.063c-0.019,0.025 -0.032,0.054 -0.041,0.087c-0.009,0.033 -0.014,0.066 -0.014,0.1c0,0.037 0.005,0.072 0.014,0.105c0.009,0.033 0.022,0.062 0.041,0.087c0.019,0.025 0.043,0.044 0.073,0.059c0.029,0.014 0.064,0.021 0.105,0.021c0.065,0 0.116,-0.016 0.152,-0.048c0.035,-0.032 0.06,-0.077 0.073,-0.136l-0.063,0c-0.01,0.04 -0.028,0.072 -0.054,0.096c-0.026,0.024 -0.062,0.036 -0.108,0.036c-0.03,0 -0.056,-0.006 -0.077,-0.019c-0.021,-0.013 -0.039,-0.029 -0.053,-0.048c-0.014,-0.019 -0.024,-0.041 -0.03,-0.065c-0.007,-0.025 -0.01,-0.048 -0.01,-0.071Z" style="fill:#231f20;fill-rule:nonzero;"/></g><g transform="matrix(200,0,0,200,630.336,1421.27)"><path d="M0.496,-0.042l0,-0.474l-0.063,0l0,0.089l-0.002,0c-0.006,-0.014 -0.014,-0.027 -0.025,-0.04c-0.011,-0.013 -0.024,-0.024 -0.038,-0.034c-0.014,-0.009 -0.029,-0.017 -0.046,-0.022c-0.018,-0.005 -0.036,-0.008 -0.055,-0.008c-0.037,0 -0.071,0.007 -0.1,0.02c-0.029,0.014 -0.053,0.033 -0.073,0.056c-0.019,0.024 -0.034,0.052 -0.045,0.084c-0.01,0.031 -0.015,0.065 -0.015,0.1c0,0.037 0.004,0.071 0.013,0.104c0.009,0.032 0.022,0.06 0.041,0.084c0.019,0.024 0.044,0.043 0.073,0.057c0.029,0.013 0.065,0.02 0.106,0.02c0.038,0 0.071,-0.01 0.099,-0.029c0.029,-0.019 0.05,-0.045 0.065,-0.077l0.002,0l0,0.07c0,0.063 -0.013,0.111 -0.039,0.144c-0.026,0.033 -0.068,0.05 -0.127,0.05c-0.017,0 -0.034,-0.002 -0.051,-0.006c-0.017,-0.003 -0.032,-0.009 -0.046,-0.017c-0.013,-0.008 -0.025,-0.019 -0.035,-0.032c-0.009,-0.012 -0.016,-0.029 -0.019,-0.048l-0.063,0c0.002,0.027 0.009,0.051 0.022,0.071c0.013,0.019 0.03,0.035 0.049,0.048c0.02,0.013 0.042,0.022 0.067,0.028c0.025,0.006 0.05,0.009 0.076,0.009c0.042,0 0.077,-0.006 0.106,-0.017c0.029,-0.011 0.053,-0.028 0.071,-0.049c0.018,-0.021 0.031,-0.047 0.039,-0.078c0.009,-0.031 0.013,-0.065 0.013,-0.103Zm-0.229,-0.017c-0.029,0 -0.055,-0.006 -0.076,-0.018c-0.021,-0.011 -0.039,-0.026 -0.053,-0.046c-0.014,-0.018 -0.024,-0.04 -0.031,-0.065c-0.007,-0.025 -0.01,-0.05 -0.01,-0.076c0,-0.027 0.003,-0.053 0.009,-0.079c0.007,-0.025 0.017,-0.048 0.031,-0.068c0.014,-0.02 0.032,-0.036 0.053,-0.048c0.021,-0.013 0.047,-0.019 0.077,-0.019c0.03,0 0.055,0.006 0.077,0.019c0.021,0.013 0.038,0.029 0.051,0.05c0.013,0.021 0.023,0.044 0.029,0.069c0.006,0.025 0.009,0.051 0.009,0.076c0,0.026 -0.004,0.051 -0.011,0.076c-0.007,0.025 -0.017,0.047 -0.031,0.066c-0.014,0.019 -0.031,0.034 -0.052,0.046c-0.021,0.011 -0.045,0.017 -0.072,0.017Z" style="fill:#231f20;fill-rule:nonzero;"/></g><g transform="matrix(200,0,0,200,741.536,1421.27)"><path d="M0.06,-0.516l0,0.516l0.063,0l0,-0.288c0,-0.027 0.003,-0.052 0.009,-0.075c0.006,-0.023 0.015,-0.043 0.027,-0.06c0.013,-0.017 0.029,-0.031 0.049,-0.04c0.019,-0.01 0.042,-0.015 0.069,-0.015c0.02,0 0.037,0.003 0.051,0.01c0.014,0.007 0.025,0.016 0.033,0.028c0.009,0.011 0.015,0.025 0.019,0.04c0.003,0.016 0.005,0.033 0.005,0.05l0,0.35l0.063,0l0,-0.292c0,-0.024 0.002,-0.047 0.007,-0.07c0.004,-0.022 0.011,-0.042 0.022,-0.059c0.011,-0.017 0.025,-0.031 0.043,-0.042c0.018,-0.01 0.041,-0.015 0.068,-0.015c0.045,0 0.077,0.011 0.095,0.033c0.018,0.023 0.027,0.055 0.027,0.098l0,0.347l0.063,0l0,-0.35c0,-0.121 -0.057,-0.181 -0.171,-0.181c-0.034,0 -0.066,0.008 -0.096,0.025c-0.03,0.017 -0.053,0.042 -0.068,0.076c-0.009,-0.034 -0.028,-0.059 -0.056,-0.076c-0.027,-0.017 -0.058,-0.025 -0.092,-0.025c-0.042,0 -0.077,0.009 -0.104,0.027c-0.027,0.018 -0.048,0.043 -0.065,0.075l-0.003,0l0,-0.087l-0.058,0Z" style="fill:#231f20;fill-rule:nonzero;"/></g><g transform="matrix(200,0,0,200,908.136,1421.27)"><path d="M0.431,-0.294l-0.334,0c0.003,-0.023 0.008,-0.046 0.017,-0.069c0.008,-0.022 0.019,-0.042 0.033,-0.058c0.014,-0.018 0.031,-0.031 0.051,-0.042c0.02,-0.01 0.043,-0.015 0.069,-0.015c0.025,0 0.048,0.005 0.068,0.015c0.02,0.011 0.037,0.024 0.051,0.041c0.014,0.017 0.025,0.037 0.033,0.059c0.007,0.022 0.011,0.045 0.012,0.069Zm-0.334,0.053l0.397,0c0.001,-0.036 -0.002,-0.072 -0.01,-0.107c-0.008,-0.035 -0.021,-0.066 -0.039,-0.093c-0.019,-0.027 -0.043,-0.048 -0.072,-0.065c-0.029,-0.017 -0.065,-0.025 -0.106,-0.025c-0.041,0 -0.076,0.008 -0.105,0.023c-0.03,0.016 -0.054,0.037 -0.073,0.063c-0.019,0.025 -0.032,0.054 -0.041,0.087c-0.009,0.033 -0.014,0.066 -0.014,0.1c0,0.037 0.005,0.072 0.014,0.105c0.009,0.033 0.022,0.062 0.041,0.087c0.019,0.025 0.043,0.044 0.073,0.059c0.029,0.014 0.064,0.021 0.105,0.021c0.065,0 0.116,-0.016 0.152,-0.048c0.035,-0.032 0.06,-0.077 0.073,-0.136l-0.063,0c-0.01,0.04 -0.028,0.072 -0.054,0.096c-0.026,0.024 -0.062,0.036 -0.108,0.036c-0.03,0 -0.056,-0.006 -0.077,-0.019c-0.021,-0.013 -0.039,-0.029 -0.053,-0.048c-0.014,-0.019 -0.024,-0.041 -0.03,-0.065c-0.007,-0.025 -0.01,-0.048 -0.01,-0.071Z" style="fill:#231f20;fill-rule:nonzero;"/></g><g transform="matrix(200,0,0,200,1011.94,1421.27)"><path d="M0.059,-0.516l0,0.516l0.063,0l0,-0.301c0.001,-0.025 0.005,-0.049 0.013,-0.071c0.007,-0.021 0.018,-0.04 0.032,-0.055c0.013,-0.016 0.03,-0.029 0.049,-0.038c0.02,-0.009 0.043,-0.013 0.068,-0.013c0.025,0 0.046,0.004 0.064,0.012c0.017,0.008 0.03,0.019 0.04,0.033c0.01,0.014 0.017,0.03 0.021,0.049c0.004,0.019 0.006,0.04 0.006,0.062l0,0.322l0.063,0l0,-0.332c0,-0.031 -0.003,-0.058 -0.009,-0.083c-0.006,-0.025 -0.016,-0.045 -0.031,-0.063c-0.015,-0.017 -0.034,-0.03 -0.059,-0.039c-0.024,-0.009 -0.054,-0.014 -0.09,-0.014c-0.037,0 -0.07,0.009 -0.101,0.028c-0.031,0.019 -0.052,0.045 -0.064,0.076l-0.002,0l0,-0.089l-0.063,0Z" style="fill:#231f20;fill-rule:nonzero;"/></g><g transform="matrix(200,0,0,200,1119.34,1421.27)"><path d="M0.16,-0.516l0,-0.155l-0.063,0l0,0.155l-0.09,0l0,0.053l0.09,0l0,0.353c-0.001,0.044 0.007,0.074 0.024,0.091c0.017,0.016 0.046,0.024 0.088,0.024c0.009,0 0.019,0 0.028,-0.001c0.009,-0.001 0.019,-0.001 0.028,-0.001l0,-0.053c-0.018,0.002 -0.036,0.003 -0.054,0.003c-0.023,-0.001 -0.037,-0.008 -0.043,-0.019c-0.005,-0.012 -0.008,-0.028 -0.008,-0.049l0,-0.348l0.105,0l0,-0.053l-0.105,0Z" style="fill:#231f20;fill-rule:nonzero;"/></g><g transform="matrix(200,0,0,200,1178.54,1421.27)"><path d="M0.054,-0.358l0.063,0c0.001,-0.042 0.015,-0.073 0.04,-0.092c0.025,-0.019 0.058,-0.028 0.098,-0.028c0.019,0 0.036,0.002 0.052,0.004c0.017,0.003 0.031,0.009 0.044,0.017c0.012,0.008 0.022,0.019 0.029,0.032c0.007,0.014 0.01,0.032 0.01,0.053c0,0.014 -0.002,0.025 -0.006,0.034c-0.003,0.009 -0.008,0.015 -0.015,0.02c-0.007,0.005 -0.015,0.009 -0.025,0.011c-0.01,0.002 -0.022,0.004 -0.035,0.005c-0.034,0.004 -0.067,0.008 -0.1,0.012c-0.033,0.005 -0.063,0.012 -0.089,0.023c-0.027,0.011 -0.048,0.026 -0.064,0.046c-0.016,0.021 -0.024,0.049 -0.024,0.085c0,0.026 0.005,0.048 0.014,0.067c0.009,0.019 0.021,0.035 0.037,0.047c0.015,0.013 0.034,0.022 0.055,0.027c0.021,0.006 0.043,0.009 0.067,0.009c0.025,0 0.047,-0.002 0.066,-0.007c0.018,-0.005 0.034,-0.011 0.049,-0.02c0.014,-0.009 0.027,-0.02 0.039,-0.033c0.011,-0.013 0.023,-0.027 0.034,-0.044l0.002,0c0,0.013 0.001,0.025 0.003,0.036c0.001,0.011 0.005,0.021 0.01,0.029c0.005,0.008 0.013,0.014 0.023,0.018c0.009,0.005 0.022,0.007 0.038,0.007c0.009,0 0.016,0 0.022,-0.001c0.005,-0.001 0.012,-0.002 0.019,-0.003l0,-0.053c-0.006,0.003 -0.013,0.004 -0.02,0.004c-0.025,0 -0.037,-0.013 -0.037,-0.038l0,-0.274c0,-0.035 -0.006,-0.063 -0.017,-0.085c-0.011,-0.021 -0.026,-0.038 -0.044,-0.05c-0.018,-0.012 -0.038,-0.02 -0.061,-0.025c-0.023,-0.004 -0.045,-0.006 -0.068,-0.006c-0.03,0 -0.057,0.003 -0.082,0.01c-0.025,0.007 -0.046,0.017 -0.064,0.031c-0.019,0.014 -0.033,0.032 -0.044,0.054c-0.011,0.022 -0.017,0.048 -0.019,0.078Zm0.336,0.076l0,0.082c0,0.025 -0.005,0.048 -0.014,0.068c-0.01,0.02 -0.023,0.037 -0.039,0.051c-0.017,0.014 -0.036,0.025 -0.058,0.032c-0.022,0.007 -0.045,0.011 -0.069,0.011c-0.015,0 -0.029,-0.002 -0.043,-0.007c-0.014,-0.005 -0.026,-0.012 -0.037,-0.021c-0.011,-0.009 -0.019,-0.019 -0.025,-0.032c-0.007,-0.012 -0.01,-0.026 -0.01,-0.042c0,-0.025 0.008,-0.045 0.023,-0.059c0.015,-0.013 0.034,-0.024 0.057,-0.031c0.023,-0.007 0.049,-0.013 0.078,-0.017c0.028,-0.003 0.055,-0.007 0.082,-0.012c0.009,-0.001 0.019,-0.004 0.03,-0.007c0.011,-0.003 0.019,-0.009 0.023,-0.016l0.002,0Z" style="fill:#231f20;fill-rule:nonzero;"/></g><g transform="matrix(200,0,0,200,1282.34,1421.27)"><path d="M0.16,-0.516l0,-0.155l-0.063,0l0,0.155l-0.09,0l0,0.053l0.09,0l0,0.353c-0.001,0.044 0.007,0.074 0.024,0.091c0.017,0.016 0.046,0.024 0.088,0.024c0.009,0 0.019,0 0.028,-0.001c0.009,-0.001 0.019,-0.001 0.028,-0.001l0,-0.053c-0.018,0.002 -0.036,0.003 -0.054,0.003c-0.023,-0.001 -0.037,-0.008 -0.043,-0.019c-0.005,-0.012 -0.008,-0.028 -0.008,-0.049l0,-0.348l0.105,0l0,-0.053l-0.105,0Z" style="fill:#231f20;fill-rule:nonzero;"/></g><g transform="matrix(200,0,0,200,1341.54,1421.27)"><path d="M0.061,-0.714l0,0.101l0.063,0l0,-0.101l-0.063,0Zm0,0.198l0,0.516l0.063,0l0,-0.516l-0.063,0Z" style="fill:#231f20;fill-rule:nonzero;"/></g><g transform="matrix(200,0,0,200,1378.54,1421.27)"><path d="M0.278,-0.478c0.03,0 0.056,0.006 0.079,0.019c0.023,0.013 0.041,0.029 0.056,0.05c0.016,0.021 0.027,0.044 0.034,0.071c0.008,0.026 0.012,0.053 0.012,0.08c0,0.027 -0.004,0.054 -0.012,0.081c-0.007,0.026 -0.019,0.049 -0.034,0.07c-0.015,0.021 -0.033,0.037 -0.056,0.05c-0.023,0.013 -0.049,0.019 -0.079,0.019c-0.03,0 -0.056,-0.006 -0.079,-0.019c-0.023,-0.013 -0.042,-0.029 -0.056,-0.05c-0.016,-0.021 -0.027,-0.044 -0.035,-0.071c-0.007,-0.026 -0.011,-0.053 -0.011,-0.08c0,-0.027 0.004,-0.054 0.011,-0.081c0.008,-0.026 0.019,-0.049 0.035,-0.07c0.014,-0.021 0.033,-0.037 0.056,-0.05c0.023,-0.013 0.049,-0.019 0.079,-0.019Zm0,-0.053c-0.039,0 -0.074,0.007 -0.105,0.022c-0.03,0.015 -0.055,0.034 -0.076,0.059c-0.021,0.025 -0.036,0.053 -0.047,0.087c-0.011,0.032 -0.016,0.068 -0.016,0.105c0,0.037 0.005,0.073 0.016,0.106c0.011,0.033 0.026,0.061 0.047,0.086c0.021,0.025 0.046,0.044 0.076,0.059c0.031,0.014 0.066,0.021 0.105,0.021c0.039,0 0.074,-0.007 0.104,-0.021c0.031,-0.015 0.056,-0.034 0.077,-0.059c0.021,-0.025 0.036,-0.053 0.047,-0.086c0.011,-0.033 0.016,-0.069 0.016,-0.106c0,-0.037 -0.005,-0.073 -0.016,-0.105c-0.011,-0.034 -0.026,-0.062 -0.047,-0.087c-0.021,-0.025 -0.046,-0.044 -0.077,-0.059c-0.03,-0.015 -0.065,-0.022 -0.104,-0.022Z" style="fill:#231f20;fill-rule:nonzero;"/></g><g transform="matrix(200,0,0,200,1489.74,1421.27)"><path d="M0.059,-0.516l0,0.516l0.063,0l0,-0.301c0.001,-0.025 0.005,-0.049 0.013,-0.071c0.007,-0.021 0.018,-0.04 0.032,-0.055c0.013,-0.016 0.03,-0.029 0.049,-0.038c0.02,-0.009 0.043,-0.013 0.068,-0.013c0.025,0 0.046,0.004 0.064,0.012c0.017,0.008 0.03,0.019 0.04,0.033c0.01,0.014 0.017,0.03 0.021,0.049c0.004,0.019 0.006,0.04 0.006,0.062l0,0.322l0.063,0l0,-0.332c0,-0.031 -0.003,-0.058 -0.009,-0.083c-0.006,-0.025 -0.016,-0.045 -0.031,-0.063c-0.015,-0.017 -0.034,-0.03 -0.059,-0.039c-0.024,-0.009 -0.054,-0.014 -0.09,-0.014c-0.037,0 -0.07,0.009 -0.101,0.028c-0.031,0.019 -0.052,0.045 -0.064,0.076l-0.002,0l0,-0.089l-0.063,0Z" style="fill:#231f20;fill-rule:nonzero;"/></g></g><path d="M2237.03,168.766c0,-28.745 -23.337,-52.082 -52.082,-52.082l-383.829,0c-28.745,0 -52.081,23.337 -52.081,52.082l0,104.162c0,28.744 23.336,52.081 52.081,52.081l383.829,0c28.745,0 52.082,-23.337 52.082,-52.081l0,-104.162Z" style="fill:none;stroke:#000;stroke-width:7px;"/></g></svg>