<?xml version="1.0" encoding="UTF-8" standalone="no"?>
<!DOCTYPE svg PUBLIC "-//W3C//DTD SVG 1.1//EN" "http://www.w3.org/Graphics/SVG/1.1/DTD/svg11.dtd">
<svg width="100%" height="100%" viewBox="0 0 1194 399" version="1.1" xmlns="http://www.w3.org/2000/svg" xmlns:xlink="http://www.w3.org/1999/xlink" xml:space="preserve" xmlns:serif="http://www.serif.com/" style="fill-rule:evenodd;clip-rule:evenodd;stroke-linejoin:round;stroke-miterlimit:2;">
    <g transform="matrix(0.24,0,0,0.24,-335.519,-34.9139)">
        <g transform="matrix(1,0,0,1,1177.32,0)">
            <g transform="matrix(1,0,0,1,148.132,-14.4279)">
                <rect x="72.545" y="159.902" width="1062.38" height="1659.05" style="fill:rgb(2,238,195);"/>
            </g>
            <g transform="matrix(1,0,0,1,116.67,243.002)">
                <g transform="matrix(150,0,0,150,161.753,423.967)">
                    <path d="M0.059,-0.705L0.059,0L0.328,0C0.539,0 0.664,-0.131 0.664,-0.355C0.664,-0.579 0.539,-0.705 0.328,-0.705L0.059,-0.705ZM0.206,-0.583L0.31,-0.583C0.44,-0.583 0.513,-0.502 0.513,-0.354C0.513,-0.202 0.442,-0.122 0.31,-0.122L0.206,-0.122L0.206,-0.583Z" style="fill:rgb(35,31,32);fill-rule:nonzero;"/>
                </g>
                <g transform="matrix(150,0,0,150,266.709,423.967)">
                    <path d="M0.281,-0.429C0.345,-0.429 0.388,-0.383 0.391,-0.316L0.169,-0.316C0.174,-0.382 0.219,-0.429 0.281,-0.429ZM0.393,-0.16C0.38,-0.12 0.34,-0.094 0.288,-0.094C0.215,-0.094 0.167,-0.146 0.167,-0.22L0.167,-0.229L0.528,-0.229L0.528,-0.272C0.528,-0.432 0.432,-0.535 0.28,-0.535C0.125,-0.535 0.027,-0.426 0.027,-0.259C0.027,-0.092 0.124,0.011 0.285,0.011C0.415,0.011 0.508,-0.058 0.524,-0.16L0.393,-0.16Z" style="fill:rgb(35,31,32);fill-rule:nonzero;"/>
                </g>
                <g transform="matrix(150,0,0,150,349.985,423.967)">
                    <path d="M0.281,-0.429C0.345,-0.429 0.388,-0.383 0.391,-0.316L0.169,-0.316C0.174,-0.382 0.219,-0.429 0.281,-0.429ZM0.393,-0.16C0.38,-0.12 0.34,-0.094 0.288,-0.094C0.215,-0.094 0.167,-0.146 0.167,-0.22L0.167,-0.229L0.528,-0.229L0.528,-0.272C0.528,-0.432 0.432,-0.535 0.28,-0.535C0.125,-0.535 0.027,-0.426 0.027,-0.259C0.027,-0.092 0.124,0.011 0.285,0.011C0.415,0.011 0.508,-0.058 0.524,-0.16L0.393,-0.16Z" style="fill:rgb(35,31,32);fill-rule:nonzero;"/>
                </g>
                <g transform="matrix(150,0,0,150,433.262,423.967)">
                    <path d="M0.352,-0.532C0.276,-0.532 0.218,-0.494 0.19,-0.432L0.187,-0.432L0.187,-0.523L0.046,-0.523L0.046,0.171L0.189,0.171L0.189,-0.088L0.192,-0.088C0.22,-0.029 0.278,0.008 0.354,0.008C0.485,0.008 0.566,-0.093 0.566,-0.262C0.566,-0.431 0.485,-0.532 0.352,-0.532ZM0.304,-0.106C0.234,-0.106 0.188,-0.167 0.188,-0.262C0.188,-0.355 0.234,-0.417 0.304,-0.417C0.375,-0.417 0.42,-0.356 0.42,-0.262C0.42,-0.167 0.375,-0.106 0.304,-0.106Z" style="fill:rgb(35,31,32);fill-rule:nonzero;"/>
                </g>
                <g transform="matrix(150,0,0,150,161.753,573.967)">
                    <path d="M0.206,0L0.206,-0.277L0.493,-0.277L0.493,-0.394L0.206,-0.394L0.206,-0.583L0.52,-0.583L0.52,-0.705L0.059,-0.705L0.059,0L0.206,0Z" style="fill:rgb(35,31,32);fill-rule:nonzero;"/>
                </g>
                <g transform="matrix(150,0,0,150,241.807,573.967)">
                    <path d="M0.281,-0.429C0.345,-0.429 0.388,-0.383 0.391,-0.316L0.169,-0.316C0.174,-0.382 0.219,-0.429 0.281,-0.429ZM0.393,-0.16C0.38,-0.12 0.34,-0.094 0.288,-0.094C0.215,-0.094 0.167,-0.146 0.167,-0.22L0.167,-0.229L0.528,-0.229L0.528,-0.272C0.528,-0.432 0.432,-0.535 0.28,-0.535C0.125,-0.535 0.027,-0.426 0.027,-0.259C0.027,-0.092 0.124,0.011 0.285,0.011C0.415,0.011 0.508,-0.058 0.524,-0.16L0.393,-0.16Z" style="fill:rgb(35,31,32);fill-rule:nonzero;"/>
                </g>
                <g transform="matrix(150,0,0,150,325.083,573.967)">
                    <path d="M0.249,-0.095C0.2,-0.095 0.168,-0.119 0.168,-0.158C0.168,-0.195 0.198,-0.219 0.251,-0.223L0.362,-0.23L0.362,-0.192C0.362,-0.135 0.311,-0.095 0.249,-0.095ZM0.202,0.008C0.267,0.008 0.332,-0.024 0.361,-0.08L0.364,-0.08L0.364,0L0.502,0L0.502,-0.36C0.502,-0.465 0.415,-0.535 0.28,-0.535C0.142,-0.535 0.055,-0.465 0.05,-0.363L0.18,-0.363C0.187,-0.402 0.221,-0.428 0.274,-0.428C0.328,-0.428 0.362,-0.4 0.362,-0.351L0.362,-0.316L0.23,-0.309C0.1,-0.301 0.026,-0.246 0.026,-0.15C0.026,-0.056 0.102,0.008 0.202,0.008Z" style="fill:rgb(35,31,32);fill-rule:nonzero;"/>
                </g>
                <g transform="matrix(150,0,0,150,407.187,573.967)">
                    <path d="M0.084,-0.644L0.084,-0.523L0.011,-0.523L0.011,-0.416L0.084,-0.416L0.084,-0.141C0.084,-0.039 0.132,0.002 0.255,0.002C0.284,0.002 0.309,0 0.323,-0.004L0.323,-0.109C0.314,-0.107 0.301,-0.106 0.289,-0.106C0.247,-0.106 0.227,-0.125 0.227,-0.166L0.227,-0.416L0.324,-0.416L0.324,-0.523L0.227,-0.523L0.227,-0.644L0.084,-0.644Z" style="fill:rgb(35,31,32);fill-rule:nonzero;"/>
                </g>
                <g transform="matrix(150,0,0,150,460.508,573.967)">
                    <path d="M0.53,-0.523L0.387,-0.523L0.387,-0.224C0.387,-0.154 0.348,-0.109 0.284,-0.109C0.221,-0.109 0.187,-0.146 0.187,-0.216L0.187,-0.523L0.044,-0.523L0.044,-0.186C0.044,-0.064 0.119,0.01 0.232,0.01C0.312,0.01 0.363,-0.028 0.389,-0.094L0.392,-0.094L0.392,0L0.53,0L0.53,-0.523Z" style="fill:rgb(35,31,32);fill-rule:nonzero;"/>
                </g>
                <g transform="matrix(150,0,0,150,546.933,573.967)">
                    <path d="M0.046,0L0.189,0L0.189,-0.292C0.189,-0.366 0.23,-0.409 0.3,-0.409C0.321,-0.409 0.34,-0.406 0.352,-0.401L0.352,-0.526C0.342,-0.529 0.328,-0.532 0.312,-0.532C0.25,-0.532 0.206,-0.496 0.187,-0.429L0.184,-0.429L0.184,-0.523L0.046,-0.523L0.046,0Z" style="fill:rgb(35,31,32);fill-rule:nonzero;"/>
                </g>
                <g transform="matrix(150,0,0,150,598.935,573.967)">
                    <path d="M0.281,-0.429C0.345,-0.429 0.388,-0.383 0.391,-0.316L0.169,-0.316C0.174,-0.382 0.219,-0.429 0.281,-0.429ZM0.393,-0.16C0.38,-0.12 0.34,-0.094 0.288,-0.094C0.215,-0.094 0.167,-0.146 0.167,-0.22L0.167,-0.229L0.528,-0.229L0.528,-0.272C0.528,-0.432 0.432,-0.535 0.28,-0.535C0.125,-0.535 0.027,-0.426 0.027,-0.259C0.027,-0.092 0.124,0.011 0.285,0.011C0.415,0.011 0.508,-0.058 0.524,-0.16L0.393,-0.16Z" style="fill:rgb(35,31,32);fill-rule:nonzero;"/>
                </g>
                <g transform="matrix(150,0,0,150,711.875,573.967)">
                    <path d="M0.805,0L0.805,-0.705L0.634,-0.705L0.434,-0.205L0.43,-0.205L0.229,-0.705L0.059,-0.705L0.059,0L0.19,0L0.19,-0.476L0.194,-0.476L0.385,-0.007L0.478,-0.007L0.669,-0.476L0.673,-0.476L0.673,0L0.805,0Z" style="fill:rgb(35,31,32);fill-rule:nonzero;"/>
                </g>
                <g transform="matrix(150,0,0,150,839.683,573.967)">
                    <path d="M0.249,-0.095C0.2,-0.095 0.168,-0.119 0.168,-0.158C0.168,-0.195 0.198,-0.219 0.251,-0.223L0.362,-0.23L0.362,-0.192C0.362,-0.135 0.311,-0.095 0.249,-0.095ZM0.202,0.008C0.267,0.008 0.332,-0.024 0.361,-0.08L0.364,-0.08L0.364,0L0.502,0L0.502,-0.36C0.502,-0.465 0.415,-0.535 0.28,-0.535C0.142,-0.535 0.055,-0.465 0.05,-0.363L0.18,-0.363C0.187,-0.402 0.221,-0.428 0.274,-0.428C0.328,-0.428 0.362,-0.4 0.362,-0.351L0.362,-0.316L0.23,-0.309C0.1,-0.301 0.026,-0.246 0.026,-0.15C0.026,-0.056 0.102,0.008 0.202,0.008Z" style="fill:rgb(35,31,32);fill-rule:nonzero;"/>
                </g>
                <g transform="matrix(150,0,0,150,921.787,573.967)">
                    <path d="M0.352,-0.532C0.276,-0.532 0.218,-0.494 0.19,-0.432L0.187,-0.432L0.187,-0.523L0.046,-0.523L0.046,0.171L0.189,0.171L0.189,-0.088L0.192,-0.088C0.22,-0.029 0.278,0.008 0.354,0.008C0.485,0.008 0.566,-0.093 0.566,-0.262C0.566,-0.431 0.485,-0.532 0.352,-0.532ZM0.304,-0.106C0.234,-0.106 0.188,-0.167 0.188,-0.262C0.188,-0.355 0.234,-0.417 0.304,-0.417C0.375,-0.417 0.42,-0.356 0.42,-0.262C0.42,-0.167 0.375,-0.106 0.304,-0.106Z" style="fill:rgb(35,31,32);fill-rule:nonzero;"/>
                </g>
                <g transform="matrix(150,0,0,150,161.753,723.967)">
                    <path d="M0.688,-0.296L0.688,-0.375L0.392,-0.375L0.392,-0.268L0.545,-0.268L0.544,-0.257C0.542,-0.169 0.475,-0.11 0.378,-0.11C0.261,-0.11 0.187,-0.204 0.187,-0.356C0.187,-0.506 0.257,-0.595 0.373,-0.595C0.453,-0.595 0.513,-0.551 0.534,-0.477L0.682,-0.477C0.661,-0.62 0.537,-0.717 0.373,-0.717C0.166,-0.717 0.037,-0.58 0.037,-0.354C0.037,-0.125 0.166,0.012 0.376,0.012C0.572,0.012 0.688,-0.104 0.688,-0.296Z" style="fill:rgb(35,31,32);fill-rule:nonzero;"/>
                </g>
                <g transform="matrix(150,0,0,150,270.81,723.967)">
                    <path d="M0.281,-0.429C0.345,-0.429 0.388,-0.383 0.391,-0.316L0.169,-0.316C0.174,-0.382 0.219,-0.429 0.281,-0.429ZM0.393,-0.16C0.38,-0.12 0.34,-0.094 0.288,-0.094C0.215,-0.094 0.167,-0.146 0.167,-0.22L0.167,-0.229L0.528,-0.229L0.528,-0.272C0.528,-0.432 0.432,-0.535 0.28,-0.535C0.125,-0.535 0.027,-0.426 0.027,-0.259C0.027,-0.092 0.124,0.011 0.285,0.011C0.415,0.011 0.508,-0.058 0.524,-0.16L0.393,-0.16Z" style="fill:rgb(35,31,32);fill-rule:nonzero;"/>
                </g>
                <g transform="matrix(150,0,0,150,354.087,723.967)">
                    <path d="M0.046,0L0.189,0L0.189,-0.3C0.189,-0.368 0.229,-0.415 0.293,-0.415C0.357,-0.415 0.39,-0.376 0.39,-0.308L0.39,0L0.532,0L0.532,-0.337C0.532,-0.46 0.467,-0.533 0.351,-0.533C0.27,-0.533 0.215,-0.495 0.187,-0.43L0.184,-0.43L0.184,-0.523L0.046,-0.523L0.046,0Z" style="fill:rgb(35,31,32);fill-rule:nonzero;"/>
                </g>
                <g transform="matrix(150,0,0,150,440.513,723.967)">
                    <path d="M0.281,-0.429C0.345,-0.429 0.388,-0.383 0.391,-0.316L0.169,-0.316C0.174,-0.382 0.219,-0.429 0.281,-0.429ZM0.393,-0.16C0.38,-0.12 0.34,-0.094 0.288,-0.094C0.215,-0.094 0.167,-0.146 0.167,-0.22L0.167,-0.229L0.528,-0.229L0.528,-0.272C0.528,-0.432 0.432,-0.535 0.28,-0.535C0.125,-0.535 0.027,-0.426 0.027,-0.259C0.027,-0.092 0.124,0.011 0.285,0.011C0.415,0.011 0.508,-0.058 0.524,-0.16L0.393,-0.16Z" style="fill:rgb(35,31,32);fill-rule:nonzero;"/>
                </g>
                <g transform="matrix(150,0,0,150,523.789,723.967)">
                    <path d="M0.046,0L0.189,0L0.189,-0.292C0.189,-0.366 0.23,-0.409 0.3,-0.409C0.321,-0.409 0.34,-0.406 0.352,-0.401L0.352,-0.526C0.342,-0.529 0.328,-0.532 0.312,-0.532C0.25,-0.532 0.206,-0.496 0.187,-0.429L0.184,-0.429L0.184,-0.523L0.046,-0.523L0.046,0Z" style="fill:rgb(35,31,32);fill-rule:nonzero;"/>
                </g>
                <g transform="matrix(150,0,0,150,576.523,723.967)">
                    <path d="M0.249,-0.095C0.2,-0.095 0.168,-0.119 0.168,-0.158C0.168,-0.195 0.198,-0.219 0.251,-0.223L0.362,-0.23L0.362,-0.192C0.362,-0.135 0.311,-0.095 0.249,-0.095ZM0.202,0.008C0.267,0.008 0.332,-0.024 0.361,-0.08L0.364,-0.08L0.364,0L0.502,0L0.502,-0.36C0.502,-0.465 0.415,-0.535 0.28,-0.535C0.142,-0.535 0.055,-0.465 0.05,-0.363L0.18,-0.363C0.187,-0.402 0.221,-0.428 0.274,-0.428C0.328,-0.428 0.362,-0.4 0.362,-0.351L0.362,-0.316L0.23,-0.309C0.1,-0.301 0.026,-0.246 0.026,-0.15C0.026,-0.056 0.102,0.008 0.202,0.008Z" style="fill:rgb(35,31,32);fill-rule:nonzero;"/>
                </g>
                <g transform="matrix(150,0,0,150,658.628,723.967)">
                    <path d="M0.084,-0.644L0.084,-0.523L0.011,-0.523L0.011,-0.416L0.084,-0.416L0.084,-0.141C0.084,-0.039 0.132,0.002 0.255,0.002C0.284,0.002 0.309,0 0.323,-0.004L0.323,-0.109C0.314,-0.107 0.301,-0.106 0.289,-0.106C0.247,-0.106 0.227,-0.125 0.227,-0.166L0.227,-0.416L0.324,-0.416L0.324,-0.523L0.227,-0.523L0.227,-0.644L0.084,-0.644Z" style="fill:rgb(35,31,32);fill-rule:nonzero;"/>
                </g>
                <g transform="matrix(150,0,0,150,711.948,723.967)">
                    <path d="M0.049,0L0.191,0L0.191,-0.523L0.049,-0.523L0.049,0ZM0.12,-0.581C0.163,-0.581 0.196,-0.614 0.196,-0.655C0.196,-0.696 0.163,-0.729 0.12,-0.729C0.077,-0.729 0.044,-0.696 0.044,-0.655C0.044,-0.614 0.077,-0.581 0.12,-0.581Z" style="fill:rgb(35,31,32);fill-rule:nonzero;"/>
                </g>
                <g transform="matrix(150,0,0,150,747.91,723.967)">
                    <path d="M0.287,0.011C0.445,0.011 0.546,-0.09 0.546,-0.262C0.546,-0.432 0.443,-0.535 0.287,-0.535C0.13,-0.535 0.027,-0.432 0.027,-0.262C0.027,-0.09 0.128,0.011 0.287,0.011ZM0.287,-0.098C0.216,-0.098 0.172,-0.157 0.172,-0.262C0.172,-0.366 0.217,-0.426 0.287,-0.426C0.356,-0.426 0.401,-0.366 0.401,-0.262C0.401,-0.157 0.356,-0.098 0.287,-0.098Z" style="fill:rgb(35,31,32);fill-rule:nonzero;"/>
                </g>
                <g transform="matrix(150,0,0,150,833.823,723.967)">
                    <path d="M0.046,0L0.189,0L0.189,-0.3C0.189,-0.368 0.229,-0.415 0.293,-0.415C0.357,-0.415 0.39,-0.376 0.39,-0.308L0.39,0L0.532,0L0.532,-0.337C0.532,-0.46 0.467,-0.533 0.351,-0.533C0.27,-0.533 0.215,-0.495 0.187,-0.43L0.184,-0.43L0.184,-0.523L0.046,-0.523L0.046,0Z" style="fill:rgb(35,31,32);fill-rule:nonzero;"/>
                </g>
                <g transform="matrix(150,0,0,150,161.753,923.967)">
                    <path d="M0.156,-0.705L0.068,-0.705L0.068,-0.247C0.068,-0.097 0.173,0.012 0.348,0.012C0.523,0.012 0.628,-0.097 0.628,-0.247L0.628,-0.705L0.54,-0.705L0.54,-0.253C0.54,-0.146 0.47,-0.069 0.348,-0.069C0.226,-0.069 0.156,-0.146 0.156,-0.253L0.156,-0.705Z" style="fill:rgb(35,31,32);fill-rule:nonzero;"/>
                </g>
                <g transform="matrix(150,0,0,150,266.196,923.967)">
                    <path d="M0.046,-0.368C0.046,-0.298 0.09,-0.252 0.18,-0.229L0.269,-0.207C0.326,-0.191 0.347,-0.172 0.347,-0.136C0.347,-0.09 0.305,-0.061 0.236,-0.061C0.167,-0.061 0.127,-0.089 0.118,-0.142L0.033,-0.142C0.042,-0.052 0.119,0.009 0.23,0.009C0.349,0.009 0.433,-0.054 0.433,-0.142C0.433,-0.217 0.396,-0.254 0.293,-0.28L0.214,-0.299C0.157,-0.313 0.13,-0.337 0.13,-0.372C0.13,-0.417 0.171,-0.447 0.233,-0.447C0.295,-0.447 0.335,-0.417 0.341,-0.368L0.422,-0.368C0.418,-0.454 0.341,-0.517 0.236,-0.517C0.124,-0.517 0.046,-0.455 0.046,-0.368Z" style="fill:rgb(35,31,32);fill-rule:nonzero;"/>
                </g>
                <g transform="matrix(150,0,0,150,335.996,923.967)">
                    <path d="M0.06,0L0.145,0L0.145,-0.508L0.06,-0.508L0.06,0ZM0.102,-0.593C0.131,-0.593 0.155,-0.617 0.155,-0.646C0.155,-0.675 0.131,-0.699 0.102,-0.699C0.073,-0.699 0.049,-0.675 0.049,-0.646C0.049,-0.617 0.073,-0.593 0.102,-0.593Z" style="fill:rgb(35,31,32);fill-rule:nonzero;"/>
                </g>
                <g transform="matrix(150,0,0,150,366.611,923.967)">
                    <path d="M0.055,0L0.14,0L0.14,-0.299C0.14,-0.385 0.192,-0.441 0.272,-0.441C0.351,-0.441 0.389,-0.396 0.389,-0.314L0.389,0L0.474,0L0.474,-0.33C0.474,-0.445 0.41,-0.517 0.298,-0.517C0.22,-0.517 0.166,-0.481 0.137,-0.427L0.135,-0.427L0.135,-0.508L0.055,-0.508L0.055,0Z" style="fill:rgb(35,31,32);fill-rule:nonzero;"/>
                </g>
                <g transform="matrix(150,0,0,150,445.64,923.967)">
                    <path d="M0.262,-0.071C0.174,-0.071 0.117,-0.142 0.117,-0.256C0.117,-0.37 0.174,-0.442 0.262,-0.442C0.35,-0.442 0.409,-0.368 0.409,-0.256C0.409,-0.144 0.35,-0.071 0.262,-0.071ZM0.265,0.191C0.405,0.191 0.494,0.111 0.494,-0.01L0.494,-0.508L0.413,-0.508L0.413,-0.422L0.412,-0.422C0.378,-0.481 0.318,-0.517 0.247,-0.517C0.115,-0.517 0.03,-0.415 0.03,-0.256C0.03,-0.098 0.115,0.004 0.245,0.004C0.316,0.004 0.376,-0.032 0.407,-0.087L0.409,-0.087L0.409,-0.007C0.409,0.068 0.356,0.119 0.268,0.119C0.205,0.119 0.154,0.088 0.138,0.042L0.05,0.042C0.064,0.128 0.153,0.191 0.265,0.191Z" style="fill:rgb(35,31,32);fill-rule:nonzero;"/>
                </g>
                <g transform="matrix(150,0,0,150,558.799,923.967)">
                    <path d="M0.201,-0.325L0.289,-0.325C0.39,-0.325 0.452,-0.274 0.452,-0.191C0.452,-0.117 0.385,-0.064 0.292,-0.064C0.197,-0.064 0.137,-0.114 0.129,-0.187L0.045,-0.187C0.051,-0.07 0.146,0.012 0.293,0.012C0.431,0.012 0.542,-0.073 0.542,-0.194C0.542,-0.293 0.473,-0.359 0.367,-0.365L0.367,-0.367C0.455,-0.383 0.511,-0.446 0.511,-0.535C0.511,-0.641 0.416,-0.716 0.29,-0.716C0.158,-0.716 0.069,-0.64 0.059,-0.52L0.144,-0.52C0.151,-0.594 0.205,-0.64 0.286,-0.64C0.375,-0.64 0.423,-0.593 0.423,-0.523C0.423,-0.452 0.366,-0.399 0.285,-0.399L0.201,-0.399L0.201,-0.325Z" style="fill:rgb(35,31,32);fill-rule:nonzero;"/>
                </g>
                <g transform="matrix(150,0,0,150,647.568,923.967)">
                    <path d="M0.068,-0.705L0.068,0L0.305,0C0.515,0 0.638,-0.13 0.638,-0.353C0.638,-0.574 0.514,-0.705 0.305,-0.705L0.068,-0.705ZM0.156,-0.625L0.299,-0.625C0.459,-0.625 0.548,-0.528 0.548,-0.352C0.548,-0.177 0.459,-0.079 0.299,-0.079L0.156,-0.079L0.156,-0.625Z" style="fill:rgb(35,31,32);fill-rule:nonzero;"/>
                </g>
                <g transform="matrix(150,0,0,150,161.753,1073.97)">
                    <path d="M0.156,-0.705L0.068,-0.705L0.068,-0.247C0.068,-0.097 0.173,0.012 0.348,0.012C0.523,0.012 0.628,-0.097 0.628,-0.247L0.628,-0.705L0.54,-0.705L0.54,-0.253C0.54,-0.146 0.47,-0.069 0.348,-0.069C0.226,-0.069 0.156,-0.146 0.156,-0.253L0.156,-0.705Z" style="fill:rgb(35,31,32);fill-rule:nonzero;"/>
                </g>
                <g transform="matrix(150,0,0,150,266.196,1073.97)">
                    <path d="M0.155,0L0.155,-0.551L0.16,-0.551L0.545,0L0.631,0L0.631,-0.705L0.544,-0.705L0.544,-0.151L0.54,-0.151L0.154,-0.705L0.068,-0.705L0.068,0L0.155,0Z" style="fill:rgb(35,31,32);fill-rule:nonzero;"/>
                </g>
                <g transform="matrix(150,0,0,150,371.079,1073.97)">
                    <path d="M0.505,-0.079L0.156,-0.079L0.156,-0.321L0.487,-0.321L0.487,-0.399L0.156,-0.399L0.156,-0.625L0.505,-0.625L0.505,-0.705L0.068,-0.705L0.068,0L0.505,0L0.505,-0.079Z" style="fill:rgb(35,31,32);fill-rule:nonzero;"/>
                </g>
                <g transform="matrix(150,0,0,150,453.916,1073.97)">
                    <path d="M0.334,0L0.334,-0.625L0.557,-0.625L0.557,-0.705L0.024,-0.705L0.024,-0.625L0.247,-0.625L0.247,0L0.334,0Z" style="fill:rgb(35,31,32);fill-rule:nonzero;"/>
                </g>
            </g>
        </g>
        <g transform="matrix(1,0,0,1,1305.96,0)">
            <g transform="matrix(1,0,0,1,1323.51,-14.4279)">
                <rect x="72.545" y="159.902" width="1062.38" height="1659.05" style="fill:rgb(2,238,195);"/>
            </g>
            <g transform="matrix(1,0,0,1,1263.18,243.002)">
                <g transform="matrix(150,0,0,150,161.753,423.967)">
                    <path d="M0.032,-0.201C0.037,-0.068 0.145,0.012 0.314,0.012C0.489,0.012 0.6,-0.074 0.6,-0.211C0.6,-0.318 0.538,-0.379 0.397,-0.409L0.312,-0.427C0.23,-0.446 0.196,-0.47 0.196,-0.514C0.196,-0.566 0.245,-0.601 0.318,-0.601C0.392,-0.601 0.444,-0.564 0.449,-0.505L0.587,-0.505C0.584,-0.632 0.481,-0.717 0.317,-0.717C0.16,-0.717 0.048,-0.631 0.048,-0.501C0.048,-0.398 0.112,-0.332 0.242,-0.304L0.333,-0.284C0.418,-0.265 0.452,-0.24 0.452,-0.194C0.452,-0.142 0.398,-0.104 0.32,-0.104C0.242,-0.104 0.181,-0.143 0.174,-0.201L0.032,-0.201Z" style="fill:rgb(35,31,32);fill-rule:nonzero;"/>
                </g>
                <g transform="matrix(150,0,0,150,256.455,423.967)">
                    <path d="M0.281,-0.429C0.345,-0.429 0.388,-0.383 0.391,-0.316L0.169,-0.316C0.174,-0.382 0.219,-0.429 0.281,-0.429ZM0.393,-0.16C0.38,-0.12 0.34,-0.094 0.288,-0.094C0.215,-0.094 0.167,-0.146 0.167,-0.22L0.167,-0.229L0.528,-0.229L0.528,-0.272C0.528,-0.432 0.432,-0.535 0.28,-0.535C0.125,-0.535 0.027,-0.426 0.027,-0.259C0.027,-0.092 0.124,0.011 0.285,0.011C0.415,0.011 0.508,-0.058 0.524,-0.16L0.393,-0.16Z" style="fill:rgb(35,31,32);fill-rule:nonzero;"/>
                </g>
                <g transform="matrix(150,0,0,150,339.731,423.967)">
                    <path d="M0.288,-0.111C0.217,-0.111 0.173,-0.167 0.173,-0.263C0.173,-0.358 0.218,-0.417 0.288,-0.417C0.359,-0.417 0.405,-0.357 0.405,-0.263C0.405,-0.168 0.359,-0.111 0.288,-0.111ZM0.286,0.197C0.442,0.197 0.547,0.118 0.547,-0.007L0.547,-0.523L0.406,-0.523L0.406,-0.432L0.404,-0.432C0.376,-0.492 0.317,-0.532 0.242,-0.532C0.109,-0.532 0.027,-0.43 0.027,-0.264C0.027,-0.1 0.112,-0.001 0.24,-0.001C0.315,-0.001 0.377,-0.04 0.401,-0.095L0.404,-0.095L0.404,-0.003C0.404,0.057 0.363,0.098 0.29,0.098C0.235,0.098 0.194,0.073 0.183,0.037L0.043,0.037C0.055,0.13 0.148,0.197 0.286,0.197Z" style="fill:rgb(35,31,32);fill-rule:nonzero;"/>
                </g>
                <g transform="matrix(150,0,0,150,428.721,423.967)">
                    <path d="M0.046,0L0.189,0L0.189,-0.316C0.189,-0.375 0.226,-0.416 0.28,-0.416C0.333,-0.416 0.364,-0.382 0.364,-0.326L0.364,0L0.501,0L0.501,-0.318C0.501,-0.376 0.537,-0.416 0.591,-0.416C0.646,-0.416 0.677,-0.382 0.677,-0.322L0.677,0L0.819,0L0.819,-0.357C0.819,-0.463 0.75,-0.533 0.648,-0.533C0.571,-0.533 0.509,-0.492 0.485,-0.426L0.482,-0.426C0.465,-0.494 0.412,-0.533 0.336,-0.533C0.265,-0.533 0.209,-0.492 0.187,-0.429L0.184,-0.429L0.184,-0.523L0.046,-0.523L0.046,0Z" style="fill:rgb(35,31,32);fill-rule:nonzero;"/>
                </g>
                <g transform="matrix(150,0,0,150,558.213,423.967)">
                    <path d="M0.281,-0.429C0.345,-0.429 0.388,-0.383 0.391,-0.316L0.169,-0.316C0.174,-0.382 0.219,-0.429 0.281,-0.429ZM0.393,-0.16C0.38,-0.12 0.34,-0.094 0.288,-0.094C0.215,-0.094 0.167,-0.146 0.167,-0.22L0.167,-0.229L0.528,-0.229L0.528,-0.272C0.528,-0.432 0.432,-0.535 0.28,-0.535C0.125,-0.535 0.027,-0.426 0.027,-0.259C0.027,-0.092 0.124,0.011 0.285,0.011C0.415,0.011 0.508,-0.058 0.524,-0.16L0.393,-0.16Z" style="fill:rgb(35,31,32);fill-rule:nonzero;"/>
                </g>
                <g transform="matrix(150,0,0,150,641.489,423.967)">
                    <path d="M0.046,0L0.189,0L0.189,-0.3C0.189,-0.368 0.229,-0.415 0.293,-0.415C0.357,-0.415 0.39,-0.376 0.39,-0.308L0.39,0L0.532,0L0.532,-0.337C0.532,-0.46 0.467,-0.533 0.351,-0.533C0.27,-0.533 0.215,-0.495 0.187,-0.43L0.184,-0.43L0.184,-0.523L0.046,-0.523L0.046,0Z" style="fill:rgb(35,31,32);fill-rule:nonzero;"/>
                </g>
                <g transform="matrix(150,0,0,150,727.915,423.967)">
                    <path d="M0.084,-0.644L0.084,-0.523L0.011,-0.523L0.011,-0.416L0.084,-0.416L0.084,-0.141C0.084,-0.039 0.132,0.002 0.255,0.002C0.284,0.002 0.309,0 0.323,-0.004L0.323,-0.109C0.314,-0.107 0.301,-0.106 0.289,-0.106C0.247,-0.106 0.227,-0.125 0.227,-0.166L0.227,-0.416L0.324,-0.416L0.324,-0.523L0.227,-0.523L0.227,-0.644L0.084,-0.644Z" style="fill:rgb(35,31,32);fill-rule:nonzero;"/>
                </g>
                <g transform="matrix(150,0,0,150,780.503,423.967)">
                    <path d="M0.249,-0.095C0.2,-0.095 0.168,-0.119 0.168,-0.158C0.168,-0.195 0.198,-0.219 0.251,-0.223L0.362,-0.23L0.362,-0.192C0.362,-0.135 0.311,-0.095 0.249,-0.095ZM0.202,0.008C0.267,0.008 0.332,-0.024 0.361,-0.08L0.364,-0.08L0.364,0L0.502,0L0.502,-0.36C0.502,-0.465 0.415,-0.535 0.28,-0.535C0.142,-0.535 0.055,-0.465 0.05,-0.363L0.18,-0.363C0.187,-0.402 0.221,-0.428 0.274,-0.428C0.328,-0.428 0.362,-0.4 0.362,-0.351L0.362,-0.316L0.23,-0.309C0.1,-0.301 0.026,-0.246 0.026,-0.15C0.026,-0.056 0.102,0.008 0.202,0.008Z" style="fill:rgb(35,31,32);fill-rule:nonzero;"/>
                </g>
                <g transform="matrix(150,0,0,150,862.607,423.967)">
                    <path d="M0.084,-0.644L0.084,-0.523L0.011,-0.523L0.011,-0.416L0.084,-0.416L0.084,-0.141C0.084,-0.039 0.132,0.002 0.255,0.002C0.284,0.002 0.309,0 0.323,-0.004L0.323,-0.109C0.314,-0.107 0.301,-0.106 0.289,-0.106C0.247,-0.106 0.227,-0.125 0.227,-0.166L0.227,-0.416L0.324,-0.416L0.324,-0.523L0.227,-0.523L0.227,-0.644L0.084,-0.644Z" style="fill:rgb(35,31,32);fill-rule:nonzero;"/>
                </g>
                <g transform="matrix(150,0,0,150,915.928,423.967)">
                    <path d="M0.049,0L0.191,0L0.191,-0.523L0.049,-0.523L0.049,0ZM0.12,-0.581C0.163,-0.581 0.196,-0.614 0.196,-0.655C0.196,-0.696 0.163,-0.729 0.12,-0.729C0.077,-0.729 0.044,-0.696 0.044,-0.655C0.044,-0.614 0.077,-0.581 0.12,-0.581Z" style="fill:rgb(35,31,32);fill-rule:nonzero;"/>
                </g>
                <g transform="matrix(150,0,0,150,951.89,423.967)">
                    <path d="M0.287,0.011C0.445,0.011 0.546,-0.09 0.546,-0.262C0.546,-0.432 0.443,-0.535 0.287,-0.535C0.13,-0.535 0.027,-0.432 0.027,-0.262C0.027,-0.09 0.128,0.011 0.287,0.011ZM0.287,-0.098C0.216,-0.098 0.172,-0.157 0.172,-0.262C0.172,-0.366 0.217,-0.426 0.287,-0.426C0.356,-0.426 0.401,-0.366 0.401,-0.262C0.401,-0.157 0.356,-0.098 0.287,-0.098Z" style="fill:rgb(35,31,32);fill-rule:nonzero;"/>
                </g>
                <g transform="matrix(150,0,0,150,1037.8,423.967)">
                    <path d="M0.046,0L0.189,0L0.189,-0.3C0.189,-0.368 0.229,-0.415 0.293,-0.415C0.357,-0.415 0.39,-0.376 0.39,-0.308L0.39,0L0.532,0L0.532,-0.337C0.532,-0.46 0.467,-0.533 0.351,-0.533C0.27,-0.533 0.215,-0.495 0.187,-0.43L0.184,-0.43L0.184,-0.523L0.046,-0.523L0.046,0Z" style="fill:rgb(35,31,32);fill-rule:nonzero;"/>
                </g>
                <g transform="matrix(150,0,0,150,161.753,573.967)">
                    <path d="M0.805,0L0.805,-0.705L0.634,-0.705L0.434,-0.205L0.43,-0.205L0.229,-0.705L0.059,-0.705L0.059,0L0.19,0L0.19,-0.476L0.194,-0.476L0.385,-0.007L0.478,-0.007L0.669,-0.476L0.673,-0.476L0.673,0L0.805,0Z" style="fill:rgb(35,31,32);fill-rule:nonzero;"/>
                </g>
                <g transform="matrix(150,0,0,150,289.56,573.967)">
                    <path d="M0.249,-0.095C0.2,-0.095 0.168,-0.119 0.168,-0.158C0.168,-0.195 0.198,-0.219 0.251,-0.223L0.362,-0.23L0.362,-0.192C0.362,-0.135 0.311,-0.095 0.249,-0.095ZM0.202,0.008C0.267,0.008 0.332,-0.024 0.361,-0.08L0.364,-0.08L0.364,0L0.502,0L0.502,-0.36C0.502,-0.465 0.415,-0.535 0.28,-0.535C0.142,-0.535 0.055,-0.465 0.05,-0.363L0.18,-0.363C0.187,-0.402 0.221,-0.428 0.274,-0.428C0.328,-0.428 0.362,-0.4 0.362,-0.351L0.362,-0.316L0.23,-0.309C0.1,-0.301 0.026,-0.246 0.026,-0.15C0.026,-0.056 0.102,0.008 0.202,0.008Z" style="fill:rgb(35,31,32);fill-rule:nonzero;"/>
                </g>
                <g transform="matrix(150,0,0,150,371.665,573.967)">
                    <path d="M0.352,-0.532C0.276,-0.532 0.218,-0.494 0.19,-0.432L0.187,-0.432L0.187,-0.523L0.046,-0.523L0.046,0.171L0.189,0.171L0.189,-0.088L0.192,-0.088C0.22,-0.029 0.278,0.008 0.354,0.008C0.485,0.008 0.566,-0.093 0.566,-0.262C0.566,-0.431 0.485,-0.532 0.352,-0.532ZM0.304,-0.106C0.234,-0.106 0.188,-0.167 0.188,-0.262C0.188,-0.355 0.234,-0.417 0.304,-0.417C0.375,-0.417 0.42,-0.356 0.42,-0.262C0.42,-0.167 0.375,-0.106 0.304,-0.106Z" style="fill:rgb(35,31,32);fill-rule:nonzero;"/>
                </g>
                <g transform="matrix(150,0,0,150,161.753,773.967)">
                    <path d="M0.156,-0.705L0.068,-0.705L0.068,-0.247C0.068,-0.097 0.173,0.012 0.348,0.012C0.523,0.012 0.628,-0.097 0.628,-0.247L0.628,-0.705L0.54,-0.705L0.54,-0.253C0.54,-0.146 0.47,-0.069 0.348,-0.069C0.226,-0.069 0.156,-0.146 0.156,-0.253L0.156,-0.705Z" style="fill:rgb(35,31,32);fill-rule:nonzero;"/>
                </g>
                <g transform="matrix(150,0,0,150,266.196,773.967)">
                    <path d="M0.046,-0.368C0.046,-0.298 0.09,-0.252 0.18,-0.229L0.269,-0.207C0.326,-0.191 0.347,-0.172 0.347,-0.136C0.347,-0.09 0.305,-0.061 0.236,-0.061C0.167,-0.061 0.127,-0.089 0.118,-0.142L0.033,-0.142C0.042,-0.052 0.119,0.009 0.23,0.009C0.349,0.009 0.433,-0.054 0.433,-0.142C0.433,-0.217 0.396,-0.254 0.293,-0.28L0.214,-0.299C0.157,-0.313 0.13,-0.337 0.13,-0.372C0.13,-0.417 0.171,-0.447 0.233,-0.447C0.295,-0.447 0.335,-0.417 0.341,-0.368L0.422,-0.368C0.418,-0.454 0.341,-0.517 0.236,-0.517C0.124,-0.517 0.046,-0.455 0.046,-0.368Z" style="fill:rgb(35,31,32);fill-rule:nonzero;"/>
                </g>
                <g transform="matrix(150,0,0,150,335.996,773.967)">
                    <path d="M0.06,0L0.145,0L0.145,-0.508L0.06,-0.508L0.06,0ZM0.102,-0.593C0.131,-0.593 0.155,-0.617 0.155,-0.646C0.155,-0.675 0.131,-0.699 0.102,-0.699C0.073,-0.699 0.049,-0.675 0.049,-0.646C0.049,-0.617 0.073,-0.593 0.102,-0.593Z" style="fill:rgb(35,31,32);fill-rule:nonzero;"/>
                </g>
                <g transform="matrix(150,0,0,150,366.611,773.967)">
                    <path d="M0.055,0L0.14,0L0.14,-0.299C0.14,-0.385 0.192,-0.441 0.272,-0.441C0.351,-0.441 0.389,-0.396 0.389,-0.314L0.389,0L0.474,0L0.474,-0.33C0.474,-0.445 0.41,-0.517 0.298,-0.517C0.22,-0.517 0.166,-0.481 0.137,-0.427L0.135,-0.427L0.135,-0.508L0.055,-0.508L0.055,0Z" style="fill:rgb(35,31,32);fill-rule:nonzero;"/>
                </g>
                <g transform="matrix(150,0,0,150,445.64,773.967)">
                    <path d="M0.262,-0.071C0.174,-0.071 0.117,-0.142 0.117,-0.256C0.117,-0.37 0.174,-0.442 0.262,-0.442C0.35,-0.442 0.409,-0.368 0.409,-0.256C0.409,-0.144 0.35,-0.071 0.262,-0.071ZM0.265,0.191C0.405,0.191 0.494,0.111 0.494,-0.01L0.494,-0.508L0.413,-0.508L0.413,-0.422L0.412,-0.422C0.378,-0.481 0.318,-0.517 0.247,-0.517C0.115,-0.517 0.03,-0.415 0.03,-0.256C0.03,-0.098 0.115,0.004 0.245,0.004C0.316,0.004 0.376,-0.032 0.407,-0.087L0.409,-0.087L0.409,-0.007C0.409,0.068 0.356,0.119 0.268,0.119C0.205,0.119 0.154,0.088 0.138,0.042L0.05,0.042C0.064,0.128 0.153,0.191 0.265,0.191Z" style="fill:rgb(35,31,32);fill-rule:nonzero;"/>
                </g>
                <g transform="matrix(150,0,0,150,558.799,773.967)">
                    <path d="M0.201,-0.325L0.289,-0.325C0.39,-0.325 0.452,-0.274 0.452,-0.191C0.452,-0.117 0.385,-0.064 0.292,-0.064C0.197,-0.064 0.137,-0.114 0.129,-0.187L0.045,-0.187C0.051,-0.07 0.146,0.012 0.293,0.012C0.431,0.012 0.542,-0.073 0.542,-0.194C0.542,-0.293 0.473,-0.359 0.367,-0.365L0.367,-0.367C0.455,-0.383 0.511,-0.446 0.511,-0.535C0.511,-0.641 0.416,-0.716 0.29,-0.716C0.158,-0.716 0.069,-0.64 0.059,-0.52L0.144,-0.52C0.151,-0.594 0.205,-0.64 0.286,-0.64C0.375,-0.64 0.423,-0.593 0.423,-0.523C0.423,-0.452 0.366,-0.399 0.285,-0.399L0.201,-0.399L0.201,-0.325Z" style="fill:rgb(35,31,32);fill-rule:nonzero;"/>
                </g>
                <g transform="matrix(150,0,0,150,647.568,773.967)">
                    <path d="M0.068,-0.705L0.068,0L0.305,0C0.515,0 0.638,-0.13 0.638,-0.353C0.638,-0.574 0.514,-0.705 0.305,-0.705L0.068,-0.705ZM0.156,-0.625L0.299,-0.625C0.459,-0.625 0.548,-0.528 0.548,-0.352C0.548,-0.177 0.459,-0.079 0.299,-0.079L0.156,-0.079L0.156,-0.625Z" style="fill:rgb(35,31,32);fill-rule:nonzero;"/>
                </g>
                <g transform="matrix(150,0,0,150,161.753,923.967)">
                    <path d="M0.459,-0.559L0.464,-0.559L0.627,0L0.71,0L0.902,-0.705L0.81,-0.705L0.669,-0.129L0.665,-0.129L0.506,-0.705L0.417,-0.705L0.259,-0.129L0.255,-0.129L0.114,-0.705L0.022,-0.705L0.214,0L0.297,0L0.459,-0.559Z" style="fill:rgb(35,31,32);fill-rule:nonzero;"/>
                </g>
                <g transform="matrix(150,0,0,150,290.073,923.967)">
                    <path d="M0.223,-0.063C0.162,-0.063 0.121,-0.095 0.121,-0.144C0.121,-0.191 0.16,-0.222 0.229,-0.226L0.364,-0.234L0.364,-0.193C0.364,-0.12 0.303,-0.063 0.223,-0.063ZM0.204,0.009C0.272,0.009 0.336,-0.029 0.367,-0.087L0.369,-0.087L0.369,0L0.449,0L0.449,-0.351C0.449,-0.452 0.374,-0.517 0.255,-0.517C0.135,-0.517 0.06,-0.449 0.054,-0.361L0.136,-0.361C0.146,-0.411 0.188,-0.442 0.253,-0.442C0.323,-0.442 0.364,-0.405 0.364,-0.343L0.364,-0.3L0.219,-0.292C0.102,-0.285 0.035,-0.23 0.035,-0.144C0.035,-0.052 0.103,0.009 0.204,0.009Z" style="fill:rgb(35,31,32);fill-rule:nonzero;"/>
                </g>
                <g transform="matrix(150,0,0,150,365.366,923.967)">
                    <path d="M0.083,-0.63L0.083,-0.508L0.007,-0.508L0.007,-0.438L0.083,-0.438L0.083,-0.132C0.083,-0.034 0.119,0.004 0.212,0.004C0.232,0.004 0.255,0.002 0.266,0L0.266,-0.071C0.26,-0.07 0.24,-0.069 0.23,-0.069C0.187,-0.069 0.167,-0.09 0.167,-0.136L0.167,-0.438L0.266,-0.438L0.266,-0.508L0.167,-0.508L0.167,-0.63L0.083,-0.63Z" style="fill:rgb(35,31,32);fill-rule:nonzero;"/>
                </g>
                <g transform="matrix(150,0,0,150,408.359,923.967)">
                    <path d="M0.259,-0.443C0.339,-0.443 0.392,-0.382 0.394,-0.297L0.118,-0.297C0.124,-0.382 0.179,-0.443 0.259,-0.443ZM0.392,-0.146C0.378,-0.098 0.331,-0.065 0.266,-0.065C0.175,-0.065 0.118,-0.129 0.118,-0.226L0.118,-0.231L0.482,-0.231L0.482,-0.263C0.482,-0.417 0.397,-0.517 0.26,-0.517C0.12,-0.517 0.03,-0.41 0.03,-0.252C0.03,-0.092 0.119,0.009 0.264,0.009C0.375,0.009 0.461,-0.057 0.476,-0.146L0.392,-0.146Z" style="fill:rgb(35,31,32);fill-rule:nonzero;"/>
                </g>
                <g transform="matrix(150,0,0,150,485.19,923.967)">
                    <path d="M0.055,0L0.14,0L0.14,-0.316C0.14,-0.388 0.183,-0.436 0.249,-0.436C0.27,-0.436 0.288,-0.433 0.294,-0.431L0.294,-0.513C0.288,-0.514 0.275,-0.517 0.26,-0.517C0.201,-0.517 0.154,-0.481 0.137,-0.425L0.135,-0.425L0.135,-0.508L0.055,-0.508L0.055,0Z" style="fill:rgb(35,31,32);fill-rule:nonzero;"/>
                </g>
                <g transform="matrix(150,0,0,150,531.406,923.967)">
                    <path d="M0.046,-0.368C0.046,-0.298 0.09,-0.252 0.18,-0.229L0.269,-0.207C0.326,-0.191 0.347,-0.172 0.347,-0.136C0.347,-0.09 0.305,-0.061 0.236,-0.061C0.167,-0.061 0.127,-0.089 0.118,-0.142L0.033,-0.142C0.042,-0.052 0.119,0.009 0.23,0.009C0.349,0.009 0.433,-0.054 0.433,-0.142C0.433,-0.217 0.396,-0.254 0.293,-0.28L0.214,-0.299C0.157,-0.313 0.13,-0.337 0.13,-0.372C0.13,-0.417 0.171,-0.447 0.233,-0.447C0.295,-0.447 0.335,-0.417 0.341,-0.368L0.422,-0.368C0.418,-0.454 0.341,-0.517 0.236,-0.517C0.124,-0.517 0.046,-0.455 0.046,-0.368Z" style="fill:rgb(35,31,32);fill-rule:nonzero;"/>
                </g>
                <g transform="matrix(150,0,0,150,601.206,923.967)">
                    <path d="M0.06,0L0.145,0L0.145,-0.296C0.145,-0.384 0.197,-0.441 0.281,-0.441C0.361,-0.441 0.401,-0.393 0.401,-0.313L0.401,0L0.486,0L0.486,-0.328C0.486,-0.441 0.419,-0.517 0.308,-0.517C0.23,-0.517 0.175,-0.483 0.146,-0.427L0.145,-0.427L0.145,-0.705L0.06,-0.705L0.06,0Z" style="fill:rgb(35,31,32);fill-rule:nonzero;"/>
                </g>
                <g transform="matrix(150,0,0,150,682.065,923.967)">
                    <path d="M0.259,-0.443C0.339,-0.443 0.392,-0.382 0.394,-0.297L0.118,-0.297C0.124,-0.382 0.179,-0.443 0.259,-0.443ZM0.392,-0.146C0.378,-0.098 0.331,-0.065 0.266,-0.065C0.175,-0.065 0.118,-0.129 0.118,-0.226L0.118,-0.231L0.482,-0.231L0.482,-0.263C0.482,-0.417 0.397,-0.517 0.26,-0.517C0.12,-0.517 0.03,-0.41 0.03,-0.252C0.03,-0.092 0.119,0.009 0.264,0.009C0.375,0.009 0.461,-0.057 0.476,-0.146L0.392,-0.146Z" style="fill:rgb(35,31,32);fill-rule:nonzero;"/>
                </g>
                <g transform="matrix(150,0,0,150,758.896,923.967)">
                    <path d="M0.248,0.009C0.321,0.009 0.379,-0.027 0.412,-0.086L0.413,-0.086L0.413,0L0.494,0L0.494,-0.705L0.409,-0.705L0.409,-0.425L0.407,-0.425C0.377,-0.481 0.318,-0.517 0.246,-0.517C0.118,-0.517 0.03,-0.413 0.03,-0.254C0.03,-0.095 0.118,0.009 0.248,0.009ZM0.264,-0.442C0.351,-0.442 0.41,-0.367 0.41,-0.254C0.41,-0.14 0.351,-0.066 0.264,-0.066C0.174,-0.066 0.117,-0.139 0.117,-0.254C0.117,-0.369 0.174,-0.442 0.264,-0.442Z" style="fill:rgb(35,31,32);fill-rule:nonzero;"/>
                </g>
            </g>
        </g>
        <g transform="matrix(1,0,0,1,1419.9,0)">
            <g transform="matrix(1,0,0,1,2513.6,-14.4279)">
                <rect x="72.545" y="159.902" width="1062.38" height="1659.05" style="fill:rgb(2,238,195);"/>
            </g>
            <g transform="matrix(1,0,0,1,2453.26,243.002)">
                <g transform="matrix(150,0,0,150,161.753,423.967)">
                    <path d="M0.206,-0.589L0.332,-0.589C0.405,-0.589 0.451,-0.545 0.451,-0.477C0.451,-0.407 0.407,-0.365 0.333,-0.365L0.206,-0.365L0.206,-0.589ZM0.206,-0.258L0.324,-0.258L0.456,0L0.623,0L0.474,-0.28C0.555,-0.312 0.602,-0.39 0.602,-0.48C0.602,-0.619 0.509,-0.705 0.347,-0.705L0.059,-0.705L0.059,0L0.206,0L0.206,-0.258Z" style="fill:rgb(35,31,32);fill-rule:nonzero;"/>
                </g>
                <g transform="matrix(150,0,0,150,257.041,423.967)">
                    <path d="M0.281,-0.429C0.345,-0.429 0.388,-0.383 0.391,-0.316L0.169,-0.316C0.174,-0.382 0.219,-0.429 0.281,-0.429ZM0.393,-0.16C0.38,-0.12 0.34,-0.094 0.288,-0.094C0.215,-0.094 0.167,-0.146 0.167,-0.22L0.167,-0.229L0.528,-0.229L0.528,-0.272C0.528,-0.432 0.432,-0.535 0.28,-0.535C0.125,-0.535 0.027,-0.426 0.027,-0.259C0.027,-0.092 0.124,0.011 0.285,0.011C0.415,0.011 0.508,-0.058 0.524,-0.16L0.393,-0.16Z" style="fill:rgb(35,31,32);fill-rule:nonzero;"/>
                </g>
                <g transform="matrix(150,0,0,150,340.317,423.967)">
                    <path d="M0.084,0L0.227,0L0.227,-0.416L0.328,-0.416L0.328,-0.521L0.224,-0.521L0.224,-0.556C0.224,-0.593 0.244,-0.613 0.291,-0.613C0.305,-0.613 0.319,-0.612 0.33,-0.61L0.33,-0.705C0.313,-0.708 0.283,-0.711 0.257,-0.711C0.133,-0.711 0.084,-0.663 0.084,-0.561L0.084,-0.521L0.013,-0.521L0.013,-0.416L0.084,-0.416L0.084,0Z" style="fill:rgb(35,31,32);fill-rule:nonzero;"/>
                </g>
                <g transform="matrix(150,0,0,150,393.711,423.967)">
                    <path d="M0.049,0L0.191,0L0.191,-0.523L0.049,-0.523L0.049,0ZM0.12,-0.581C0.163,-0.581 0.196,-0.614 0.196,-0.655C0.196,-0.696 0.163,-0.729 0.12,-0.729C0.077,-0.729 0.044,-0.696 0.044,-0.655C0.044,-0.614 0.077,-0.581 0.12,-0.581Z" style="fill:rgb(35,31,32);fill-rule:nonzero;"/>
                </g>
                <g transform="matrix(150,0,0,150,429.673,423.967)">
                    <path d="M0.046,0L0.189,0L0.189,-0.3C0.189,-0.368 0.229,-0.415 0.293,-0.415C0.357,-0.415 0.39,-0.376 0.39,-0.308L0.39,0L0.532,0L0.532,-0.337C0.532,-0.46 0.467,-0.533 0.351,-0.533C0.27,-0.533 0.215,-0.495 0.187,-0.43L0.184,-0.43L0.184,-0.523L0.046,-0.523L0.046,0Z" style="fill:rgb(35,31,32);fill-rule:nonzero;"/>
                </g>
                <g transform="matrix(150,0,0,150,516.099,423.967)">
                    <path d="M0.281,-0.429C0.345,-0.429 0.388,-0.383 0.391,-0.316L0.169,-0.316C0.174,-0.382 0.219,-0.429 0.281,-0.429ZM0.393,-0.16C0.38,-0.12 0.34,-0.094 0.288,-0.094C0.215,-0.094 0.167,-0.146 0.167,-0.22L0.167,-0.229L0.528,-0.229L0.528,-0.272C0.528,-0.432 0.432,-0.535 0.28,-0.535C0.125,-0.535 0.027,-0.426 0.027,-0.259C0.027,-0.092 0.124,0.011 0.285,0.011C0.415,0.011 0.508,-0.058 0.524,-0.16L0.393,-0.16Z" style="fill:rgb(35,31,32);fill-rule:nonzero;"/>
                </g>
                <g transform="matrix(150,0,0,150,599.375,423.967)">
                    <path d="M0.046,0L0.189,0L0.189,-0.316C0.189,-0.375 0.226,-0.416 0.28,-0.416C0.333,-0.416 0.364,-0.382 0.364,-0.326L0.364,0L0.501,0L0.501,-0.318C0.501,-0.376 0.537,-0.416 0.591,-0.416C0.646,-0.416 0.677,-0.382 0.677,-0.322L0.677,0L0.819,0L0.819,-0.357C0.819,-0.463 0.75,-0.533 0.648,-0.533C0.571,-0.533 0.509,-0.492 0.485,-0.426L0.482,-0.426C0.465,-0.494 0.412,-0.533 0.336,-0.533C0.265,-0.533 0.209,-0.492 0.187,-0.429L0.184,-0.429L0.184,-0.523L0.046,-0.523L0.046,0Z" style="fill:rgb(35,31,32);fill-rule:nonzero;"/>
                </g>
                <g transform="matrix(150,0,0,150,728.867,423.967)">
                    <path d="M0.281,-0.429C0.345,-0.429 0.388,-0.383 0.391,-0.316L0.169,-0.316C0.174,-0.382 0.219,-0.429 0.281,-0.429ZM0.393,-0.16C0.38,-0.12 0.34,-0.094 0.288,-0.094C0.215,-0.094 0.167,-0.146 0.167,-0.22L0.167,-0.229L0.528,-0.229L0.528,-0.272C0.528,-0.432 0.432,-0.535 0.28,-0.535C0.125,-0.535 0.027,-0.426 0.027,-0.259C0.027,-0.092 0.124,0.011 0.285,0.011C0.415,0.011 0.508,-0.058 0.524,-0.16L0.393,-0.16Z" style="fill:rgb(35,31,32);fill-rule:nonzero;"/>
                </g>
                <g transform="matrix(150,0,0,150,812.143,423.967)">
                    <path d="M0.046,0L0.189,0L0.189,-0.3C0.189,-0.368 0.229,-0.415 0.293,-0.415C0.357,-0.415 0.39,-0.376 0.39,-0.308L0.39,0L0.532,0L0.532,-0.337C0.532,-0.46 0.467,-0.533 0.351,-0.533C0.27,-0.533 0.215,-0.495 0.187,-0.43L0.184,-0.43L0.184,-0.523L0.046,-0.523L0.046,0Z" style="fill:rgb(35,31,32);fill-rule:nonzero;"/>
                </g>
                <g transform="matrix(150,0,0,150,898.569,423.967)">
                    <path d="M0.084,-0.644L0.084,-0.523L0.011,-0.523L0.011,-0.416L0.084,-0.416L0.084,-0.141C0.084,-0.039 0.132,0.002 0.255,0.002C0.284,0.002 0.309,0 0.323,-0.004L0.323,-0.109C0.314,-0.107 0.301,-0.106 0.289,-0.106C0.247,-0.106 0.227,-0.125 0.227,-0.166L0.227,-0.416L0.324,-0.416L0.324,-0.523L0.227,-0.523L0.227,-0.644L0.084,-0.644Z" style="fill:rgb(35,31,32);fill-rule:nonzero;"/>
                </g>
                <g transform="matrix(150,0,0,150,981.553,423.967)">
                    <path d="M0.287,0.011C0.445,0.011 0.546,-0.09 0.546,-0.262C0.546,-0.432 0.443,-0.535 0.287,-0.535C0.13,-0.535 0.027,-0.432 0.027,-0.262C0.027,-0.09 0.128,0.011 0.287,0.011ZM0.287,-0.098C0.216,-0.098 0.172,-0.157 0.172,-0.262C0.172,-0.366 0.217,-0.426 0.287,-0.426C0.356,-0.426 0.401,-0.366 0.401,-0.262C0.401,-0.157 0.356,-0.098 0.287,-0.098Z" style="fill:rgb(35,31,32);fill-rule:nonzero;"/>
                </g>
                <g transform="matrix(150,0,0,150,1067.47,423.967)">
                    <path d="M0.046,0L0.189,0L0.189,-0.3C0.189,-0.368 0.229,-0.415 0.293,-0.415C0.357,-0.415 0.39,-0.376 0.39,-0.308L0.39,0L0.532,0L0.532,-0.337C0.532,-0.46 0.467,-0.533 0.351,-0.533C0.27,-0.533 0.215,-0.495 0.187,-0.43L0.184,-0.43L0.184,-0.523L0.046,-0.523L0.046,0Z" style="fill:rgb(35,31,32);fill-rule:nonzero;"/>
                </g>
                <g transform="matrix(150,0,0,150,161.753,573.967)">
                    <path d="M0.032,-0.201C0.037,-0.068 0.145,0.012 0.314,0.012C0.489,0.012 0.6,-0.074 0.6,-0.211C0.6,-0.318 0.538,-0.379 0.397,-0.409L0.312,-0.427C0.23,-0.446 0.196,-0.47 0.196,-0.514C0.196,-0.566 0.245,-0.601 0.318,-0.601C0.392,-0.601 0.444,-0.564 0.449,-0.505L0.587,-0.505C0.584,-0.632 0.481,-0.717 0.317,-0.717C0.16,-0.717 0.048,-0.631 0.048,-0.501C0.048,-0.398 0.112,-0.332 0.242,-0.304L0.333,-0.284C0.418,-0.265 0.452,-0.24 0.452,-0.194C0.452,-0.142 0.398,-0.104 0.32,-0.104C0.242,-0.104 0.181,-0.143 0.174,-0.201L0.032,-0.201Z" style="fill:rgb(35,31,32);fill-rule:nonzero;"/>
                </g>
                <g transform="matrix(150,0,0,150,256.455,573.967)">
                    <path d="M0.281,-0.429C0.345,-0.429 0.388,-0.383 0.391,-0.316L0.169,-0.316C0.174,-0.382 0.219,-0.429 0.281,-0.429ZM0.393,-0.16C0.38,-0.12 0.34,-0.094 0.288,-0.094C0.215,-0.094 0.167,-0.146 0.167,-0.22L0.167,-0.229L0.528,-0.229L0.528,-0.272C0.528,-0.432 0.432,-0.535 0.28,-0.535C0.125,-0.535 0.027,-0.426 0.027,-0.259C0.027,-0.092 0.124,0.011 0.285,0.011C0.415,0.011 0.508,-0.058 0.524,-0.16L0.393,-0.16Z" style="fill:rgb(35,31,32);fill-rule:nonzero;"/>
                </g>
                <g transform="matrix(150,0,0,150,339.731,573.967)">
                    <path d="M0.288,-0.111C0.217,-0.111 0.173,-0.167 0.173,-0.263C0.173,-0.358 0.218,-0.417 0.288,-0.417C0.359,-0.417 0.405,-0.357 0.405,-0.263C0.405,-0.168 0.359,-0.111 0.288,-0.111ZM0.286,0.197C0.442,0.197 0.547,0.118 0.547,-0.007L0.547,-0.523L0.406,-0.523L0.406,-0.432L0.404,-0.432C0.376,-0.492 0.317,-0.532 0.242,-0.532C0.109,-0.532 0.027,-0.43 0.027,-0.264C0.027,-0.1 0.112,-0.001 0.24,-0.001C0.315,-0.001 0.377,-0.04 0.401,-0.095L0.404,-0.095L0.404,-0.003C0.404,0.057 0.363,0.098 0.29,0.098C0.235,0.098 0.194,0.073 0.183,0.037L0.043,0.037C0.055,0.13 0.148,0.197 0.286,0.197Z" style="fill:rgb(35,31,32);fill-rule:nonzero;"/>
                </g>
                <g transform="matrix(150,0,0,150,428.721,573.967)">
                    <path d="M0.046,0L0.189,0L0.189,-0.316C0.189,-0.375 0.226,-0.416 0.28,-0.416C0.333,-0.416 0.364,-0.382 0.364,-0.326L0.364,0L0.501,0L0.501,-0.318C0.501,-0.376 0.537,-0.416 0.591,-0.416C0.646,-0.416 0.677,-0.382 0.677,-0.322L0.677,0L0.819,0L0.819,-0.357C0.819,-0.463 0.75,-0.533 0.648,-0.533C0.571,-0.533 0.509,-0.492 0.485,-0.426L0.482,-0.426C0.465,-0.494 0.412,-0.533 0.336,-0.533C0.265,-0.533 0.209,-0.492 0.187,-0.429L0.184,-0.429L0.184,-0.523L0.046,-0.523L0.046,0Z" style="fill:rgb(35,31,32);fill-rule:nonzero;"/>
                </g>
                <g transform="matrix(150,0,0,150,558.213,573.967)">
                    <path d="M0.281,-0.429C0.345,-0.429 0.388,-0.383 0.391,-0.316L0.169,-0.316C0.174,-0.382 0.219,-0.429 0.281,-0.429ZM0.393,-0.16C0.38,-0.12 0.34,-0.094 0.288,-0.094C0.215,-0.094 0.167,-0.146 0.167,-0.22L0.167,-0.229L0.528,-0.229L0.528,-0.272C0.528,-0.432 0.432,-0.535 0.28,-0.535C0.125,-0.535 0.027,-0.426 0.027,-0.259C0.027,-0.092 0.124,0.011 0.285,0.011C0.415,0.011 0.508,-0.058 0.524,-0.16L0.393,-0.16Z" style="fill:rgb(35,31,32);fill-rule:nonzero;"/>
                </g>
                <g transform="matrix(150,0,0,150,641.489,573.967)">
                    <path d="M0.046,0L0.189,0L0.189,-0.3C0.189,-0.368 0.229,-0.415 0.293,-0.415C0.357,-0.415 0.39,-0.376 0.39,-0.308L0.39,0L0.532,0L0.532,-0.337C0.532,-0.46 0.467,-0.533 0.351,-0.533C0.27,-0.533 0.215,-0.495 0.187,-0.43L0.184,-0.43L0.184,-0.523L0.046,-0.523L0.046,0Z" style="fill:rgb(35,31,32);fill-rule:nonzero;"/>
                </g>
                <g transform="matrix(150,0,0,150,727.915,573.967)">
                    <path d="M0.084,-0.644L0.084,-0.523L0.011,-0.523L0.011,-0.416L0.084,-0.416L0.084,-0.141C0.084,-0.039 0.132,0.002 0.255,0.002C0.284,0.002 0.309,0 0.323,-0.004L0.323,-0.109C0.314,-0.107 0.301,-0.106 0.289,-0.106C0.247,-0.106 0.227,-0.125 0.227,-0.166L0.227,-0.416L0.324,-0.416L0.324,-0.523L0.227,-0.523L0.227,-0.644L0.084,-0.644Z" style="fill:rgb(35,31,32);fill-rule:nonzero;"/>
                </g>
                <g transform="matrix(150,0,0,150,780.503,573.967)">
                    <path d="M0.249,-0.095C0.2,-0.095 0.168,-0.119 0.168,-0.158C0.168,-0.195 0.198,-0.219 0.251,-0.223L0.362,-0.23L0.362,-0.192C0.362,-0.135 0.311,-0.095 0.249,-0.095ZM0.202,0.008C0.267,0.008 0.332,-0.024 0.361,-0.08L0.364,-0.08L0.364,0L0.502,0L0.502,-0.36C0.502,-0.465 0.415,-0.535 0.28,-0.535C0.142,-0.535 0.055,-0.465 0.05,-0.363L0.18,-0.363C0.187,-0.402 0.221,-0.428 0.274,-0.428C0.328,-0.428 0.362,-0.4 0.362,-0.351L0.362,-0.316L0.23,-0.309C0.1,-0.301 0.026,-0.246 0.026,-0.15C0.026,-0.056 0.102,0.008 0.202,0.008Z" style="fill:rgb(35,31,32);fill-rule:nonzero;"/>
                </g>
                <g transform="matrix(150,0,0,150,862.607,573.967)">
                    <path d="M0.084,-0.644L0.084,-0.523L0.011,-0.523L0.011,-0.416L0.084,-0.416L0.084,-0.141C0.084,-0.039 0.132,0.002 0.255,0.002C0.284,0.002 0.309,0 0.323,-0.004L0.323,-0.109C0.314,-0.107 0.301,-0.106 0.289,-0.106C0.247,-0.106 0.227,-0.125 0.227,-0.166L0.227,-0.416L0.324,-0.416L0.324,-0.523L0.227,-0.523L0.227,-0.644L0.084,-0.644Z" style="fill:rgb(35,31,32);fill-rule:nonzero;"/>
                </g>
                <g transform="matrix(150,0,0,150,915.928,573.967)">
                    <path d="M0.049,0L0.191,0L0.191,-0.523L0.049,-0.523L0.049,0ZM0.12,-0.581C0.163,-0.581 0.196,-0.614 0.196,-0.655C0.196,-0.696 0.163,-0.729 0.12,-0.729C0.077,-0.729 0.044,-0.696 0.044,-0.655C0.044,-0.614 0.077,-0.581 0.12,-0.581Z" style="fill:rgb(35,31,32);fill-rule:nonzero;"/>
                </g>
                <g transform="matrix(150,0,0,150,951.89,573.967)">
                    <path d="M0.287,0.011C0.445,0.011 0.546,-0.09 0.546,-0.262C0.546,-0.432 0.443,-0.535 0.287,-0.535C0.13,-0.535 0.027,-0.432 0.027,-0.262C0.027,-0.09 0.128,0.011 0.287,0.011ZM0.287,-0.098C0.216,-0.098 0.172,-0.157 0.172,-0.262C0.172,-0.366 0.217,-0.426 0.287,-0.426C0.356,-0.426 0.401,-0.366 0.401,-0.262C0.401,-0.157 0.356,-0.098 0.287,-0.098Z" style="fill:rgb(35,31,32);fill-rule:nonzero;"/>
                </g>
                <g transform="matrix(150,0,0,150,1037.8,573.967)">
                    <path d="M0.046,0L0.189,0L0.189,-0.3C0.189,-0.368 0.229,-0.415 0.293,-0.415C0.357,-0.415 0.39,-0.376 0.39,-0.308L0.39,0L0.532,0L0.532,-0.337C0.532,-0.46 0.467,-0.533 0.351,-0.533C0.27,-0.533 0.215,-0.495 0.187,-0.43L0.184,-0.43L0.184,-0.523L0.046,-0.523L0.046,0Z" style="fill:rgb(35,31,32);fill-rule:nonzero;"/>
                </g>
                <g transform="matrix(150,0,0,150,161.753,723.967)">
                    <path d="M0.805,0L0.805,-0.705L0.634,-0.705L0.434,-0.205L0.43,-0.205L0.229,-0.705L0.059,-0.705L0.059,0L0.19,0L0.19,-0.476L0.194,-0.476L0.385,-0.007L0.478,-0.007L0.669,-0.476L0.673,-0.476L0.673,0L0.805,0Z" style="fill:rgb(35,31,32);fill-rule:nonzero;"/>
                </g>
                <g transform="matrix(150,0,0,150,289.56,723.967)">
                    <path d="M0.249,-0.095C0.2,-0.095 0.168,-0.119 0.168,-0.158C0.168,-0.195 0.198,-0.219 0.251,-0.223L0.362,-0.23L0.362,-0.192C0.362,-0.135 0.311,-0.095 0.249,-0.095ZM0.202,0.008C0.267,0.008 0.332,-0.024 0.361,-0.08L0.364,-0.08L0.364,0L0.502,0L0.502,-0.36C0.502,-0.465 0.415,-0.535 0.28,-0.535C0.142,-0.535 0.055,-0.465 0.05,-0.363L0.18,-0.363C0.187,-0.402 0.221,-0.428 0.274,-0.428C0.328,-0.428 0.362,-0.4 0.362,-0.351L0.362,-0.316L0.23,-0.309C0.1,-0.301 0.026,-0.246 0.026,-0.15C0.026,-0.056 0.102,0.008 0.202,0.008Z" style="fill:rgb(35,31,32);fill-rule:nonzero;"/>
                </g>
                <g transform="matrix(150,0,0,150,371.665,723.967)">
                    <path d="M0.352,-0.532C0.276,-0.532 0.218,-0.494 0.19,-0.432L0.187,-0.432L0.187,-0.523L0.046,-0.523L0.046,0.171L0.189,0.171L0.189,-0.088L0.192,-0.088C0.22,-0.029 0.278,0.008 0.354,0.008C0.485,0.008 0.566,-0.093 0.566,-0.262C0.566,-0.431 0.485,-0.532 0.352,-0.532ZM0.304,-0.106C0.234,-0.106 0.188,-0.167 0.188,-0.262C0.188,-0.355 0.234,-0.417 0.304,-0.417C0.375,-0.417 0.42,-0.356 0.42,-0.262C0.42,-0.167 0.375,-0.106 0.304,-0.106Z" style="fill:rgb(35,31,32);fill-rule:nonzero;"/>
                </g>
                <g transform="matrix(150,0,0,150,161.753,923.967)">
                    <path d="M0.156,-0.705L0.068,-0.705L0.068,-0.247C0.068,-0.097 0.173,0.012 0.348,0.012C0.523,0.012 0.628,-0.097 0.628,-0.247L0.628,-0.705L0.54,-0.705L0.54,-0.253C0.54,-0.146 0.47,-0.069 0.348,-0.069C0.226,-0.069 0.156,-0.146 0.156,-0.253L0.156,-0.705Z" style="fill:rgb(35,31,32);fill-rule:nonzero;"/>
                </g>
                <g transform="matrix(150,0,0,150,266.196,923.967)">
                    <path d="M0.046,-0.368C0.046,-0.298 0.09,-0.252 0.18,-0.229L0.269,-0.207C0.326,-0.191 0.347,-0.172 0.347,-0.136C0.347,-0.09 0.305,-0.061 0.236,-0.061C0.167,-0.061 0.127,-0.089 0.118,-0.142L0.033,-0.142C0.042,-0.052 0.119,0.009 0.23,0.009C0.349,0.009 0.433,-0.054 0.433,-0.142C0.433,-0.217 0.396,-0.254 0.293,-0.28L0.214,-0.299C0.157,-0.313 0.13,-0.337 0.13,-0.372C0.13,-0.417 0.171,-0.447 0.233,-0.447C0.295,-0.447 0.335,-0.417 0.341,-0.368L0.422,-0.368C0.418,-0.454 0.341,-0.517 0.236,-0.517C0.124,-0.517 0.046,-0.455 0.046,-0.368Z" style="fill:rgb(35,31,32);fill-rule:nonzero;"/>
                </g>
                <g transform="matrix(150,0,0,150,335.996,923.967)">
                    <path d="M0.06,0L0.145,0L0.145,-0.508L0.06,-0.508L0.06,0ZM0.102,-0.593C0.131,-0.593 0.155,-0.617 0.155,-0.646C0.155,-0.675 0.131,-0.699 0.102,-0.699C0.073,-0.699 0.049,-0.675 0.049,-0.646C0.049,-0.617 0.073,-0.593 0.102,-0.593Z" style="fill:rgb(35,31,32);fill-rule:nonzero;"/>
                </g>
                <g transform="matrix(150,0,0,150,366.611,923.967)">
                    <path d="M0.055,0L0.14,0L0.14,-0.299C0.14,-0.385 0.192,-0.441 0.272,-0.441C0.351,-0.441 0.389,-0.396 0.389,-0.314L0.389,0L0.474,0L0.474,-0.33C0.474,-0.445 0.41,-0.517 0.298,-0.517C0.22,-0.517 0.166,-0.481 0.137,-0.427L0.135,-0.427L0.135,-0.508L0.055,-0.508L0.055,0Z" style="fill:rgb(35,31,32);fill-rule:nonzero;"/>
                </g>
                <g transform="matrix(150,0,0,150,445.64,923.967)">
                    <path d="M0.262,-0.071C0.174,-0.071 0.117,-0.142 0.117,-0.256C0.117,-0.37 0.174,-0.442 0.262,-0.442C0.35,-0.442 0.409,-0.368 0.409,-0.256C0.409,-0.144 0.35,-0.071 0.262,-0.071ZM0.265,0.191C0.405,0.191 0.494,0.111 0.494,-0.01L0.494,-0.508L0.413,-0.508L0.413,-0.422L0.412,-0.422C0.378,-0.481 0.318,-0.517 0.247,-0.517C0.115,-0.517 0.03,-0.415 0.03,-0.256C0.03,-0.098 0.115,0.004 0.245,0.004C0.316,0.004 0.376,-0.032 0.407,-0.087L0.409,-0.087L0.409,-0.007C0.409,0.068 0.356,0.119 0.268,0.119C0.205,0.119 0.154,0.088 0.138,0.042L0.05,0.042C0.064,0.128 0.153,0.191 0.265,0.191Z" style="fill:rgb(35,31,32);fill-rule:nonzero;"/>
                </g>
                <g transform="matrix(150,0,0,150,161.753,1073.97)">
                    <path d="M0.358,0.012C0.514,0.012 0.619,-0.066 0.651,-0.205L0.562,-0.205C0.537,-0.119 0.462,-0.069 0.359,-0.069C0.22,-0.069 0.131,-0.18 0.131,-0.353C0.131,-0.524 0.221,-0.635 0.358,-0.635C0.459,-0.635 0.54,-0.575 0.562,-0.482L0.651,-0.482C0.628,-0.623 0.512,-0.716 0.358,-0.716C0.166,-0.716 0.041,-0.574 0.041,-0.353C0.041,-0.129 0.164,0.012 0.358,0.012Z" style="fill:rgb(35,31,32);fill-rule:nonzero;"/>
                </g>
                <g transform="matrix(150,0,0,150,264.658,1073.97)">
                    <path d="M0.266,0.009C0.406,0.009 0.5,-0.092 0.5,-0.254C0.5,-0.416 0.406,-0.517 0.266,-0.517C0.125,-0.517 0.03,-0.416 0.03,-0.254C0.03,-0.092 0.125,0.009 0.266,0.009ZM0.266,-0.066C0.176,-0.066 0.117,-0.134 0.117,-0.254C0.117,-0.374 0.176,-0.442 0.266,-0.442C0.355,-0.442 0.414,-0.374 0.414,-0.254C0.414,-0.134 0.355,-0.066 0.266,-0.066Z" style="fill:rgb(35,31,32);fill-rule:nonzero;"/>
                </g>
                <g transform="matrix(150,0,0,150,344.272,1073.97)">
                    <path d="M0.055,0L0.14,0L0.14,-0.299C0.14,-0.385 0.192,-0.441 0.272,-0.441C0.351,-0.441 0.389,-0.396 0.389,-0.314L0.389,0L0.474,0L0.474,-0.33C0.474,-0.445 0.41,-0.517 0.298,-0.517C0.22,-0.517 0.166,-0.481 0.137,-0.427L0.135,-0.427L0.135,-0.508L0.055,-0.508L0.055,0Z" style="fill:rgb(35,31,32);fill-rule:nonzero;"/>
                </g>
                <g transform="matrix(150,0,0,150,423.301,1073.97)">
                    <path d="M0.248,0.009C0.321,0.009 0.379,-0.027 0.412,-0.086L0.413,-0.086L0.413,0L0.494,0L0.494,-0.705L0.409,-0.705L0.409,-0.425L0.407,-0.425C0.377,-0.481 0.318,-0.517 0.246,-0.517C0.118,-0.517 0.03,-0.413 0.03,-0.254C0.03,-0.095 0.118,0.009 0.248,0.009ZM0.264,-0.442C0.351,-0.442 0.41,-0.367 0.41,-0.254C0.41,-0.14 0.351,-0.066 0.264,-0.066C0.174,-0.066 0.117,-0.139 0.117,-0.254C0.117,-0.369 0.174,-0.442 0.264,-0.442Z" style="fill:rgb(35,31,32);fill-rule:nonzero;"/>
                </g>
                <g transform="matrix(150,0,0,150,506.357,1073.97)">
                    <path d="M0.06,0L0.145,0L0.145,-0.508L0.06,-0.508L0.06,0ZM0.102,-0.593C0.131,-0.593 0.155,-0.617 0.155,-0.646C0.155,-0.675 0.131,-0.699 0.102,-0.699C0.073,-0.699 0.049,-0.675 0.049,-0.646C0.049,-0.617 0.073,-0.593 0.102,-0.593Z" style="fill:rgb(35,31,32);fill-rule:nonzero;"/>
                </g>
                <g transform="matrix(150,0,0,150,536.973,1073.97)">
                    <path d="M0.083,-0.63L0.083,-0.508L0.007,-0.508L0.007,-0.438L0.083,-0.438L0.083,-0.132C0.083,-0.034 0.119,0.004 0.212,0.004C0.232,0.004 0.255,0.002 0.266,0L0.266,-0.071C0.26,-0.07 0.24,-0.069 0.23,-0.069C0.187,-0.069 0.167,-0.09 0.167,-0.136L0.167,-0.438L0.266,-0.438L0.266,-0.508L0.167,-0.508L0.167,-0.63L0.083,-0.63Z" style="fill:rgb(35,31,32);fill-rule:nonzero;"/>
                </g>
                <g transform="matrix(150,0,0,150,582.163,1073.97)">
                    <path d="M0.06,0L0.145,0L0.145,-0.508L0.06,-0.508L0.06,0ZM0.102,-0.593C0.131,-0.593 0.155,-0.617 0.155,-0.646C0.155,-0.675 0.131,-0.699 0.102,-0.699C0.073,-0.699 0.049,-0.675 0.049,-0.646C0.049,-0.617 0.073,-0.593 0.102,-0.593Z" style="fill:rgb(35,31,32);fill-rule:nonzero;"/>
                </g>
                <g transform="matrix(150,0,0,150,612.778,1073.97)">
                    <path d="M0.266,0.009C0.406,0.009 0.5,-0.092 0.5,-0.254C0.5,-0.416 0.406,-0.517 0.266,-0.517C0.125,-0.517 0.03,-0.416 0.03,-0.254C0.03,-0.092 0.125,0.009 0.266,0.009ZM0.266,-0.066C0.176,-0.066 0.117,-0.134 0.117,-0.254C0.117,-0.374 0.176,-0.442 0.266,-0.442C0.355,-0.442 0.414,-0.374 0.414,-0.254C0.414,-0.134 0.355,-0.066 0.266,-0.066Z" style="fill:rgb(35,31,32);fill-rule:nonzero;"/>
                </g>
                <g transform="matrix(150,0,0,150,692.392,1073.97)">
                    <path d="M0.055,0L0.14,0L0.14,-0.299C0.14,-0.385 0.192,-0.441 0.272,-0.441C0.351,-0.441 0.389,-0.396 0.389,-0.314L0.389,0L0.474,0L0.474,-0.33C0.474,-0.445 0.41,-0.517 0.298,-0.517C0.22,-0.517 0.166,-0.481 0.137,-0.427L0.135,-0.427L0.135,-0.508L0.055,-0.508L0.055,0Z" style="fill:rgb(35,31,32);fill-rule:nonzero;"/>
                </g>
                <g transform="matrix(150,0,0,150,771.421,1073.97)">
                    <path d="M0.223,-0.063C0.162,-0.063 0.121,-0.095 0.121,-0.144C0.121,-0.191 0.16,-0.222 0.229,-0.226L0.364,-0.234L0.364,-0.193C0.364,-0.12 0.303,-0.063 0.223,-0.063ZM0.204,0.009C0.272,0.009 0.336,-0.029 0.367,-0.087L0.369,-0.087L0.369,0L0.449,0L0.449,-0.351C0.449,-0.452 0.374,-0.517 0.255,-0.517C0.135,-0.517 0.06,-0.449 0.054,-0.361L0.136,-0.361C0.146,-0.411 0.188,-0.442 0.253,-0.442C0.323,-0.442 0.364,-0.405 0.364,-0.343L0.364,-0.3L0.219,-0.292C0.102,-0.285 0.035,-0.23 0.035,-0.144C0.035,-0.052 0.103,0.009 0.204,0.009Z" style="fill:rgb(35,31,32);fill-rule:nonzero;"/>
                </g>
                <g transform="matrix(150,0,0,150,846.714,1073.97)">
                    <rect x="0.06" y="-0.705" width="0.085" height="0.705" style="fill:rgb(35,31,32);fill-rule:nonzero;"/>
                </g>
                <g transform="matrix(150,0,0,150,161.753,1223.97)">
                    <path d="M0.156,-0.626L0.321,-0.626C0.412,-0.626 0.466,-0.576 0.466,-0.492C0.466,-0.405 0.415,-0.356 0.325,-0.356L0.156,-0.356L0.156,-0.626ZM0.156,-0.279L0.325,-0.279L0.476,0L0.579,0L0.416,-0.292C0.504,-0.32 0.557,-0.396 0.557,-0.495C0.557,-0.622 0.468,-0.705 0.333,-0.705L0.068,-0.705L0.068,0L0.156,0L0.156,-0.279Z" style="fill:rgb(35,31,32);fill-rule:nonzero;"/>
                </g>
                <g transform="matrix(150,0,0,150,251.621,1223.97)">
                    <path d="M0.223,-0.063C0.162,-0.063 0.121,-0.095 0.121,-0.144C0.121,-0.191 0.16,-0.222 0.229,-0.226L0.364,-0.234L0.364,-0.193C0.364,-0.12 0.303,-0.063 0.223,-0.063ZM0.204,0.009C0.272,0.009 0.336,-0.029 0.367,-0.087L0.369,-0.087L0.369,0L0.449,0L0.449,-0.351C0.449,-0.452 0.374,-0.517 0.255,-0.517C0.135,-0.517 0.06,-0.449 0.054,-0.361L0.136,-0.361C0.146,-0.411 0.188,-0.442 0.253,-0.442C0.323,-0.442 0.364,-0.405 0.364,-0.343L0.364,-0.3L0.219,-0.292C0.102,-0.285 0.035,-0.23 0.035,-0.144C0.035,-0.052 0.103,0.009 0.204,0.009Z" style="fill:rgb(35,31,32);fill-rule:nonzero;"/>
                </g>
                <g transform="matrix(150,0,0,150,326.914,1223.97)">
                    <path d="M0.055,0L0.14,0L0.14,-0.299C0.14,-0.385 0.192,-0.441 0.272,-0.441C0.351,-0.441 0.389,-0.396 0.389,-0.314L0.389,0L0.474,0L0.474,-0.33C0.474,-0.445 0.41,-0.517 0.298,-0.517C0.22,-0.517 0.166,-0.481 0.137,-0.427L0.135,-0.427L0.135,-0.508L0.055,-0.508L0.055,0Z" style="fill:rgb(35,31,32);fill-rule:nonzero;"/>
                </g>
                <g transform="matrix(150,0,0,150,405.942,1223.97)">
                    <path d="M0.248,0.009C0.321,0.009 0.379,-0.027 0.412,-0.086L0.413,-0.086L0.413,0L0.494,0L0.494,-0.705L0.409,-0.705L0.409,-0.425L0.407,-0.425C0.377,-0.481 0.318,-0.517 0.246,-0.517C0.118,-0.517 0.03,-0.413 0.03,-0.254C0.03,-0.095 0.118,0.009 0.248,0.009ZM0.264,-0.442C0.351,-0.442 0.41,-0.367 0.41,-0.254C0.41,-0.14 0.351,-0.066 0.264,-0.066C0.174,-0.066 0.117,-0.139 0.117,-0.254C0.117,-0.369 0.174,-0.442 0.264,-0.442Z" style="fill:rgb(35,31,32);fill-rule:nonzero;"/>
                </g>
                <g transform="matrix(150,0,0,150,488.999,1223.97)">
                    <path d="M0.266,0.009C0.406,0.009 0.5,-0.092 0.5,-0.254C0.5,-0.416 0.406,-0.517 0.266,-0.517C0.125,-0.517 0.03,-0.416 0.03,-0.254C0.03,-0.092 0.125,0.009 0.266,0.009ZM0.266,-0.066C0.176,-0.066 0.117,-0.134 0.117,-0.254C0.117,-0.374 0.176,-0.442 0.266,-0.442C0.355,-0.442 0.414,-0.374 0.414,-0.254C0.414,-0.134 0.355,-0.066 0.266,-0.066Z" style="fill:rgb(35,31,32);fill-rule:nonzero;"/>
                </g>
                <g transform="matrix(150,0,0,150,568.613,1223.97)">
                    <path d="M0.055,0L0.14,0L0.14,-0.318C0.14,-0.389 0.189,-0.441 0.256,-0.441C0.319,-0.441 0.36,-0.401 0.36,-0.34L0.36,0L0.445,0L0.445,-0.323C0.445,-0.392 0.493,-0.441 0.56,-0.441C0.627,-0.441 0.666,-0.4 0.666,-0.331L0.666,0L0.75,0L0.75,-0.351C0.75,-0.451 0.686,-0.517 0.585,-0.517C0.514,-0.517 0.454,-0.48 0.426,-0.42L0.424,-0.42C0.402,-0.481 0.351,-0.517 0.281,-0.517C0.213,-0.517 0.161,-0.48 0.137,-0.427L0.135,-0.427L0.135,-0.508L0.055,-0.508L0.055,0Z" style="fill:rgb(35,31,32);fill-rule:nonzero;"/>
                </g>
                <g transform="matrix(150,0,0,150,719.858,1223.97)">
                    <path d="M0.156,0L0.156,-0.305L0.468,-0.305L0.468,-0.383L0.156,-0.383L0.156,-0.625L0.496,-0.625L0.496,-0.705L0.068,-0.705L0.068,0L0.156,0Z" style="fill:rgb(35,31,32);fill-rule:nonzero;"/>
                </g>
                <g transform="matrix(150,0,0,150,799.033,1223.97)">
                    <path d="M0.06,0L0.145,0L0.145,-0.508L0.06,-0.508L0.06,0ZM0.102,-0.593C0.131,-0.593 0.155,-0.617 0.155,-0.646C0.155,-0.675 0.131,-0.699 0.102,-0.699C0.073,-0.699 0.049,-0.675 0.049,-0.646C0.049,-0.617 0.073,-0.593 0.102,-0.593Z" style="fill:rgb(35,31,32);fill-rule:nonzero;"/>
                </g>
                <g transform="matrix(150,0,0,150,829.648,1223.97)">
                    <path d="M0.259,-0.443C0.339,-0.443 0.392,-0.382 0.394,-0.297L0.118,-0.297C0.124,-0.382 0.179,-0.443 0.259,-0.443ZM0.392,-0.146C0.378,-0.098 0.331,-0.065 0.266,-0.065C0.175,-0.065 0.118,-0.129 0.118,-0.226L0.118,-0.231L0.482,-0.231L0.482,-0.263C0.482,-0.417 0.397,-0.517 0.26,-0.517C0.12,-0.517 0.03,-0.41 0.03,-0.252C0.03,-0.092 0.119,0.009 0.264,0.009C0.375,0.009 0.461,-0.057 0.476,-0.146L0.392,-0.146Z" style="fill:rgb(35,31,32);fill-rule:nonzero;"/>
                </g>
                <g transform="matrix(150,0,0,150,906.479,1223.97)">
                    <rect x="0.06" y="-0.705" width="0.085" height="0.705" style="fill:rgb(35,31,32);fill-rule:nonzero;"/>
                </g>
                <g transform="matrix(150,0,0,150,937.095,1223.97)">
                    <path d="M0.248,0.009C0.321,0.009 0.379,-0.027 0.412,-0.086L0.413,-0.086L0.413,0L0.494,0L0.494,-0.705L0.409,-0.705L0.409,-0.425L0.407,-0.425C0.377,-0.481 0.318,-0.517 0.246,-0.517C0.118,-0.517 0.03,-0.413 0.03,-0.254C0.03,-0.095 0.118,0.009 0.248,0.009ZM0.264,-0.442C0.351,-0.442 0.41,-0.367 0.41,-0.254C0.41,-0.14 0.351,-0.066 0.264,-0.066C0.174,-0.066 0.117,-0.139 0.117,-0.254C0.117,-0.369 0.174,-0.442 0.264,-0.442Z" style="fill:rgb(35,31,32);fill-rule:nonzero;"/>
                </g>
            </g>
        </g>
        <g transform="matrix(1,0,0,1,1493.12,0)">
            <g transform="matrix(1,0,0,1,3744.39,-14.4279)">
                <rect x="72.545" y="159.902" width="1062.38" height="1659.05" style="fill:rgb(2,238,195);"/>
            </g>
            <g transform="matrix(1,0,0,1,3712.93,243.002)">
                <g transform="matrix(150,0,0,150,161.753,423.967)">
                    <path d="M0.37,0.012C0.543,0.012 0.664,-0.087 0.68,-0.245L0.537,-0.245C0.521,-0.161 0.458,-0.11 0.371,-0.11C0.258,-0.11 0.187,-0.203 0.187,-0.353C0.187,-0.501 0.259,-0.595 0.37,-0.595C0.456,-0.595 0.522,-0.538 0.536,-0.452L0.68,-0.452C0.668,-0.609 0.54,-0.717 0.37,-0.717C0.166,-0.717 0.037,-0.58 0.037,-0.353C0.037,-0.125 0.165,0.012 0.37,0.012Z" style="fill:rgb(35,31,32);fill-rule:nonzero;"/>
                </g>
                <g transform="matrix(150,0,0,150,268.613,423.967)">
                    <path d="M0.281,-0.429C0.345,-0.429 0.388,-0.383 0.391,-0.316L0.169,-0.316C0.174,-0.382 0.219,-0.429 0.281,-0.429ZM0.393,-0.16C0.38,-0.12 0.34,-0.094 0.288,-0.094C0.215,-0.094 0.167,-0.146 0.167,-0.22L0.167,-0.229L0.528,-0.229L0.528,-0.272C0.528,-0.432 0.432,-0.535 0.28,-0.535C0.125,-0.535 0.027,-0.426 0.027,-0.259C0.027,-0.092 0.124,0.011 0.285,0.011C0.415,0.011 0.508,-0.058 0.524,-0.16L0.393,-0.16Z" style="fill:rgb(35,31,32);fill-rule:nonzero;"/>
                </g>
                <g transform="matrix(150,0,0,150,351.89,423.967)">
                    <rect x="0.05" y="-0.705" width="0.143" height="0.705" style="fill:rgb(35,31,32);fill-rule:nonzero;"/>
                </g>
                <g transform="matrix(150,0,0,150,388.218,423.967)">
                    <rect x="0.05" y="-0.705" width="0.143" height="0.705" style="fill:rgb(35,31,32);fill-rule:nonzero;"/>
                </g>
                <g transform="matrix(150,0,0,150,454.209,423.967)">
                    <path d="M0.206,0L0.206,-0.277L0.493,-0.277L0.493,-0.394L0.206,-0.394L0.206,-0.583L0.52,-0.583L0.52,-0.705L0.059,-0.705L0.059,0L0.206,0Z" style="fill:rgb(35,31,32);fill-rule:nonzero;"/>
                </g>
                <g transform="matrix(150,0,0,150,534.263,423.967)">
                    <path d="M0.281,-0.429C0.345,-0.429 0.388,-0.383 0.391,-0.316L0.169,-0.316C0.174,-0.382 0.219,-0.429 0.281,-0.429ZM0.393,-0.16C0.38,-0.12 0.34,-0.094 0.288,-0.094C0.215,-0.094 0.167,-0.146 0.167,-0.22L0.167,-0.229L0.528,-0.229L0.528,-0.272C0.528,-0.432 0.432,-0.535 0.28,-0.535C0.125,-0.535 0.027,-0.426 0.027,-0.259C0.027,-0.092 0.124,0.011 0.285,0.011C0.415,0.011 0.508,-0.058 0.524,-0.16L0.393,-0.16Z" style="fill:rgb(35,31,32);fill-rule:nonzero;"/>
                </g>
                <g transform="matrix(150,0,0,150,617.539,423.967)">
                    <path d="M0.249,-0.095C0.2,-0.095 0.168,-0.119 0.168,-0.158C0.168,-0.195 0.198,-0.219 0.251,-0.223L0.362,-0.23L0.362,-0.192C0.362,-0.135 0.311,-0.095 0.249,-0.095ZM0.202,0.008C0.267,0.008 0.332,-0.024 0.361,-0.08L0.364,-0.08L0.364,0L0.502,0L0.502,-0.36C0.502,-0.465 0.415,-0.535 0.28,-0.535C0.142,-0.535 0.055,-0.465 0.05,-0.363L0.18,-0.363C0.187,-0.402 0.221,-0.428 0.274,-0.428C0.328,-0.428 0.362,-0.4 0.362,-0.351L0.362,-0.316L0.23,-0.309C0.1,-0.301 0.026,-0.246 0.026,-0.15C0.026,-0.056 0.102,0.008 0.202,0.008Z" style="fill:rgb(35,31,32);fill-rule:nonzero;"/>
                </g>
                <g transform="matrix(150,0,0,150,699.643,423.967)">
                    <path d="M0.084,-0.644L0.084,-0.523L0.011,-0.523L0.011,-0.416L0.084,-0.416L0.084,-0.141C0.084,-0.039 0.132,0.002 0.255,0.002C0.284,0.002 0.309,0 0.323,-0.004L0.323,-0.109C0.314,-0.107 0.301,-0.106 0.289,-0.106C0.247,-0.106 0.227,-0.125 0.227,-0.166L0.227,-0.416L0.324,-0.416L0.324,-0.523L0.227,-0.523L0.227,-0.644L0.084,-0.644Z" style="fill:rgb(35,31,32);fill-rule:nonzero;"/>
                </g>
                <g transform="matrix(150,0,0,150,752.964,423.967)">
                    <path d="M0.53,-0.523L0.387,-0.523L0.387,-0.224C0.387,-0.154 0.348,-0.109 0.284,-0.109C0.221,-0.109 0.187,-0.146 0.187,-0.216L0.187,-0.523L0.044,-0.523L0.044,-0.186C0.044,-0.064 0.119,0.01 0.232,0.01C0.312,0.01 0.363,-0.028 0.389,-0.094L0.392,-0.094L0.392,0L0.53,0L0.53,-0.523Z" style="fill:rgb(35,31,32);fill-rule:nonzero;"/>
                </g>
                <g transform="matrix(150,0,0,150,839.39,423.967)">
                    <path d="M0.046,0L0.189,0L0.189,-0.292C0.189,-0.366 0.23,-0.409 0.3,-0.409C0.321,-0.409 0.34,-0.406 0.352,-0.401L0.352,-0.526C0.342,-0.529 0.328,-0.532 0.312,-0.532C0.25,-0.532 0.206,-0.496 0.187,-0.429L0.184,-0.429L0.184,-0.523L0.046,-0.523L0.046,0Z" style="fill:rgb(35,31,32);fill-rule:nonzero;"/>
                </g>
                <g transform="matrix(150,0,0,150,891.392,423.967)">
                    <path d="M0.281,-0.429C0.345,-0.429 0.388,-0.383 0.391,-0.316L0.169,-0.316C0.174,-0.382 0.219,-0.429 0.281,-0.429ZM0.393,-0.16C0.38,-0.12 0.34,-0.094 0.288,-0.094C0.215,-0.094 0.167,-0.146 0.167,-0.22L0.167,-0.229L0.528,-0.229L0.528,-0.272C0.528,-0.432 0.432,-0.535 0.28,-0.535C0.125,-0.535 0.027,-0.426 0.027,-0.259C0.027,-0.092 0.124,0.011 0.285,0.011C0.415,0.011 0.508,-0.058 0.524,-0.16L0.393,-0.16Z" style="fill:rgb(35,31,32);fill-rule:nonzero;"/>
                </g>
                <g transform="matrix(150,0,0,150,161.753,573.967)">
                    <path d="M0.525,-0.122L0.206,-0.122L0.206,-0.3L0.507,-0.3L0.507,-0.413L0.206,-0.413L0.206,-0.583L0.525,-0.583L0.525,-0.705L0.059,-0.705L0.059,0L0.525,0L0.525,-0.122Z" style="fill:rgb(35,31,32);fill-rule:nonzero;"/>
                </g>
                <g transform="matrix(150,0,0,150,247.739,573.967)">
                    <path d="M0.262,-0.182L0.361,0L0.516,0L0.354,-0.265L0.518,-0.523L0.362,-0.523L0.27,-0.347L0.267,-0.347L0.172,-0.523L0.012,-0.523L0.175,-0.261L0.011,0L0.161,0L0.259,-0.182L0.262,-0.182Z" style="fill:rgb(35,31,32);fill-rule:nonzero;"/>
                </g>
                <g transform="matrix(150,0,0,150,326.914,573.967)">
                    <path d="M0.084,-0.644L0.084,-0.523L0.011,-0.523L0.011,-0.416L0.084,-0.416L0.084,-0.141C0.084,-0.039 0.132,0.002 0.255,0.002C0.284,0.002 0.309,0 0.323,-0.004L0.323,-0.109C0.314,-0.107 0.301,-0.106 0.289,-0.106C0.247,-0.106 0.227,-0.125 0.227,-0.166L0.227,-0.416L0.324,-0.416L0.324,-0.523L0.227,-0.523L0.227,-0.644L0.084,-0.644Z" style="fill:rgb(35,31,32);fill-rule:nonzero;"/>
                </g>
                <g transform="matrix(150,0,0,150,380.234,573.967)">
                    <path d="M0.046,0L0.189,0L0.189,-0.292C0.189,-0.366 0.23,-0.409 0.3,-0.409C0.321,-0.409 0.34,-0.406 0.352,-0.401L0.352,-0.526C0.342,-0.529 0.328,-0.532 0.312,-0.532C0.25,-0.532 0.206,-0.496 0.187,-0.429L0.184,-0.429L0.184,-0.523L0.046,-0.523L0.046,0Z" style="fill:rgb(35,31,32);fill-rule:nonzero;"/>
                </g>
                <g transform="matrix(150,0,0,150,432.969,573.967)">
                    <path d="M0.249,-0.095C0.2,-0.095 0.168,-0.119 0.168,-0.158C0.168,-0.195 0.198,-0.219 0.251,-0.223L0.362,-0.23L0.362,-0.192C0.362,-0.135 0.311,-0.095 0.249,-0.095ZM0.202,0.008C0.267,0.008 0.332,-0.024 0.361,-0.08L0.364,-0.08L0.364,0L0.502,0L0.502,-0.36C0.502,-0.465 0.415,-0.535 0.28,-0.535C0.142,-0.535 0.055,-0.465 0.05,-0.363L0.18,-0.363C0.187,-0.402 0.221,-0.428 0.274,-0.428C0.328,-0.428 0.362,-0.4 0.362,-0.351L0.362,-0.316L0.23,-0.309C0.1,-0.301 0.026,-0.246 0.026,-0.15C0.026,-0.056 0.102,0.008 0.202,0.008Z" style="fill:rgb(35,31,32);fill-rule:nonzero;"/>
                </g>
                <g transform="matrix(150,0,0,150,515.073,573.967)">
                    <path d="M0.522,-0.329C0.516,-0.447 0.426,-0.535 0.284,-0.535C0.127,-0.535 0.027,-0.43 0.027,-0.262C0.027,-0.091 0.127,0.011 0.285,0.011C0.423,0.011 0.515,-0.068 0.522,-0.192L0.39,-0.192C0.381,-0.135 0.344,-0.101 0.287,-0.101C0.216,-0.101 0.172,-0.159 0.172,-0.262C0.172,-0.363 0.216,-0.423 0.286,-0.423C0.345,-0.423 0.381,-0.384 0.39,-0.329L0.522,-0.329Z" style="fill:rgb(35,31,32);fill-rule:nonzero;"/>
                </g>
                <g transform="matrix(150,0,0,150,596.811,573.967)">
                    <path d="M0.084,-0.644L0.084,-0.523L0.011,-0.523L0.011,-0.416L0.084,-0.416L0.084,-0.141C0.084,-0.039 0.132,0.002 0.255,0.002C0.284,0.002 0.309,0 0.323,-0.004L0.323,-0.109C0.314,-0.107 0.301,-0.106 0.289,-0.106C0.247,-0.106 0.227,-0.125 0.227,-0.166L0.227,-0.416L0.324,-0.416L0.324,-0.523L0.227,-0.523L0.227,-0.644L0.084,-0.644Z" style="fill:rgb(35,31,32);fill-rule:nonzero;"/>
                </g>
                <g transform="matrix(150,0,0,150,650.132,573.967)">
                    <path d="M0.049,0L0.191,0L0.191,-0.523L0.049,-0.523L0.049,0ZM0.12,-0.581C0.163,-0.581 0.196,-0.614 0.196,-0.655C0.196,-0.696 0.163,-0.729 0.12,-0.729C0.077,-0.729 0.044,-0.696 0.044,-0.655C0.044,-0.614 0.077,-0.581 0.12,-0.581Z" style="fill:rgb(35,31,32);fill-rule:nonzero;"/>
                </g>
                <g transform="matrix(150,0,0,150,686.094,573.967)">
                    <path d="M0.287,0.011C0.445,0.011 0.546,-0.09 0.546,-0.262C0.546,-0.432 0.443,-0.535 0.287,-0.535C0.13,-0.535 0.027,-0.432 0.027,-0.262C0.027,-0.09 0.128,0.011 0.287,0.011ZM0.287,-0.098C0.216,-0.098 0.172,-0.157 0.172,-0.262C0.172,-0.366 0.217,-0.426 0.287,-0.426C0.356,-0.426 0.401,-0.366 0.401,-0.262C0.401,-0.157 0.356,-0.098 0.287,-0.098Z" style="fill:rgb(35,31,32);fill-rule:nonzero;"/>
                </g>
                <g transform="matrix(150,0,0,150,772.007,573.967)">
                    <path d="M0.046,0L0.189,0L0.189,-0.3C0.189,-0.368 0.229,-0.415 0.293,-0.415C0.357,-0.415 0.39,-0.376 0.39,-0.308L0.39,0L0.532,0L0.532,-0.337C0.532,-0.46 0.467,-0.533 0.351,-0.533C0.27,-0.533 0.215,-0.495 0.187,-0.43L0.184,-0.43L0.184,-0.523L0.046,-0.523L0.046,0Z" style="fill:rgb(35,31,32);fill-rule:nonzero;"/>
                </g>
                <g transform="matrix(150,0,0,150,161.753,773.967)">
                    <path d="M0.156,-0.705L0.068,-0.705L0.068,-0.247C0.068,-0.097 0.173,0.012 0.348,0.012C0.523,0.012 0.628,-0.097 0.628,-0.247L0.628,-0.705L0.54,-0.705L0.54,-0.253C0.54,-0.146 0.47,-0.069 0.348,-0.069C0.226,-0.069 0.156,-0.146 0.156,-0.253L0.156,-0.705Z" style="fill:rgb(35,31,32);fill-rule:nonzero;"/>
                </g>
                <g transform="matrix(150,0,0,150,266.196,773.967)">
                    <path d="M0.046,-0.368C0.046,-0.298 0.09,-0.252 0.18,-0.229L0.269,-0.207C0.326,-0.191 0.347,-0.172 0.347,-0.136C0.347,-0.09 0.305,-0.061 0.236,-0.061C0.167,-0.061 0.127,-0.089 0.118,-0.142L0.033,-0.142C0.042,-0.052 0.119,0.009 0.23,0.009C0.349,0.009 0.433,-0.054 0.433,-0.142C0.433,-0.217 0.396,-0.254 0.293,-0.28L0.214,-0.299C0.157,-0.313 0.13,-0.337 0.13,-0.372C0.13,-0.417 0.171,-0.447 0.233,-0.447C0.295,-0.447 0.335,-0.417 0.341,-0.368L0.422,-0.368C0.418,-0.454 0.341,-0.517 0.236,-0.517C0.124,-0.517 0.046,-0.455 0.046,-0.368Z" style="fill:rgb(35,31,32);fill-rule:nonzero;"/>
                </g>
                <g transform="matrix(150,0,0,150,335.996,773.967)">
                    <path d="M0.06,0L0.145,0L0.145,-0.508L0.06,-0.508L0.06,0ZM0.102,-0.593C0.131,-0.593 0.155,-0.617 0.155,-0.646C0.155,-0.675 0.131,-0.699 0.102,-0.699C0.073,-0.699 0.049,-0.675 0.049,-0.646C0.049,-0.617 0.073,-0.593 0.102,-0.593Z" style="fill:rgb(35,31,32);fill-rule:nonzero;"/>
                </g>
                <g transform="matrix(150,0,0,150,366.611,773.967)">
                    <path d="M0.055,0L0.14,0L0.14,-0.299C0.14,-0.385 0.192,-0.441 0.272,-0.441C0.351,-0.441 0.389,-0.396 0.389,-0.314L0.389,0L0.474,0L0.474,-0.33C0.474,-0.445 0.41,-0.517 0.298,-0.517C0.22,-0.517 0.166,-0.481 0.137,-0.427L0.135,-0.427L0.135,-0.508L0.055,-0.508L0.055,0Z" style="fill:rgb(35,31,32);fill-rule:nonzero;"/>
                </g>
                <g transform="matrix(150,0,0,150,445.64,773.967)">
                    <path d="M0.262,-0.071C0.174,-0.071 0.117,-0.142 0.117,-0.256C0.117,-0.37 0.174,-0.442 0.262,-0.442C0.35,-0.442 0.409,-0.368 0.409,-0.256C0.409,-0.144 0.35,-0.071 0.262,-0.071ZM0.265,0.191C0.405,0.191 0.494,0.111 0.494,-0.01L0.494,-0.508L0.413,-0.508L0.413,-0.422L0.412,-0.422C0.378,-0.481 0.318,-0.517 0.247,-0.517C0.115,-0.517 0.03,-0.415 0.03,-0.256C0.03,-0.098 0.115,0.004 0.245,0.004C0.316,0.004 0.376,-0.032 0.407,-0.087L0.409,-0.087L0.409,-0.007C0.409,0.068 0.356,0.119 0.268,0.119C0.205,0.119 0.154,0.088 0.138,0.042L0.05,0.042C0.064,0.128 0.153,0.191 0.265,0.191Z" style="fill:rgb(35,31,32);fill-rule:nonzero;"/>
                </g>
                <g transform="matrix(150,0,0,150,161.753,923.967)">
                    <path d="M0.526,0L0.619,0L0.359,-0.705L0.272,-0.705L0.012,0L0.104,0L0.175,-0.202L0.456,-0.202L0.526,0ZM0.314,-0.598L0.317,-0.598L0.43,-0.276L0.201,-0.276L0.314,-0.598Z" style="fill:rgb(35,31,32);fill-rule:nonzero;"/>
                </g>
                <g transform="matrix(150,0,0,150,254.917,923.967)">
                    <path d="M0.248,0.009C0.321,0.009 0.379,-0.027 0.412,-0.086L0.413,-0.086L0.413,0L0.494,0L0.494,-0.705L0.409,-0.705L0.409,-0.425L0.407,-0.425C0.377,-0.481 0.318,-0.517 0.246,-0.517C0.118,-0.517 0.03,-0.413 0.03,-0.254C0.03,-0.095 0.118,0.009 0.248,0.009ZM0.264,-0.442C0.351,-0.442 0.41,-0.367 0.41,-0.254C0.41,-0.14 0.351,-0.066 0.264,-0.066C0.174,-0.066 0.117,-0.139 0.117,-0.254C0.117,-0.369 0.174,-0.442 0.264,-0.442Z" style="fill:rgb(35,31,32);fill-rule:nonzero;"/>
                </g>
                <g transform="matrix(150,0,0,150,337.974,923.967)">
                    <path d="M0.145,-0.508L0.06,-0.508L0.06,0.026C0.06,0.083 0.04,0.104 -0.016,0.104L-0.029,0.104L-0.029,0.174C-0.028,0.175 -0.014,0.175 -0.013,0.175C0.096,0.175 0.145,0.128 0.145,0.025L0.145,-0.508ZM0.102,-0.593C0.131,-0.593 0.155,-0.617 0.155,-0.646C0.155,-0.675 0.131,-0.699 0.102,-0.699C0.073,-0.699 0.049,-0.675 0.049,-0.646C0.049,-0.617 0.073,-0.593 0.102,-0.593Z" style="fill:rgb(35,31,32);fill-rule:nonzero;"/>
                </g>
                <g transform="matrix(150,0,0,150,368.589,923.967)">
                    <path d="M0.223,-0.063C0.162,-0.063 0.121,-0.095 0.121,-0.144C0.121,-0.191 0.16,-0.222 0.229,-0.226L0.364,-0.234L0.364,-0.193C0.364,-0.12 0.303,-0.063 0.223,-0.063ZM0.204,0.009C0.272,0.009 0.336,-0.029 0.367,-0.087L0.369,-0.087L0.369,0L0.449,0L0.449,-0.351C0.449,-0.452 0.374,-0.517 0.255,-0.517C0.135,-0.517 0.06,-0.449 0.054,-0.361L0.136,-0.361C0.146,-0.411 0.188,-0.442 0.253,-0.442C0.323,-0.442 0.364,-0.405 0.364,-0.343L0.364,-0.3L0.219,-0.292C0.102,-0.285 0.035,-0.23 0.035,-0.144C0.035,-0.052 0.103,0.009 0.204,0.009Z" style="fill:rgb(35,31,32);fill-rule:nonzero;"/>
                </g>
                <g transform="matrix(150,0,0,150,443.882,923.967)">
                    <path d="M0.477,-0.341C0.466,-0.433 0.391,-0.517 0.264,-0.517C0.124,-0.517 0.03,-0.414 0.03,-0.254C0.03,-0.09 0.124,0.009 0.265,0.009C0.38,0.009 0.465,-0.063 0.478,-0.164L0.395,-0.164C0.38,-0.103 0.334,-0.066 0.265,-0.066C0.177,-0.066 0.117,-0.136 0.117,-0.254C0.117,-0.369 0.176,-0.442 0.264,-0.442C0.339,-0.442 0.382,-0.396 0.394,-0.341L0.477,-0.341Z" style="fill:rgb(35,31,32);fill-rule:nonzero;"/>
                </g>
                <g transform="matrix(150,0,0,150,519.028,923.967)">
                    <path d="M0.259,-0.443C0.339,-0.443 0.392,-0.382 0.394,-0.297L0.118,-0.297C0.124,-0.382 0.179,-0.443 0.259,-0.443ZM0.392,-0.146C0.378,-0.098 0.331,-0.065 0.266,-0.065C0.175,-0.065 0.118,-0.129 0.118,-0.226L0.118,-0.231L0.482,-0.231L0.482,-0.263C0.482,-0.417 0.397,-0.517 0.26,-0.517C0.12,-0.517 0.03,-0.41 0.03,-0.252C0.03,-0.092 0.119,0.009 0.264,0.009C0.375,0.009 0.461,-0.057 0.476,-0.146L0.392,-0.146Z" style="fill:rgb(35,31,32);fill-rule:nonzero;"/>
                </g>
                <g transform="matrix(150,0,0,150,595.859,923.967)">
                    <path d="M0.055,0L0.14,0L0.14,-0.299C0.14,-0.385 0.192,-0.441 0.272,-0.441C0.351,-0.441 0.389,-0.396 0.389,-0.314L0.389,0L0.474,0L0.474,-0.33C0.474,-0.445 0.41,-0.517 0.298,-0.517C0.22,-0.517 0.166,-0.481 0.137,-0.427L0.135,-0.427L0.135,-0.508L0.055,-0.508L0.055,0Z" style="fill:rgb(35,31,32);fill-rule:nonzero;"/>
                </g>
                <g transform="matrix(150,0,0,150,674.888,923.967)">
                    <path d="M0.477,-0.341C0.466,-0.433 0.391,-0.517 0.264,-0.517C0.124,-0.517 0.03,-0.414 0.03,-0.254C0.03,-0.09 0.124,0.009 0.265,0.009C0.38,0.009 0.465,-0.063 0.478,-0.164L0.395,-0.164C0.38,-0.103 0.334,-0.066 0.265,-0.066C0.177,-0.066 0.117,-0.136 0.117,-0.254C0.117,-0.369 0.176,-0.442 0.264,-0.442C0.339,-0.442 0.382,-0.396 0.394,-0.341L0.477,-0.341Z" style="fill:rgb(35,31,32);fill-rule:nonzero;"/>
                </g>
                <g transform="matrix(150,0,0,150,750.034,923.967)">
                    <path d="M0.097,0.19C0.189,0.19 0.231,0.154 0.274,0.036L0.474,-0.508L0.385,-0.508L0.244,-0.085L0.243,-0.085L0.102,-0.508L0.011,-0.508L0.199,0L0.187,0.036C0.167,0.095 0.141,0.118 0.094,0.118C0.083,0.118 0.07,0.118 0.061,0.116L0.061,0.187C0.07,0.189 0.087,0.19 0.097,0.19Z" style="fill:rgb(35,31,32);fill-rule:nonzero;"/>
                </g>
                <g transform="matrix(150,0,0,150,161.753,1073.97)">
                    <path d="M0.663,-0.292L0.663,-0.358L0.376,-0.358L0.376,-0.281L0.575,-0.281L0.575,-0.269C0.575,-0.15 0.489,-0.069 0.364,-0.069C0.22,-0.069 0.131,-0.179 0.131,-0.356C0.131,-0.531 0.219,-0.635 0.364,-0.635C0.463,-0.635 0.537,-0.581 0.566,-0.486L0.658,-0.486C0.632,-0.626 0.516,-0.716 0.364,-0.716C0.167,-0.716 0.041,-0.576 0.041,-0.356C0.041,-0.132 0.167,0.012 0.364,0.012C0.552,0.012 0.663,-0.101 0.663,-0.292Z" style="fill:rgb(35,31,32);fill-rule:nonzero;"/>
                </g>
                <g transform="matrix(150,0,0,150,267.734,1073.97)">
                    <path d="M0.055,0L0.14,0L0.14,-0.316C0.14,-0.388 0.183,-0.436 0.249,-0.436C0.27,-0.436 0.288,-0.433 0.294,-0.431L0.294,-0.513C0.288,-0.514 0.275,-0.517 0.26,-0.517C0.201,-0.517 0.154,-0.481 0.137,-0.425L0.135,-0.425L0.135,-0.508L0.055,-0.508L0.055,0Z" style="fill:rgb(35,31,32);fill-rule:nonzero;"/>
                </g>
                <g transform="matrix(150,0,0,150,312.485,1073.97)">
                    <path d="M0.223,-0.063C0.162,-0.063 0.121,-0.095 0.121,-0.144C0.121,-0.191 0.16,-0.222 0.229,-0.226L0.364,-0.234L0.364,-0.193C0.364,-0.12 0.303,-0.063 0.223,-0.063ZM0.204,0.009C0.272,0.009 0.336,-0.029 0.367,-0.087L0.369,-0.087L0.369,0L0.449,0L0.449,-0.351C0.449,-0.452 0.374,-0.517 0.255,-0.517C0.135,-0.517 0.06,-0.449 0.054,-0.361L0.136,-0.361C0.146,-0.411 0.188,-0.442 0.253,-0.442C0.323,-0.442 0.364,-0.405 0.364,-0.343L0.364,-0.3L0.219,-0.292C0.102,-0.285 0.035,-0.23 0.035,-0.144C0.035,-0.052 0.103,0.009 0.204,0.009Z" style="fill:rgb(35,31,32);fill-rule:nonzero;"/>
                </g>
                <g transform="matrix(150,0,0,150,387.778,1073.97)">
                    <path d="M0.302,-0.517C0.228,-0.517 0.169,-0.479 0.138,-0.422L0.136,-0.422L0.136,-0.508L0.055,-0.508L0.055,0.169L0.14,0.169L0.14,-0.083L0.142,-0.083C0.172,-0.027 0.231,0.009 0.304,0.009C0.432,0.009 0.519,-0.095 0.519,-0.254C0.519,-0.413 0.431,-0.517 0.302,-0.517ZM0.285,-0.066C0.198,-0.066 0.14,-0.141 0.14,-0.254C0.14,-0.367 0.198,-0.442 0.285,-0.442C0.375,-0.442 0.432,-0.369 0.432,-0.254C0.432,-0.139 0.375,-0.066 0.285,-0.066Z" style="fill:rgb(35,31,32);fill-rule:nonzero;"/>
                </g>
                <g transform="matrix(150,0,0,150,470.176,1073.97)">
                    <path d="M0.06,0L0.145,0L0.145,-0.296C0.145,-0.384 0.197,-0.441 0.281,-0.441C0.361,-0.441 0.401,-0.393 0.401,-0.313L0.401,0L0.486,0L0.486,-0.328C0.486,-0.441 0.419,-0.517 0.308,-0.517C0.23,-0.517 0.175,-0.483 0.146,-0.427L0.145,-0.427L0.145,-0.705L0.06,-0.705L0.06,0Z" style="fill:rgb(35,31,32);fill-rule:nonzero;"/>
                </g>
            </g>
        </g>
        <g transform="matrix(1,0,0,1.61457,1350,-444.177)">
            <path d="M1148.05,893.774L1148.05,864.188L1283.78,864.188L1283.78,836.715L1352.02,878.981L1283.78,921.247L1283.78,893.774L1148.05,893.774Z" style="fill:rgb(237,81,183);"/>
        </g>
        <g transform="matrix(1,0,0,1.61457,2649.97,-444.177)">
            <path d="M1148.05,893.774L1148.05,864.188L1283.78,864.188L1283.78,836.715L1352.02,878.981L1283.78,921.247L1283.78,893.774L1148.05,893.774Z" style="fill:rgb(237,81,183);"/>
        </g>
        <g transform="matrix(1,0,0,1.61457,3958.04,-444.177)">
            <path d="M1148.05,893.774L1148.05,864.188L1283.78,864.188L1283.78,836.715L1352.02,878.981L1283.78,921.247L1283.78,893.774L1148.05,893.774Z" style="fill:rgb(237,81,183);"/>
        </g>
    </g>
</svg>
