<?xml version="1.0" encoding="UTF-8" standalone="no"?>
<!DOCTYPE svg PUBLIC "-//W3C//DTD SVG 1.1//EN" "http://www.w3.org/Graphics/SVG/1.1/DTD/svg11.dtd">
<svg width="100%" height="100%" viewBox="0 0 1008 468" version="1.1" xmlns="http://www.w3.org/2000/svg" xmlns:xlink="http://www.w3.org/1999/xlink" xml:space="preserve" xmlns:serif="http://www.serif.com/" style="fill-rule:evenodd;clip-rule:evenodd;stroke-linejoin:round;stroke-miterlimit:2;">
    <g transform="matrix(0.24,0,0,0.24,0,0)">
        <g transform="matrix(1,0,0,1,-344.033,0)">
            <g transform="matrix(1,0,0,1,313.531,-14.4279)">
                <rect x="72.545" y="159.902" width="1062.38" height="1659.05" style="fill:rgb(183,149,249);"/>
            </g>
            <g transform="matrix(1,0,0,1,282.069,243.002)">
                <g transform="matrix(150,0,0,150,161.753,423.967)">
                    <path d="M0.032,-0.201C0.037,-0.068 0.145,0.012 0.314,0.012C0.489,0.012 0.6,-0.074 0.6,-0.211C0.6,-0.318 0.538,-0.379 0.397,-0.409L0.312,-0.427C0.23,-0.446 0.196,-0.47 0.196,-0.514C0.196,-0.566 0.245,-0.601 0.318,-0.601C0.392,-0.601 0.444,-0.564 0.449,-0.505L0.587,-0.505C0.584,-0.632 0.481,-0.717 0.317,-0.717C0.16,-0.717 0.048,-0.631 0.048,-0.501C0.048,-0.398 0.112,-0.332 0.242,-0.304L0.333,-0.284C0.418,-0.265 0.452,-0.24 0.452,-0.194C0.452,-0.142 0.398,-0.104 0.32,-0.104C0.242,-0.104 0.181,-0.143 0.174,-0.201L0.032,-0.201Z" style="fill:rgb(35,31,32);fill-rule:nonzero;"/>
                </g>
                <g transform="matrix(150,0,0,150,256.455,423.967)">
                    <path d="M0.287,0.011C0.445,0.011 0.546,-0.09 0.546,-0.262C0.546,-0.432 0.443,-0.535 0.287,-0.535C0.13,-0.535 0.027,-0.432 0.027,-0.262C0.027,-0.09 0.128,0.011 0.287,0.011ZM0.287,-0.098C0.216,-0.098 0.172,-0.157 0.172,-0.262C0.172,-0.366 0.217,-0.426 0.287,-0.426C0.356,-0.426 0.401,-0.366 0.401,-0.262C0.401,-0.157 0.356,-0.098 0.287,-0.098Z" style="fill:rgb(35,31,32);fill-rule:nonzero;"/>
                </g>
                <g transform="matrix(150,0,0,150,342.368,423.967)">
                    <path d="M0.53,-0.523L0.387,-0.523L0.387,-0.224C0.387,-0.154 0.348,-0.109 0.284,-0.109C0.221,-0.109 0.187,-0.146 0.187,-0.216L0.187,-0.523L0.044,-0.523L0.044,-0.186C0.044,-0.064 0.119,0.01 0.232,0.01C0.312,0.01 0.363,-0.028 0.389,-0.094L0.392,-0.094L0.392,0L0.53,0L0.53,-0.523Z" style="fill:rgb(35,31,32);fill-rule:nonzero;"/>
                </g>
                <g transform="matrix(150,0,0,150,428.794,423.967)">
                    <path d="M0.046,0L0.189,0L0.189,-0.292C0.189,-0.366 0.23,-0.409 0.3,-0.409C0.321,-0.409 0.34,-0.406 0.352,-0.401L0.352,-0.526C0.342,-0.529 0.328,-0.532 0.312,-0.532C0.25,-0.532 0.206,-0.496 0.187,-0.429L0.184,-0.429L0.184,-0.523L0.046,-0.523L0.046,0Z" style="fill:rgb(35,31,32);fill-rule:nonzero;"/>
                </g>
                <g transform="matrix(150,0,0,150,480.796,423.967)">
                    <path d="M0.522,-0.329C0.516,-0.447 0.426,-0.535 0.284,-0.535C0.127,-0.535 0.027,-0.43 0.027,-0.262C0.027,-0.091 0.127,0.011 0.285,0.011C0.423,0.011 0.515,-0.068 0.522,-0.192L0.39,-0.192C0.381,-0.135 0.344,-0.101 0.287,-0.101C0.216,-0.101 0.172,-0.159 0.172,-0.262C0.172,-0.363 0.216,-0.423 0.286,-0.423C0.345,-0.423 0.381,-0.384 0.39,-0.329L0.522,-0.329Z" style="fill:rgb(35,31,32);fill-rule:nonzero;"/>
                </g>
                <g transform="matrix(150,0,0,150,562.534,423.967)">
                    <path d="M0.281,-0.429C0.345,-0.429 0.388,-0.383 0.391,-0.316L0.169,-0.316C0.174,-0.382 0.219,-0.429 0.281,-0.429ZM0.393,-0.16C0.38,-0.12 0.34,-0.094 0.288,-0.094C0.215,-0.094 0.167,-0.146 0.167,-0.22L0.167,-0.229L0.528,-0.229L0.528,-0.272C0.528,-0.432 0.432,-0.535 0.28,-0.535C0.125,-0.535 0.027,-0.426 0.027,-0.259C0.027,-0.092 0.124,0.011 0.285,0.011C0.415,0.011 0.508,-0.058 0.524,-0.16L0.393,-0.16Z" style="fill:rgb(35,31,32);fill-rule:nonzero;"/>
                </g>
                <g transform="matrix(150,0,0,150,675.474,423.967)">
                    <path d="M0.37,0.012C0.543,0.012 0.664,-0.087 0.68,-0.245L0.537,-0.245C0.521,-0.161 0.458,-0.11 0.371,-0.11C0.258,-0.11 0.187,-0.203 0.187,-0.353C0.187,-0.501 0.259,-0.595 0.37,-0.595C0.456,-0.595 0.522,-0.538 0.536,-0.452L0.68,-0.452C0.668,-0.609 0.54,-0.717 0.37,-0.717C0.166,-0.717 0.037,-0.58 0.037,-0.353C0.037,-0.125 0.165,0.012 0.37,0.012Z" style="fill:rgb(35,31,32);fill-rule:nonzero;"/>
                </g>
                <g transform="matrix(150,0,0,150,782.334,423.967)">
                    <path d="M0.287,0.011C0.445,0.011 0.546,-0.09 0.546,-0.262C0.546,-0.432 0.443,-0.535 0.287,-0.535C0.13,-0.535 0.027,-0.432 0.027,-0.262C0.027,-0.09 0.128,0.011 0.287,0.011ZM0.287,-0.098C0.216,-0.098 0.172,-0.157 0.172,-0.262C0.172,-0.366 0.217,-0.426 0.287,-0.426C0.356,-0.426 0.401,-0.366 0.401,-0.262C0.401,-0.157 0.356,-0.098 0.287,-0.098Z" style="fill:rgb(35,31,32);fill-rule:nonzero;"/>
                </g>
                <g transform="matrix(150,0,0,150,868.247,423.967)">
                    <path d="M0.241,0.008C0.318,0.008 0.378,-0.032 0.404,-0.09L0.406,-0.09L0.406,0L0.547,0L0.547,-0.705L0.404,-0.705L0.404,-0.434L0.401,-0.434C0.376,-0.492 0.317,-0.532 0.242,-0.532C0.11,-0.532 0.027,-0.429 0.027,-0.263C0.027,-0.095 0.11,0.008 0.241,0.008ZM0.289,-0.417C0.36,-0.417 0.405,-0.357 0.405,-0.262C0.405,-0.166 0.36,-0.106 0.289,-0.106C0.217,-0.106 0.173,-0.166 0.173,-0.262C0.173,-0.357 0.217,-0.417 0.289,-0.417Z" style="fill:rgb(35,31,32);fill-rule:nonzero;"/>
                </g>
                <g transform="matrix(150,0,0,150,957.602,423.967)">
                    <path d="M0.281,-0.429C0.345,-0.429 0.388,-0.383 0.391,-0.316L0.169,-0.316C0.174,-0.382 0.219,-0.429 0.281,-0.429ZM0.393,-0.16C0.38,-0.12 0.34,-0.094 0.288,-0.094C0.215,-0.094 0.167,-0.146 0.167,-0.22L0.167,-0.229L0.528,-0.229L0.528,-0.272C0.528,-0.432 0.432,-0.535 0.28,-0.535C0.125,-0.535 0.027,-0.426 0.027,-0.259C0.027,-0.092 0.124,0.011 0.285,0.011C0.415,0.011 0.508,-0.058 0.524,-0.16L0.393,-0.16Z" style="fill:rgb(35,31,32);fill-rule:nonzero;"/>
                </g>
                <g transform="matrix(150,0,0,150,161.753,623.967)">
                    <path d="M0.201,-0.325L0.289,-0.325C0.39,-0.325 0.452,-0.274 0.452,-0.191C0.452,-0.117 0.385,-0.064 0.292,-0.064C0.197,-0.064 0.137,-0.114 0.129,-0.187L0.045,-0.187C0.051,-0.07 0.146,0.012 0.293,0.012C0.431,0.012 0.542,-0.073 0.542,-0.194C0.542,-0.293 0.473,-0.359 0.367,-0.365L0.367,-0.367C0.455,-0.383 0.511,-0.446 0.511,-0.535C0.511,-0.641 0.416,-0.716 0.29,-0.716C0.158,-0.716 0.069,-0.64 0.059,-0.52L0.144,-0.52C0.151,-0.594 0.205,-0.64 0.286,-0.64C0.375,-0.64 0.423,-0.593 0.423,-0.523C0.423,-0.452 0.366,-0.399 0.285,-0.399L0.201,-0.399L0.201,-0.325Z" style="fill:rgb(35,31,32);fill-rule:nonzero;"/>
                </g>
                <g transform="matrix(150,0,0,150,250.522,623.967)">
                    <path d="M0.068,-0.705L0.068,0L0.305,0C0.515,0 0.638,-0.13 0.638,-0.353C0.638,-0.574 0.514,-0.705 0.305,-0.705L0.068,-0.705ZM0.156,-0.625L0.299,-0.625C0.459,-0.625 0.548,-0.528 0.548,-0.352C0.548,-0.177 0.459,-0.079 0.299,-0.079L0.156,-0.079L0.156,-0.625Z" style="fill:rgb(35,31,32);fill-rule:nonzero;"/>
                </g>
                <g transform="matrix(150,0,0,150,383.017,623.967)">
                    <path d="M0.156,-0.705L0.068,-0.705L0.068,-0.247C0.068,-0.097 0.173,0.012 0.348,0.012C0.523,0.012 0.628,-0.097 0.628,-0.247L0.628,-0.705L0.54,-0.705L0.54,-0.253C0.54,-0.146 0.47,-0.069 0.348,-0.069C0.226,-0.069 0.156,-0.146 0.156,-0.253L0.156,-0.705Z" style="fill:rgb(35,31,32);fill-rule:nonzero;"/>
                </g>
                <g transform="matrix(150,0,0,150,487.461,623.967)">
                    <path d="M0.155,0L0.155,-0.551L0.16,-0.551L0.545,0L0.631,0L0.631,-0.705L0.544,-0.705L0.544,-0.151L0.54,-0.151L0.154,-0.705L0.068,-0.705L0.068,0L0.155,0Z" style="fill:rgb(35,31,32);fill-rule:nonzero;"/>
                </g>
                <g transform="matrix(150,0,0,150,592.344,623.967)">
                    <path d="M0.505,-0.079L0.156,-0.079L0.156,-0.321L0.487,-0.321L0.487,-0.399L0.156,-0.399L0.156,-0.625L0.505,-0.625L0.505,-0.705L0.068,-0.705L0.068,0L0.505,0L0.505,-0.079Z" style="fill:rgb(35,31,32);fill-rule:nonzero;"/>
                </g>
                <g transform="matrix(150,0,0,150,675.181,623.967)">
                    <path d="M0.334,0L0.334,-0.625L0.557,-0.625L0.557,-0.705L0.024,-0.705L0.024,-0.625L0.247,-0.625L0.247,0L0.334,0Z" style="fill:rgb(35,31,32);fill-rule:nonzero;"/>
                </g>
                <g transform="matrix(150,0,0,150,752.085,623.967)">
                    <path d="M0.113,0.14L0.18,-0.108L0.09,-0.108L0.042,0.14L0.113,0.14Z" style="fill:rgb(35,31,32);fill-rule:nonzero;"/>
                </g>
                <g transform="matrix(150,0,0,150,161.753,773.967)">
                    <path d="M0.459,-0.559L0.464,-0.559L0.627,0L0.71,0L0.902,-0.705L0.81,-0.705L0.669,-0.129L0.665,-0.129L0.506,-0.705L0.417,-0.705L0.259,-0.129L0.255,-0.129L0.114,-0.705L0.022,-0.705L0.214,0L0.297,0L0.459,-0.559Z" style="fill:rgb(35,31,32);fill-rule:nonzero;"/>
                </g>
                <g transform="matrix(150,0,0,150,290.073,773.967)">
                    <path d="M0.223,-0.063C0.162,-0.063 0.121,-0.095 0.121,-0.144C0.121,-0.191 0.16,-0.222 0.229,-0.226L0.364,-0.234L0.364,-0.193C0.364,-0.12 0.303,-0.063 0.223,-0.063ZM0.204,0.009C0.272,0.009 0.336,-0.029 0.367,-0.087L0.369,-0.087L0.369,0L0.449,0L0.449,-0.351C0.449,-0.452 0.374,-0.517 0.255,-0.517C0.135,-0.517 0.06,-0.449 0.054,-0.361L0.136,-0.361C0.146,-0.411 0.188,-0.442 0.253,-0.442C0.323,-0.442 0.364,-0.405 0.364,-0.343L0.364,-0.3L0.219,-0.292C0.102,-0.285 0.035,-0.23 0.035,-0.144C0.035,-0.052 0.103,0.009 0.204,0.009Z" style="fill:rgb(35,31,32);fill-rule:nonzero;"/>
                </g>
                <g transform="matrix(150,0,0,150,365.366,773.967)">
                    <path d="M0.083,-0.63L0.083,-0.508L0.007,-0.508L0.007,-0.438L0.083,-0.438L0.083,-0.132C0.083,-0.034 0.119,0.004 0.212,0.004C0.232,0.004 0.255,0.002 0.266,0L0.266,-0.071C0.26,-0.07 0.24,-0.069 0.23,-0.069C0.187,-0.069 0.167,-0.09 0.167,-0.136L0.167,-0.438L0.266,-0.438L0.266,-0.508L0.167,-0.508L0.167,-0.63L0.083,-0.63Z" style="fill:rgb(35,31,32);fill-rule:nonzero;"/>
                </g>
                <g transform="matrix(150,0,0,150,408.359,773.967)">
                    <path d="M0.259,-0.443C0.339,-0.443 0.392,-0.382 0.394,-0.297L0.118,-0.297C0.124,-0.382 0.179,-0.443 0.259,-0.443ZM0.392,-0.146C0.378,-0.098 0.331,-0.065 0.266,-0.065C0.175,-0.065 0.118,-0.129 0.118,-0.226L0.118,-0.231L0.482,-0.231L0.482,-0.263C0.482,-0.417 0.397,-0.517 0.26,-0.517C0.12,-0.517 0.03,-0.41 0.03,-0.252C0.03,-0.092 0.119,0.009 0.264,0.009C0.375,0.009 0.461,-0.057 0.476,-0.146L0.392,-0.146Z" style="fill:rgb(35,31,32);fill-rule:nonzero;"/>
                </g>
                <g transform="matrix(150,0,0,150,485.19,773.967)">
                    <path d="M0.055,0L0.14,0L0.14,-0.316C0.14,-0.388 0.183,-0.436 0.249,-0.436C0.27,-0.436 0.288,-0.433 0.294,-0.431L0.294,-0.513C0.288,-0.514 0.275,-0.517 0.26,-0.517C0.201,-0.517 0.154,-0.481 0.137,-0.425L0.135,-0.425L0.135,-0.508L0.055,-0.508L0.055,0Z" style="fill:rgb(35,31,32);fill-rule:nonzero;"/>
                </g>
                <g transform="matrix(150,0,0,150,531.406,773.967)">
                    <path d="M0.046,-0.368C0.046,-0.298 0.09,-0.252 0.18,-0.229L0.269,-0.207C0.326,-0.191 0.347,-0.172 0.347,-0.136C0.347,-0.09 0.305,-0.061 0.236,-0.061C0.167,-0.061 0.127,-0.089 0.118,-0.142L0.033,-0.142C0.042,-0.052 0.119,0.009 0.23,0.009C0.349,0.009 0.433,-0.054 0.433,-0.142C0.433,-0.217 0.396,-0.254 0.293,-0.28L0.214,-0.299C0.157,-0.313 0.13,-0.337 0.13,-0.372C0.13,-0.417 0.171,-0.447 0.233,-0.447C0.295,-0.447 0.335,-0.417 0.341,-0.368L0.422,-0.368C0.418,-0.454 0.341,-0.517 0.236,-0.517C0.124,-0.517 0.046,-0.455 0.046,-0.368Z" style="fill:rgb(35,31,32);fill-rule:nonzero;"/>
                </g>
                <g transform="matrix(150,0,0,150,601.206,773.967)">
                    <path d="M0.06,0L0.145,0L0.145,-0.296C0.145,-0.384 0.197,-0.441 0.281,-0.441C0.361,-0.441 0.401,-0.393 0.401,-0.313L0.401,0L0.486,0L0.486,-0.328C0.486,-0.441 0.419,-0.517 0.308,-0.517C0.23,-0.517 0.175,-0.483 0.146,-0.427L0.145,-0.427L0.145,-0.705L0.06,-0.705L0.06,0Z" style="fill:rgb(35,31,32);fill-rule:nonzero;"/>
                </g>
                <g transform="matrix(150,0,0,150,682.065,773.967)">
                    <path d="M0.259,-0.443C0.339,-0.443 0.392,-0.382 0.394,-0.297L0.118,-0.297C0.124,-0.382 0.179,-0.443 0.259,-0.443ZM0.392,-0.146C0.378,-0.098 0.331,-0.065 0.266,-0.065C0.175,-0.065 0.118,-0.129 0.118,-0.226L0.118,-0.231L0.482,-0.231L0.482,-0.263C0.482,-0.417 0.397,-0.517 0.26,-0.517C0.12,-0.517 0.03,-0.41 0.03,-0.252C0.03,-0.092 0.119,0.009 0.264,0.009C0.375,0.009 0.461,-0.057 0.476,-0.146L0.392,-0.146Z" style="fill:rgb(35,31,32);fill-rule:nonzero;"/>
                </g>
                <g transform="matrix(150,0,0,150,758.896,773.967)">
                    <path d="M0.248,0.009C0.321,0.009 0.379,-0.027 0.412,-0.086L0.413,-0.086L0.413,0L0.494,0L0.494,-0.705L0.409,-0.705L0.409,-0.425L0.407,-0.425C0.377,-0.481 0.318,-0.517 0.246,-0.517C0.118,-0.517 0.03,-0.413 0.03,-0.254C0.03,-0.095 0.118,0.009 0.248,0.009ZM0.264,-0.442C0.351,-0.442 0.41,-0.367 0.41,-0.254C0.41,-0.14 0.351,-0.066 0.264,-0.066C0.174,-0.066 0.117,-0.139 0.117,-0.254C0.117,-0.369 0.174,-0.442 0.264,-0.442Z" style="fill:rgb(35,31,32);fill-rule:nonzero;"/>
                </g>
                <g transform="matrix(150,0,0,150,841.953,773.967)">
                    <path d="M0.113,0.14L0.18,-0.108L0.09,-0.108L0.042,0.14L0.113,0.14Z" style="fill:rgb(35,31,32);fill-rule:nonzero;"/>
                </g>
                <g transform="matrix(150,0,0,150,161.753,923.967)">
                    <path d="M0.358,0.012C0.514,0.012 0.619,-0.066 0.651,-0.205L0.562,-0.205C0.537,-0.119 0.462,-0.069 0.359,-0.069C0.22,-0.069 0.131,-0.18 0.131,-0.353C0.131,-0.524 0.221,-0.635 0.358,-0.635C0.459,-0.635 0.54,-0.575 0.562,-0.482L0.651,-0.482C0.628,-0.623 0.512,-0.716 0.358,-0.716C0.166,-0.716 0.041,-0.574 0.041,-0.353C0.041,-0.129 0.164,0.012 0.358,0.012Z" style="fill:rgb(35,31,32);fill-rule:nonzero;"/>
                </g>
                <g transform="matrix(150,0,0,150,264.658,923.967)">
                    <path d="M0.266,0.009C0.406,0.009 0.5,-0.092 0.5,-0.254C0.5,-0.416 0.406,-0.517 0.266,-0.517C0.125,-0.517 0.03,-0.416 0.03,-0.254C0.03,-0.092 0.125,0.009 0.266,0.009ZM0.266,-0.066C0.176,-0.066 0.117,-0.134 0.117,-0.254C0.117,-0.374 0.176,-0.442 0.266,-0.442C0.355,-0.442 0.414,-0.374 0.414,-0.254C0.414,-0.134 0.355,-0.066 0.266,-0.066Z" style="fill:rgb(35,31,32);fill-rule:nonzero;"/>
                </g>
                <g transform="matrix(150,0,0,150,344.272,923.967)">
                    <path d="M0.055,0L0.14,0L0.14,-0.299C0.14,-0.385 0.192,-0.441 0.272,-0.441C0.351,-0.441 0.389,-0.396 0.389,-0.314L0.389,0L0.474,0L0.474,-0.33C0.474,-0.445 0.41,-0.517 0.298,-0.517C0.22,-0.517 0.166,-0.481 0.137,-0.427L0.135,-0.427L0.135,-0.508L0.055,-0.508L0.055,0Z" style="fill:rgb(35,31,32);fill-rule:nonzero;"/>
                </g>
                <g transform="matrix(150,0,0,150,423.301,923.967)">
                    <path d="M0.248,0.009C0.321,0.009 0.379,-0.027 0.412,-0.086L0.413,-0.086L0.413,0L0.494,0L0.494,-0.705L0.409,-0.705L0.409,-0.425L0.407,-0.425C0.377,-0.481 0.318,-0.517 0.246,-0.517C0.118,-0.517 0.03,-0.413 0.03,-0.254C0.03,-0.095 0.118,0.009 0.248,0.009ZM0.264,-0.442C0.351,-0.442 0.41,-0.367 0.41,-0.254C0.41,-0.14 0.351,-0.066 0.264,-0.066C0.174,-0.066 0.117,-0.139 0.117,-0.254C0.117,-0.369 0.174,-0.442 0.264,-0.442Z" style="fill:rgb(35,31,32);fill-rule:nonzero;"/>
                </g>
                <g transform="matrix(150,0,0,150,506.357,923.967)">
                    <path d="M0.06,0L0.145,0L0.145,-0.508L0.06,-0.508L0.06,0ZM0.102,-0.593C0.131,-0.593 0.155,-0.617 0.155,-0.646C0.155,-0.675 0.131,-0.699 0.102,-0.699C0.073,-0.699 0.049,-0.675 0.049,-0.646C0.049,-0.617 0.073,-0.593 0.102,-0.593Z" style="fill:rgb(35,31,32);fill-rule:nonzero;"/>
                </g>
                <g transform="matrix(150,0,0,150,536.973,923.967)">
                    <path d="M0.083,-0.63L0.083,-0.508L0.007,-0.508L0.007,-0.438L0.083,-0.438L0.083,-0.132C0.083,-0.034 0.119,0.004 0.212,0.004C0.232,0.004 0.255,0.002 0.266,0L0.266,-0.071C0.26,-0.07 0.24,-0.069 0.23,-0.069C0.187,-0.069 0.167,-0.09 0.167,-0.136L0.167,-0.438L0.266,-0.438L0.266,-0.508L0.167,-0.508L0.167,-0.63L0.083,-0.63Z" style="fill:rgb(35,31,32);fill-rule:nonzero;"/>
                </g>
                <g transform="matrix(150,0,0,150,582.163,923.967)">
                    <path d="M0.06,0L0.145,0L0.145,-0.508L0.06,-0.508L0.06,0ZM0.102,-0.593C0.131,-0.593 0.155,-0.617 0.155,-0.646C0.155,-0.675 0.131,-0.699 0.102,-0.699C0.073,-0.699 0.049,-0.675 0.049,-0.646C0.049,-0.617 0.073,-0.593 0.102,-0.593Z" style="fill:rgb(35,31,32);fill-rule:nonzero;"/>
                </g>
                <g transform="matrix(150,0,0,150,612.778,923.967)">
                    <path d="M0.266,0.009C0.406,0.009 0.5,-0.092 0.5,-0.254C0.5,-0.416 0.406,-0.517 0.266,-0.517C0.125,-0.517 0.03,-0.416 0.03,-0.254C0.03,-0.092 0.125,0.009 0.266,0.009ZM0.266,-0.066C0.176,-0.066 0.117,-0.134 0.117,-0.254C0.117,-0.374 0.176,-0.442 0.266,-0.442C0.355,-0.442 0.414,-0.374 0.414,-0.254C0.414,-0.134 0.355,-0.066 0.266,-0.066Z" style="fill:rgb(35,31,32);fill-rule:nonzero;"/>
                </g>
                <g transform="matrix(150,0,0,150,692.392,923.967)">
                    <path d="M0.055,0L0.14,0L0.14,-0.299C0.14,-0.385 0.192,-0.441 0.272,-0.441C0.351,-0.441 0.389,-0.396 0.389,-0.314L0.389,0L0.474,0L0.474,-0.33C0.474,-0.445 0.41,-0.517 0.298,-0.517C0.22,-0.517 0.166,-0.481 0.137,-0.427L0.135,-0.427L0.135,-0.508L0.055,-0.508L0.055,0Z" style="fill:rgb(35,31,32);fill-rule:nonzero;"/>
                </g>
                <g transform="matrix(150,0,0,150,771.421,923.967)">
                    <path d="M0.223,-0.063C0.162,-0.063 0.121,-0.095 0.121,-0.144C0.121,-0.191 0.16,-0.222 0.229,-0.226L0.364,-0.234L0.364,-0.193C0.364,-0.12 0.303,-0.063 0.223,-0.063ZM0.204,0.009C0.272,0.009 0.336,-0.029 0.367,-0.087L0.369,-0.087L0.369,0L0.449,0L0.449,-0.351C0.449,-0.452 0.374,-0.517 0.255,-0.517C0.135,-0.517 0.06,-0.449 0.054,-0.361L0.136,-0.361C0.146,-0.411 0.188,-0.442 0.253,-0.442C0.323,-0.442 0.364,-0.405 0.364,-0.343L0.364,-0.3L0.219,-0.292C0.102,-0.285 0.035,-0.23 0.035,-0.144C0.035,-0.052 0.103,0.009 0.204,0.009Z" style="fill:rgb(35,31,32);fill-rule:nonzero;"/>
                </g>
                <g transform="matrix(150,0,0,150,846.714,923.967)">
                    <rect x="0.06" y="-0.705" width="0.085" height="0.705" style="fill:rgb(35,31,32);fill-rule:nonzero;"/>
                </g>
                <g transform="matrix(150,0,0,150,161.753,1073.97)">
                    <path d="M0.156,-0.626L0.321,-0.626C0.412,-0.626 0.466,-0.576 0.466,-0.492C0.466,-0.405 0.415,-0.356 0.325,-0.356L0.156,-0.356L0.156,-0.626ZM0.156,-0.279L0.325,-0.279L0.476,0L0.579,0L0.416,-0.292C0.504,-0.32 0.557,-0.396 0.557,-0.495C0.557,-0.622 0.468,-0.705 0.333,-0.705L0.068,-0.705L0.068,0L0.156,0L0.156,-0.279Z" style="fill:rgb(35,31,32);fill-rule:nonzero;"/>
                </g>
                <g transform="matrix(150,0,0,150,251.621,1073.97)">
                    <path d="M0.223,-0.063C0.162,-0.063 0.121,-0.095 0.121,-0.144C0.121,-0.191 0.16,-0.222 0.229,-0.226L0.364,-0.234L0.364,-0.193C0.364,-0.12 0.303,-0.063 0.223,-0.063ZM0.204,0.009C0.272,0.009 0.336,-0.029 0.367,-0.087L0.369,-0.087L0.369,0L0.449,0L0.449,-0.351C0.449,-0.452 0.374,-0.517 0.255,-0.517C0.135,-0.517 0.06,-0.449 0.054,-0.361L0.136,-0.361C0.146,-0.411 0.188,-0.442 0.253,-0.442C0.323,-0.442 0.364,-0.405 0.364,-0.343L0.364,-0.3L0.219,-0.292C0.102,-0.285 0.035,-0.23 0.035,-0.144C0.035,-0.052 0.103,0.009 0.204,0.009Z" style="fill:rgb(35,31,32);fill-rule:nonzero;"/>
                </g>
                <g transform="matrix(150,0,0,150,326.914,1073.97)">
                    <path d="M0.055,0L0.14,0L0.14,-0.299C0.14,-0.385 0.192,-0.441 0.272,-0.441C0.351,-0.441 0.389,-0.396 0.389,-0.314L0.389,0L0.474,0L0.474,-0.33C0.474,-0.445 0.41,-0.517 0.298,-0.517C0.22,-0.517 0.166,-0.481 0.137,-0.427L0.135,-0.427L0.135,-0.508L0.055,-0.508L0.055,0Z" style="fill:rgb(35,31,32);fill-rule:nonzero;"/>
                </g>
                <g transform="matrix(150,0,0,150,405.942,1073.97)">
                    <path d="M0.248,0.009C0.321,0.009 0.379,-0.027 0.412,-0.086L0.413,-0.086L0.413,0L0.494,0L0.494,-0.705L0.409,-0.705L0.409,-0.425L0.407,-0.425C0.377,-0.481 0.318,-0.517 0.246,-0.517C0.118,-0.517 0.03,-0.413 0.03,-0.254C0.03,-0.095 0.118,0.009 0.248,0.009ZM0.264,-0.442C0.351,-0.442 0.41,-0.367 0.41,-0.254C0.41,-0.14 0.351,-0.066 0.264,-0.066C0.174,-0.066 0.117,-0.139 0.117,-0.254C0.117,-0.369 0.174,-0.442 0.264,-0.442Z" style="fill:rgb(35,31,32);fill-rule:nonzero;"/>
                </g>
                <g transform="matrix(150,0,0,150,488.999,1073.97)">
                    <path d="M0.266,0.009C0.406,0.009 0.5,-0.092 0.5,-0.254C0.5,-0.416 0.406,-0.517 0.266,-0.517C0.125,-0.517 0.03,-0.416 0.03,-0.254C0.03,-0.092 0.125,0.009 0.266,0.009ZM0.266,-0.066C0.176,-0.066 0.117,-0.134 0.117,-0.254C0.117,-0.374 0.176,-0.442 0.266,-0.442C0.355,-0.442 0.414,-0.374 0.414,-0.254C0.414,-0.134 0.355,-0.066 0.266,-0.066Z" style="fill:rgb(35,31,32);fill-rule:nonzero;"/>
                </g>
                <g transform="matrix(150,0,0,150,568.613,1073.97)">
                    <path d="M0.055,0L0.14,0L0.14,-0.318C0.14,-0.389 0.189,-0.441 0.256,-0.441C0.319,-0.441 0.36,-0.401 0.36,-0.34L0.36,0L0.445,0L0.445,-0.323C0.445,-0.392 0.493,-0.441 0.56,-0.441C0.627,-0.441 0.666,-0.4 0.666,-0.331L0.666,0L0.75,0L0.75,-0.351C0.75,-0.451 0.686,-0.517 0.585,-0.517C0.514,-0.517 0.454,-0.48 0.426,-0.42L0.424,-0.42C0.402,-0.481 0.351,-0.517 0.281,-0.517C0.213,-0.517 0.161,-0.48 0.137,-0.427L0.135,-0.427L0.135,-0.508L0.055,-0.508L0.055,0Z" style="fill:rgb(35,31,32);fill-rule:nonzero;"/>
                </g>
                <g transform="matrix(150,0,0,150,719.858,1073.97)">
                    <path d="M0.156,0L0.156,-0.305L0.468,-0.305L0.468,-0.383L0.156,-0.383L0.156,-0.625L0.496,-0.625L0.496,-0.705L0.068,-0.705L0.068,0L0.156,0Z" style="fill:rgb(35,31,32);fill-rule:nonzero;"/>
                </g>
                <g transform="matrix(150,0,0,150,799.033,1073.97)">
                    <path d="M0.06,0L0.145,0L0.145,-0.508L0.06,-0.508L0.06,0ZM0.102,-0.593C0.131,-0.593 0.155,-0.617 0.155,-0.646C0.155,-0.675 0.131,-0.699 0.102,-0.699C0.073,-0.699 0.049,-0.675 0.049,-0.646C0.049,-0.617 0.073,-0.593 0.102,-0.593Z" style="fill:rgb(35,31,32);fill-rule:nonzero;"/>
                </g>
                <g transform="matrix(150,0,0,150,829.648,1073.97)">
                    <path d="M0.259,-0.443C0.339,-0.443 0.392,-0.382 0.394,-0.297L0.118,-0.297C0.124,-0.382 0.179,-0.443 0.259,-0.443ZM0.392,-0.146C0.378,-0.098 0.331,-0.065 0.266,-0.065C0.175,-0.065 0.118,-0.129 0.118,-0.226L0.118,-0.231L0.482,-0.231L0.482,-0.263C0.482,-0.417 0.397,-0.517 0.26,-0.517C0.12,-0.517 0.03,-0.41 0.03,-0.252C0.03,-0.092 0.119,0.009 0.264,0.009C0.375,0.009 0.461,-0.057 0.476,-0.146L0.392,-0.146Z" style="fill:rgb(35,31,32);fill-rule:nonzero;"/>
                </g>
                <g transform="matrix(150,0,0,150,906.479,1073.97)">
                    <rect x="0.06" y="-0.705" width="0.085" height="0.705" style="fill:rgb(35,31,32);fill-rule:nonzero;"/>
                </g>
                <g transform="matrix(150,0,0,150,937.095,1073.97)">
                    <path d="M0.248,0.009C0.321,0.009 0.379,-0.027 0.412,-0.086L0.413,-0.086L0.413,0L0.494,0L0.494,-0.705L0.409,-0.705L0.409,-0.425L0.407,-0.425C0.377,-0.481 0.318,-0.517 0.246,-0.517C0.118,-0.517 0.03,-0.413 0.03,-0.254C0.03,-0.095 0.118,0.009 0.248,0.009ZM0.264,-0.442C0.351,-0.442 0.41,-0.367 0.41,-0.254C0.41,-0.14 0.351,-0.066 0.264,-0.066C0.174,-0.066 0.117,-0.139 0.117,-0.254C0.117,-0.369 0.174,-0.442 0.264,-0.442Z" style="fill:rgb(35,31,32);fill-rule:nonzero;"/>
                </g>
                <g transform="matrix(150,0,0,150,161.753,1223.97)">
                    <path d="M0.093,-0.277C0.093,-0.107 0.138,0.031 0.231,0.15L0.303,0.15C0.233,0.069 0.179,-0.118 0.179,-0.277C0.179,-0.437 0.233,-0.624 0.303,-0.705L0.231,-0.705C0.138,-0.585 0.093,-0.447 0.093,-0.277Z" style="fill:rgb(35,31,32);fill-rule:nonzero;"/>
                </g>
                <g transform="matrix(150,0,0,150,210.093,1223.97)">
                    <path d="M0.358,0.012C0.514,0.012 0.619,-0.066 0.651,-0.205L0.562,-0.205C0.537,-0.119 0.462,-0.069 0.359,-0.069C0.22,-0.069 0.131,-0.18 0.131,-0.353C0.131,-0.524 0.221,-0.635 0.358,-0.635C0.459,-0.635 0.54,-0.575 0.562,-0.482L0.651,-0.482C0.628,-0.623 0.512,-0.716 0.358,-0.716C0.166,-0.716 0.041,-0.574 0.041,-0.353C0.041,-0.129 0.164,0.012 0.358,0.012Z" style="fill:rgb(35,31,32);fill-rule:nonzero;"/>
                </g>
                <g transform="matrix(150,0,0,150,312.998,1223.97)">
                    <path d="M0.156,-0.626L0.321,-0.626C0.412,-0.626 0.466,-0.576 0.466,-0.492C0.466,-0.405 0.415,-0.356 0.325,-0.356L0.156,-0.356L0.156,-0.626ZM0.156,-0.279L0.325,-0.279L0.476,0L0.579,0L0.416,-0.292C0.504,-0.32 0.557,-0.396 0.557,-0.495C0.557,-0.622 0.468,-0.705 0.333,-0.705L0.068,-0.705L0.068,0L0.156,0L0.156,-0.279Z" style="fill:rgb(35,31,32);fill-rule:nonzero;"/>
                </g>
                <g transform="matrix(150,0,0,150,402.866,1223.97)">
                    <path d="M0.156,0L0.156,-0.305L0.468,-0.305L0.468,-0.383L0.156,-0.383L0.156,-0.625L0.496,-0.625L0.496,-0.705L0.068,-0.705L0.068,0L0.156,0Z" style="fill:rgb(35,31,32);fill-rule:nonzero;"/>
                </g>
                <g transform="matrix(150,0,0,150,482.041,1223.97)">
                    <path d="M0.229,-0.277C0.229,-0.5 0.155,-0.623 0.091,-0.705L0.02,-0.705C0.062,-0.655 0.143,-0.499 0.143,-0.277C0.143,-0.056 0.063,0.1 0.02,0.15L0.091,0.15C0.155,0.068 0.229,-0.054 0.229,-0.277Z" style="fill:rgb(35,31,32);fill-rule:nonzero;"/>
                </g>
            </g>
        </g>
        <g transform="matrix(1,0,0,1,1.37963,0)">
            <g transform="matrix(1,0,0,1,1488.91,-14.4279)">
                <rect x="72.545" y="159.902" width="1062.38" height="1659.05" style="fill:rgb(183,149,249);"/>
            </g>
            <g transform="matrix(1,0,0,1,1428.58,243.002)">
                <g transform="matrix(150,0,0,150,161.753,423.967)">
                    <path d="M0.2,0L0.2,-0.461L0.204,-0.461L0.534,0L0.656,0L0.656,-0.705L0.515,-0.705L0.515,-0.246L0.511,-0.246L0.182,-0.705L0.059,-0.705L0.059,0L0.2,0Z" style="fill:rgb(35,31,32);fill-rule:nonzero;"/>
                </g>
                <g transform="matrix(150,0,0,150,268.906,423.967)">
                    <path d="M0.525,-0.523L0.376,-0.523L0.268,-0.126L0.265,-0.126L0.156,-0.523L0.003,-0.523L0.184,0L0.345,0L0.525,-0.523Z" style="fill:rgb(35,31,32);fill-rule:nonzero;"/>
                </g>
                <g transform="matrix(150,0,0,150,348.081,423.967)">
                    <path d="M0.049,0L0.191,0L0.191,-0.523L0.049,-0.523L0.049,0ZM0.12,-0.581C0.163,-0.581 0.196,-0.614 0.196,-0.655C0.196,-0.696 0.163,-0.729 0.12,-0.729C0.077,-0.729 0.044,-0.696 0.044,-0.655C0.044,-0.614 0.077,-0.581 0.12,-0.581Z" style="fill:rgb(35,31,32);fill-rule:nonzero;"/>
                </g>
                <g transform="matrix(150,0,0,150,384.043,423.967)">
                    <path d="M0.241,0.008C0.318,0.008 0.378,-0.032 0.404,-0.09L0.406,-0.09L0.406,0L0.547,0L0.547,-0.705L0.404,-0.705L0.404,-0.434L0.401,-0.434C0.376,-0.492 0.317,-0.532 0.242,-0.532C0.11,-0.532 0.027,-0.429 0.027,-0.263C0.027,-0.095 0.11,0.008 0.241,0.008ZM0.289,-0.417C0.36,-0.417 0.405,-0.357 0.405,-0.262C0.405,-0.166 0.36,-0.106 0.289,-0.106C0.217,-0.106 0.173,-0.166 0.173,-0.262C0.173,-0.357 0.217,-0.417 0.289,-0.417Z" style="fill:rgb(35,31,32);fill-rule:nonzero;"/>
                </g>
                <g transform="matrix(150,0,0,150,473.398,423.967)">
                    <path d="M0.049,0L0.191,0L0.191,-0.523L0.049,-0.523L0.049,0ZM0.12,-0.581C0.163,-0.581 0.196,-0.614 0.196,-0.655C0.196,-0.696 0.163,-0.729 0.12,-0.729C0.077,-0.729 0.044,-0.696 0.044,-0.655C0.044,-0.614 0.077,-0.581 0.12,-0.581Z" style="fill:rgb(35,31,32);fill-rule:nonzero;"/>
                </g>
                <g transform="matrix(150,0,0,150,509.36,423.967)">
                    <path d="M0.249,-0.095C0.2,-0.095 0.168,-0.119 0.168,-0.158C0.168,-0.195 0.198,-0.219 0.251,-0.223L0.362,-0.23L0.362,-0.192C0.362,-0.135 0.311,-0.095 0.249,-0.095ZM0.202,0.008C0.267,0.008 0.332,-0.024 0.361,-0.08L0.364,-0.08L0.364,0L0.502,0L0.502,-0.36C0.502,-0.465 0.415,-0.535 0.28,-0.535C0.142,-0.535 0.055,-0.465 0.05,-0.363L0.18,-0.363C0.187,-0.402 0.221,-0.428 0.274,-0.428C0.328,-0.428 0.362,-0.4 0.362,-0.351L0.362,-0.316L0.23,-0.309C0.1,-0.301 0.026,-0.246 0.026,-0.15C0.026,-0.056 0.102,0.008 0.202,0.008Z" style="fill:rgb(35,31,32);fill-rule:nonzero;"/>
                </g>
                <g transform="matrix(150,0,0,150,591.465,423.967)">
                    <rect x="0.061" y="-0.349" width="0.321" height="0.125" style="fill:rgb(35,31,32);fill-rule:nonzero;"/>
                </g>
                <g transform="matrix(150,0,0,150,657.749,423.967)">
                    <path d="M0.059,-0.705L0.059,0L0.328,0C0.539,0 0.664,-0.131 0.664,-0.355C0.664,-0.579 0.539,-0.705 0.328,-0.705L0.059,-0.705ZM0.206,-0.583L0.31,-0.583C0.44,-0.583 0.513,-0.502 0.513,-0.354C0.513,-0.202 0.442,-0.122 0.31,-0.122L0.206,-0.122L0.206,-0.583Z" style="fill:rgb(35,31,32);fill-rule:nonzero;"/>
                </g>
                <g transform="matrix(150,0,0,150,762.705,423.967)">
                    <path d="M0.287,0.011C0.445,0.011 0.546,-0.09 0.546,-0.262C0.546,-0.432 0.443,-0.535 0.287,-0.535C0.13,-0.535 0.027,-0.432 0.027,-0.262C0.027,-0.09 0.128,0.011 0.287,0.011ZM0.287,-0.098C0.216,-0.098 0.172,-0.157 0.172,-0.262C0.172,-0.366 0.217,-0.426 0.287,-0.426C0.356,-0.426 0.401,-0.366 0.401,-0.262C0.401,-0.157 0.356,-0.098 0.287,-0.098Z" style="fill:rgb(35,31,32);fill-rule:nonzero;"/>
                </g>
                <g transform="matrix(150,0,0,150,848.618,423.967)">
                    <path d="M0.522,-0.329C0.516,-0.447 0.426,-0.535 0.284,-0.535C0.127,-0.535 0.027,-0.43 0.027,-0.262C0.027,-0.091 0.127,0.011 0.285,0.011C0.423,0.011 0.515,-0.068 0.522,-0.192L0.39,-0.192C0.381,-0.135 0.344,-0.101 0.287,-0.101C0.216,-0.101 0.172,-0.159 0.172,-0.262C0.172,-0.363 0.216,-0.423 0.286,-0.423C0.345,-0.423 0.381,-0.384 0.39,-0.329L0.522,-0.329Z" style="fill:rgb(35,31,32);fill-rule:nonzero;"/>
                </g>
                <g transform="matrix(150,0,0,150,930.356,423.967)">
                    <path d="M0.194,-0.313L0.192,-0.313L0.192,-0.705L0.05,-0.705L0.05,0L0.192,0L0.192,-0.173L0.229,-0.213L0.379,0L0.543,0L0.334,-0.299L0.534,-0.523L0.372,-0.523L0.194,-0.313Z" style="fill:rgb(35,31,32);fill-rule:nonzero;"/>
                </g>
                <g transform="matrix(150,0,0,150,1007.41,423.967)">
                    <path d="M0.281,-0.429C0.345,-0.429 0.388,-0.383 0.391,-0.316L0.169,-0.316C0.174,-0.382 0.219,-0.429 0.281,-0.429ZM0.393,-0.16C0.38,-0.12 0.34,-0.094 0.288,-0.094C0.215,-0.094 0.167,-0.146 0.167,-0.22L0.167,-0.229L0.528,-0.229L0.528,-0.272C0.528,-0.432 0.432,-0.535 0.28,-0.535C0.125,-0.535 0.027,-0.426 0.027,-0.259C0.027,-0.092 0.124,0.011 0.285,0.011C0.415,0.011 0.508,-0.058 0.524,-0.16L0.393,-0.16Z" style="fill:rgb(35,31,32);fill-rule:nonzero;"/>
                </g>
                <g transform="matrix(150,0,0,150,1090.68,423.967)">
                    <path d="M0.046,0L0.189,0L0.189,-0.292C0.189,-0.366 0.23,-0.409 0.3,-0.409C0.321,-0.409 0.34,-0.406 0.352,-0.401L0.352,-0.526C0.342,-0.529 0.328,-0.532 0.312,-0.532C0.25,-0.532 0.206,-0.496 0.187,-0.429L0.184,-0.429L0.184,-0.523L0.046,-0.523L0.046,0Z" style="fill:rgb(35,31,32);fill-rule:nonzero;"/>
                </g>
                <g transform="matrix(150,0,0,150,161.753,623.967)">
                    <path d="M0.358,0.012C0.514,0.012 0.619,-0.066 0.651,-0.205L0.562,-0.205C0.537,-0.119 0.462,-0.069 0.359,-0.069C0.22,-0.069 0.131,-0.18 0.131,-0.353C0.131,-0.524 0.221,-0.635 0.358,-0.635C0.459,-0.635 0.54,-0.575 0.562,-0.482L0.651,-0.482C0.628,-0.623 0.512,-0.716 0.358,-0.716C0.166,-0.716 0.041,-0.574 0.041,-0.353C0.041,-0.129 0.164,0.012 0.358,0.012Z" style="fill:rgb(35,31,32);fill-rule:nonzero;"/>
                </g>
                <g transform="matrix(150,0,0,150,264.658,623.967)">
                    <path d="M0.266,0.009C0.406,0.009 0.5,-0.092 0.5,-0.254C0.5,-0.416 0.406,-0.517 0.266,-0.517C0.125,-0.517 0.03,-0.416 0.03,-0.254C0.03,-0.092 0.125,0.009 0.266,0.009ZM0.266,-0.066C0.176,-0.066 0.117,-0.134 0.117,-0.254C0.117,-0.374 0.176,-0.442 0.266,-0.442C0.355,-0.442 0.414,-0.374 0.414,-0.254C0.414,-0.134 0.355,-0.066 0.266,-0.066Z" style="fill:rgb(35,31,32);fill-rule:nonzero;"/>
                </g>
                <g transform="matrix(150,0,0,150,344.272,623.967)">
                    <path d="M0.055,0L0.14,0L0.14,-0.299C0.14,-0.385 0.192,-0.441 0.272,-0.441C0.351,-0.441 0.389,-0.396 0.389,-0.314L0.389,0L0.474,0L0.474,-0.33C0.474,-0.445 0.41,-0.517 0.298,-0.517C0.22,-0.517 0.166,-0.481 0.137,-0.427L0.135,-0.427L0.135,-0.508L0.055,-0.508L0.055,0Z" style="fill:rgb(35,31,32);fill-rule:nonzero;"/>
                </g>
                <g transform="matrix(150,0,0,150,423.301,623.967)">
                    <path d="M0.083,-0.63L0.083,-0.508L0.007,-0.508L0.007,-0.438L0.083,-0.438L0.083,-0.132C0.083,-0.034 0.119,0.004 0.212,0.004C0.232,0.004 0.255,0.002 0.266,0L0.266,-0.071C0.26,-0.07 0.24,-0.069 0.23,-0.069C0.187,-0.069 0.167,-0.09 0.167,-0.136L0.167,-0.438L0.266,-0.438L0.266,-0.508L0.167,-0.508L0.167,-0.63L0.083,-0.63Z" style="fill:rgb(35,31,32);fill-rule:nonzero;"/>
                </g>
                <g transform="matrix(150,0,0,150,467.026,623.967)">
                    <path d="M0.223,-0.063C0.162,-0.063 0.121,-0.095 0.121,-0.144C0.121,-0.191 0.16,-0.222 0.229,-0.226L0.364,-0.234L0.364,-0.193C0.364,-0.12 0.303,-0.063 0.223,-0.063ZM0.204,0.009C0.272,0.009 0.336,-0.029 0.367,-0.087L0.369,-0.087L0.369,0L0.449,0L0.449,-0.351C0.449,-0.452 0.374,-0.517 0.255,-0.517C0.135,-0.517 0.06,-0.449 0.054,-0.361L0.136,-0.361C0.146,-0.411 0.188,-0.442 0.253,-0.442C0.323,-0.442 0.364,-0.405 0.364,-0.343L0.364,-0.3L0.219,-0.292C0.102,-0.285 0.035,-0.23 0.035,-0.144C0.035,-0.052 0.103,0.009 0.204,0.009Z" style="fill:rgb(35,31,32);fill-rule:nonzero;"/>
                </g>
                <g transform="matrix(150,0,0,150,542.319,623.967)">
                    <path d="M0.06,0L0.145,0L0.145,-0.508L0.06,-0.508L0.06,0ZM0.102,-0.593C0.131,-0.593 0.155,-0.617 0.155,-0.646C0.155,-0.675 0.131,-0.699 0.102,-0.699C0.073,-0.699 0.049,-0.675 0.049,-0.646C0.049,-0.617 0.073,-0.593 0.102,-0.593Z" style="fill:rgb(35,31,32);fill-rule:nonzero;"/>
                </g>
                <g transform="matrix(150,0,0,150,572.934,623.967)">
                    <path d="M0.055,0L0.14,0L0.14,-0.299C0.14,-0.385 0.192,-0.441 0.272,-0.441C0.351,-0.441 0.389,-0.396 0.389,-0.314L0.389,0L0.474,0L0.474,-0.33C0.474,-0.445 0.41,-0.517 0.298,-0.517C0.22,-0.517 0.166,-0.481 0.137,-0.427L0.135,-0.427L0.135,-0.508L0.055,-0.508L0.055,0Z" style="fill:rgb(35,31,32);fill-rule:nonzero;"/>
                </g>
                <g transform="matrix(150,0,0,150,651.963,623.967)">
                    <path d="M0.259,-0.443C0.339,-0.443 0.392,-0.382 0.394,-0.297L0.118,-0.297C0.124,-0.382 0.179,-0.443 0.259,-0.443ZM0.392,-0.146C0.378,-0.098 0.331,-0.065 0.266,-0.065C0.175,-0.065 0.118,-0.129 0.118,-0.226L0.118,-0.231L0.482,-0.231L0.482,-0.263C0.482,-0.417 0.397,-0.517 0.26,-0.517C0.12,-0.517 0.03,-0.41 0.03,-0.252C0.03,-0.092 0.119,0.009 0.264,0.009C0.375,0.009 0.461,-0.057 0.476,-0.146L0.392,-0.146Z" style="fill:rgb(35,31,32);fill-rule:nonzero;"/>
                </g>
                <g transform="matrix(150,0,0,150,728.794,623.967)">
                    <path d="M0.055,0L0.14,0L0.14,-0.316C0.14,-0.388 0.183,-0.436 0.249,-0.436C0.27,-0.436 0.288,-0.433 0.294,-0.431L0.294,-0.513C0.288,-0.514 0.275,-0.517 0.26,-0.517C0.201,-0.517 0.154,-0.481 0.137,-0.425L0.135,-0.425L0.135,-0.508L0.055,-0.508L0.055,0Z" style="fill:rgb(35,31,32);fill-rule:nonzero;"/>
                </g>
                <g transform="matrix(150,0,0,150,775.01,623.967)">
                    <path d="M0.06,0L0.145,0L0.145,-0.508L0.06,-0.508L0.06,0ZM0.102,-0.593C0.131,-0.593 0.155,-0.617 0.155,-0.646C0.155,-0.675 0.131,-0.699 0.102,-0.699C0.073,-0.699 0.049,-0.675 0.049,-0.646C0.049,-0.617 0.073,-0.593 0.102,-0.593Z" style="fill:rgb(35,31,32);fill-rule:nonzero;"/>
                </g>
                <g transform="matrix(150,0,0,150,805.625,623.967)">
                    <path d="M0.044,0L0.423,0L0.423,-0.07L0.143,-0.07L0.143,-0.071L0.422,-0.446L0.422,-0.508L0.045,-0.508L0.045,-0.438L0.326,-0.438L0.326,-0.437L0.044,-0.061L0.044,0Z" style="fill:rgb(35,31,32);fill-rule:nonzero;"/>
                </g>
                <g transform="matrix(150,0,0,150,872.861,623.967)">
                    <path d="M0.259,-0.443C0.339,-0.443 0.392,-0.382 0.394,-0.297L0.118,-0.297C0.124,-0.382 0.179,-0.443 0.259,-0.443ZM0.392,-0.146C0.378,-0.098 0.331,-0.065 0.266,-0.065C0.175,-0.065 0.118,-0.129 0.118,-0.226L0.118,-0.231L0.482,-0.231L0.482,-0.263C0.482,-0.417 0.397,-0.517 0.26,-0.517C0.12,-0.517 0.03,-0.41 0.03,-0.252C0.03,-0.092 0.119,0.009 0.264,0.009C0.375,0.009 0.461,-0.057 0.476,-0.146L0.392,-0.146Z" style="fill:rgb(35,31,32);fill-rule:nonzero;"/>
                </g>
                <g transform="matrix(150,0,0,150,161.753,773.967)">
                    <path d="M0.046,-0.368C0.046,-0.298 0.09,-0.252 0.18,-0.229L0.269,-0.207C0.326,-0.191 0.347,-0.172 0.347,-0.136C0.347,-0.09 0.305,-0.061 0.236,-0.061C0.167,-0.061 0.127,-0.089 0.118,-0.142L0.033,-0.142C0.042,-0.052 0.119,0.009 0.23,0.009C0.349,0.009 0.433,-0.054 0.433,-0.142C0.433,-0.217 0.396,-0.254 0.293,-0.28L0.214,-0.299C0.157,-0.313 0.13,-0.337 0.13,-0.372C0.13,-0.417 0.171,-0.447 0.233,-0.447C0.295,-0.447 0.335,-0.417 0.341,-0.368L0.422,-0.368C0.418,-0.454 0.341,-0.517 0.236,-0.517C0.124,-0.517 0.046,-0.455 0.046,-0.368Z" style="fill:rgb(35,31,32);fill-rule:nonzero;"/>
                </g>
                <g transform="matrix(150,0,0,150,231.553,773.967)">
                    <path d="M0.266,0.009C0.406,0.009 0.5,-0.092 0.5,-0.254C0.5,-0.416 0.406,-0.517 0.266,-0.517C0.125,-0.517 0.03,-0.416 0.03,-0.254C0.03,-0.092 0.125,0.009 0.266,0.009ZM0.266,-0.066C0.176,-0.066 0.117,-0.134 0.117,-0.254C0.117,-0.374 0.176,-0.442 0.266,-0.442C0.355,-0.442 0.414,-0.374 0.414,-0.254C0.414,-0.134 0.355,-0.066 0.266,-0.066Z" style="fill:rgb(35,31,32);fill-rule:nonzero;"/>
                </g>
                <g transform="matrix(150,0,0,150,311.167,773.967)">
                    <path d="M0.472,-0.508L0.387,-0.508L0.387,-0.209C0.387,-0.123 0.337,-0.066 0.255,-0.066C0.176,-0.066 0.138,-0.111 0.138,-0.193L0.138,-0.508L0.053,-0.508L0.053,-0.178C0.053,-0.063 0.118,0.009 0.229,0.009C0.307,0.009 0.359,-0.024 0.39,-0.083L0.392,-0.083L0.392,0L0.472,0L0.472,-0.508Z" style="fill:rgb(35,31,32);fill-rule:nonzero;"/>
                </g>
                <g transform="matrix(150,0,0,150,390.195,773.967)">
                    <path d="M0.055,0L0.14,0L0.14,-0.316C0.14,-0.388 0.183,-0.436 0.249,-0.436C0.27,-0.436 0.288,-0.433 0.294,-0.431L0.294,-0.513C0.288,-0.514 0.275,-0.517 0.26,-0.517C0.201,-0.517 0.154,-0.481 0.137,-0.425L0.135,-0.425L0.135,-0.508L0.055,-0.508L0.055,0Z" style="fill:rgb(35,31,32);fill-rule:nonzero;"/>
                </g>
                <g transform="matrix(150,0,0,150,432.749,773.967)">
                    <path d="M0.477,-0.341C0.466,-0.433 0.391,-0.517 0.264,-0.517C0.124,-0.517 0.03,-0.414 0.03,-0.254C0.03,-0.09 0.124,0.009 0.265,0.009C0.38,0.009 0.465,-0.063 0.478,-0.164L0.395,-0.164C0.38,-0.103 0.334,-0.066 0.265,-0.066C0.177,-0.066 0.117,-0.136 0.117,-0.254C0.117,-0.369 0.176,-0.442 0.264,-0.442C0.339,-0.442 0.382,-0.396 0.394,-0.341L0.477,-0.341Z" style="fill:rgb(35,31,32);fill-rule:nonzero;"/>
                </g>
                <g transform="matrix(150,0,0,150,507.895,773.967)">
                    <path d="M0.259,-0.443C0.339,-0.443 0.392,-0.382 0.394,-0.297L0.118,-0.297C0.124,-0.382 0.179,-0.443 0.259,-0.443ZM0.392,-0.146C0.378,-0.098 0.331,-0.065 0.266,-0.065C0.175,-0.065 0.118,-0.129 0.118,-0.226L0.118,-0.231L0.482,-0.231L0.482,-0.263C0.482,-0.417 0.397,-0.517 0.26,-0.517C0.12,-0.517 0.03,-0.41 0.03,-0.252C0.03,-0.092 0.119,0.009 0.264,0.009C0.375,0.009 0.461,-0.057 0.476,-0.146L0.392,-0.146Z" style="fill:rgb(35,31,32);fill-rule:nonzero;"/>
                </g>
                <g transform="matrix(150,0,0,150,615.488,773.967)">
                    <path d="M0.477,-0.341C0.466,-0.433 0.391,-0.517 0.264,-0.517C0.124,-0.517 0.03,-0.414 0.03,-0.254C0.03,-0.09 0.124,0.009 0.265,0.009C0.38,0.009 0.465,-0.063 0.478,-0.164L0.395,-0.164C0.38,-0.103 0.334,-0.066 0.265,-0.066C0.177,-0.066 0.117,-0.136 0.117,-0.254C0.117,-0.369 0.176,-0.442 0.264,-0.442C0.339,-0.442 0.382,-0.396 0.394,-0.341L0.477,-0.341Z" style="fill:rgb(35,31,32);fill-rule:nonzero;"/>
                </g>
                <g transform="matrix(150,0,0,150,690.635,773.967)">
                    <path d="M0.266,0.009C0.406,0.009 0.5,-0.092 0.5,-0.254C0.5,-0.416 0.406,-0.517 0.266,-0.517C0.125,-0.517 0.03,-0.416 0.03,-0.254C0.03,-0.092 0.125,0.009 0.266,0.009ZM0.266,-0.066C0.176,-0.066 0.117,-0.134 0.117,-0.254C0.117,-0.374 0.176,-0.442 0.266,-0.442C0.355,-0.442 0.414,-0.374 0.414,-0.254C0.414,-0.134 0.355,-0.066 0.266,-0.066Z" style="fill:rgb(35,31,32);fill-rule:nonzero;"/>
                </g>
                <g transform="matrix(150,0,0,150,770.249,773.967)">
                    <path d="M0.248,0.009C0.321,0.009 0.379,-0.027 0.412,-0.086L0.413,-0.086L0.413,0L0.494,0L0.494,-0.705L0.409,-0.705L0.409,-0.425L0.407,-0.425C0.377,-0.481 0.318,-0.517 0.246,-0.517C0.118,-0.517 0.03,-0.413 0.03,-0.254C0.03,-0.095 0.118,0.009 0.248,0.009ZM0.264,-0.442C0.351,-0.442 0.41,-0.367 0.41,-0.254C0.41,-0.14 0.351,-0.066 0.264,-0.066C0.174,-0.066 0.117,-0.139 0.117,-0.254C0.117,-0.369 0.174,-0.442 0.264,-0.442Z" style="fill:rgb(35,31,32);fill-rule:nonzero;"/>
                </g>
                <g transform="matrix(150,0,0,150,853.306,773.967)">
                    <path d="M0.259,-0.443C0.339,-0.443 0.392,-0.382 0.394,-0.297L0.118,-0.297C0.124,-0.382 0.179,-0.443 0.259,-0.443ZM0.392,-0.146C0.378,-0.098 0.331,-0.065 0.266,-0.065C0.175,-0.065 0.118,-0.129 0.118,-0.226L0.118,-0.231L0.482,-0.231L0.482,-0.263C0.482,-0.417 0.397,-0.517 0.26,-0.517C0.12,-0.517 0.03,-0.41 0.03,-0.252C0.03,-0.092 0.119,0.009 0.264,0.009C0.375,0.009 0.461,-0.057 0.476,-0.146L0.392,-0.146Z" style="fill:rgb(35,31,32);fill-rule:nonzero;"/>
                </g>
            </g>
        </g>
        <g transform="matrix(1,0,0,1,332.092,0)">
            <g transform="matrix(1,0,0,1,2679,-14.4279)">
                <rect x="72.545" y="159.902" width="1062.38" height="1659.05" style="fill:rgb(183,149,249);"/>
            </g>
            <g transform="matrix(1,0,0,1,2618.66,243.002)">
                <g transform="matrix(150,0,0,150,161.753,423.967)">
                    <path d="M0.059,-0.705L0.059,0L0.328,0C0.539,0 0.664,-0.131 0.664,-0.355C0.664,-0.579 0.539,-0.705 0.328,-0.705L0.059,-0.705ZM0.206,-0.583L0.31,-0.583C0.44,-0.583 0.513,-0.502 0.513,-0.354C0.513,-0.202 0.442,-0.122 0.31,-0.122L0.206,-0.122L0.206,-0.583Z" style="fill:rgb(35,31,32);fill-rule:nonzero;"/>
                </g>
                <g transform="matrix(150,0,0,150,266.709,423.967)">
                    <path d="M0.281,-0.429C0.345,-0.429 0.388,-0.383 0.391,-0.316L0.169,-0.316C0.174,-0.382 0.219,-0.429 0.281,-0.429ZM0.393,-0.16C0.38,-0.12 0.34,-0.094 0.288,-0.094C0.215,-0.094 0.167,-0.146 0.167,-0.22L0.167,-0.229L0.528,-0.229L0.528,-0.272C0.528,-0.432 0.432,-0.535 0.28,-0.535C0.125,-0.535 0.027,-0.426 0.027,-0.259C0.027,-0.092 0.124,0.011 0.285,0.011C0.415,0.011 0.508,-0.058 0.524,-0.16L0.393,-0.16Z" style="fill:rgb(35,31,32);fill-rule:nonzero;"/>
                </g>
                <g transform="matrix(150,0,0,150,349.985,423.967)">
                    <path d="M0.352,-0.532C0.276,-0.532 0.218,-0.494 0.19,-0.432L0.187,-0.432L0.187,-0.523L0.046,-0.523L0.046,0.171L0.189,0.171L0.189,-0.088L0.192,-0.088C0.22,-0.029 0.278,0.008 0.354,0.008C0.485,0.008 0.566,-0.093 0.566,-0.262C0.566,-0.431 0.485,-0.532 0.352,-0.532ZM0.304,-0.106C0.234,-0.106 0.188,-0.167 0.188,-0.262C0.188,-0.355 0.234,-0.417 0.304,-0.417C0.375,-0.417 0.42,-0.356 0.42,-0.262C0.42,-0.167 0.375,-0.106 0.304,-0.106Z" style="fill:rgb(35,31,32);fill-rule:nonzero;"/>
                </g>
                <g transform="matrix(150,0,0,150,438.975,423.967)">
                    <rect x="0.05" y="-0.705" width="0.143" height="0.705" style="fill:rgb(35,31,32);fill-rule:nonzero;"/>
                </g>
                <g transform="matrix(150,0,0,150,475.303,423.967)">
                    <path d="M0.287,0.011C0.445,0.011 0.546,-0.09 0.546,-0.262C0.546,-0.432 0.443,-0.535 0.287,-0.535C0.13,-0.535 0.027,-0.432 0.027,-0.262C0.027,-0.09 0.128,0.011 0.287,0.011ZM0.287,-0.098C0.216,-0.098 0.172,-0.157 0.172,-0.262C0.172,-0.366 0.217,-0.426 0.287,-0.426C0.356,-0.426 0.401,-0.366 0.401,-0.262C0.401,-0.157 0.356,-0.098 0.287,-0.098Z" style="fill:rgb(35,31,32);fill-rule:nonzero;"/>
                </g>
                <g transform="matrix(150,0,0,150,559.385,423.967)">
                    <path d="M0.113,0.194C0.247,0.194 0.313,0.146 0.357,0.012L0.538,-0.523L0.387,-0.523L0.276,-0.114L0.273,-0.114L0.162,-0.523L0.005,-0.523L0.188,0C0.188,0.002 0.183,0.023 0.183,0.025C0.173,0.067 0.147,0.083 0.095,0.083C0.09,0.083 0.064,0.083 0.06,0.083L0.06,0.192C0.064,0.193 0.108,0.194 0.113,0.194Z" style="fill:rgb(35,31,32);fill-rule:nonzero;"/>
                </g>
                <g transform="matrix(150,0,0,150,640.83,423.967)">
                    <path d="M0.046,0L0.189,0L0.189,-0.316C0.189,-0.375 0.226,-0.416 0.28,-0.416C0.333,-0.416 0.364,-0.382 0.364,-0.326L0.364,0L0.501,0L0.501,-0.318C0.501,-0.376 0.537,-0.416 0.591,-0.416C0.646,-0.416 0.677,-0.382 0.677,-0.322L0.677,0L0.819,0L0.819,-0.357C0.819,-0.463 0.75,-0.533 0.648,-0.533C0.571,-0.533 0.509,-0.492 0.485,-0.426L0.482,-0.426C0.465,-0.494 0.412,-0.533 0.336,-0.533C0.265,-0.533 0.209,-0.492 0.187,-0.429L0.184,-0.429L0.184,-0.523L0.046,-0.523L0.046,0Z" style="fill:rgb(35,31,32);fill-rule:nonzero;"/>
                </g>
                <g transform="matrix(150,0,0,150,770.322,423.967)">
                    <path d="M0.281,-0.429C0.345,-0.429 0.388,-0.383 0.391,-0.316L0.169,-0.316C0.174,-0.382 0.219,-0.429 0.281,-0.429ZM0.393,-0.16C0.38,-0.12 0.34,-0.094 0.288,-0.094C0.215,-0.094 0.167,-0.146 0.167,-0.22L0.167,-0.229L0.528,-0.229L0.528,-0.272C0.528,-0.432 0.432,-0.535 0.28,-0.535C0.125,-0.535 0.027,-0.426 0.027,-0.259C0.027,-0.092 0.124,0.011 0.285,0.011C0.415,0.011 0.508,-0.058 0.524,-0.16L0.393,-0.16Z" style="fill:rgb(35,31,32);fill-rule:nonzero;"/>
                </g>
                <g transform="matrix(150,0,0,150,853.599,423.967)">
                    <path d="M0.046,0L0.189,0L0.189,-0.3C0.189,-0.368 0.229,-0.415 0.293,-0.415C0.357,-0.415 0.39,-0.376 0.39,-0.308L0.39,0L0.532,0L0.532,-0.337C0.532,-0.46 0.467,-0.533 0.351,-0.533C0.27,-0.533 0.215,-0.495 0.187,-0.43L0.184,-0.43L0.184,-0.523L0.046,-0.523L0.046,0Z" style="fill:rgb(35,31,32);fill-rule:nonzero;"/>
                </g>
                <g transform="matrix(150,0,0,150,940.024,423.967)">
                    <path d="M0.084,-0.644L0.084,-0.523L0.011,-0.523L0.011,-0.416L0.084,-0.416L0.084,-0.141C0.084,-0.039 0.132,0.002 0.255,0.002C0.284,0.002 0.309,0 0.323,-0.004L0.323,-0.109C0.314,-0.107 0.301,-0.106 0.289,-0.106C0.247,-0.106 0.227,-0.125 0.227,-0.166L0.227,-0.416L0.324,-0.416L0.324,-0.523L0.227,-0.523L0.227,-0.644L0.084,-0.644Z" style="fill:rgb(35,31,32);fill-rule:nonzero;"/>
                </g>
                <g transform="matrix(150,0,0,150,161.753,623.967)">
                    <path d="M0.068,-0.705L0.068,0L0.305,0C0.515,0 0.638,-0.13 0.638,-0.353C0.638,-0.574 0.514,-0.705 0.305,-0.705L0.068,-0.705ZM0.156,-0.625L0.299,-0.625C0.459,-0.625 0.548,-0.528 0.548,-0.352C0.548,-0.177 0.459,-0.079 0.299,-0.079L0.156,-0.079L0.156,-0.625Z" style="fill:rgb(35,31,32);fill-rule:nonzero;"/>
                </g>
                <g transform="matrix(150,0,0,150,263.486,623.967)">
                    <path d="M0.259,-0.443C0.339,-0.443 0.392,-0.382 0.394,-0.297L0.118,-0.297C0.124,-0.382 0.179,-0.443 0.259,-0.443ZM0.392,-0.146C0.378,-0.098 0.331,-0.065 0.266,-0.065C0.175,-0.065 0.118,-0.129 0.118,-0.226L0.118,-0.231L0.482,-0.231L0.482,-0.263C0.482,-0.417 0.397,-0.517 0.26,-0.517C0.12,-0.517 0.03,-0.41 0.03,-0.252C0.03,-0.092 0.119,0.009 0.264,0.009C0.375,0.009 0.461,-0.057 0.476,-0.146L0.392,-0.146Z" style="fill:rgb(35,31,32);fill-rule:nonzero;"/>
                </g>
                <g transform="matrix(150,0,0,150,340.317,623.967)">
                    <path d="M0.302,-0.517C0.228,-0.517 0.169,-0.479 0.138,-0.422L0.136,-0.422L0.136,-0.508L0.055,-0.508L0.055,0.169L0.14,0.169L0.14,-0.083L0.142,-0.083C0.172,-0.027 0.231,0.009 0.304,0.009C0.432,0.009 0.519,-0.095 0.519,-0.254C0.519,-0.413 0.431,-0.517 0.302,-0.517ZM0.285,-0.066C0.198,-0.066 0.14,-0.141 0.14,-0.254C0.14,-0.367 0.198,-0.442 0.285,-0.442C0.375,-0.442 0.432,-0.369 0.432,-0.254C0.432,-0.139 0.375,-0.066 0.285,-0.066Z" style="fill:rgb(35,31,32);fill-rule:nonzero;"/>
                </g>
                <g transform="matrix(150,0,0,150,422.715,623.967)">
                    <rect x="0.06" y="-0.705" width="0.085" height="0.705" style="fill:rgb(35,31,32);fill-rule:nonzero;"/>
                </g>
                <g transform="matrix(150,0,0,150,453.33,623.967)">
                    <path d="M0.266,0.009C0.406,0.009 0.5,-0.092 0.5,-0.254C0.5,-0.416 0.406,-0.517 0.266,-0.517C0.125,-0.517 0.03,-0.416 0.03,-0.254C0.03,-0.092 0.125,0.009 0.266,0.009ZM0.266,-0.066C0.176,-0.066 0.117,-0.134 0.117,-0.254C0.117,-0.374 0.176,-0.442 0.266,-0.442C0.355,-0.442 0.414,-0.374 0.414,-0.254C0.414,-0.134 0.355,-0.066 0.266,-0.066Z" style="fill:rgb(35,31,32);fill-rule:nonzero;"/>
                </g>
                <g transform="matrix(150,0,0,150,530.747,623.967)">
                    <path d="M0.097,0.19C0.189,0.19 0.231,0.154 0.274,0.036L0.474,-0.508L0.385,-0.508L0.244,-0.085L0.243,-0.085L0.102,-0.508L0.011,-0.508L0.199,0L0.187,0.036C0.167,0.095 0.141,0.118 0.094,0.118C0.083,0.118 0.07,0.118 0.061,0.116L0.061,0.187C0.07,0.189 0.087,0.19 0.097,0.19Z" style="fill:rgb(35,31,32);fill-rule:nonzero;"/>
                </g>
                <g transform="matrix(150,0,0,150,634.385,623.967)">
                    <path d="M0.266,0.009C0.406,0.009 0.5,-0.092 0.5,-0.254C0.5,-0.416 0.406,-0.517 0.266,-0.517C0.125,-0.517 0.03,-0.416 0.03,-0.254C0.03,-0.092 0.125,0.009 0.266,0.009ZM0.266,-0.066C0.176,-0.066 0.117,-0.134 0.117,-0.254C0.117,-0.374 0.176,-0.442 0.266,-0.442C0.355,-0.442 0.414,-0.374 0.414,-0.254C0.414,-0.134 0.355,-0.066 0.266,-0.066Z" style="fill:rgb(35,31,32);fill-rule:nonzero;"/>
                </g>
                <g transform="matrix(150,0,0,150,713.999,623.967)">
                    <path d="M0.055,0L0.14,0L0.14,-0.299C0.14,-0.385 0.192,-0.441 0.272,-0.441C0.351,-0.441 0.389,-0.396 0.389,-0.314L0.389,0L0.474,0L0.474,-0.33C0.474,-0.445 0.41,-0.517 0.298,-0.517C0.22,-0.517 0.166,-0.481 0.137,-0.427L0.135,-0.427L0.135,-0.508L0.055,-0.508L0.055,0Z" style="fill:rgb(35,31,32);fill-rule:nonzero;"/>
                </g>
                <g transform="matrix(150,0,0,150,161.753,773.967)">
                    <path d="M0.334,0C0.484,0 0.573,-0.074 0.573,-0.198C0.573,-0.292 0.512,-0.359 0.416,-0.371L0.416,-0.375C0.484,-0.387 0.538,-0.456 0.538,-0.529C0.538,-0.634 0.456,-0.705 0.335,-0.705L0.068,-0.705L0.068,0L0.334,0ZM0.156,-0.627L0.315,-0.627C0.401,-0.627 0.449,-0.588 0.449,-0.519C0.449,-0.442 0.392,-0.401 0.288,-0.401L0.156,-0.401L0.156,-0.627ZM0.156,-0.078L0.156,-0.325L0.313,-0.325C0.425,-0.325 0.483,-0.284 0.483,-0.202C0.483,-0.121 0.427,-0.078 0.321,-0.078L0.156,-0.078Z" style="fill:rgb(35,31,32);fill-rule:nonzero;"/>
                </g>
                <g transform="matrix(150,0,0,150,252.427,773.967)">
                    <path d="M0.06,0L0.145,0L0.145,-0.508L0.06,-0.508L0.06,0ZM0.102,-0.593C0.131,-0.593 0.155,-0.617 0.155,-0.646C0.155,-0.675 0.131,-0.699 0.102,-0.699C0.073,-0.699 0.049,-0.675 0.049,-0.646C0.049,-0.617 0.073,-0.593 0.102,-0.593Z" style="fill:rgb(35,31,32);fill-rule:nonzero;"/>
                </g>
                <g transform="matrix(150,0,0,150,283.042,773.967)">
                    <path d="M0.046,-0.368C0.046,-0.298 0.09,-0.252 0.18,-0.229L0.269,-0.207C0.326,-0.191 0.347,-0.172 0.347,-0.136C0.347,-0.09 0.305,-0.061 0.236,-0.061C0.167,-0.061 0.127,-0.089 0.118,-0.142L0.033,-0.142C0.042,-0.052 0.119,0.009 0.23,0.009C0.349,0.009 0.433,-0.054 0.433,-0.142C0.433,-0.217 0.396,-0.254 0.293,-0.28L0.214,-0.299C0.157,-0.313 0.13,-0.337 0.13,-0.372C0.13,-0.417 0.171,-0.447 0.233,-0.447C0.295,-0.447 0.335,-0.417 0.341,-0.368L0.422,-0.368C0.418,-0.454 0.341,-0.517 0.236,-0.517C0.124,-0.517 0.046,-0.455 0.046,-0.368Z" style="fill:rgb(35,31,32);fill-rule:nonzero;"/>
                </g>
                <g transform="matrix(150,0,0,150,352.842,773.967)">
                    <path d="M0.366,0.012C0.412,0.012 0.454,0.004 0.492,-0.01L0.557,0.08L0.656,0.08L0.563,-0.049C0.644,-0.11 0.69,-0.216 0.69,-0.352C0.69,-0.576 0.565,-0.716 0.366,-0.716C0.166,-0.716 0.041,-0.576 0.041,-0.352C0.041,-0.128 0.166,0.012 0.366,0.012ZM0.366,-0.069C0.222,-0.069 0.131,-0.179 0.131,-0.352C0.131,-0.526 0.222,-0.635 0.366,-0.635C0.51,-0.635 0.6,-0.526 0.6,-0.352C0.6,-0.249 0.568,-0.167 0.511,-0.12L0.451,-0.202L0.353,-0.202L0.44,-0.081C0.417,-0.073 0.393,-0.069 0.366,-0.069Z" style="fill:rgb(35,31,32);fill-rule:nonzero;"/>
                </g>
                <g transform="matrix(150,0,0,150,462.558,773.967)">
                    <path d="M0.472,-0.508L0.387,-0.508L0.387,-0.209C0.387,-0.123 0.337,-0.066 0.255,-0.066C0.176,-0.066 0.138,-0.111 0.138,-0.193L0.138,-0.508L0.053,-0.508L0.053,-0.178C0.053,-0.063 0.118,0.009 0.229,0.009C0.307,0.009 0.359,-0.024 0.39,-0.083L0.392,-0.083L0.392,0L0.472,0L0.472,-0.508Z" style="fill:rgb(35,31,32);fill-rule:nonzero;"/>
                </g>
                <g transform="matrix(150,0,0,150,541.587,773.967)">
                    <path d="M0.259,-0.443C0.339,-0.443 0.392,-0.382 0.394,-0.297L0.118,-0.297C0.124,-0.382 0.179,-0.443 0.259,-0.443ZM0.392,-0.146C0.378,-0.098 0.331,-0.065 0.266,-0.065C0.175,-0.065 0.118,-0.129 0.118,-0.226L0.118,-0.231L0.482,-0.231L0.482,-0.263C0.482,-0.417 0.397,-0.517 0.26,-0.517C0.12,-0.517 0.03,-0.41 0.03,-0.252C0.03,-0.092 0.119,0.009 0.264,0.009C0.375,0.009 0.461,-0.057 0.476,-0.146L0.392,-0.146Z" style="fill:rgb(35,31,32);fill-rule:nonzero;"/>
                </g>
                <g transform="matrix(150,0,0,150,161.753,923.967)">
                    <path d="M0.068,-0.705L0.068,0L0.156,0L0.156,-0.251L0.319,-0.251C0.451,-0.251 0.545,-0.345 0.545,-0.479C0.545,-0.612 0.452,-0.705 0.32,-0.705L0.068,-0.705ZM0.156,-0.626L0.297,-0.626C0.398,-0.626 0.455,-0.572 0.455,-0.479C0.455,-0.385 0.397,-0.33 0.297,-0.33L0.156,-0.33L0.156,-0.626Z" style="fill:rgb(35,31,32);fill-rule:nonzero;"/>
                </g>
                <g transform="matrix(150,0,0,150,248.398,923.967)">
                    <rect x="0.06" y="-0.705" width="0.085" height="0.705" style="fill:rgb(35,31,32);fill-rule:nonzero;"/>
                </g>
                <g transform="matrix(150,0,0,150,279.014,923.967)">
                    <path d="M0.223,-0.063C0.162,-0.063 0.121,-0.095 0.121,-0.144C0.121,-0.191 0.16,-0.222 0.229,-0.226L0.364,-0.234L0.364,-0.193C0.364,-0.12 0.303,-0.063 0.223,-0.063ZM0.204,0.009C0.272,0.009 0.336,-0.029 0.367,-0.087L0.369,-0.087L0.369,0L0.449,0L0.449,-0.351C0.449,-0.452 0.374,-0.517 0.255,-0.517C0.135,-0.517 0.06,-0.449 0.054,-0.361L0.136,-0.361C0.146,-0.411 0.188,-0.442 0.253,-0.442C0.323,-0.442 0.364,-0.405 0.364,-0.343L0.364,-0.3L0.219,-0.292C0.102,-0.285 0.035,-0.23 0.035,-0.144C0.035,-0.052 0.103,0.009 0.204,0.009Z" style="fill:rgb(35,31,32);fill-rule:nonzero;"/>
                </g>
                <g transform="matrix(150,0,0,150,354.307,923.967)">
                    <path d="M0.083,-0.63L0.083,-0.508L0.007,-0.508L0.007,-0.438L0.083,-0.438L0.083,-0.132C0.083,-0.034 0.119,0.004 0.212,0.004C0.232,0.004 0.255,0.002 0.266,0L0.266,-0.071C0.26,-0.07 0.24,-0.069 0.23,-0.069C0.187,-0.069 0.167,-0.09 0.167,-0.136L0.167,-0.438L0.266,-0.438L0.266,-0.508L0.167,-0.508L0.167,-0.63L0.083,-0.63Z" style="fill:rgb(35,31,32);fill-rule:nonzero;"/>
                </g>
                <g transform="matrix(150,0,0,150,399.497,923.967)">
                    <path d="M0.083,0L0.167,0L0.167,-0.438L0.271,-0.438L0.271,-0.508L0.167,-0.508L0.167,-0.564C0.167,-0.614 0.189,-0.639 0.235,-0.639C0.249,-0.639 0.263,-0.637 0.273,-0.636L0.273,-0.705C0.261,-0.707 0.241,-0.708 0.222,-0.708C0.128,-0.708 0.083,-0.662 0.083,-0.564L0.083,-0.508L0.012,-0.508L0.012,-0.438L0.083,-0.438L0.083,0Z" style="fill:rgb(35,31,32);fill-rule:nonzero;"/>
                </g>
                <g transform="matrix(150,0,0,150,441.392,923.967)">
                    <path d="M0.266,0.009C0.406,0.009 0.5,-0.092 0.5,-0.254C0.5,-0.416 0.406,-0.517 0.266,-0.517C0.125,-0.517 0.03,-0.416 0.03,-0.254C0.03,-0.092 0.125,0.009 0.266,0.009ZM0.266,-0.066C0.176,-0.066 0.117,-0.134 0.117,-0.254C0.117,-0.374 0.176,-0.442 0.266,-0.442C0.355,-0.442 0.414,-0.374 0.414,-0.254C0.414,-0.134 0.355,-0.066 0.266,-0.066Z" style="fill:rgb(35,31,32);fill-rule:nonzero;"/>
                </g>
                <g transform="matrix(150,0,0,150,521.006,923.967)">
                    <path d="M0.055,0L0.14,0L0.14,-0.316C0.14,-0.388 0.183,-0.436 0.249,-0.436C0.27,-0.436 0.288,-0.433 0.294,-0.431L0.294,-0.513C0.288,-0.514 0.275,-0.517 0.26,-0.517C0.201,-0.517 0.154,-0.481 0.137,-0.425L0.135,-0.425L0.135,-0.508L0.055,-0.508L0.055,0Z" style="fill:rgb(35,31,32);fill-rule:nonzero;"/>
                </g>
                <g transform="matrix(150,0,0,150,567.222,923.967)">
                    <path d="M0.055,0L0.14,0L0.14,-0.318C0.14,-0.389 0.189,-0.441 0.256,-0.441C0.319,-0.441 0.36,-0.401 0.36,-0.34L0.36,0L0.445,0L0.445,-0.323C0.445,-0.392 0.493,-0.441 0.56,-0.441C0.627,-0.441 0.666,-0.4 0.666,-0.331L0.666,0L0.75,0L0.75,-0.351C0.75,-0.451 0.686,-0.517 0.585,-0.517C0.514,-0.517 0.454,-0.48 0.426,-0.42L0.424,-0.42C0.402,-0.481 0.351,-0.517 0.281,-0.517C0.213,-0.517 0.161,-0.48 0.137,-0.427L0.135,-0.427L0.135,-0.508L0.055,-0.508L0.055,0Z" style="fill:rgb(35,31,32);fill-rule:nonzero;"/>
                </g>
                <g transform="matrix(150,0,0,150,718.467,923.967)">
                    <path d="M0.472,-0.508L0.387,-0.508L0.387,-0.209C0.387,-0.123 0.337,-0.066 0.255,-0.066C0.176,-0.066 0.138,-0.111 0.138,-0.193L0.138,-0.508L0.053,-0.508L0.053,-0.178C0.053,-0.063 0.118,0.009 0.229,0.009C0.307,0.009 0.359,-0.024 0.39,-0.083L0.392,-0.083L0.392,0L0.472,0L0.472,-0.508Z" style="fill:rgb(35,31,32);fill-rule:nonzero;"/>
                </g>
                <g transform="matrix(150,0,0,150,797.495,923.967)">
                    <path d="M0.046,-0.368C0.046,-0.298 0.09,-0.252 0.18,-0.229L0.269,-0.207C0.326,-0.191 0.347,-0.172 0.347,-0.136C0.347,-0.09 0.305,-0.061 0.236,-0.061C0.167,-0.061 0.127,-0.089 0.118,-0.142L0.033,-0.142C0.042,-0.052 0.119,0.009 0.23,0.009C0.349,0.009 0.433,-0.054 0.433,-0.142C0.433,-0.217 0.396,-0.254 0.293,-0.28L0.214,-0.299C0.157,-0.313 0.13,-0.337 0.13,-0.372C0.13,-0.417 0.171,-0.447 0.233,-0.447C0.295,-0.447 0.335,-0.417 0.341,-0.368L0.422,-0.368C0.418,-0.454 0.341,-0.517 0.236,-0.517C0.124,-0.517 0.046,-0.455 0.046,-0.368Z" style="fill:rgb(35,31,32);fill-rule:nonzero;"/>
                </g>
                <g transform="matrix(150,0,0,150,867.295,923.967)">
                    <path d="M0.06,0L0.145,0L0.145,-0.508L0.06,-0.508L0.06,0ZM0.102,-0.593C0.131,-0.593 0.155,-0.617 0.155,-0.646C0.155,-0.675 0.131,-0.699 0.102,-0.699C0.073,-0.699 0.049,-0.675 0.049,-0.646C0.049,-0.617 0.073,-0.593 0.102,-0.593Z" style="fill:rgb(35,31,32);fill-rule:nonzero;"/>
                </g>
                <g transform="matrix(150,0,0,150,897.91,923.967)">
                    <path d="M0.055,0L0.14,0L0.14,-0.299C0.14,-0.385 0.192,-0.441 0.272,-0.441C0.351,-0.441 0.389,-0.396 0.389,-0.314L0.389,0L0.474,0L0.474,-0.33C0.474,-0.445 0.41,-0.517 0.298,-0.517C0.22,-0.517 0.166,-0.481 0.137,-0.427L0.135,-0.427L0.135,-0.508L0.055,-0.508L0.055,0Z" style="fill:rgb(35,31,32);fill-rule:nonzero;"/>
                </g>
                <g transform="matrix(150,0,0,150,976.938,923.967)">
                    <path d="M0.262,-0.071C0.174,-0.071 0.117,-0.142 0.117,-0.256C0.117,-0.37 0.174,-0.442 0.262,-0.442C0.35,-0.442 0.409,-0.368 0.409,-0.256C0.409,-0.144 0.35,-0.071 0.262,-0.071ZM0.265,0.191C0.405,0.191 0.494,0.111 0.494,-0.01L0.494,-0.508L0.413,-0.508L0.413,-0.422L0.412,-0.422C0.378,-0.481 0.318,-0.517 0.247,-0.517C0.115,-0.517 0.03,-0.415 0.03,-0.256C0.03,-0.098 0.115,0.004 0.245,0.004C0.316,0.004 0.376,-0.032 0.407,-0.087L0.409,-0.087L0.409,-0.007C0.409,0.068 0.356,0.119 0.268,0.119C0.205,0.119 0.154,0.088 0.138,0.042L0.05,0.042C0.064,0.128 0.153,0.191 0.265,0.191Z" style="fill:rgb(35,31,32);fill-rule:nonzero;"/>
                </g>
                <g transform="matrix(150,0,0,150,161.753,1073.97)">
                    <path d="M0.663,-0.292L0.663,-0.358L0.376,-0.358L0.376,-0.281L0.575,-0.281L0.575,-0.269C0.575,-0.15 0.489,-0.069 0.364,-0.069C0.22,-0.069 0.131,-0.179 0.131,-0.356C0.131,-0.531 0.219,-0.635 0.364,-0.635C0.463,-0.635 0.537,-0.581 0.566,-0.486L0.658,-0.486C0.632,-0.626 0.516,-0.716 0.364,-0.716C0.167,-0.716 0.041,-0.576 0.041,-0.356C0.041,-0.132 0.167,0.012 0.364,0.012C0.552,0.012 0.663,-0.101 0.663,-0.292Z" style="fill:rgb(35,31,32);fill-rule:nonzero;"/>
                </g>
                <g transform="matrix(150,0,0,150,267.734,1073.97)">
                    <path d="M0.068,-0.705L0.068,0L0.156,0L0.156,-0.251L0.319,-0.251C0.451,-0.251 0.545,-0.345 0.545,-0.479C0.545,-0.612 0.452,-0.705 0.32,-0.705L0.068,-0.705ZM0.156,-0.626L0.297,-0.626C0.398,-0.626 0.455,-0.572 0.455,-0.479C0.455,-0.385 0.397,-0.33 0.297,-0.33L0.156,-0.33L0.156,-0.626Z" style="fill:rgb(35,31,32);fill-rule:nonzero;"/>
                </g>
                <g transform="matrix(150,0,0,150,354.38,1073.97)">
                    <path d="M0.156,-0.705L0.068,-0.705L0.068,-0.247C0.068,-0.097 0.173,0.012 0.348,0.012C0.523,0.012 0.628,-0.097 0.628,-0.247L0.628,-0.705L0.54,-0.705L0.54,-0.253C0.54,-0.146 0.47,-0.069 0.348,-0.069C0.226,-0.069 0.156,-0.146 0.156,-0.253L0.156,-0.705Z" style="fill:rgb(35,31,32);fill-rule:nonzero;"/>
                </g>
                <g transform="matrix(150,0,0,150,489.585,1073.97)">
                    <path d="M0.763,0L0.763,-0.705L0.661,-0.705L0.417,-0.117L0.414,-0.117L0.17,-0.705L0.068,-0.705L0.068,0L0.15,0L0.15,-0.543L0.154,-0.543L0.378,-0.005L0.453,-0.005L0.677,-0.543L0.681,-0.543L0.681,0L0.763,0Z" style="fill:rgb(35,31,32);fill-rule:nonzero;"/>
                </g>
                <g transform="matrix(150,0,0,150,612.046,1073.97)">
                    <path d="M0.223,-0.063C0.162,-0.063 0.121,-0.095 0.121,-0.144C0.121,-0.191 0.16,-0.222 0.229,-0.226L0.364,-0.234L0.364,-0.193C0.364,-0.12 0.303,-0.063 0.223,-0.063ZM0.204,0.009C0.272,0.009 0.336,-0.029 0.367,-0.087L0.369,-0.087L0.369,0L0.449,0L0.449,-0.351C0.449,-0.452 0.374,-0.517 0.255,-0.517C0.135,-0.517 0.06,-0.449 0.054,-0.361L0.136,-0.361C0.146,-0.411 0.188,-0.442 0.253,-0.442C0.323,-0.442 0.364,-0.405 0.364,-0.343L0.364,-0.3L0.219,-0.292C0.102,-0.285 0.035,-0.23 0.035,-0.144C0.035,-0.052 0.103,0.009 0.204,0.009Z" style="fill:rgb(35,31,32);fill-rule:nonzero;"/>
                </g>
                <g transform="matrix(150,0,0,150,687.339,1073.97)">
                    <path d="M0.477,-0.341C0.466,-0.433 0.391,-0.517 0.264,-0.517C0.124,-0.517 0.03,-0.414 0.03,-0.254C0.03,-0.09 0.124,0.009 0.265,0.009C0.38,0.009 0.465,-0.063 0.478,-0.164L0.395,-0.164C0.38,-0.103 0.334,-0.066 0.265,-0.066C0.177,-0.066 0.117,-0.136 0.117,-0.254C0.117,-0.369 0.176,-0.442 0.264,-0.442C0.339,-0.442 0.382,-0.396 0.394,-0.341L0.477,-0.341Z" style="fill:rgb(35,31,32);fill-rule:nonzero;"/>
                </g>
                <g transform="matrix(150,0,0,150,762.485,1073.97)">
                    <path d="M0.06,0L0.145,0L0.145,-0.296C0.145,-0.384 0.197,-0.441 0.281,-0.441C0.361,-0.441 0.401,-0.393 0.401,-0.313L0.401,0L0.486,0L0.486,-0.328C0.486,-0.441 0.419,-0.517 0.308,-0.517C0.23,-0.517 0.175,-0.483 0.146,-0.427L0.145,-0.427L0.145,-0.705L0.06,-0.705L0.06,0Z" style="fill:rgb(35,31,32);fill-rule:nonzero;"/>
                </g>
                <g transform="matrix(150,0,0,150,843.345,1073.97)">
                    <path d="M0.06,0L0.145,0L0.145,-0.508L0.06,-0.508L0.06,0ZM0.102,-0.593C0.131,-0.593 0.155,-0.617 0.155,-0.646C0.155,-0.675 0.131,-0.699 0.102,-0.699C0.073,-0.699 0.049,-0.675 0.049,-0.646C0.049,-0.617 0.073,-0.593 0.102,-0.593Z" style="fill:rgb(35,31,32);fill-rule:nonzero;"/>
                </g>
                <g transform="matrix(150,0,0,150,873.96,1073.97)">
                    <path d="M0.055,0L0.14,0L0.14,-0.299C0.14,-0.385 0.192,-0.441 0.272,-0.441C0.351,-0.441 0.389,-0.396 0.389,-0.314L0.389,0L0.474,0L0.474,-0.33C0.474,-0.445 0.41,-0.517 0.298,-0.517C0.22,-0.517 0.166,-0.481 0.137,-0.427L0.135,-0.427L0.135,-0.508L0.055,-0.508L0.055,0Z" style="fill:rgb(35,31,32);fill-rule:nonzero;"/>
                </g>
                <g transform="matrix(150,0,0,150,952.988,1073.97)">
                    <path d="M0.259,-0.443C0.339,-0.443 0.392,-0.382 0.394,-0.297L0.118,-0.297C0.124,-0.382 0.179,-0.443 0.259,-0.443ZM0.392,-0.146C0.378,-0.098 0.331,-0.065 0.266,-0.065C0.175,-0.065 0.118,-0.129 0.118,-0.226L0.118,-0.231L0.482,-0.231L0.482,-0.263C0.482,-0.417 0.397,-0.517 0.26,-0.517C0.12,-0.517 0.03,-0.41 0.03,-0.252C0.03,-0.092 0.119,0.009 0.264,0.009C0.375,0.009 0.461,-0.057 0.476,-0.146L0.392,-0.146Z" style="fill:rgb(35,31,32);fill-rule:nonzero;"/>
                </g>
            </g>
        </g>
        <g transform="matrix(1.35876,0,0,2.19382,-366.42,-953.323)">
            <path d="M1148.05,893.774L1148.05,864.188L1283.78,864.188L1283.78,836.715L1352.02,878.981L1283.78,921.247L1283.78,893.774L1148.05,893.774Z" style="fill:rgb(237,81,183);"/>
        </g>
        <g transform="matrix(1.35876,0,0,2.19382,1171.27,-953.323)">
            <path d="M1148.05,893.774L1148.05,864.188L1283.78,864.188L1283.78,836.715L1352.02,878.981L1283.78,921.247L1283.78,893.774L1148.05,893.774Z" style="fill:rgb(237,81,183);"/>
        </g>
    </g>
</svg>
